<svg width="18" height="18" viewBox="0 0 18 18" fill="none" xmlns="http://www.w3.org/2000/svg">
<g id="Icon/Tab" clip-path="url(#clip0_2382_14323)">
<g id="Union">
<path d="M9.00004 6.46719L14.6201 1.5C15.9922 3.05243 15.846 5.42124 14.2935 6.79343C12.7409 8.16561 10.3721 8.01962 9.00004 6.46719Z" fill="#FDFDFF"/>
<path d="M9.00004 6.46719L8.66892 6.09254L8.29427 6.42366L8.62539 6.79831L9.00004 6.46719ZM14.6201 1.5L14.9948 1.16888L14.6636 0.794234L14.289 1.12536L14.6201 1.5ZM9.33116 6.84183L14.9512 1.87464L14.289 1.12536L8.66892 6.09254L9.33116 6.84183ZM14.2455 1.83112C15.4347 3.17662 15.308 5.22945 13.9624 6.41878L14.6246 7.16807C16.384 5.61304 16.5497 2.92825 14.9948 1.16888L14.2455 1.83112ZM13.9624 6.41878C12.6167 7.60812 10.5639 7.48156 9.37468 6.13607L8.62539 6.79831C10.1804 8.55768 12.8652 8.72311 14.6246 7.16807L13.9624 6.41878Z" fill="#8D8D9B"/>
</g>
<g id="Union_2">
<path d="M9.04342 6.46719L3.42334 1.5C2.05125 3.05243 2.19742 5.42124 3.74997 6.79343C5.30251 8.16561 7.67133 8.01962 9.04342 6.46719Z" fill="#FDFDFF"/>
<path d="M9.04342 6.46719L9.37454 6.09254L9.74918 6.42366L9.41806 6.79831L9.04342 6.46719ZM3.42334 1.5L3.0487 1.16888L3.37982 0.794234L3.75446 1.12536L3.42334 1.5ZM8.7123 6.84183L3.09222 1.87464L3.75446 1.12536L9.37454 6.09254L8.7123 6.84183ZM3.79798 1.83112C2.6088 3.17662 2.73543 5.22945 4.08109 6.41878L3.41885 7.16807C1.65941 5.61304 1.49371 2.92825 3.0487 1.16888L3.79798 1.83112ZM4.08109 6.41878C5.42675 7.60812 7.47958 7.48156 8.66877 6.13607L9.41806 6.79831C7.86308 8.55768 5.17828 8.72311 3.41885 7.16807L4.08109 6.41878Z" fill="#8D8D9B"/>
</g>
<rect id="Rectangle 110" x="15" y="4.5" width="11.25" height="12" rx="0.75" transform="rotate(90 15 4.5)" fill="#FDFDFF" stroke="#8D8D9B"/>
<rect id="Rectangle 114" x="3" y="12.75" width="12" height="4.5" rx="2.25" fill="#FDFDFF" stroke="#8D8D9B"/>
<circle id="Ellipse 3515" cx="7.5" cy="15" r="0.75" fill="#8D8D9B"/>
<circle id="Ellipse 3516" cx="10.5" cy="15" r="0.75" fill="#8D8D9B"/>
<path id="Rectangle 109" d="M15 5.25C16.2426 5.25 17.25 6.25736 17.25 7.5C17.25 8.74264 16.2426 9.75 15 9.75V5.25Z" fill="#FDFDFF" stroke="#8D8D9B"/>
<path id="Rectangle 115" d="M3 5.25C1.75736 5.25 0.75 6.25736 0.75 7.5C0.75 8.74264 1.75736 9.75 3 9.75V5.25Z" fill="#FDFDFF" stroke="#8D8D9B"/>
<circle id="Ellipse 3517" cx="5.25" cy="9" r="0.75" fill="#8D8D9B"/>
<circle id="Ellipse 3518" cx="12.75" cy="9" r="0.75" fill="#8D8D9B"/>
</g>
<defs>
<clipPath id="clip0_2382_14323">
<rect width="18" height="18" fill="white"/>
</clipPath>
</defs>
</svg>
