<svg width="32" height="32" viewBox="0 0 32 32" fill="none" xmlns="http://www.w3.org/2000/svg">
<g id="Frame 1321315803">
<circle id="Ellipse 3551" cx="16" cy="16" r="12" stroke="#171717" stroke-width="1.5"/>
<path id="Vector 1955" d="M15.25 8C15.25 8.41421 15.5858 8.75 16 8.75C16.4142 8.75 16.75 8.41421 16.75 8H15.25ZM15.25 4V8H16.75V4H15.25Z" fill="#171717"/>
<path id="Vector 1956" d="M16.75 24C16.75 23.5858 16.4142 23.25 16 23.25C15.5858 23.25 15.25 23.5858 15.25 24H16.75ZM15.25 24V28H16.75V24H15.25Z" fill="#171717"/>
<path id="Vector 1957" d="M8 16.75C8.41421 16.75 8.75 16.4142 8.75 16C8.75 15.5858 8.41421 15.25 8 15.25L8 16.75ZM8 15.25L4 15.25L4 16.75L8 16.75L8 15.25Z" fill="#171717"/>
<path id="Vector 1958" d="M24 15.25C23.5858 15.25 23.25 15.5858 23.25 16C23.25 16.4142 23.5858 16.75 24 16.75L24 15.25ZM28 15.25L24 15.25L24 16.75L28 16.75L28 15.25Z" fill="#171717"/>
<circle id="Ellipse 3552" cx="16" cy="16" r="2" fill="#171717"/>
</g>
</svg>
