<svg width="18" height="18" viewBox="0 0 18 18" fill="none" xmlns="http://www.w3.org/2000/svg">
<g id="Component 66">
<path id="Star 2" d="M8.08663 2.04906C8.43899 1.25857 9.56101 1.25857 9.91337 2.04906L11.2515 5.05105C11.3968 5.37709 11.7049 5.60093 12.0599 5.6384L15.3285 5.98338C16.1892 6.07422 16.5359 7.14132 15.893 7.72071L13.4514 9.92102C13.1863 10.16 13.0686 10.5222 13.1426 10.8714L13.8246 14.0866C14.0042 14.9332 13.0964 15.5927 12.3467 15.1603L9.49962 13.5182C9.19041 13.3398 8.80959 13.3398 8.50038 13.5182L5.65327 15.1603C4.90357 15.5927 3.99584 14.9332 4.17541 14.0866L4.85736 10.8714C4.93142 10.5222 4.81374 10.16 4.54857 9.92102L2.10702 7.72071C1.4641 7.14132 1.81082 6.07422 2.67151 5.98338L5.94008 5.6384C6.29507 5.60093 6.60316 5.37709 6.74849 5.05105L8.08663 2.04906Z" fill="#F9C00D"/>
</g>
</svg>
