<svg width="65" height="64" viewBox="0 0 65 64" fill="none" xmlns="http://www.w3.org/2000/svg">
<g id="Component 258">
<path id="Vector" d="M13.5561 7H51.1213M13.5561 7L5.76633 20.859C5.34586 21.6071 5.125 22.4508 5.125 23.3089V49.0466C5.125 49.5642 5.81487 49.7407 6.06351 49.2869L13.3424 36M13.5561 7V21.2516M51.1213 7L58.5363 20.8967C58.9228 21.6211 59.125 22.4295 59.125 23.2505V49.0466C59.125 49.5642 58.4352 49.7407 58.1865 49.2869L50.9076 36M51.1213 7V21.5702M32.125 46H37.125C38.2296 46 39.125 45.1046 39.125 44V36M32.125 46H27.125C26.0204 46 25.125 45.1046 25.125 44V36M32.125 46V51M32.125 51H31.125C30.0204 51 29.125 51.8955 29.125 53M32.125 51H33.125C34.2296 51 35.125 51.8955 35.125 53M25.125 36V31C25.125 29.8955 26.0204 29 27.125 29H37.125C38.2296 29 39.125 29.8955 39.125 31V36M25.125 36H8.125C6.77457 36 5.91754 34.5533 6.56636 33.369L12.7731 22.0391C12.9579 21.7019 13.2317 21.4318 13.5561 21.2516M39.125 36H56.125C57.4754 36 58.3325 34.5533 57.6836 33.369L51.4768 22.0391C51.3807 21.8636 51.2603 21.7062 51.1213 21.5702M13.5561 21.2516C13.8481 21.0894 14.1811 21 14.5272 21H49.7228C50.2532 21 50.753 21.21 51.1213 21.5702" stroke="#171717"/>
</g>
</svg>
