<svg width="44" height="44" viewBox="0 0 44 44" fill="none" xmlns="http://www.w3.org/2000/svg">
<g id="Component 258">
<path id="Rectangle 1" d="M12.375 4.8125C12.375 4.4328 12.6828 4.125 13.0625 4.125H30.9375C31.3172 4.125 31.625 4.4328 31.625 4.8125V14.4375C31.625 14.8172 31.3172 15.125 30.9375 15.125H13.0625C12.6828 15.125 12.375 14.8172 12.375 14.4375V4.8125Z" stroke="#171717"/>
<path id="Vector 2000" d="M15.4692 18.0585C15.6762 17.533 16.1837 17.1875 16.7485 17.1875H27.2513C27.8162 17.1875 28.3236 17.533 28.5306 18.0585L36.3849 37.996C36.7404 38.8982 36.0753 39.875 35.1056 39.875H8.8945C7.92481 39.875 7.25978 38.8982 7.61518 37.996L15.4692 18.0585Z" stroke="#171717"/>
<path id="Vector" d="M12.375 19.2505H10.1467C9.76704 19.2505 9.45924 18.9427 9.45924 18.563V13.0615C9.45924 12.9113 9.25275 12.8699 9.19486 13.0085L7.08743 18.0544C6.9472 18.3901 6.875 18.7504 6.875 19.1142V24.7505C6.875 25.1302 7.1828 25.438 7.5625 25.438H9.79077M31.625 19.2505H33.8533C34.233 19.2505 34.5408 18.9427 34.5408 18.563V13.0615C34.5408 12.9113 34.7472 12.8699 34.8051 13.0085L36.9126 18.0544C37.0528 18.3901 37.125 18.7504 37.125 19.1142V24.7505C37.125 25.1302 36.8172 25.438 36.4375 25.438H34.2092M8.25 30.2505H5.79476C5.33913 30.2505 4.96976 29.8811 4.96976 29.4255V22.8745C4.96976 22.6921 4.71761 22.6445 4.65112 22.8143L2.28966 28.8454C2.13954 29.2287 2.0625 29.6368 2.0625 30.0485V36.8505C2.0625 37.3061 2.43187 37.6755 2.8875 37.6755H5.34274M35.75 30.2505H38.2052C38.6609 30.2505 39.0302 29.8811 39.0302 29.4255V22.8745C39.0302 22.6921 39.2824 22.6445 39.3489 22.8143L41.7103 28.8454C41.8605 29.2287 41.9375 29.6368 41.9375 30.0485V36.8505C41.9375 37.3061 41.5681 37.6755 41.1125 37.6755H38.6573" stroke="#171717"/>
<path id="4" d="M19.5 11.627V10.9297L22.5762 6.0625H23.082V7.14258H22.7402L20.416 10.8203V10.875H24.5586V11.627H19.5ZM22.7949 13.0625V6.0625H23.6016V13.0625H22.7949Z" fill="#171717"/>
</g>
</svg>
