<svg width="44" height="44" viewBox="0 0 44 44" fill="none" xmlns="http://www.w3.org/2000/svg">
<g id="Component 258">
<path id="Rectangle 1" d="M12.3789 4.6875C12.3789 4.3078 12.6867 4 13.0664 4H30.9414C31.3211 4 31.6289 4.3078 31.6289 4.6875V14.3125C31.6289 14.6922 31.3211 15 30.9414 15H13.0664C12.6867 15 12.3789 14.6922 12.3789 14.3125V4.6875Z" stroke="#171717"/>
<path id="Vector 2000" d="M15.4692 18.0585C15.6762 17.533 16.1837 17.1875 16.7485 17.1875H27.2513C27.8162 17.1875 28.3236 17.533 28.5306 18.0585L36.3849 37.996C36.7404 38.8982 36.0753 39.875 35.1056 39.875H8.8945C7.92481 39.875 7.25978 38.8982 7.61518 37.996L15.4692 18.0585Z" stroke="#171717"/>
<path id="Vector" d="M12.375 19.2505H10.1467C9.76704 19.2505 9.45924 18.9427 9.45924 18.563V13.0615C9.45924 12.9113 9.25275 12.8699 9.19486 13.0085L7.08743 18.0544C6.9472 18.3901 6.875 18.7504 6.875 19.1142V24.7505C6.875 25.1302 7.1828 25.438 7.5625 25.438H9.79077M31.625 19.2505H33.8533C34.233 19.2505 34.5408 18.9427 34.5408 18.563V13.0615C34.5408 12.9113 34.7472 12.8699 34.8051 13.0085L36.9126 18.0544C37.0528 18.3901 37.125 18.7504 37.125 19.1142V24.7505C37.125 25.1302 36.8172 25.438 36.4375 25.438H34.2092M8.25 30.2505H5.79476C5.33913 30.2505 4.96976 29.8811 4.96976 29.4255V22.8745C4.96976 22.6921 4.71761 22.6445 4.65112 22.8143L2.28966 28.8454C2.13954 29.2287 2.0625 29.6368 2.0625 30.0485V36.8505C2.0625 37.3061 2.43187 37.6755 2.8875 37.6755H5.34274M35.75 30.2505H38.2052C38.6609 30.2505 39.0302 29.8811 39.0302 29.4255V22.8745C39.0302 22.6921 39.2824 22.6445 39.3489 22.8143L41.7103 28.8454C41.8605 29.2287 41.9375 29.6368 41.9375 30.0485V36.8505C41.9375 37.3061 41.5681 37.6755 41.1125 37.6755H38.6573" stroke="#171717"/>
<path id="8" d="M21.9805 13.1582C21.5111 13.1582 21.0964 13.075 20.7364 12.9087C20.3786 12.7401 20.0995 12.5088 19.899 12.2148C19.6985 11.9186 19.5993 11.5814 19.6016 11.2031C19.5993 10.9069 19.6575 10.6335 19.7759 10.3828C19.8944 10.1299 20.0562 9.91911 20.2613 9.75049C20.4687 9.57959 20.6999 9.47135 20.9551 9.42578V9.38477C20.6202 9.29818 20.3536 9.11019 20.1553 8.8208C19.9571 8.52913 19.8591 8.19759 19.8614 7.82617C19.8591 7.4707 19.9491 7.15283 20.1314 6.87256C20.3137 6.59229 20.5644 6.37126 20.8834 6.20947C21.2047 6.04769 21.5704 5.9668 21.9805 5.9668C22.3861 5.9668 22.7484 6.04769 23.0674 6.20947C23.3865 6.37126 23.6371 6.59229 23.8194 6.87256C24.004 7.15283 24.0974 7.4707 24.0997 7.82617C24.0974 8.19759 23.996 8.52913 23.7955 8.8208C23.5972 9.11019 23.334 9.29818 23.0059 9.38477V9.42578C23.2589 9.47135 23.4867 9.57959 23.6895 9.75049C23.8923 9.91911 24.0541 10.1299 24.1749 10.3828C24.2956 10.6335 24.3572 10.9069 24.3594 11.2031C24.3572 11.5814 24.2546 11.9186 24.0518 12.2148C23.8513 12.5088 23.5722 12.7401 23.2144 12.9087C22.859 13.075 22.4477 13.1582 21.9805 13.1582ZM21.9805 12.4063C22.2973 12.4063 22.5707 12.355 22.8008 12.2524C23.031 12.1499 23.2087 12.0052 23.334 11.8184C23.4594 11.6315 23.5232 11.4128 23.5255 11.1621C23.5232 10.8978 23.4548 10.6642 23.3204 10.4614C23.1859 10.2586 23.0025 10.0991 22.7701 9.98291C22.5399 9.8667 22.2768 9.80859 21.9805 9.80859C21.682 9.80859 21.4154 9.8667 21.1807 9.98291C20.9483 10.0991 20.7649 10.2586 20.6304 10.4614C20.4983 10.6642 20.4333 10.8978 20.4356 11.1621C20.4333 11.4128 20.4937 11.6315 20.6168 11.8184C20.7421 12.0052 20.921 12.1499 21.1534 12.2524C21.3858 12.355 21.6615 12.4063 21.9805 12.4063ZM21.9805 9.08398C22.2312 9.08398 22.4534 9.03385 22.647 8.93359C22.843 8.83333 22.9968 8.6932 23.1085 8.51318C23.2201 8.33317 23.2771 8.1224 23.2794 7.88086C23.2771 7.64388 23.2213 7.43766 23.1119 7.26221C23.0025 7.08447 22.851 6.94775 22.6573 6.85205C22.4636 6.75407 22.238 6.70508 21.9805 6.70508C21.7185 6.70508 21.4895 6.75407 21.2935 6.85205C21.0976 6.94775 20.946 7.08447 20.8389 7.26221C20.7318 7.43766 20.6794 7.64388 20.6817 7.88086C20.6794 8.1224 20.733 8.33317 20.8423 8.51318C20.954 8.6932 21.1078 8.83333 21.3038 8.93359C21.4997 9.03385 21.7253 9.08398 21.9805 9.08398Z" fill="#171717"/>
</g>
</svg>
