<svg width="65" height="64" viewBox="0 0 65 64" fill="none" xmlns="http://www.w3.org/2000/svg">
<g id="Component 258">
<path id="Vector" d="M8.62347 36V51M8.62347 36C7.27304 36 6.41601 34.5533 7.06483 33.3689L13.2716 22.0391C13.6226 21.3984 14.2951 21 15.0257 21H23.6235M8.62347 36H25.6235M56.6235 36V51M56.6235 36C57.9739 36 58.8309 34.5533 58.1821 33.3689L51.9753 22.0391C51.6243 21.3984 50.9519 21 50.2213 21H41.6235M56.6235 36H39.6235M32.6235 46H37.6235C38.728 46 39.6235 45.1046 39.6235 44V36M32.6235 46H27.6235C26.5189 46 25.6235 45.1046 25.6235 44V36M32.6235 46V51M32.6235 51H31.6235C30.5189 51 29.6235 51.8954 29.6235 53M32.6235 51H33.6235C34.728 51 35.6235 51.8954 35.6235 53M32.6235 23H40.6235C41.1758 23 41.6235 22.5523 41.6235 22V21M32.6235 23H24.6235C24.0712 23 23.6235 22.5523 23.6235 22L23.6235 21M32.6235 23V26M32.6235 26H29.6235M32.6235 26H35.6235M25.6235 36V31C25.6235 29.8954 26.5189 29 27.6235 29H37.6235C38.728 29 39.6235 29.8954 39.6235 31V36M23.6235 21L23.6235 12C23.6235 11.4477 24.0712 11 24.6235 11H40.6235C41.1758 11 41.6235 11.4477 41.6235 12V21" stroke="#171717"/>
</g>
</svg>
