<svg width="65" height="64" viewBox="0 0 65 64" fill="none" xmlns="http://www.w3.org/2000/svg">
<g id="Component 258">
<path id="Vector" d="M8.37347 36V51M8.37347 36C7.02304 36 6.16601 34.5533 6.81483 33.3689L13.0216 22.0391C13.3726 21.3984 14.0451 21 14.7757 21H26.3735M8.37347 36H25.3735M56.3735 36V51M56.3735 36C57.7239 36 58.5809 34.5533 57.9321 33.3689L51.7253 22.0391C51.3743 21.3984 50.7019 21 49.9713 21H38.3735M56.3735 36H39.3735M32.3735 46H37.3735C38.478 46 39.3735 45.1046 39.3735 44V36M32.3735 46H27.3735C26.2689 46 25.3735 45.1046 25.3735 44V36M32.3735 46V51M32.3735 51H31.3735C30.2689 51 29.3735 51.8954 29.3735 53M32.3735 51H33.3735C34.478 51 35.3735 51.8954 35.3735 53M26.3735 21V13C26.3735 11.8954 27.2689 11 28.3735 11H36.3735C37.478 11 38.3735 11.8954 38.3735 13V21M26.3735 21H38.3735M39.3735 36V31C39.3735 29.8954 38.478 29 37.3735 29H27.3735C26.2689 29 25.3735 29.8954 25.3735 31V36" stroke="#171717"/>
</g>
</svg>
