<svg width="12" height="12" viewBox="0 0 12 12" fill="none" xmlns="http://www.w3.org/2000/svg">
<g id="Frame 1321315986">
<path id="Ellipse 3549" d="M11 6C11 7.10067 10.6368 8.17059 9.96677 9.04381C9.29672 9.91703 8.35726 10.5448 7.2941 10.8296C6.23093 11.1145 5.10347 11.0406 4.08658 10.6194C3.0697 10.1982 2.22021 9.45321 1.66987 8.5C1.11954 7.54679 0.899109 6.43862 1.04278 5.34737C1.18644 4.25611 1.68617 3.24276 2.46447 2.46447C3.24276 1.68617 4.25611 1.18644 5.34737 1.04278C6.43862 0.899109 7.54679 1.11954 8.5 1.66987L8.03027 2.48346C7.25616 2.03653 6.35621 1.85752 5.46999 1.97419C4.58377 2.09086 3.76082 2.4967 3.12876 3.12876C2.4967 3.76082 2.09086 4.58377 1.97419 5.46999C1.85752 6.35621 2.03653 7.25616 2.48346 8.03028C2.93039 8.80439 3.62027 9.40939 4.44609 9.75146C5.27192 10.0935 6.18754 10.1535 7.05095 9.92219C7.91436 9.69084 8.6773 9.18106 9.22145 8.47191C9.7656 7.76275 10.0606 6.89387 10.0606 6H11Z" fill="#171717"/>
<path id="Polygon 5" d="M9.00061 0.5L10.7327 3.5H7.26855L9.00061 0.5Z" fill="#171717"/>
</g>
</svg>
