<svg width="44" height="44" viewBox="0 0 44 44" fill="none" xmlns="http://www.w3.org/2000/svg">
<g id="Component 258">
<g id="Rectangle 1">
<path d="M12.375 4.8125C12.375 4.4328 12.6828 4.125 13.0625 4.125H30.9375C31.3172 4.125 31.625 4.4328 31.625 4.8125V14.4375C31.625 14.8172 31.3172 15.125 30.9375 15.125H13.0625C12.6828 15.125 12.375 14.8172 12.375 14.4375V4.8125Z" stroke="#171717"/>
<path d="M12.375 4.8125C12.375 4.4328 12.6828 4.125 13.0625 4.125H30.9375C31.3172 4.125 31.625 4.4328 31.625 4.8125V14.4375C31.625 14.8172 31.3172 15.125 30.9375 15.125H13.0625C12.6828 15.125 12.375 14.8172 12.375 14.4375V4.8125Z" stroke="black" stroke-opacity="0.2"/>
</g>
<path id="Vector" d="M8.9375 24.0625H7.41518C6.927 24.0625 6.53125 24.4582 6.53125 24.9464V30.25M8.9375 24.0625H11.8348C12.323 24.0625 12.7188 24.4582 12.7188 24.9464V25.4375M8.9375 24.0625V19.3482C8.9375 18.9143 9.28928 18.5625 9.72321 18.5625H13.6518C14.0857 18.5625 14.4375 18.9143 14.4375 19.3482V24.6518C14.4375 25.0857 14.0857 25.4375 13.6518 25.4375H12.7188M12.7188 25.4375V31.4286C12.7188 31.9168 12.323 32.3125 11.8348 32.3125H11M15.8125 24.0625H15.6652C15.177 24.0625 14.7812 24.4582 14.7812 24.9464V30.25M15.8125 24.0625H20.0848C20.573 24.0625 20.9688 24.4582 20.9688 24.9464V25.3015M15.8125 24.0625V19.3482C15.8125 18.9143 16.1643 18.5625 16.5982 18.5625H20.5268C20.9607 18.5625 21.3125 18.9143 21.3125 19.3482V24.6518C21.3125 24.9218 21.1763 25.1601 20.9688 25.3015M20.9688 25.3015V31.4286C20.9688 31.7133 20.8341 31.9666 20.625 32.1283M23.0312 25.3015V31.4286C23.0312 31.7133 23.1659 31.9666 23.375 32.1283M23.0312 25.3015V24.9464C23.0312 24.4582 23.427 24.0625 23.9152 24.0625H28.1875M23.0312 25.3015C22.8237 25.1601 22.6875 24.9218 22.6875 24.6518V19.3482C22.6875 18.9143 23.0393 18.5625 23.4732 18.5625H27.4018C27.8357 18.5625 28.1875 18.9143 28.1875 19.3482V24.0625M28.1875 24.0625H28.3348C28.823 24.0625 29.2188 24.4582 29.2188 24.9464V30.25M35.0625 24.0625H32.1652C31.677 24.0625 31.2812 24.4582 31.2812 24.9464V25.4375M35.0625 24.0625H36.5848C37.073 24.0625 37.4688 24.4582 37.4688 24.9464V30.25M35.0625 24.0625V19.3482C35.0625 18.9143 34.7107 18.5625 34.2768 18.5625H30.3482C29.9143 18.5625 29.5625 18.9143 29.5625 19.3482V24.6518C29.5625 25.0857 29.9143 25.4375 30.3482 25.4375H31.2812M31.2812 25.4375V31.4286C31.2812 31.9168 31.677 32.3125 32.1652 32.3125H33M37.4688 30.25H33.9821C33.4397 30.25 33 30.6897 33 31.2321V32.3125M37.4688 30.25H38.8929C39.4353 30.25 39.875 30.6897 39.875 31.2321V38.8929C39.875 39.4353 39.4353 39.875 38.8929 39.875H33.9821C33.4397 39.875 33 39.4353 33 38.8929V32.3125M29.2188 30.25H24.3571C23.8147 30.25 23.375 30.6897 23.375 31.2321V32.1283M29.2188 30.25H29.2679C29.8103 30.25 30.25 30.6897 30.25 31.2321V38.8929C30.25 39.4353 29.8103 39.875 29.2679 39.875H24.3571C23.8147 39.875 23.375 39.4353 23.375 38.8929V32.1283M20.625 32.1283V31.2321C20.625 30.6897 20.1853 30.25 19.6429 30.25H14.7812M20.625 32.1283V38.8929C20.625 39.4353 20.1853 39.875 19.6429 39.875H14.7321C14.1897 39.875 13.75 39.4353 13.75 38.8929V31.2321C13.75 30.6897 14.1897 30.25 14.7321 30.25H14.7812M11 32.3125V31.2321C11 30.6897 10.5603 30.25 10.0179 30.25H6.53125M11 32.3125V38.8929C11 39.4353 10.5603 39.875 10.0179 39.875H5.10714C4.56472 39.875 4.125 39.4353 4.125 38.8929V31.2321C4.125 30.6897 4.56472 30.25 5.10714 30.25H6.53125" stroke="#171717"/>
</g>
</svg>
