<svg width="44" height="44" viewBox="0 0 44 44" fill="none" xmlns="http://www.w3.org/2000/svg">
<g id="Component 258">
<path id="Vector" d="M22 22V39.875M34.375 39.875L23.044 26.6555C22.4952 26.0153 21.5048 26.0153 20.956 26.6555L9.625 39.875M34.375 7.5625V21.3125C34.375 21.6922 34.0672 22 33.6875 22H10.3125C9.9328 22 9.625 21.6922 9.625 21.3125V7.5625C9.625 7.1828 9.9328 6.875 10.3125 6.875H18.5625L19.1198 4.64576C19.1963 4.3397 19.4713 4.125 19.7868 4.125H24.9007C25.2162 4.125 25.4912 4.3397 25.5677 4.64576L26.125 6.875H33.6875C34.0672 6.875 34.375 7.1828 34.375 7.5625ZM27.5 14.4375C27.5 17.4751 25.0376 19.9375 22 19.9375C18.9624 19.9375 16.5 17.4751 16.5 14.4375C16.5 11.3999 18.9624 8.9375 22 8.9375C25.0376 8.9375 27.5 11.3999 27.5 14.4375ZM26.125 14.4375C26.125 16.7157 24.2782 18.5625 22 18.5625C19.7218 18.5625 17.875 16.7157 17.875 14.4375C17.875 12.1593 19.7218 10.3125 22 10.3125C24.2782 10.3125 26.125 12.1593 26.125 14.4375ZM28.875 9.625V8.9375C28.875 8.5578 29.1828 8.25 29.5625 8.25H32.3125C32.6922 8.25 33 8.5578 33 8.9375V9.625C33 10.0047 32.6922 10.3125 32.3125 10.3125H29.5625C29.1828 10.3125 28.875 10.0047 28.875 9.625ZM15.8125 6.875V6.1875C15.8125 5.8078 15.5047 5.5 15.125 5.5H12.375C11.9953 5.5 11.6875 5.8078 11.6875 6.1875V6.875H15.8125Z" stroke="#171717"/>
</g>
</svg>
