<svg width="49" height="48" viewBox="0 0 49 48" fill="none" xmlns="http://www.w3.org/2000/svg">
<g id="Component 208">
<path id="Vector" d="M24.875 15.8691C27.6364 15.8691 29.875 13.6306 29.875 10.8691C29.875 8.10772 27.6364 5.86914 24.875 5.86914C22.1136 5.86914 19.875 8.10772 19.875 10.8691C19.875 13.6306 22.1136 15.8691 24.875 15.8691Z" fill="#FCF697" stroke="black" stroke-miterlimit="10"/>
<path id="Vector_2" d="M26.5645 36.8309V36.8409C26.5645 38.5641 27.9613 39.9609 29.6845 39.9609H35.5245C37.2476 39.9609 38.6445 38.5641 38.6445 36.8409V36.8309C38.6445 35.1078 37.2476 33.7109 35.5245 33.7109H29.6845C27.9613 33.7109 26.5645 35.1078 26.5645 36.8309Z" fill="#FCF697" stroke="black" stroke-miterlimit="10"/>
<path id="Vector_3" d="M11.1152 36.8192V36.8292C11.1152 38.5523 12.5121 39.9492 14.2352 39.9492H29.1452C30.8684 39.9492 32.2652 38.5523 32.2652 36.8292V36.8192C32.2652 35.0961 30.8684 33.6992 29.1452 33.6992H14.2352C12.5121 33.6992 11.1152 35.0961 11.1152 36.8192Z" fill="#FCF697" stroke="black" stroke-miterlimit="10"/>
<path id="Vector_4" d="M40.2644 30.7199L34.4044 25.3299L32.4444 19.9799C31.8944 18.6599 31.2144 17.6699 29.3244 17.6699H28.3244H21.3144H20.3144C19.3144 17.6799 17.9044 18.3799 17.3044 19.9899L15.3544 25.3399L9.49443 30.7299C8.72443 31.4399 8.67443 32.6499 9.38443 33.4199C10.0944 34.1899 11.3044 34.2399 12.0744 33.5299L18.1644 27.9299C18.2444 27.8499 18.3244 27.7699 18.3844 27.6799C18.5644 27.4999 18.7044 27.2799 18.7944 27.0199L19.3144 25.5899V33.7099H30.3244V25.2399L30.9744 27.0199C31.0644 27.2699 31.2044 27.4899 31.3844 27.6799C31.4544 27.7699 31.5244 27.8499 31.6044 27.9299L37.6944 33.5299C38.4644 34.2399 39.6744 34.1899 40.3844 33.4199C41.0944 32.6499 41.0444 31.4399 40.2744 30.7299L40.2644 30.7199Z" fill="#FCF697" stroke="black" stroke-linecap="round" stroke-linejoin="round"/>
</g>
</svg>
