<svg width="49" height="48" viewBox="0 0 49 48" fill="none" xmlns="http://www.w3.org/2000/svg">
<g id="Component 208">
<path id="Vector" d="M34.7959 19.7402L34.7559 23.4402C37.2159 23.4402 39.2259 24.3602 39.2259 26.6102V29.9002C39.2259 32.1502 37.2159 33.0702 34.7559 33.0702L34.7959 36.7702C39.2159 36.7702 42.8359 34.3802 42.8359 30.3402V26.1702C42.8359 22.1302 39.2159 19.7402 34.7959 19.7402Z" fill="#FAEC23" stroke="black" stroke-linecap="round" stroke-linejoin="round"/>
<path id="Vector_2" d="M9.04492 36.3802C9.04492 39.4702 11.5749 42.0002 14.6649 42.0002H30.0049C33.0949 42.0002 35.6249 39.4702 35.6249 36.3802V17.4102H9.04492V36.3802Z" fill="#FAEC23" stroke="black" stroke-linecap="round" stroke-linejoin="round"/>
<path id="Vector_3" d="M22.3449 21.8594H22.3349C21.2083 21.8594 20.2949 22.7727 20.2949 23.8994V35.3194C20.2949 36.446 21.2083 37.3594 22.3349 37.3594H22.3449C23.4716 37.3594 24.3849 36.446 24.3849 35.3194V23.8994C24.3849 22.7727 23.4716 21.8594 22.3449 21.8594Z" fill="#FEF9C1" stroke="black"/>
<path id="Vector_4" d="M15.8352 21.8594H15.8252C14.6985 21.8594 13.7852 22.7727 13.7852 23.8994V35.3194C13.7852 36.446 14.6985 37.3594 15.8252 37.3594H15.8352C16.9618 37.3594 17.8752 36.446 17.8752 35.3194V23.8994C17.8752 22.7727 16.9618 21.8594 15.8352 21.8594Z" fill="#FEF9C1" stroke="black"/>
<path id="Vector_5" d="M28.8645 21.8594H28.8545C27.7278 21.8594 26.8145 22.7727 26.8145 23.8994V35.3194C26.8145 36.446 27.7278 37.3594 28.8545 37.3594H28.8645C29.9911 37.3594 30.9045 36.446 30.9045 35.3194V23.8994C30.9045 22.7727 29.9911 21.8594 28.8645 21.8594Z" fill="#FEF9C1" stroke="black"/>
<path id="Vector_6" d="M35.6345 17.4C35.7445 16.96 35.8045 14.73 35.8045 14.26C35.8045 11.13 33.0945 8.6 29.9745 8.6C28.9445 8.6 27.9745 8.88 27.1445 9.37C26.2645 7.39 24.2845 6 21.9745 6C19.7845 6 17.8945 7.24 16.9545 9.06C16.2645 8.77 15.5145 8.6 14.7245 8.6C11.5945 8.6 8.89453 11.13 8.89453 14.26C8.89453 14.73 8.95453 16.96 9.06453 17.4H35.6445H35.6345Z" fill="#FEFDE6" stroke="black" stroke-linecap="round" stroke-linejoin="round"/>
</g>
</svg>
