<svg width="49" height="48" viewBox="0 0 49 48" fill="none" xmlns="http://www.w3.org/2000/svg">
<g id="Component 208">
<path id="Vector" d="M16.8145 15.2305H35.2645C38.6145 15.2305 41.3445 17.9505 41.3445 21.3105V33.9805H16.8145V15.2305Z" fill="#FF645C" stroke="black" stroke-linecap="round" stroke-linejoin="round"/>
<path id="Vector_2" d="M16.0956 15.2305H17.5356C20.8856 15.2305 23.6156 17.9505 23.6156 21.3105V33.9805H10.0156V21.3105C10.0156 17.9605 12.7356 15.2305 16.0956 15.2305Z" fill="#DD3E38" stroke="black" stroke-linecap="round" stroke-linejoin="round"/>
<path id="Vector_3" d="M32.0742 26.6094C33.1788 26.6094 34.0742 25.7139 34.0742 24.6094C34.0742 23.5048 33.1788 22.6094 32.0742 22.6094C30.9696 22.6094 30.0742 23.5048 30.0742 24.6094C30.0742 25.7139 30.9696 26.6094 32.0742 26.6094Z" fill="#EEEEEE" stroke="black" stroke-linecap="round" stroke-linejoin="round"/>
<path id="Vector_4" d="M32.0742 10.1797V22.6097" stroke="black" stroke-linecap="round" stroke-linejoin="round"/>
<path id="Vector_5" d="M37.1242 8.89062H32.0742V11.4706H37.1242V8.89062Z" fill="#97BAFE" stroke="black" stroke-linecap="round" stroke-linejoin="round"/>
<path id="Vector_6" d="M20.2757 21.4297H7.3457V29.5997H20.2757V21.4297Z" fill="#D0D0D8" stroke="black" stroke-linecap="round" stroke-linejoin="round"/>
<path id="Vector_7" d="M7.3457 29.6005L13.8157 23.9805" stroke="black" stroke-linecap="round" stroke-linejoin="round"/>
<path id="Vector_8" d="M20.2745 29.6005L13.8145 23.9805" stroke="black" stroke-linecap="round" stroke-linejoin="round"/>
<path id="Vector_9" d="M30.2852 33.9805H26.1152V42.0005H30.2852V33.9805Z" fill="#FFD4D8" stroke="black" stroke-linecap="round" stroke-linejoin="round"/>
<path id="Vector_10" d="M13.8157 26.5597L20.2757 21.4297H7.3457L13.8157 26.5597Z" fill="#D0D0D8" stroke="black" stroke-linecap="round" stroke-linejoin="round"/>
</g>
</svg>
