<svg width="40" height="42" viewBox="0 0 40 42" fill="none" xmlns="http://www.w3.org/2000/svg">
<g id="Group">
<path id="Vector" d="M38.1762 5.06041C37.4062 3.35041 36.0462 2.01041 34.3962 1.18041C33.3362 0.640408 32.0462 1.32041 31.7962 2.48041L31.4562 4.05041C31.2362 5.06041 31.8762 6.05041 32.8862 6.27041L34.0862 6.53041C34.7462 6.67041 35.2262 7.24041 35.2662 7.91041C35.4062 10.2004 34.8462 12.7904 33.7662 14.8204C33.4462 15.4204 32.7762 15.7304 32.1162 15.5904L30.9162 15.3304C29.9062 15.1104 28.9162 15.7504 28.6962 16.7604L28.3462 18.3804C28.0962 19.5304 28.9562 20.6704 30.1362 20.6404C36.1262 20.4904 40.0262 13.4004 38.9562 7.58041C38.8062 6.68041 38.5462 5.84041 38.1862 5.05041L38.1762 5.06041Z" fill="#FF513F" stroke="black" stroke-miterlimit="10"/>
<path id="Vector_2" d="M19.045 10.87V5C19.045 3.9 18.145 3 17.045 3H4.125C3.025 3 2.125 3.9 2.125 5V11.76C2.125 12.86 3.025 13.76 4.125 13.76H21.825L19.045 10.87Z" fill="#F9C00D" stroke="black" stroke-linecap="round" stroke-linejoin="round"/>
<path id="Vector_3" d="M2.07568 25.41C2.84568 23.7 4.20568 22.36 5.85568 21.53C6.91568 20.99 8.20568 21.67 8.45568 22.83L8.79568 24.4C9.01568 25.41 8.37568 26.4 7.36568 26.62L6.16568 26.88C5.50568 27.02 5.02568 27.59 4.98568 28.26C4.84568 30.55 5.40568 33.14 6.48568 35.17C6.80568 35.77 7.47568 36.08 8.13568 35.94L9.33568 35.68C10.3457 35.46 11.3357 36.1 11.5557 37.11L11.9057 38.73C12.1557 39.88 11.2957 41.02 10.1157 40.99C4.12568 40.84 0.225684 33.75 1.29568 27.93C1.44568 27.03 1.70568 26.19 2.06568 25.4L2.07568 25.41Z" fill="#EEEEEE" stroke="black" stroke-miterlimit="10"/>
<path id="Vector_4" d="M21.2058 36.1102V30.2402C21.2058 29.1402 22.1058 28.2402 23.2058 28.2402H36.1258C37.2258 28.2402 38.1258 29.1402 38.1258 30.2402V37.0002C38.1258 38.1002 37.2258 39.0002 36.1258 39.0002H18.4258L21.2058 36.1102Z" fill="#688AF2" stroke="black" stroke-linecap="round" stroke-linejoin="round"/>
</g>
</svg>
