<svg width="96" height="98" viewBox="0 0 96 98" fill="none" xmlns="http://www.w3.org/2000/svg">
<path d="M0.75 8C0.75 3.58172 4.33172 0 8.75 0H87.5C91.9183 0 95.5 3.58172 95.5 8V90C95.5 94.4183 91.9183 98 87.5 98H8.75C4.33172 98 0.75 94.4183 0.75 90V8Z" fill="white"/>
<path d="M35.1243 29.2848L35.1242 29.2834C35.0913 28.6508 35.3215 28.0252 35.7565 27.5647C36.1949 27.1106 36.7755 26.8594 37.3949 26.8594H58.8549C59.4789 26.8594 60.0571 27.1039 60.4917 27.5631C60.9277 28.0237 61.1584 28.6501 61.1255 29.2834L61.1255 29.2848L59.9755 52.6748L59.9754 52.6759C59.9177 53.9044 58.9127 54.8694 57.7049 54.8694H38.5449C37.339 54.8694 36.341 53.9159 36.2742 52.6738C36.2742 52.6734 36.2742 52.6731 36.2742 52.6727L35.1243 29.2848Z" fill="white" stroke="black"/>
<path d="M34.6249 29.3118L34.625 29.3137L35.7749 52.7035C35.7749 52.7036 35.7749 52.7036 35.775 52.7037C35.8447 54.1328 36.9636 55.2711 38.3612 55.3631C36.967 55.2715 35.8474 54.1411 35.7737 52.7041C35.7737 52.7039 35.7737 52.7038 35.7737 52.7036L34.6239 29.3172C34.6238 29.3168 34.6238 29.3164 34.6238 29.3159C34.619 29.2051 34.6206 29.0944 34.6284 28.9846C34.6211 29.0923 34.6198 29.2015 34.6249 29.3118ZM37.3944 26.3691C36.2221 26.3691 35.2371 27.0976 34.8267 28.1175C34.9583 27.7867 35.1502 27.4824 35.3948 27.2257C35.933 26.6711 36.634 26.3691 37.3944 26.3691Z" fill="white" stroke="black"/>
<path d="M35.758 30.2963C35.3269 29.8408 35.0965 29.2232 35.1232 28.5971L35.1285 28.577L36.2685 24.237L36.2805 24.1912L36.2837 24.1439C36.3663 22.9302 37.354 22 38.5449 22H57.6949C58.8858 22 59.8734 22.9302 59.956 24.1439L59.9592 24.1912L59.9713 24.237L61.1047 28.5522C61.1059 28.5592 61.1072 28.5671 61.1087 28.5756L61.1089 28.5768C61.1104 28.5851 61.1132 28.6011 61.1174 28.621C61.1374 29.2382 60.9079 29.8451 60.4833 30.2947C60.0449 30.7488 59.4643 31 58.8449 31H37.3949C36.7708 31 36.1926 30.7555 35.758 30.2963Z" fill="#297B37" stroke="black"/>
<mask id="path-5-inside-1_2008_18853" fill="white">
<path d="M57.7044 22C58.9144 22 59.9143 22.96 59.9743 24.19L61.1243 28.58C61.1843 29.9 60.1543 31 58.8543 31H37.3944C36.0944 31 35.0643 29.9 35.1243 28.58L36.2743 24.19C36.3343 22.96 37.3343 22 38.5443 22H57.6943M57.7044 21H38.5443C36.8343 21 35.4243 22.32 35.2843 24.03L34.1543 28.33C34.1343 28.4 34.1243 28.47 34.1243 28.53C34.0843 29.44 34.4143 30.33 35.0343 30.99C35.6543 31.64 36.4944 32 37.3944 32H58.8543C59.7543 32 60.5844 31.64 61.2143 30.99C61.8344 30.34 62.1644 29.44 62.1243 28.53C62.1243 28.46 62.1144 28.39 62.0944 28.33L60.9643 24.03C60.8244 22.32 59.4144 21 57.7044 21Z"/>
</mask>
<path d="M57.7044 22C58.9144 22 59.9143 22.96 59.9743 24.19L61.1243 28.58C61.1843 29.9 60.1543 31 58.8543 31H37.3944C36.0944 31 35.0643 29.9 35.1243 28.58L36.2743 24.19C36.3343 22.96 37.3343 22 38.5443 22H57.6943M57.7044 21H38.5443C36.8343 21 35.4243 22.32 35.2843 24.03L34.1543 28.33C34.1343 28.4 34.1243 28.47 34.1243 28.53C34.0843 29.44 34.4143 30.33 35.0343 30.99C35.6543 31.64 36.4944 32 37.3944 32H58.8543C59.7543 32 60.5844 31.64 61.2143 30.99C61.8344 30.34 62.1644 29.44 62.1243 28.53C62.1243 28.46 62.1144 28.39 62.0944 28.33L60.9643 24.03C60.8244 22.32 59.4144 21 57.7044 21Z" fill="#297B37"/>
<path d="M59.9743 24.19L58.9755 24.2387L58.9806 24.3427L59.007 24.4434L59.9743 24.19ZM61.1243 28.58L62.1233 28.5346L62.1185 28.4289L62.0917 28.3266L61.1243 28.58ZM35.1243 28.58L34.157 28.3266L34.1302 28.4289L34.1254 28.5346L35.1243 28.58ZM36.2743 24.19L37.2417 24.4434L37.2681 24.3427L37.2732 24.2387L36.2743 24.19ZM35.2843 24.03L36.2515 24.2842L36.2738 24.1992L36.281 24.1116L35.2843 24.03ZM34.1543 28.33L35.1159 28.6047L35.1188 28.5945L35.1215 28.5842L34.1543 28.33ZM34.1243 28.53L35.1234 28.5739L35.1243 28.552V28.53H34.1243ZM35.0343 30.99L34.3055 31.6747L34.3107 31.6802L35.0343 30.99ZM61.2143 30.99L61.9324 31.686L61.938 31.6802L61.2143 30.99ZM62.1243 28.53H61.1243V28.552L61.1253 28.5739L62.1243 28.53ZM62.0944 28.33L61.1272 28.5842L61.1354 28.6155L61.1457 28.6462L62.0944 28.33ZM60.9643 24.03L59.9677 24.1116L59.9749 24.1992L59.9972 24.2842L60.9643 24.03ZM57.7044 23C58.3706 23 58.941 23.531 58.9755 24.2387L60.9732 24.1413C60.8877 22.389 59.4581 21 57.7044 21V23ZM59.007 24.4434L60.157 28.8334L62.0917 28.3266L60.9417 23.9366L59.007 24.4434ZM60.1254 28.6254C60.1603 29.3944 59.5659 30 58.8543 30V32C60.7428 32 62.2084 30.4056 62.1233 28.5346L60.1254 28.6254ZM58.8543 30H37.3944V32H58.8543V30ZM37.3944 30C36.6828 30 36.0884 29.3944 36.1233 28.6254L34.1254 28.5346C34.0403 30.4056 35.5059 32 37.3944 32V30ZM36.0917 28.8334L37.2417 24.4434L35.307 23.9366L34.157 28.3266L36.0917 28.8334ZM37.2732 24.2387C37.3077 23.531 37.8781 23 38.5443 23V21C36.7906 21 35.361 22.389 35.2755 24.1413L37.2732 24.2387ZM38.5443 23H57.6943V21H38.5443V23ZM57.7044 20H38.5443V22H57.7044V20ZM38.5443 20C36.304 20 34.4694 21.7292 34.2877 23.9484L36.281 24.1116C36.3793 22.9108 37.3647 22 38.5443 22V20ZM34.3172 23.7758L33.1872 28.0758L35.1215 28.5842L36.2515 24.2842L34.3172 23.7758ZM33.1928 28.0553C33.1503 28.2041 33.1243 28.3667 33.1243 28.53H35.1243C35.1243 28.5542 35.1224 28.5709 35.1211 28.5803C35.1196 28.5902 35.1178 28.598 35.1159 28.6047L33.1928 28.0553ZM33.1253 28.4861C33.0735 29.6646 33.5003 30.8175 34.3055 31.6747L35.7632 30.3053C35.3284 29.8425 35.0952 29.2154 35.1234 28.5739L33.1253 28.4861ZM34.3107 31.6802C35.1194 32.528 36.2209 33 37.3944 33V31C36.7678 31 36.1893 30.752 35.758 30.2998L34.3107 31.6802ZM37.3944 33H58.8543V31H37.3944V33ZM58.8543 33C60.0324 33 61.1193 32.5249 61.9324 31.686L60.4963 30.294C60.0494 30.7551 59.4763 31 58.8543 31V33ZM61.938 31.6802C62.7512 30.8276 63.175 29.6602 63.1234 28.4861L61.1253 28.5739C61.1537 29.2198 60.9175 29.8524 60.4907 30.2998L61.938 31.6802ZM63.1243 28.53C63.1243 28.372 63.1027 28.1927 63.043 28.0138L61.1457 28.6462C61.135 28.6142 61.1301 28.5892 61.1276 28.5728C61.1251 28.5559 61.1243 28.5419 61.1243 28.53H63.1243ZM63.0615 28.0758L61.9315 23.7758L59.9972 24.2842L61.1272 28.5842L63.0615 28.0758ZM61.961 23.9484C61.7793 21.7292 59.9447 20 57.7044 20V22C58.884 22 59.8694 22.9108 59.9677 24.1116L61.961 23.9484Z" fill="black" mask="url(#path-5-inside-1_2008_18853)"/>
<path d="M34.345 26.8691H61.905C62.5788 26.8691 63.125 27.4154 63.125 28.0891V30.6491C63.125 31.3229 62.5788 31.8691 61.905 31.8691H34.345C33.6712 31.8691 33.125 31.3229 33.125 30.6491V28.0891C33.125 27.4154 33.6712 26.8691 34.345 26.8691Z" fill="#45AD56" stroke="black"/>
<mask id="path-8-inside-2_2008_18853" fill="white">
<path d="M61.905 26.8691C62.575 26.8691 63.125 27.4191 63.125 28.0891V30.6391C63.125 31.3091 62.575 31.8591 61.905 31.8591H34.345C33.675 31.8591 33.125 31.3091 33.125 30.6391V28.0891C33.125 27.4191 33.675 26.8691 34.345 26.8691H61.895M61.905 25.8691H34.345C33.115 25.8691 32.125 26.8691 32.125 28.0891V30.6391C32.125 31.8691 33.125 32.8591 34.345 32.8591H61.895C63.125 32.8591 64.115 31.8591 64.115 30.6391V28.0891C64.115 26.8591 63.115 25.8691 61.895 25.8691H61.905Z"/>
</mask>
<path d="M61.905 26.8691C62.575 26.8691 63.125 27.4191 63.125 28.0891V30.6391C63.125 31.3091 62.575 31.8591 61.905 31.8591H34.345C33.675 31.8591 33.125 31.3091 33.125 30.6391V28.0891C33.125 27.4191 33.675 26.8691 34.345 26.8691H61.895M61.905 25.8691H34.345C33.115 25.8691 32.125 26.8691 32.125 28.0891V30.6391C32.125 31.8691 33.125 32.8591 34.345 32.8591H61.895C63.125 32.8591 64.115 31.8591 64.115 30.6391V28.0891C64.115 26.8591 63.115 25.8691 61.895 25.8691H61.905Z" fill="#45AD56"/>
<path d="M61.905 27.8691C62.0227 27.8691 62.125 27.9714 62.125 28.0891H64.125C64.125 26.8669 63.1273 25.8691 61.905 25.8691V27.8691ZM62.125 28.0891V30.6391H64.125V28.0891H62.125ZM62.125 30.6391C62.125 30.7569 62.0227 30.8591 61.905 30.8591V32.8591C63.1273 32.8591 64.125 31.8614 64.125 30.6391H62.125ZM61.905 30.8591H34.345V32.8591H61.905V30.8591ZM34.345 30.8591C34.2273 30.8591 34.125 30.7569 34.125 30.6391H32.125C32.125 31.8614 33.1227 32.8591 34.345 32.8591V30.8591ZM34.125 30.6391V28.0891H32.125V30.6391H34.125ZM34.125 28.0891C34.125 27.9714 34.2273 27.8691 34.345 27.8691V25.8691C33.1227 25.8691 32.125 26.8669 32.125 28.0891H34.125ZM34.345 27.8691H61.895V25.8691H34.345V27.8691ZM61.905 24.8691H34.345V26.8691H61.905V24.8691ZM34.345 24.8691C32.5598 24.8691 31.125 26.3198 31.125 28.0891H33.125C33.125 27.4185 33.6702 26.8691 34.345 26.8691V24.8691ZM31.125 28.0891V30.6391H33.125V28.0891H31.125ZM31.125 30.6391C31.125 32.4244 32.5757 33.8591 34.345 33.8591V31.8591C33.6744 31.8591 33.125 31.3139 33.125 30.6391H31.125ZM34.345 33.8591H61.895V31.8591H34.345V33.8591ZM61.895 33.8591C63.6802 33.8591 65.115 32.4085 65.115 30.6391H63.115C63.115 31.3098 62.5698 31.8591 61.895 31.8591V33.8591ZM65.115 30.6391V28.0891H63.115V30.6391H65.115ZM65.115 28.0891C65.115 26.3039 63.6644 24.8691 61.895 24.8691V26.8691C62.5657 26.8691 63.115 27.4144 63.115 28.0891H65.115ZM61.895 26.8691H61.905V24.8691H61.895V26.8691Z" fill="black" mask="url(#path-8-inside-2_2008_18853)"/>
<path d="M36.0853 48.6196C36.0852 48.6196 36.0851 48.6196 36.0849 48.6196L36.0847 48.615L35.4455 35.6208C35.4458 35.6138 35.4464 35.6086 35.447 35.6051L35.4482 35.6039L35.452 35.5996C35.452 35.5996 35.452 35.5996 35.452 35.5996H60.8079C60.8094 35.602 60.8106 35.6045 60.8117 35.6072C60.8131 35.611 60.8145 35.6161 60.815 35.6229L60.1759 48.615L60.1759 48.615L60.1757 48.6196C60.1756 48.6196 60.1755 48.6196 60.1753 48.6196H36.0853Z" fill="#C6E5CB" stroke="black"/>
<path d="M61.3153 35.6339L61.3159 35.6221V35.6224V35.6227V35.6229V35.6232V35.6235V35.6238V35.6241V35.6243V35.6246V35.6249V35.6252V35.6255V35.6257V35.626V35.6263V35.6266V35.6269V35.6271V35.6274V35.6277V35.628V35.6283V35.6286V35.6289V35.6292V35.6294V35.6297V35.63V35.6303V35.6306V35.6309V35.6312V35.6315V35.6318V35.6321V35.6323V35.6326V35.6329V35.6332V35.6335V35.6338V35.6341V35.6344V35.6347V35.635V35.6353V35.6356V35.6359V35.6362V35.6365V35.6368V35.6371V35.6374V35.6377V35.638V35.6383V35.6386V35.6389V35.6392V35.6395V35.6398V35.6401V35.6404V35.6407V35.641V35.6413V35.6416V35.6419V35.6422V35.6425V35.6429V35.6432V35.6435V35.6438V35.6441V35.6444V35.6447V35.645V35.6453V35.6456V35.6459V35.6462V35.6465V35.6468V35.6472V35.6475V35.6478V35.6481V35.6484V35.6487V35.649V35.6493V35.6496V35.6499V35.6503V35.6506V35.6509V35.6512V35.6515V35.6518V35.6521V35.6524V35.6527V35.6531V35.6534V35.6537V35.654V35.6543V35.6546V35.6549V35.6552V35.6556V35.6559V35.6562V35.6565V35.6568V35.6571V35.6574V35.6577V35.6581V35.6584V35.6587V35.659V35.6593V35.6596V35.6599V35.6602V35.6606V35.6609V35.6612V35.6615V35.6618V35.6621V35.6624V35.6627V35.6631V35.6634V35.6637V35.664V35.6643V35.6646V35.6649V35.6652V35.6655V35.6659V35.6662V35.6665V35.6668V35.6671V35.6674V35.6677V35.668V35.6683V35.6686V35.669V35.6693V35.6696V35.6699V35.6702V35.6705V35.6708V35.6711V35.6714V35.6717V35.672V35.6723V35.6727V35.673V35.6733V35.6736V35.6739V35.6742V35.6745V35.6748V35.6751V35.6754V35.6757V35.676V35.6763V35.6766V35.6769V35.6772V35.6775V35.6778V35.6781V35.6784V35.6787V35.679V35.6793V35.6796V35.6799V35.6802V35.6805V35.6808V35.6811V35.6814V35.6817V35.682V35.6823V35.6826V35.6829V35.6832V35.6835V35.6838V35.6841V35.6844V35.6847V35.685V35.6853V35.6855V35.6858V35.6861V35.6864V35.6867V35.687V35.6873V35.6876V35.6879V35.6881V35.6884V35.6887V35.689V35.6893V35.6896V35.6899V35.6901V35.6904V35.6907V35.691V35.6913V35.6915V35.6918V35.6921V35.6924V35.6927V35.6929V35.6932V35.6935V35.6938V35.694V35.6943V35.6946V35.6949V35.6951V35.6954V35.6957V35.6959V35.6962V35.6965V35.6967V35.697V35.6973V35.6975V35.6978V35.6981V35.6983V35.6986V35.6989V35.6991V35.6994V35.6996V35.6999V35.7002V35.7004V35.7007V35.7009V35.7012V35.7014V35.7017V35.702V35.7022V35.7025V35.7027V35.703V35.7032V35.7035V35.7037V35.7039V35.7042V35.7044V35.7047V35.7049V35.7052V35.7054V35.7056V35.7059V35.7061V35.7064V35.7066V35.7068V35.7071V35.7073V35.7075V35.7078V35.708V35.7082V35.7085V35.7087V35.7089V35.7091V35.7094V35.7096V35.7098V35.71V35.7103V35.7105V35.7107V35.7109V35.7111V35.7114V35.7116V35.7118V35.712V35.7122V35.7124V35.7126V35.7129V35.7131V35.7133V35.7135V35.7137V35.7139V35.7141V35.7143V35.7145V35.7147V35.7149V35.7151V35.7153V35.7155V35.7157V35.7159V35.7161V35.7162V35.7164V35.7166V35.7168V35.717V35.7172V35.7174V35.7176L60.6767 48.6411C60.6766 48.6416 60.6766 48.6421 60.6766 48.6426C60.676 48.6529 60.6751 48.6632 60.6738 48.6733L60.6753 48.6439L61.3153 35.6339ZM35.5865 48.6439L35.5879 48.6733C35.5867 48.6632 35.5858 48.653 35.5852 48.6427C35.5851 48.6421 35.5851 48.6416 35.5851 48.6411L34.9453 35.6348L34.9454 35.6348L34.9445 35.6224C34.9434 35.6071 34.9431 35.5917 34.9436 35.5762L34.9465 35.6339L35.5865 48.6439Z" fill="#C6E5CB" stroke="black"/>
<path d="M48.2244 37.8201L49.3744 39.7101C49.5444 39.9901 49.8244 40.1901 50.1344 40.2701L52.2844 40.7801C52.3644 40.8001 52.4044 40.9001 52.3444 40.9701L50.8944 42.6501C50.6844 42.9001 50.5744 43.2201 50.6044 43.5501L50.7844 45.7601C50.7844 45.8501 50.7044 45.9101 50.6244 45.8801L48.5844 45.0201C48.2844 44.8901 47.9444 44.8901 47.6444 45.0201L45.6044 45.8801C45.5244 45.9101 45.4344 45.8501 45.4444 45.7601L45.6244 43.5501C45.6544 43.2201 45.5444 42.9001 45.3344 42.6501L43.8844 40.9701C43.8244 40.9001 43.8644 40.8001 43.9444 40.7801L46.0944 40.2701C46.4144 40.1901 46.6844 39.9901 46.8544 39.7101L48.0044 37.8201C48.0444 37.7501 48.1544 37.7501 48.2044 37.8201H48.2244Z" fill="#45AD56" stroke="black" stroke-linecap="round" stroke-linejoin="round"/>
<path d="M42.359 72.004C42.359 73.9827 41.9437 75.728 41.113 77.24C40.2823 78.752 38.8497 80.026 36.815 81.062L36.143 80.11C38.2243 79.046 39.6477 77.6927 40.413 76.05L36.367 76.414L36.185 75.378L40.791 75.084C40.987 74.468 41.113 73.768 41.169 72.984H36.801V72.004H42.359ZM42.331 75.644H45.075V70.744H46.279V83.064H45.075V76.652H42.331V75.644ZM58.5013 70.744V83.064H57.2833V70.744H58.5013ZM48.3653 79.018C49.0747 79.018 49.6207 79.0133 50.0033 79.004V73.026H48.6733V72.046H55.6453V73.026H54.3153V78.864C55.1553 78.7893 55.7993 78.7287 56.2473 78.682L56.3313 79.564C55.1647 79.76 53.9607 79.886 52.7193 79.942C51.478 79.998 50.0687 80.0307 48.4913 80.04L48.3653 79.018ZM51.1793 78.99C52.0567 78.9713 52.71 78.9527 53.1393 78.934V73.026H51.1793V78.99Z" fill="#171717"/>
</svg>
