<svg width="49" height="48" viewBox="0 0 49 48" fill="none" xmlns="http://www.w3.org/2000/svg">
<path d="M8.63477 15.2695H40.6248C41.7248 15.2695 42.6248 16.1695 42.6248 17.2695V32.2695H8.63477C7.53477 32.2695 6.63477 31.3695 6.63477 30.2695V17.2695C6.63477 16.1695 7.53477 15.2695 8.63477 15.2695Z" fill="#8D8D9B" stroke="black" stroke-miterlimit="10"/>
<path d="M35.1557 15.27V10C35.1557 7.8 33.3557 6 31.1557 6H18.0957C15.8957 6 14.0957 7.8 14.0957 10V15.27H35.1557Z" fill="#E7E7EC" stroke="black" stroke-miterlimit="10"/>
<path d="M14.0957 27.2695V37.9995C14.0957 40.1995 15.8957 41.9995 18.0957 41.9995H31.1557C33.3557 41.9995 35.1557 40.1995 35.1557 37.9995V27.2695H14.0957Z" fill="#E7E7EC" stroke="black" stroke-miterlimit="10"/>
<path d="M16.6445 32.2695H32.6045" stroke="black" stroke-miterlimit="10" stroke-linecap="round"/>
<path d="M16.6445 34.9492H32.6045" stroke="black" stroke-miterlimit="10" stroke-linecap="round"/>
<path d="M16.6445 37.6309H32.6045" stroke="black" stroke-miterlimit="10" stroke-linecap="round"/>
</svg>
