<svg width="96" height="98" viewBox="0 0 96 98" fill="none" xmlns="http://www.w3.org/2000/svg">
<path d="M0.75 8C0.75 3.58172 4.33172 0 8.75 0H87.5C91.9183 0 95.5 3.58172 95.5 8V90C95.5 94.4183 91.9183 98 87.5 98H8.75C4.33172 98 0.75 94.4183 0.75 90V8Z" fill="white"/>
<path d="M66.1762 24.0604C65.4062 22.3504 64.0462 21.0104 62.3962 20.1804C61.3362 19.6404 60.0462 20.3204 59.7962 21.4804L59.4562 23.0504C59.2362 24.0604 59.8762 25.0504 60.8862 25.2704L62.0862 25.5304C62.7462 25.6704 63.2262 26.2404 63.2662 26.9104C63.4062 29.2004 62.8462 31.7904 61.7662 33.8204C61.4462 34.4204 60.7762 34.7304 60.1162 34.5904L58.9162 34.3304C57.9062 34.1104 56.9162 34.7504 56.6962 35.7604L56.3462 37.3804C56.0962 38.5304 56.9562 39.6704 58.1362 39.6404C64.1262 39.4904 68.0262 32.4004 66.9562 26.5804C66.8062 25.6804 66.5462 24.8404 66.1862 24.0504L66.1762 24.0604Z" fill="#FF513F" stroke="black" stroke-miterlimit="10"/>
<path d="M47.045 29.87V24C47.045 22.9 46.145 22 45.045 22H32.125C31.025 22 30.125 22.9 30.125 24V30.76C30.125 31.86 31.025 32.76 32.125 32.76H49.825L47.045 29.87Z" fill="#F9C00D" stroke="black" stroke-linecap="round" stroke-linejoin="round"/>
<path d="M30.0757 44.41C30.8457 42.7 32.2057 41.36 33.8557 40.53C34.9157 39.99 36.2057 40.67 36.4557 41.83L36.7957 43.4C37.0157 44.41 36.3757 45.4 35.3657 45.62L34.1657 45.88C33.5057 46.02 33.0257 46.59 32.9857 47.26C32.8457 49.55 33.4057 52.14 34.4857 54.17C34.8057 54.77 35.4757 55.08 36.1357 54.94L37.3357 54.68C38.3457 54.46 39.3357 55.1 39.5557 56.11L39.9057 57.73C40.1557 58.88 39.2957 60.02 38.1157 59.99C32.1257 59.84 28.2257 52.75 29.2957 46.93C29.4457 46.03 29.7057 45.19 30.0657 44.4L30.0757 44.41Z" fill="#45AD56" stroke="black" stroke-miterlimit="10"/>
<path d="M49.2058 55.1102V49.2402C49.2058 48.1402 50.1058 47.2402 51.2058 47.2402H64.1258C65.2258 47.2402 66.1258 48.1402 66.1258 49.2402V56.0002C66.1258 57.1002 65.2258 58.0002 64.1258 58.0002H46.4258L49.2058 55.1102Z" fill="#688AF2" stroke="black" stroke-linecap="round" stroke-linejoin="round"/>
<path d="M51.9258 50.4902H63.0858" stroke="black" stroke-miterlimit="10" stroke-linecap="round"/>
<path d="M51.9258 52.9297H63.0858" stroke="black" stroke-miterlimit="10" stroke-linecap="round"/>
<path d="M33.125 24.2695H44.285" stroke="black" stroke-miterlimit="10" stroke-linecap="round"/>
<path d="M33.125 26.7207H44.285" stroke="black" stroke-miterlimit="10" stroke-linecap="round"/>
<path d="M40.223 71.29V72.27H38.417V74.972H40.181V75.938H36.317V77.38H41.287V78.36H30.157V77.38H35.113V75.938H31.235V74.972H32.999V72.27H31.179V71.29H40.223ZM31.585 79.396H32.789V81.804H40.055V82.798H31.585V79.396ZM37.213 74.972V72.27H34.217V74.972H37.213ZM53.5513 78.024V79.004H48.5393V83.064H47.3353V79.004H42.3933V78.024H53.5513ZM43.7793 71.248H44.9833V72.886H50.9333V71.248H52.1373V76.582H43.7793V71.248ZM50.9333 75.602V73.852H44.9833V75.602H50.9333ZM60.7897 71.556V72.494C60.7897 73.1567 60.9997 73.8007 61.4197 74.426C61.849 75.042 62.409 75.5647 63.0997 75.994C63.7903 76.4233 64.5137 76.708 65.2697 76.848L64.7237 77.856C63.7437 77.6413 62.8337 77.226 61.9937 76.61C61.163 75.9847 60.5517 75.2427 60.1597 74.384C59.7583 75.2427 59.1423 75.9847 58.3117 76.61C57.481 77.226 56.5757 77.6413 55.5957 77.856L55.0777 76.848C55.815 76.708 56.529 76.4233 57.2197 75.994C57.9103 75.5553 58.4657 75.028 58.8857 74.412C59.315 73.796 59.5297 73.1567 59.5297 72.494V71.556H60.7897ZM54.6297 80.404H65.7877V81.412H54.6297V80.404Z" fill="#171717"/>
</svg>
