<svg width="95" height="98" viewBox="0 0 95 98" fill="none" xmlns="http://www.w3.org/2000/svg">
<path d="M0 8C0 3.58172 3.58172 0 8 0H86.75C91.1683 0 94.75 3.58172 94.75 8V90C94.75 94.4183 91.1683 98 86.75 98H8C3.58172 98 0 94.4183 0 90V8Z" fill="white"/>
<path d="M33.2354 33.4102C34.594 33.4102 35.6954 32.3089 35.6954 30.9502C35.6954 29.5916 34.594 28.4902 33.2354 28.4902C31.8768 28.4902 30.7754 29.5916 30.7754 30.9502C30.7754 32.3089 31.8768 33.4102 33.2354 33.4102Z" fill="#FAEC23" stroke="black" stroke-linecap="round" stroke-linejoin="round"/>
<path d="M33.2344 25.86V20" stroke="black" stroke-linecap="round" stroke-linejoin="round"/>
<path d="M33.2351 25.8594L27.9551 31.1294H38.5051L33.2351 25.8594Z" fill="#F77C01" stroke="black" stroke-linecap="round" stroke-linejoin="round"/>
<path d="M46.8448 33.4102C48.2034 33.4102 49.3048 32.3089 49.3048 30.9502C49.3048 29.5916 48.2034 28.4902 46.8448 28.4902C45.4861 28.4902 44.3848 29.5916 44.3848 30.9502C44.3848 32.3089 45.4861 33.4102 46.8448 33.4102Z" fill="#FAEC23" stroke="black" stroke-linecap="round" stroke-linejoin="round"/>
<path d="M46.8438 25.86V20" stroke="black" stroke-linecap="round" stroke-linejoin="round"/>
<path d="M46.8442 25.8594L41.5742 31.1294H52.1242L46.8442 25.8594Z" fill="#F77C01" stroke="black" stroke-linecap="round" stroke-linejoin="round"/>
<path d="M57.375 51.0098V53.5098H32.375V51.0098C32.375 49.6298 31.255 48.5098 29.875 48.5098C28.495 48.5098 27.375 49.6298 27.375 51.0098V58.5098H62.375V51.0098C62.375 49.6298 61.255 48.5098 59.875 48.5098C58.495 48.5098 57.375 49.6298 57.375 51.0098Z" fill="#175C25" stroke="black" stroke-linecap="round" stroke-linejoin="round"/>
<path d="M36.375 43.5098H40.875C43.085 43.5098 44.875 45.2998 44.875 47.5098V53.5098H32.375V47.5098C32.375 45.2998 34.165 43.5098 36.375 43.5098Z" fill="#175C25" stroke="black" stroke-linecap="round" stroke-linejoin="round"/>
<path d="M48.875 43.5098H53.375C55.585 43.5098 57.375 45.2998 57.375 47.5098V53.5098H44.875V47.5098C44.875 45.2998 46.665 43.5098 48.875 43.5098Z" fill="#175C25" stroke="black" stroke-linecap="round" stroke-linejoin="round"/>
<path d="M34.2754 58.5H30.2754V60H34.2754V58.5Z" fill="#175C25" stroke="black" stroke-linecap="round" stroke-linejoin="round"/>
<path d="M59.7051 58.5H55.7051V60H59.7051V58.5Z" fill="#175C25" stroke="black" stroke-linecap="round" stroke-linejoin="round"/>
<path d="M67.3744 23.9805H54.7344V37.9605H67.3744V23.9805Z" fill="#97BAFE" stroke="black" stroke-linecap="round" stroke-linejoin="round"/>
<path d="M64.8951 26.7207H57.2051V35.2307H64.8951V26.7207Z" fill="#E4EEFF" stroke="black" stroke-linecap="round" stroke-linejoin="round"/>
<path d="M61.0547 26.7207V35.2307" stroke="black" stroke-linecap="round" stroke-linejoin="round"/>
<path d="M57.3535 30.9707H64.7535" stroke="black" stroke-linecap="round" stroke-linejoin="round"/>
<path d="M38.913 70.716V75.588H40.901V76.61H38.913V83.078H37.709V70.716H38.913ZM29.883 71.878H35.469V76.33H31.129V79.102C32.2583 79.102 33.243 79.074 34.083 79.018C34.9323 78.9527 35.7957 78.8407 36.673 78.682L36.785 79.676C35.8703 79.844 34.9697 79.9607 34.083 80.026C33.1963 80.082 32.137 80.11 30.905 80.11H29.925V75.336H34.279V72.858H29.883V71.878ZM52.8013 76.96V77.94H47.9153V80.39H46.6833V77.94H41.6433V76.96H52.8013ZM42.8753 73.53C42.8753 73.026 43.0527 72.5873 43.4073 72.214C43.7713 71.8313 44.28 71.5373 44.9333 71.332C45.5867 71.1267 46.3427 71.024 47.2013 71.024C48.0693 71.024 48.83 71.1267 49.4833 71.332C50.146 71.5373 50.6547 71.8313 51.0093 72.214C51.364 72.5873 51.5413 73.026 51.5413 73.53C51.5413 74.034 51.364 74.4727 51.0093 74.846C50.6547 75.2193 50.146 75.5087 49.4833 75.714C48.83 75.91 48.0693 76.008 47.2013 76.008C46.3427 76.008 45.5867 75.91 44.9333 75.714C44.28 75.5087 43.7713 75.2193 43.4073 74.846C43.0527 74.4727 42.8753 74.034 42.8753 73.53ZM43.0433 79.172H44.2613V81.79H51.5693V82.784H43.0433V79.172ZM44.1633 73.53C44.1633 73.9873 44.4387 74.3513 44.9893 74.622C45.5493 74.8833 46.2867 75.014 47.2013 75.014C48.1253 75.014 48.8627 74.8833 49.4133 74.622C49.9733 74.3513 50.2533 73.9873 50.2533 73.53C50.2533 73.0633 49.9733 72.6947 49.4133 72.424C48.8627 72.1533 48.1253 72.018 47.2013 72.018C46.2867 72.018 45.5493 72.1533 44.9893 72.424C44.4387 72.6947 44.1633 73.0633 44.1633 73.53ZM61.1457 71.99V72.998H58.3037V74.44C58.3037 75.1213 58.4483 75.798 58.7377 76.47C59.027 77.142 59.419 77.7393 59.9137 78.262C60.4083 78.7753 60.959 79.1627 61.5657 79.424L60.8797 80.39C60.1703 80.0633 59.5357 79.5733 58.9757 78.92C58.425 78.2667 58.005 77.5247 57.7157 76.694C57.4263 77.59 57.0017 78.3973 56.4417 79.116C55.891 79.8253 55.261 80.3527 54.5517 80.698L53.8517 79.732C54.449 79.452 54.995 79.032 55.4897 78.472C55.9843 77.9027 56.3717 77.2633 56.6517 76.554C56.941 75.8447 57.0857 75.14 57.0857 74.44V72.998H54.2577V71.99H61.1457ZM62.7417 70.744H63.9597V83.064H62.7417V70.744Z" fill="#171717"/>
</svg>
