<svg width="95" height="98" viewBox="0 0 95 98" fill="none" xmlns="http://www.w3.org/2000/svg">
<path d="M0 8C0 3.58172 3.58172 0 8 0H86.75C91.1683 0 94.75 3.58172 94.75 8V90C94.75 94.4183 91.1683 98 86.75 98H8C3.58172 98 0 94.4183 0 90V8Z" fill="white"/>
<path d="M47.7852 49.7109C48.2352 50.9209 49.3852 51.7909 50.7552 51.7909C52.1252 51.7909 53.2752 50.9209 53.7252 49.7109H47.7852Z" fill="white" stroke="black" stroke-miterlimit="10"/>
<path d="M66.521 33.3937L50.5566 19.998L28.2326 46.6028L44.197 59.9985L66.521 33.3937Z" fill="#6E4114" stroke="black" stroke-miterlimit="10"/>
<path d="M62.8066 34.1025L50.5039 23.7793L31.9338 45.9103L44.2364 56.2335L62.8066 34.1025Z" fill="#6E4114" stroke="black" stroke-miterlimit="10"/>
<path d="M39.9678 32.6195L28.2305 46.6074L44.1948 60.0031L55.9321 46.0151L39.9678 32.6195Z" fill="#97BAFE" stroke="black" stroke-miterlimit="10"/>
<path d="M36.6656 35.2108C36.2656 35.6908 36.4556 36.4608 37.0656 36.6208C37.7456 36.8108 38.4656 36.7608 39.1856 36.5808C40.4756 36.2608 41.2256 36.7008 42.1556 37.5008C43.0856 38.3008 43.5756 39.0508 43.4556 40.2608C43.3256 41.5408 43.6856 42.5508 44.6356 43.3208C45.5856 44.0908 46.3456 44.0208 47.8556 43.8508C49.2156 43.7008 49.8656 43.9608 50.7856 44.7408C51.7056 45.5208 52.0456 46.1408 52.1756 47.4708C52.2456 48.1708 52.2756 48.8408 52.4856 49.4308C52.7156 50.0708 53.5656 50.2008 53.9956 49.6808L56.6156 46.5608L39.3256 32.0508L36.6856 35.2008L36.6656 35.2108Z" fill="#769EFA" stroke="black" stroke-linecap="round" stroke-linejoin="round"/>
<path d="M44.5651 46.2391C43.9551 45.7291 43.1451 45.6191 42.4451 45.8791C42.5751 45.1491 42.3251 44.3691 41.7151 43.8591C40.8051 43.0991 39.4451 43.2191 38.6851 44.1291C37.2051 45.8991 38.7751 49.2691 38.9251 50.0791C39.7351 50.0991 43.4751 50.8891 44.8251 49.2891C45.5851 48.3791 45.4651 47.0191 44.5551 46.2591L44.5651 46.2391Z" fill="#FF4163" stroke="black" stroke-linecap="round" stroke-linejoin="round"/>
<path d="M56.3753 29.2695L47.9453 39.3195" stroke="black" stroke-linecap="round" stroke-linejoin="round"/>
<path d="M47.2168 27.6992L59.5168 38.0192" stroke="black" stroke-linecap="round" stroke-linejoin="round"/>
<path d="M44.0762 31.4395L56.3762 41.7595" stroke="black" stroke-linecap="round" stroke-linejoin="round"/>
<path d="M35.567 71.556V72.494C35.567 73.1567 35.777 73.8007 36.197 74.426C36.6263 75.042 37.1863 75.5647 37.877 75.994C38.5677 76.4233 39.291 76.708 40.047 76.848L39.501 77.856C38.521 77.6413 37.611 77.226 36.771 76.61C35.9403 75.9847 35.329 75.2427 34.937 74.384C34.5357 75.2427 33.9197 75.9847 33.089 76.61C32.2583 77.226 31.353 77.6413 30.373 77.856L29.855 76.848C30.5923 76.708 31.3063 76.4233 31.997 75.994C32.6877 75.5553 33.243 75.028 33.663 74.412C34.0923 73.796 34.307 73.1567 34.307 72.494V71.556H35.567ZM29.407 80.404H40.565V81.412H29.407V80.404ZM52.0313 70.73V77.968H50.8833V74.804H49.2873V77.87H48.1393V70.968H49.2873V73.81H50.8833V70.73H52.0313ZM42.2313 71.57H43.4353V75.896C44.8447 75.8773 46.1233 75.7513 47.2713 75.518L47.4253 76.498C46.6787 76.6473 45.96 76.75 45.2693 76.806C44.5787 76.862 43.8273 76.89 43.0153 76.89H42.2313V71.57ZM43.7433 78.542H52.0313V83.064H50.8273V79.536H43.7433V78.542ZM63.3857 70.744V75.546H65.3737V76.568H63.3857V83.064H62.1677V70.744H63.3857ZM54.3697 71.78H55.5737V74.986H58.9477V71.78H60.1517V80.11H54.3697V71.78ZM58.9477 79.116V75.938H55.5737V79.116H58.9477Z" fill="#171717"/>
</svg>
