<svg width="24" height="24" viewBox="0 0 24 24" fill="none" xmlns="http://www.w3.org/2000/svg">
<g id="Icon/Tab" clip-path="url(#clip0_1575_1073)">
<path id="Rectangle 107" d="M4 11C4 6.58172 7.58172 3 12 3C16.4183 3 20 6.58172 20 11V23H4V11Z" fill="#BFD4FF" stroke="#8D8D9B" stroke-width="1.5"/>
<path id="Rectangle 108" d="M8 19C8 16.7909 9.79086 15 12 15C14.2091 15 16 16.7909 16 19V23H8V19Z" fill="#BFD4FF" stroke="#8D8D9B" stroke-width="1.5"/>
<g id="Union">
<path fill-rule="evenodd" clip-rule="evenodd" d="M9.25 1L1 8.68682L1 14.332H2.56915L12 5.13411L21.4308 14.332H22.9999V8.68682L14.7499 1H14.4444H9.55547H9.25Z" fill="#BFD4FF"/>
<path d="M1 8.68682L0.48873 8.13809L0.25 8.36053L0.25 8.68682H1ZM9.25 1V0.25H8.95475L8.73873 0.451271L9.25 1ZM1 14.332H0.25L0.25 15.082H1V14.332ZM2.56915 14.332V15.082H2.87433L3.09281 14.8689L2.56915 14.332ZM12 5.13411L12.5236 4.59719L12 4.08647L11.4763 4.59719L12 5.13411ZM21.4308 14.332L20.9071 14.8689L21.1256 15.082H21.4308V14.332ZM22.9999 14.332V15.082H23.7499V14.332H22.9999ZM22.9999 8.68682H23.7499V8.36053L23.5112 8.13809L22.9999 8.68682ZM14.7499 1L15.2612 0.451271L15.0452 0.25H14.7499V1ZM1.51127 9.23555L9.76127 1.54873L8.73873 0.451271L0.48873 8.13809L1.51127 9.23555ZM1.75 14.332L1.75 8.68682H0.25L0.25 14.332H1.75ZM2.56915 13.582H1V15.082H2.56915V13.582ZM11.4763 4.59719L2.0455 13.7951L3.09281 14.8689L12.5236 5.67103L11.4763 4.59719ZM11.4763 5.67103L20.9071 14.8689L21.9544 13.7951L12.5236 4.59719L11.4763 5.67103ZM21.4308 15.082H22.9999V13.582H21.4308V15.082ZM23.7499 14.332V8.68682H22.2499V14.332H23.7499ZM23.5112 8.13809L15.2612 0.451271L14.2386 1.54873L22.4886 9.23555L23.5112 8.13809ZM14.7499 0.25H14.4444V1.75H14.7499V0.25ZM14.4444 0.25H9.55547V1.75H14.4444V0.25ZM9.25 1.75H9.55547V0.25H9.25V1.75Z" fill="#8D8D9B"/>
</g>
</g>
<defs>
<clipPath id="clip0_1575_1073">
<rect width="24" height="24" fill="white"/>
</clipPath>
</defs>
</svg>
