<svg width="48" height="48" viewBox="0 0 48 48" fill="none" xmlns="http://www.w3.org/2000/svg">
<path fill-rule="evenodd" clip-rule="evenodd" d="M8 11H30V25H16.5L10.5 31H8V25V21V11Z" fill="#BFD4FF"/>
<path d="M30 11H30.75V10.25H30V11ZM8 11V10.25H7.25V11H8ZM30 25V25.75H30.75V25H30ZM16.5 25V24.25H16.1893L15.9697 24.4697L16.5 25ZM10.5 31V31.75H10.8107L11.0303 31.5303L10.5 31ZM8 31H7.25V31.75H8V31ZM30 10.25H8V11.75H30V10.25ZM30.75 25V11H29.25V25H30.75ZM16.5 25.75H30V24.25H16.5V25.75ZM11.0303 31.5303L17.0303 25.5303L15.9697 24.4697L9.96967 30.4697L11.0303 31.5303ZM8 31.75H10.5V30.25H8V31.75ZM7.25 25V31H8.75V25H7.25ZM7.25 21V25H8.75V21H7.25ZM7.25 11V21H8.75V11H7.25Z" fill="#171717"/>
<path fill-rule="evenodd" clip-rule="evenodd" d="M40 17H18V31H31.4999L37.4999 37H39.9999V31H40V17Z" fill="#BFD4FF"/>
<path d="M18 17V16.25H17.25V17H18ZM40 17H40.75V16.25H40V17ZM18 31H17.25V31.75H18V31ZM31.4999 31L32.0303 30.4697L31.8106 30.25H31.4999V31ZM37.4999 37L36.9696 37.5303L37.1893 37.75H37.4999V37ZM39.9999 37V37.75H40.7499V37H39.9999ZM39.9999 31V30.25H39.2499V31H39.9999ZM40 31V31.75H40.75V31H40ZM18 17.75H40V16.25H18V17.75ZM18.75 31V17H17.25V31H18.75ZM31.4999 30.25H18V31.75H31.4999V30.25ZM38.0303 36.4697L32.0303 30.4697L30.9696 31.5303L36.9696 37.5303L38.0303 36.4697ZM39.9999 36.25H37.4999V37.75H39.9999V36.25ZM39.2499 31V37H40.7499V31H39.2499ZM40 30.25H39.9999V31.75H40V30.25ZM39.25 17V31H40.75V17H39.25Z" fill="#171717"/>
<rect x="23" y="23" width="2" height="2" fill="#171717"/>
<rect x="28" y="23" width="2" height="2" fill="#171717"/>
<rect x="33" y="23" width="2" height="2" fill="#171717"/>
</svg>
