<svg width="1005" height="820" viewBox="0 0 1005 820" fill="none" xmlns="http://www.w3.org/2000/svg">
<g clip-path="url(#clip0_3397_248574)">
<rect width="1005" height="820" fill="#3E3E49"/>
<rect x="590" y="566" width="48" height="24" rx="4" transform="rotate(90 590 566)" fill="#797986"/>
<rect x="590" y="616" width="48" height="24" rx="4" transform="rotate(90 590 616)" fill="#797986"/>
<rect x="590" y="666" width="48" height="24" rx="4" transform="rotate(90 590 666)" fill="#797986"/>
<rect x="616" y="566" width="48" height="24" rx="4" transform="rotate(90 616 566)" fill="#797986"/>
<rect x="616" y="616" width="48" height="24" rx="4" transform="rotate(90 616 616)" fill="#797986"/>
<rect x="616" y="666" width="48" height="24" rx="4" transform="rotate(90 616 666)" fill="#797986"/>
<rect x="608" y="572" width="36" height="36" rx="18" fill="#3E3E49"/>
<rect x="608" y="572" width="36" height="36" rx="18" stroke="#797986" stroke-width="2"/>
<path d="M614.472 585.74H615.744V594.596H614.472V585.74ZM617.491 589.448H622.723V590.72H617.491V589.448ZM624.276 593.42C626.028 591.74 628.416 590.036 628.416 588.56C628.416 587.576 627.792 586.88 626.904 586.88C626.22 586.88 625.536 587.372 625.224 588.08L624.108 587.588C624.588 586.484 625.752 585.716 626.904 585.716C628.548 585.716 629.688 586.892 629.688 588.56C629.688 590.396 627.696 592.028 626.076 593.42H629.832V594.536H624.396L624.276 593.42ZM633.986 593.588C634.982 593.588 635.678 592.952 635.678 592.04C635.678 591.128 634.982 590.48 633.986 590.48C632.99 590.48 632.282 591.128 632.282 592.04C632.282 592.952 632.99 593.588 633.986 593.588ZM631.01 592.064C631.01 591.296 631.61 590.408 632.45 589.94C631.754 589.46 631.25 588.68 631.25 588.056C631.25 586.64 632.378 585.656 633.986 585.656C635.594 585.656 636.722 586.64 636.722 588.056C636.722 588.692 636.23 589.472 635.522 589.94C636.362 590.42 636.962 591.296 636.962 592.064C636.962 593.6 635.738 594.68 633.986 594.68C632.246 594.68 631.01 593.6 631.01 592.064ZM632.534 588.056C632.534 588.836 633.134 589.388 633.986 589.388C634.85 589.388 635.45 588.836 635.45 588.056C635.45 587.276 634.85 586.736 633.986 586.736C633.134 586.736 632.534 587.276 632.534 588.056Z" fill="#797986"/>
<rect x="608" y="622" width="36" height="36" rx="18" fill="#3E3E49"/>
<rect x="608" y="622" width="36" height="36" rx="18" stroke="#797986" stroke-width="2"/>
<path d="M614.472 635.74H615.744V644.596H614.472V635.74ZM617.491 639.448H622.723V640.72H617.491V639.448ZM624.276 643.42C626.028 641.74 628.416 640.036 628.416 638.56C628.416 637.576 627.792 636.88 626.904 636.88C626.22 636.88 625.536 637.372 625.224 638.08L624.108 637.588C624.588 636.484 625.752 635.716 626.904 635.716C628.548 635.716 629.688 636.892 629.688 638.56C629.688 640.396 627.696 642.028 626.076 643.42H629.832V644.536H624.396L624.276 643.42ZM634.046 636.82C633.014 636.82 632.282 637.564 632.282 638.62C632.282 639.676 633.014 640.42 634.046 640.42C635.066 640.42 635.786 639.676 635.786 638.62C635.786 637.564 635.066 636.82 634.046 636.82ZM631.01 638.62C631.01 636.904 632.258 635.704 634.034 635.704C635.81 635.704 637.058 636.904 637.058 638.62C637.058 639.244 636.83 639.82 636.578 640.276L634.178 644.548H632.714L634.454 641.488C634.31 641.512 634.166 641.536 634.01 641.536C632.246 641.524 631.01 640.324 631.01 638.62Z" fill="#797986"/>
<rect x="608" y="672" width="36" height="36" rx="18" fill="#3E3E49"/>
<rect x="608" y="672" width="36" height="36" rx="18" stroke="#797986" stroke-width="2"/>
<path d="M614.472 685.74H615.744V694.596H614.472V685.74ZM617.491 689.448H622.723V690.72H617.491V689.448ZM628.74 690.024C629.52 690.48 630.012 691.332 630.012 692.064C630.012 693.552 628.788 694.608 627.048 694.608C625.32 694.608 624.096 693.528 624.096 691.992H625.368C625.368 692.868 626.064 693.48 627.048 693.48C628.056 693.48 628.776 692.868 628.776 691.992C628.776 691.152 628.068 690.552 627.072 690.552H626.448V689.484H627.084C627.996 689.484 628.644 688.944 628.644 688.176C628.644 687.396 628.02 686.856 627.132 686.856C626.244 686.856 625.632 687.408 625.632 688.188H624.36C624.36 686.736 625.5 685.728 627.132 685.728C628.74 685.728 629.88 686.712 629.88 688.104C629.88 688.776 629.448 689.568 628.74 690.024ZM634.462 693.492C635.662 693.492 636.466 692.148 636.466 690.168C636.466 688.176 635.662 686.832 634.462 686.832C633.262 686.832 632.446 688.176 632.446 690.168C632.446 692.148 633.262 693.492 634.462 693.492ZM631.174 690.168C631.174 687.552 632.53 685.716 634.462 685.716C636.382 685.716 637.738 687.552 637.738 690.168C637.738 692.772 636.382 694.62 634.462 694.62C632.53 694.62 631.174 692.772 631.174 690.168Z" fill="#797986"/>
<rect x="538" y="572" width="36" height="36" rx="18" fill="#3E3E49"/>
<rect x="538" y="572" width="36" height="36" rx="18" stroke="#797986" stroke-width="2"/>
<path d="M544.472 585.74H545.744V594.596H544.472V585.74ZM547.491 589.448H552.723V590.72H547.491V589.448ZM554.276 593.42C556.028 591.74 558.416 590.036 558.416 588.56C558.416 587.576 557.792 586.88 556.904 586.88C556.22 586.88 555.536 587.372 555.224 588.08L554.108 587.588C554.588 586.484 555.752 585.716 556.904 585.716C558.548 585.716 559.688 586.892 559.688 588.56C559.688 590.396 557.696 592.028 556.076 593.42H559.832V594.536H554.396L554.276 593.42ZM562.63 590.624L561.358 590.468L561.658 585.8H566.326V586.916H562.882L562.738 589.052C563.134 588.872 563.578 588.764 563.974 588.764C565.774 588.764 567.046 589.976 567.046 591.692C567.046 593.432 565.774 594.656 563.974 594.656C562.558 594.656 561.334 593.708 561.022 592.364L562.258 592.076C562.438 592.88 563.146 593.456 563.974 593.456C565.03 593.456 565.774 592.724 565.774 591.692C565.774 590.684 565.03 589.964 563.974 589.964C563.53 589.964 562.978 590.24 562.63 590.624Z" fill="#797986"/>
<rect x="538" y="622" width="36" height="36" rx="18" fill="#3E3E49"/>
<rect x="538" y="622" width="36" height="36" rx="18" stroke="#797986" stroke-width="2"/>
<path d="M544.472 635.74H545.744V644.596H544.472V635.74ZM547.491 639.448H552.723V640.72H547.491V639.448ZM554.276 643.42C556.028 641.74 558.416 640.036 558.416 638.56C558.416 637.576 557.792 636.88 556.904 636.88C556.22 636.88 555.536 637.372 555.224 638.08L554.108 637.588C554.588 636.484 555.752 635.716 556.904 635.716C558.548 635.716 559.688 636.892 559.688 638.56C559.688 640.396 557.696 642.028 556.076 643.42H559.832V644.536H554.396L554.276 643.42ZM564.022 643.504C565.054 643.504 565.786 642.76 565.786 641.716C565.786 640.648 565.054 639.904 564.022 639.904C563.002 639.904 562.282 640.648 562.282 641.716C562.282 642.76 563.002 643.504 564.022 643.504ZM561.01 641.716C561.01 641.08 561.238 640.516 561.49 640.048L563.89 635.776H565.354L563.614 638.836C563.758 638.812 563.902 638.788 564.058 638.788C565.822 638.8 567.058 640 567.058 641.716C567.058 643.42 565.81 644.62 564.034 644.62C562.258 644.62 561.01 643.42 561.01 641.716Z" fill="#797986"/>
<rect x="538" y="672" width="36" height="36" rx="18" fill="#3E3E49"/>
<rect x="538" y="672" width="36" height="36" rx="18" stroke="#797986" stroke-width="2"/>
<path d="M544.972 685.74H546.244V694.596H544.972V685.74ZM547.991 689.448H553.223V690.72H547.991V689.448ZM554.776 693.42C556.528 691.74 558.916 690.036 558.916 688.56C558.916 687.576 558.292 686.88 557.404 686.88C556.72 686.88 556.036 687.372 555.724 688.08L554.608 687.588C555.088 686.484 556.252 685.716 557.404 685.716C559.048 685.716 560.188 686.892 560.188 688.56C560.188 690.396 558.196 692.028 556.576 693.42H560.332V694.536H554.896L554.776 693.42ZM563.682 694.56H562.29L565.71 686.88L561.702 686.892V685.764H566.982L567.102 686.88L563.682 694.56Z" fill="#797986"/>
<rect x="436" y="516" width="48" height="24" rx="4" transform="rotate(90 436 516)" fill="#797986"/>
<rect x="436" y="566" width="48" height="24" rx="4" transform="rotate(90 436 566)" fill="#797986"/>
<rect x="436" y="616" width="48" height="24" rx="4" transform="rotate(90 436 616)" fill="#797986"/>
<rect x="436" y="666" width="48" height="24" rx="4" transform="rotate(90 436 666)" fill="#797986"/>
<rect x="462" y="516" width="48" height="24" rx="4" transform="rotate(90 462 516)" fill="#797986"/>
<rect x="462" y="566" width="48" height="24" rx="4" transform="rotate(90 462 566)" fill="#797986"/>
<rect x="462" y="616" width="48" height="24" rx="4" transform="rotate(90 462 616)" fill="#797986"/>
<rect x="462" y="666" width="48" height="24" rx="4" transform="rotate(90 462 666)" fill="#797986"/>
<rect x="454" y="522" width="36" height="36" rx="18" fill="#3E3E49"/>
<rect x="454" y="522" width="36" height="36" rx="18" stroke="#797986" stroke-width="2"/>
<path d="M461.972 535.74H463.244V544.596H461.972V535.74ZM464.991 539.448H470.223V540.72H464.991V539.448ZM471.776 543.42C473.528 541.74 475.916 540.036 475.916 538.56C475.916 537.576 475.292 536.88 474.404 536.88C473.72 536.88 473.036 537.372 472.724 538.08L471.608 537.588C472.088 536.484 473.252 535.716 474.404 535.716C476.048 535.716 477.188 536.892 477.188 538.56C477.188 540.396 475.196 542.028 473.576 543.42H477.332V544.536H471.896L471.776 543.42ZM481.762 535.812V544.536L480.49 544.524V537.168L478.954 538.02L478.426 536.952L480.502 535.812H481.762Z" fill="#797986"/>
<rect x="454" y="572" width="36" height="36" rx="18" fill="#3E3E49"/>
<rect x="454" y="572" width="36" height="36" rx="18" stroke="#797986" stroke-width="2"/>
<path d="M460.972 585.74H462.244V594.596H460.972V585.74ZM463.991 589.448H469.223V590.72H463.991V589.448ZM470.776 593.42C472.528 591.74 474.916 590.036 474.916 588.56C474.916 587.576 474.292 586.88 473.404 586.88C472.72 586.88 472.036 587.372 471.724 588.08L470.608 587.588C471.088 586.484 472.252 585.716 473.404 585.716C475.048 585.716 476.188 586.892 476.188 588.56C476.188 590.396 474.196 592.028 472.576 593.42H476.332V594.536H470.896L470.776 593.42ZM477.69 593.42C479.442 591.74 481.83 590.036 481.83 588.56C481.83 587.576 481.206 586.88 480.318 586.88C479.634 586.88 478.95 587.372 478.638 588.08L477.522 587.588C478.002 586.484 479.166 585.716 480.318 585.716C481.962 585.716 483.102 586.892 483.102 588.56C483.102 590.396 481.11 592.028 479.49 593.42H483.246V594.536H477.81L477.69 593.42Z" fill="#797986"/>
<rect x="454" y="622" width="36" height="36" rx="18" fill="#3E3E49"/>
<rect x="454" y="622" width="36" height="36" rx="18" stroke="#797986" stroke-width="2"/>
<path d="M460.472 635.74H461.744V644.596H460.472V635.74ZM463.491 639.448H468.723V640.72H463.491V639.448ZM470.276 643.42C472.028 641.74 474.416 640.036 474.416 638.56C474.416 637.576 473.792 636.88 472.904 636.88C472.22 636.88 471.536 637.372 471.224 638.08L470.108 637.588C470.588 636.484 471.752 635.716 472.904 635.716C474.548 635.716 475.688 636.892 475.688 638.56C475.688 640.396 473.696 642.028 472.076 643.42H475.832V644.536H470.396L470.276 643.42ZM481.654 640.024C482.434 640.48 482.926 641.332 482.926 642.064C482.926 643.552 481.702 644.608 479.962 644.608C478.234 644.608 477.01 643.528 477.01 641.992H478.282C478.282 642.868 478.978 643.48 479.962 643.48C480.97 643.48 481.69 642.868 481.69 641.992C481.69 641.152 480.982 640.552 479.986 640.552H479.362V639.484H479.998C480.91 639.484 481.558 638.944 481.558 638.176C481.558 637.396 480.934 636.856 480.046 636.856C479.158 636.856 478.546 637.408 478.546 638.188H477.274C477.274 636.736 478.414 635.728 480.046 635.728C481.654 635.728 482.794 636.712 482.794 638.104C482.794 638.776 482.362 639.568 481.654 640.024Z" fill="#797986"/>
<rect x="454" y="672" width="36" height="36" rx="18" fill="#3E3E49"/>
<rect x="454" y="672" width="36" height="36" rx="18" stroke="#797986" stroke-width="2"/>
<path d="M460.472 685.74H461.744V694.596H460.472V685.74ZM463.491 689.448H468.723V690.72H463.491V689.448ZM470.276 693.42C472.028 691.74 474.416 690.036 474.416 688.56C474.416 687.576 473.792 686.88 472.904 686.88C472.22 686.88 471.536 687.372 471.224 688.08L470.108 687.588C470.588 686.484 471.752 685.716 472.904 685.716C474.548 685.716 475.688 686.892 475.688 688.56C475.688 690.396 473.696 692.028 472.076 693.42H475.832V694.536H470.396L470.276 693.42ZM482.158 685.8V691.176H483.262V692.28H482.158V694.536H480.886V692.28H477.13L477.01 691.176L480.946 685.8H482.158ZM478.522 691.176H480.886V687.924L478.522 691.176Z" fill="#797986"/>
<rect x="384" y="522" width="36" height="36" rx="18" fill="#3E3E49"/>
<rect x="384" y="522" width="36" height="36" rx="18" stroke="#797986" stroke-width="2"/>
<path d="M391.972 535.74H393.244V544.596H391.972V535.74ZM394.991 539.448H400.223V540.72H394.991V539.448ZM404.848 535.812V544.536L403.576 544.524V537.168L402.04 538.02L401.512 536.952L403.588 535.812H404.848ZM408.783 544.56H407.391L410.811 536.88L406.803 536.892V535.764H412.083L412.203 536.88L408.783 544.56Z" fill="#797986"/>
<rect x="384" y="572" width="36" height="36" rx="18" fill="#3E3E49"/>
<rect x="384" y="572" width="36" height="36" rx="18" stroke="#797986" stroke-width="2"/>
<path d="M391.472 585.74H392.744V594.596H391.472V585.74ZM394.491 589.448H399.723V590.72H394.491V589.448ZM404.348 585.812V594.536L403.076 594.524V587.168L401.54 588.02L401.012 586.952L403.088 585.812H404.348ZM409.087 593.588C410.083 593.588 410.779 592.952 410.779 592.04C410.779 591.128 410.083 590.48 409.087 590.48C408.091 590.48 407.383 591.128 407.383 592.04C407.383 592.952 408.091 593.588 409.087 593.588ZM406.111 592.064C406.111 591.296 406.711 590.408 407.551 589.94C406.855 589.46 406.351 588.68 406.351 588.056C406.351 586.64 407.479 585.656 409.087 585.656C410.695 585.656 411.823 586.64 411.823 588.056C411.823 588.692 411.331 589.472 410.623 589.94C411.463 590.42 412.063 591.296 412.063 592.064C412.063 593.6 410.839 594.68 409.087 594.68C407.347 594.68 406.111 593.6 406.111 592.064ZM407.635 588.056C407.635 588.836 408.235 589.388 409.087 589.388C409.951 589.388 410.551 588.836 410.551 588.056C410.551 587.276 409.951 586.736 409.087 586.736C408.235 586.736 407.635 587.276 407.635 588.056Z" fill="#797986"/>
<rect x="384" y="622" width="36" height="36" rx="18" fill="#3E3E49"/>
<rect x="384" y="622" width="36" height="36" rx="18" stroke="#797986" stroke-width="2"/>
<path d="M391.472 635.74H392.744V644.596H391.472V635.74ZM394.491 639.448H399.723V640.72H394.491V639.448ZM404.348 635.812V644.536L403.076 644.524V637.168L401.54 638.02L401.012 636.952L403.088 635.812H404.348ZM409.147 636.82C408.115 636.82 407.383 637.564 407.383 638.62C407.383 639.676 408.115 640.42 409.147 640.42C410.167 640.42 410.887 639.676 410.887 638.62C410.887 637.564 410.167 636.82 409.147 636.82ZM406.111 638.62C406.111 636.904 407.359 635.704 409.135 635.704C410.911 635.704 412.159 636.904 412.159 638.62C412.159 639.244 411.931 639.82 411.679 640.276L409.279 644.548H407.815L409.555 641.488C409.411 641.512 409.267 641.536 409.111 641.536C407.347 641.524 406.111 640.324 406.111 638.62Z" fill="#797986"/>
<rect x="384" y="672" width="36" height="36" rx="18" fill="#3E3E49"/>
<rect x="384" y="672" width="36" height="36" rx="18" stroke="#797986" stroke-width="2"/>
<path d="M390.472 685.74H391.744V694.596H390.472V685.74ZM393.491 689.448H398.723V690.72H393.491V689.448ZM400.276 693.42C402.028 691.74 404.416 690.036 404.416 688.56C404.416 687.576 403.792 686.88 402.904 686.88C402.22 686.88 401.536 687.372 401.224 688.08L400.108 687.588C400.588 686.484 401.752 685.716 402.904 685.716C404.548 685.716 405.688 686.892 405.688 688.56C405.688 690.396 403.696 692.028 402.076 693.42H405.832V694.536H400.396L400.276 693.42ZM410.286 693.492C411.486 693.492 412.29 692.148 412.29 690.168C412.29 688.176 411.486 686.832 410.286 686.832C409.086 686.832 408.27 688.176 408.27 690.168C408.27 692.148 409.086 693.492 410.286 693.492ZM406.998 690.168C406.998 687.552 408.354 685.716 410.286 685.716C412.206 685.716 413.562 687.552 413.562 690.168C413.562 692.772 412.206 694.62 410.286 694.62C408.354 694.62 406.998 692.772 406.998 690.168Z" fill="#797986"/>
<rect x="282" y="516" width="48" height="24" rx="4" transform="rotate(90 282 516)" fill="#797986"/>
<rect x="282" y="566" width="48" height="24" rx="4" transform="rotate(90 282 566)" fill="#797986"/>
<rect x="282" y="616" width="48" height="24" rx="4" transform="rotate(90 282 616)" fill="#797986"/>
<rect x="282" y="666" width="48" height="24" rx="4" transform="rotate(90 282 666)" fill="#797986"/>
<rect x="308" y="516" width="48" height="24" rx="4" transform="rotate(90 308 516)" fill="#797986"/>
<rect x="308" y="566" width="48" height="24" rx="4" transform="rotate(90 308 566)" fill="#797986"/>
<rect x="308" y="616" width="48" height="24" rx="4" transform="rotate(90 308 616)" fill="#797986"/>
<rect x="308" y="666" width="48" height="24" rx="4" transform="rotate(90 308 666)" fill="#797986"/>
<rect x="300" y="522" width="36" height="36" rx="18" fill="#3E3E49"/>
<rect x="300" y="522" width="36" height="36" rx="18" stroke="#797986" stroke-width="2"/>
<path d="M307.472 535.74H308.744V544.596H307.472V535.74ZM310.491 539.448H315.723V540.72H310.491V539.448ZM320.348 535.812V544.536L319.076 544.524V537.168L317.54 538.02L317.012 536.952L319.088 535.812H320.348ZM326.755 540.024C327.535 540.48 328.027 541.332 328.027 542.064C328.027 543.552 326.803 544.608 325.063 544.608C323.335 544.608 322.111 543.528 322.111 541.992H323.383C323.383 542.868 324.079 543.48 325.063 543.48C326.071 543.48 326.791 542.868 326.791 541.992C326.791 541.152 326.083 540.552 325.087 540.552H324.463V539.484H325.099C326.011 539.484 326.659 538.944 326.659 538.176C326.659 537.396 326.035 536.856 325.147 536.856C324.259 536.856 323.647 537.408 323.647 538.188H322.375C322.375 536.736 323.515 535.728 325.147 535.728C326.755 535.728 327.895 536.712 327.895 538.104C327.895 538.776 327.463 539.568 326.755 540.024Z" fill="#797986"/>
<rect x="300" y="572" width="36" height="36" rx="18" fill="#3E3E49"/>
<rect x="300" y="572" width="36" height="36" rx="18" stroke="#797986" stroke-width="2"/>
<path d="M307.472 585.74H308.744V594.596H307.472V585.74ZM310.491 589.448H315.723V590.72H310.491V589.448ZM320.348 585.812V594.536L319.076 594.524V587.168L317.54 588.02L317.012 586.952L319.088 585.812H320.348ZM327.259 585.8V591.176H328.363V592.28H327.259V594.536H325.987V592.28H322.231L322.111 591.176L326.047 585.8H327.259ZM323.623 591.176H325.987V587.924L323.623 591.176Z" fill="#797986"/>
<rect x="300" y="622" width="36" height="36" rx="18" fill="#3E3E49"/>
<rect x="300" y="622" width="36" height="36" rx="18" stroke="#797986" stroke-width="2"/>
<path d="M307.472 635.74H308.744V644.596H307.472V635.74ZM310.491 639.448H315.723V640.72H310.491V639.448ZM320.348 635.812V644.536L319.076 644.524V637.168L317.54 638.02L317.012 636.952L319.088 635.812H320.348ZM323.731 640.624L322.459 640.468L322.759 635.8H327.427V636.916H323.983L323.839 639.052C324.235 638.872 324.679 638.764 325.075 638.764C326.875 638.764 328.147 639.976 328.147 641.692C328.147 643.432 326.875 644.656 325.075 644.656C323.659 644.656 322.435 643.708 322.123 642.364L323.359 642.076C323.539 642.88 324.247 643.456 325.075 643.456C326.131 643.456 326.875 642.724 326.875 641.692C326.875 640.684 326.131 639.964 325.075 639.964C324.631 639.964 324.079 640.24 323.731 640.624Z" fill="#797986"/>
<rect x="300" y="672" width="36" height="36" rx="18" fill="#3E3E49"/>
<rect x="300" y="672" width="36" height="36" rx="18" stroke="#797986" stroke-width="2"/>
<path d="M307.472 685.74H308.744V694.596H307.472V685.74ZM310.491 689.448H315.723V690.72H310.491V689.448ZM320.348 685.812V694.536L319.076 694.524V687.168L317.54 688.02L317.012 686.952L319.088 685.812H320.348ZM325.123 693.504C326.155 693.504 326.887 692.76 326.887 691.716C326.887 690.648 326.155 689.904 325.123 689.904C324.103 689.904 323.383 690.648 323.383 691.716C323.383 692.76 324.103 693.504 325.123 693.504ZM322.111 691.716C322.111 691.08 322.339 690.516 322.591 690.048L324.991 685.776H326.455L324.715 688.836C324.859 688.812 325.003 688.788 325.159 688.788C326.923 688.8 328.159 690 328.159 691.716C328.159 693.42 326.911 694.62 325.135 694.62C323.359 694.62 322.111 693.42 322.111 691.716Z" fill="#797986"/>
<rect x="230" y="522" width="36" height="36" rx="18" fill="#3E3E49"/>
<rect x="230" y="522" width="36" height="36" rx="18" stroke="#797986" stroke-width="2"/>
<path d="M236.472 535.74H237.744V544.596H236.472V535.74ZM239.491 539.448H244.723V540.72H239.491V539.448ZM249.372 543.492C250.572 543.492 251.376 542.148 251.376 540.168C251.376 538.176 250.572 536.832 249.372 536.832C248.172 536.832 247.356 538.176 247.356 540.168C247.356 542.148 248.172 543.492 249.372 543.492ZM246.084 540.168C246.084 537.552 247.44 535.716 249.372 535.716C251.292 535.716 252.648 537.552 252.648 540.168C252.648 542.772 251.292 544.62 249.372 544.62C247.44 544.62 246.084 542.772 246.084 540.168ZM256.854 536.82C255.822 536.82 255.09 537.564 255.09 538.62C255.09 539.676 255.822 540.42 256.854 540.42C257.874 540.42 258.594 539.676 258.594 538.62C258.594 537.564 257.874 536.82 256.854 536.82ZM253.818 538.62C253.818 536.904 255.066 535.704 256.842 535.704C258.618 535.704 259.866 536.904 259.866 538.62C259.866 539.244 259.638 539.82 259.386 540.276L256.986 544.548H255.522L257.262 541.488C257.118 541.512 256.974 541.536 256.818 541.536C255.054 541.524 253.818 540.324 253.818 538.62Z" fill="#797986"/>
<rect x="230" y="572" width="36" height="36" rx="18" fill="#3E3E49"/>
<rect x="230" y="572" width="36" height="36" rx="18" stroke="#797986" stroke-width="2"/>
<path d="M237.472 585.74H238.744V594.596H237.472V585.74ZM240.491 589.448H245.723V590.72H240.491V589.448ZM250.348 585.812V594.536L249.076 594.524V587.168L247.54 588.02L247.012 586.952L249.088 585.812H250.348ZM255.387 593.492C256.587 593.492 257.391 592.148 257.391 590.168C257.391 588.176 256.587 586.832 255.387 586.832C254.187 586.832 253.371 588.176 253.371 590.168C253.371 592.148 254.187 593.492 255.387 593.492ZM252.099 590.168C252.099 587.552 253.455 585.716 255.387 585.716C257.307 585.716 258.663 587.552 258.663 590.168C258.663 592.772 257.307 594.62 255.387 594.62C253.455 594.62 252.099 592.772 252.099 590.168Z" fill="#797986"/>
<rect x="230" y="622" width="36" height="36" rx="18" fill="#3E3E49"/>
<rect x="230" y="622" width="36" height="36" rx="18" stroke="#797986" stroke-width="2"/>
<path d="M238.472 635.74H239.744V644.596H238.472V635.74ZM241.491 639.448H246.723V640.72H241.491V639.448ZM251.348 635.812V644.536L250.076 644.524V637.168L248.54 638.02L248.012 636.952L250.088 635.812H251.348ZM256.844 635.812V644.536L255.572 644.524V637.168L254.036 638.02L253.508 636.952L255.584 635.812H256.844Z" fill="#797986"/>
<rect x="230" y="672" width="36" height="36" rx="18" fill="#3E3E49"/>
<rect x="230" y="672" width="36" height="36" rx="18" stroke="#797986" stroke-width="2"/>
<path d="M237.972 685.74H239.244V694.596H237.972V685.74ZM240.991 689.448H246.223V690.72H240.991V689.448ZM250.848 685.812V694.536L249.576 694.524V687.168L248.04 688.02L247.512 686.952L249.588 685.812H250.848ZM252.791 693.42C254.543 691.74 256.931 690.036 256.931 688.56C256.931 687.576 256.307 686.88 255.419 686.88C254.735 686.88 254.051 687.372 253.739 688.08L252.623 687.588C253.103 686.484 254.267 685.716 255.419 685.716C257.063 685.716 258.203 686.892 258.203 688.56C258.203 690.396 256.211 692.028 254.591 693.42H258.347V694.536H252.911L252.791 693.42Z" fill="#797986"/>
<rect x="128" y="516" width="48" height="24" rx="4" transform="rotate(90 128 516)" fill="#797986"/>
<rect x="128" y="566" width="48" height="24" rx="4" transform="rotate(90 128 566)" fill="#797986"/>
<rect x="128" y="616" width="48" height="24" rx="4" transform="rotate(90 128 616)" fill="#797986"/>
<rect x="128" y="666" width="48" height="24" rx="4" transform="rotate(90 128 666)" fill="#797986"/>
<rect x="154" y="516" width="48" height="24" rx="4" transform="rotate(90 154 516)" fill="#797986"/>
<rect x="154" y="566" width="48" height="24" rx="4" transform="rotate(90 154 566)" fill="#797986"/>
<rect x="154" y="616" width="48" height="24" rx="4" transform="rotate(90 154 616)" fill="#797986"/>
<rect x="154" y="666" width="48" height="24" rx="4" transform="rotate(90 154 666)" fill="#797986"/>
<rect x="146" y="522" width="36" height="36" rx="18" fill="#3E3E49"/>
<rect x="146" y="522" width="36" height="36" rx="18" stroke="#797986" stroke-width="2"/>
<path d="M152.472 535.74H153.744V544.596H152.472V535.74ZM155.491 539.448H160.723V540.72H155.491V539.448ZM165.372 543.492C166.572 543.492 167.376 542.148 167.376 540.168C167.376 538.176 166.572 536.832 165.372 536.832C164.172 536.832 163.356 538.176 163.356 540.168C163.356 542.148 164.172 543.492 165.372 543.492ZM162.084 540.168C162.084 537.552 163.44 535.716 165.372 535.716C167.292 535.716 168.648 537.552 168.648 540.168C168.648 542.772 167.292 544.62 165.372 544.62C163.44 544.62 162.084 542.772 162.084 540.168ZM171.438 540.624L170.166 540.468L170.466 535.8H175.134V536.916H171.69L171.546 539.052C171.942 538.872 172.386 538.764 172.782 538.764C174.582 538.764 175.854 539.976 175.854 541.692C175.854 543.432 174.582 544.656 172.782 544.656C171.366 544.656 170.142 543.708 169.83 542.364L171.066 542.076C171.246 542.88 171.954 543.456 172.782 543.456C173.838 543.456 174.582 542.724 174.582 541.692C174.582 540.684 173.838 539.964 172.782 539.964C172.338 539.964 171.786 540.24 171.438 540.624Z" fill="#797986"/>
<rect x="146" y="572" width="36" height="36" rx="18" fill="#3E3E49"/>
<rect x="146" y="572" width="36" height="36" rx="18" stroke="#797986" stroke-width="2"/>
<path d="M152.472 585.74H153.744V594.596H152.472V585.74ZM155.491 589.448H160.723V590.72H155.491V589.448ZM165.372 593.492C166.572 593.492 167.376 592.148 167.376 590.168C167.376 588.176 166.572 586.832 165.372 586.832C164.172 586.832 163.356 588.176 163.356 590.168C163.356 592.148 164.172 593.492 165.372 593.492ZM162.084 590.168C162.084 587.552 163.44 585.716 165.372 585.716C167.292 585.716 168.648 587.552 168.648 590.168C168.648 592.772 167.292 594.62 165.372 594.62C163.44 594.62 162.084 592.772 162.084 590.168ZM172.83 593.504C173.862 593.504 174.594 592.76 174.594 591.716C174.594 590.648 173.862 589.904 172.83 589.904C171.81 589.904 171.09 590.648 171.09 591.716C171.09 592.76 171.81 593.504 172.83 593.504ZM169.818 591.716C169.818 591.08 170.046 590.516 170.298 590.048L172.698 585.776H174.162L172.422 588.836C172.566 588.812 172.71 588.788 172.866 588.788C174.63 588.8 175.866 590 175.866 591.716C175.866 593.42 174.618 594.62 172.842 594.62C171.066 594.62 169.818 593.42 169.818 591.716Z" fill="#797986"/>
<rect x="146" y="622" width="36" height="36" rx="18" fill="#3E3E49"/>
<rect x="146" y="622" width="36" height="36" rx="18" stroke="#797986" stroke-width="2"/>
<path d="M152.472 635.74H153.744V644.596H152.472V635.74ZM155.491 639.448H160.723V640.72H155.491V639.448ZM165.372 643.492C166.572 643.492 167.376 642.148 167.376 640.168C167.376 638.176 166.572 636.832 165.372 636.832C164.172 636.832 163.356 638.176 163.356 640.168C163.356 642.148 164.172 643.492 165.372 643.492ZM162.084 640.168C162.084 637.552 163.44 635.716 165.372 635.716C167.292 635.716 168.648 637.552 168.648 640.168C168.648 642.772 167.292 644.62 165.372 644.62C163.44 644.62 162.084 642.772 162.084 640.168ZM171.99 644.56H170.598L174.018 636.88L170.01 636.892V635.764H175.29L175.41 636.88L171.99 644.56Z" fill="#797986"/>
<rect x="146" y="672" width="36" height="36" rx="18" fill="#3E3E49"/>
<rect x="146" y="672" width="36" height="36" rx="18" stroke="#797986" stroke-width="2"/>
<path d="M152.472 685.74H153.744V694.596H152.472V685.74ZM155.491 689.448H160.723V690.72H155.491V689.448ZM165.372 693.492C166.572 693.492 167.376 692.148 167.376 690.168C167.376 688.176 166.572 686.832 165.372 686.832C164.172 686.832 163.356 688.176 163.356 690.168C163.356 692.148 164.172 693.492 165.372 693.492ZM162.084 690.168C162.084 687.552 163.44 685.716 165.372 685.716C167.292 685.716 168.648 687.552 168.648 690.168C168.648 692.772 167.292 694.62 165.372 694.62C163.44 694.62 162.084 692.772 162.084 690.168ZM172.794 693.588C173.79 693.588 174.486 692.952 174.486 692.04C174.486 691.128 173.79 690.48 172.794 690.48C171.798 690.48 171.09 691.128 171.09 692.04C171.09 692.952 171.798 693.588 172.794 693.588ZM169.818 692.064C169.818 691.296 170.418 690.408 171.258 689.94C170.562 689.46 170.058 688.68 170.058 688.056C170.058 686.64 171.186 685.656 172.794 685.656C174.402 685.656 175.53 686.64 175.53 688.056C175.53 688.692 175.038 689.472 174.33 689.94C175.17 690.42 175.77 691.296 175.77 692.064C175.77 693.6 174.546 694.68 172.794 694.68C171.054 694.68 169.818 693.6 169.818 692.064ZM171.342 688.056C171.342 688.836 171.942 689.388 172.794 689.388C173.658 689.388 174.258 688.836 174.258 688.056C174.258 687.276 173.658 686.736 172.794 686.736C171.942 686.736 171.342 687.276 171.342 688.056Z" fill="#797986"/>
<rect x="76" y="522" width="36" height="36" rx="18" fill="#3E3E49"/>
<rect x="76" y="522" width="36" height="36" rx="18" stroke="#797986" stroke-width="2"/>
<path d="M83.472 535.74H84.744V544.596H83.472V535.74ZM86.4909 539.448H91.7229V540.72H86.4909V539.448ZM96.3718 543.492C97.5718 543.492 98.3758 542.148 98.3758 540.168C98.3758 538.176 97.5718 536.832 96.3718 536.832C95.1718 536.832 94.3558 538.176 94.3558 540.168C94.3558 542.148 95.1718 543.492 96.3718 543.492ZM93.0838 540.168C93.0838 537.552 94.4398 535.716 96.3718 535.716C98.2918 535.716 99.6478 537.552 99.6478 540.168C99.6478 542.772 98.2918 544.62 96.3718 544.62C94.4398 544.62 93.0838 542.772 93.0838 540.168ZM104.07 535.812V544.536L102.798 544.524V537.168L101.262 538.02L100.734 536.952L102.81 535.812H104.07Z" fill="#797986"/>
<rect x="76" y="572" width="36" height="36" rx="18" fill="#3E3E49"/>
<rect x="76" y="572" width="36" height="36" rx="18" stroke="#797986" stroke-width="2"/>
<path d="M82.472 585.74H83.744V594.596H82.472V585.74ZM85.4909 589.448H90.7229V590.72H85.4909V589.448ZM95.3718 593.492C96.5718 593.492 97.3758 592.148 97.3758 590.168C97.3758 588.176 96.5718 586.832 95.3718 586.832C94.1718 586.832 93.3558 588.176 93.3558 590.168C93.3558 592.148 94.1718 593.492 95.3718 593.492ZM92.0838 590.168C92.0838 587.552 93.4398 585.716 95.3718 585.716C97.2918 585.716 98.6478 587.552 98.6478 590.168C98.6478 592.772 97.2918 594.62 95.3718 594.62C93.4398 594.62 92.0838 592.772 92.0838 590.168ZM99.9985 593.42C101.75 591.74 104.138 590.036 104.138 588.56C104.138 587.576 103.514 586.88 102.626 586.88C101.942 586.88 101.258 587.372 100.946 588.08L99.8305 587.588C100.31 586.484 101.474 585.716 102.626 585.716C104.27 585.716 105.41 586.892 105.41 588.56C105.41 590.396 103.418 592.028 101.798 593.42H105.554V594.536H100.118L99.9985 593.42Z" fill="#797986"/>
<rect x="76" y="622" width="36" height="36" rx="18" fill="#3E3E49"/>
<rect x="76" y="622" width="36" height="36" rx="18" stroke="#797986" stroke-width="2"/>
<path d="M82.472 635.74H83.744V644.596H82.472V635.74ZM85.4909 639.448H90.7229V640.72H85.4909V639.448ZM95.3718 643.492C96.5718 643.492 97.3758 642.148 97.3758 640.168C97.3758 638.176 96.5718 636.832 95.3718 636.832C94.1718 636.832 93.3558 638.176 93.3558 640.168C93.3558 642.148 94.1718 643.492 95.3718 643.492ZM92.0838 640.168C92.0838 637.552 93.4398 635.716 95.3718 635.716C97.2918 635.716 98.6478 637.552 98.6478 640.168C98.6478 642.772 97.2918 644.62 95.3718 644.62C93.4398 644.62 92.0838 642.772 92.0838 640.168ZM104.462 640.024C105.242 640.48 105.734 641.332 105.734 642.064C105.734 643.552 104.51 644.608 102.77 644.608C101.042 644.608 99.8185 643.528 99.8185 641.992H101.09C101.09 642.868 101.786 643.48 102.77 643.48C103.778 643.48 104.498 642.868 104.498 641.992C104.498 641.152 103.79 640.552 102.794 640.552H102.17V639.484H102.806C103.718 639.484 104.366 638.944 104.366 638.176C104.366 637.396 103.742 636.856 102.854 636.856C101.966 636.856 101.354 637.408 101.354 638.188H100.082C100.082 636.736 101.222 635.728 102.854 635.728C104.462 635.728 105.602 636.712 105.602 638.104C105.602 638.776 105.17 639.568 104.462 640.024Z" fill="#797986"/>
<rect x="76" y="672" width="36" height="36" rx="18" fill="#3E3E49"/>
<rect x="76" y="672" width="36" height="36" rx="18" stroke="#797986" stroke-width="2"/>
<path d="M81.972 685.74H83.244V694.596H81.972V685.74ZM84.9909 689.448H90.2229V690.72H84.9909V689.448ZM94.8718 693.492C96.0718 693.492 96.8758 692.148 96.8758 690.168C96.8758 688.176 96.0718 686.832 94.8718 686.832C93.6718 686.832 92.8558 688.176 92.8558 690.168C92.8558 692.148 93.6718 693.492 94.8718 693.492ZM91.5838 690.168C91.5838 687.552 92.9398 685.716 94.8718 685.716C96.7918 685.716 98.1478 687.552 98.1478 690.168C98.1478 692.772 96.7918 694.62 94.8718 694.62C92.9398 694.62 91.5838 692.772 91.5838 690.168ZM104.466 685.8V691.176H105.57V692.28H104.466V694.536H103.194V692.28H99.4385L99.3185 691.176L103.254 685.8H104.466ZM100.83 691.176H103.194V687.924L100.83 691.176Z" fill="#797986"/>
<rect x="360" y="-280" width="426" height="3.99998" transform="rotate(90 360 -280)" fill="#797986"/>
<rect x="268" y="-280" width="426" height="3.99998" transform="rotate(90 268 -280)" fill="#797986"/>
<rect x="164" y="-168" width="310" height="3.99999" transform="rotate(90 164 -168)" fill="#797986"/>
<rect x="686" y="76" width="152" height="3.99999" transform="rotate(-180 686 76)" fill="#797986"/>
<rect x="534" y="218" width="142" height="4.00001" transform="rotate(-90 534 218)" fill="#797986"/>
<rect x="534" y="402" width="142" height="4.00001" transform="rotate(-90 534 402)" fill="#797986"/>
<rect x="28" y="728" width="260" height="4.00001" transform="rotate(-90 28 728)" fill="#797986"/>
<rect x="122" y="372" width="130" height="4.00001" transform="rotate(-90 122 372)" fill="#797986"/>
<rect x="256" y="372" width="130" height="4.00001" transform="rotate(-90 256 372)" fill="#797986"/>
<rect x="390" y="372" width="130" height="4.00001" transform="rotate(-90 390 372)" fill="#797986"/>
<rect x="-146" y="238" width="540" height="4" fill="#797986"/>
<rect x="686" y="260" width="152" height="3.99999" transform="rotate(-180 686 260)" fill="#797986"/>
<rect x="688" y="444" width="154" height="3.99999" transform="rotate(-180 688 444)" fill="#797986"/>
<rect x="122" y="372" width="92" height="3.99999" transform="rotate(-180 122 372)" fill="#797986"/>
<rect x="256" y="372" width="92" height="3.99999" transform="rotate(-180 256 372)" fill="#797986"/>
<rect x="390" y="372" width="92" height="3.99999" transform="rotate(-180 390 372)" fill="#797986"/>
<rect x="470" y="76" width="110" height="3.99999" transform="rotate(-180 470 76)" fill="#797986"/>
<rect x="218" y="146" width="360" height="3.99997" transform="rotate(-180 218 146)" fill="#797986"/>
<rect x="218" y="46" width="54" height="4" transform="rotate(-180 218 46)" fill="#797986"/>
<rect x="356" y="146" width="88" height="3.99999" transform="rotate(-180 356 146)" fill="#797986"/>
<rect x="698" y="-426" width="1166" height="11.9999" transform="rotate(90 698 -426)" fill="#797986"/>
<rect x="686" y="740" width="1890" height="11.9998" transform="rotate(-180 686 740)" fill="#797986"/>
<path d="M1.12757 -10.5478V-20.4703C1.12757 -20.4755 1.13173 -20.4796 1.13686 -20.4796C1.14199 -20.4796 1.14615 -20.4755 1.14615 -20.4703V-11.406C1.14615 -10.4971 1.88996 -9.76406 2.79875 -9.7773C3.68901 -9.79027 4.4039 -10.5157 4.4039 -11.406V-21.6203C4.4039 -22.9835 3.28503 -24.0811 1.92212 -24.0551H-7.61245C-8.9212 -24.081 -9.99609 -23.0271 -9.99609 -21.7181V-11.3614C-9.99609 -10.4956 -9.30101 -9.79004 -8.43524 -9.77716C-7.55105 -9.764 -6.82722 -10.4771 -6.82722 -11.3614V-20.475C-6.82722 -20.4775 -6.82513 -20.4796 -6.82256 -20.4796C-6.81999 -20.4796 -6.8179 -20.4775 -6.8179 -20.475V-10.5478V2.56799C-6.8179 3.66187 -5.93114 4.54863 -4.83726 4.54863C-3.74338 4.54863 -2.85662 3.66187 -2.85662 2.56799V-10.4811C-2.85662 -10.5179 -2.82678 -10.5478 -2.78999 -10.5478C-2.75319 -10.5478 -2.72336 -10.5179 -2.72336 -10.4811V2.62317C-2.72336 3.68657 -1.8613 4.54863 -0.797894 4.54863C0.265511 4.54863 1.12757 3.68657 1.12757 2.62317V-10.5478Z" fill="#3E3E49" stroke="#797986" stroke-width="1.2"/>
<path d="M25.9533 -5.94817L22.525 -20.0423C22.5201 -20.0625 22.5354 -20.0819 22.5562 -20.0819C22.571 -20.0819 22.584 -20.0717 22.5874 -20.0573L24.7619 -10.8757C24.9177 -10.2176 25.5054 -9.75283 26.1817 -9.75283C27.1162 -9.75283 27.8098 -10.619 27.6056 -11.5308L25.3462 -21.6195C25.0274 -23.0429 23.7639 -24.0547 22.3052 -24.0547H16.4648C15.0218 -24.0547 13.7691 -23.0603 13.4416 -21.655L11.083 -11.534C10.8709 -10.6236 11.562 -9.75283 12.4969 -9.75283C13.1697 -9.75283 13.7543 -10.2151 13.9095 -10.8698L16.0869 -20.0573C16.0903 -20.0717 16.1033 -20.0819 16.1181 -20.0819C16.1389 -20.0819 16.1542 -20.0625 16.1493 -20.0423L12.721 -5.94817C12.651 -5.66028 12.869 -5.38282 13.1653 -5.38282H15.8697V2.85937C15.8697 3.79254 16.6261 4.54902 17.5593 4.54902C18.4925 4.54902 19.249 3.79254 19.249 2.85937V-5.30727C19.249 -5.34064 19.2853 -5.36135 19.314 -5.34435C19.3271 -5.3366 19.3352 -5.3225 19.3352 -5.30727V2.91426C19.3352 3.84106 20.094 4.58835 21.0207 4.57412C21.9275 4.5602 22.6553 3.82115 22.6553 2.91426V-5.38282H25.5089C25.8052 -5.38282 26.0233 -5.66028 25.9533 -5.94817Z" fill="#3E3E49" stroke="#797986" stroke-width="1.2"/>
<path d="M8 -32V4.54918" stroke="#797986" stroke-width="1.2" stroke-linecap="round"/>
<path d="M45.5 275.25C45.5 274.836 45.8358 274.5 46.25 274.5H65.75C66.1642 274.5 66.5 274.836 66.5 275.25V285.75C66.5 286.164 66.1642 286.5 65.75 286.5H46.25C45.8358 286.5 45.5 286.164 45.5 285.75V275.25Z" stroke="#797986" stroke-width="1.2"/>
<path d="M48.8755 289.7C49.1014 289.127 49.6549 288.75 50.2711 288.75H61.7287C62.3449 288.75 62.8985 289.127 63.1243 289.7L71.6927 311.45C72.0804 312.434 71.3549 313.5 70.2971 313.5H41.7031C40.6452 313.5 39.9198 312.434 40.3075 311.45L48.8755 289.7Z" stroke="#797986" stroke-width="1.2"/>
<path d="M45.5 291H43.0692C42.655 291 42.3192 290.664 42.3192 290.25V284.248C42.3192 284.084 42.0939 284.039 42.0308 284.191L39.7317 289.695C39.5788 290.061 39.5 290.454 39.5 290.851V297C39.5 297.414 39.8358 297.75 40.25 297.75H42.6808M66.5 291H68.9308C69.345 291 69.6808 290.664 69.6808 290.25V284.248C69.6808 284.084 69.9061 284.039 69.9692 284.191L72.2683 289.695C72.4212 290.061 72.5 290.454 72.5 290.851V297C72.5 297.414 72.1642 297.75 71.75 297.75H69.3192M41 303H38.3216C37.8245 303 37.4216 302.597 37.4216 302.1V294.953C37.4216 294.754 37.1465 294.703 37.074 294.888L34.4978 301.467C34.334 301.885 34.25 302.33 34.25 302.78V310.2C34.25 310.697 34.6529 311.1 35.15 311.1H37.8284M71 303H73.6784C74.1755 303 74.5784 302.597 74.5784 302.1V294.953C74.5784 294.754 74.8535 294.703 74.9261 294.888L77.5022 301.467C77.666 301.885 77.75 302.33 77.75 302.78V310.2C77.75 310.697 77.3471 311.1 76.85 311.1H74.1716" stroke="#797986" stroke-width="1.2"/>
<path d="M53.2734 282.684V281.923L56.6293 276.613H57.1811V277.792H56.8082L54.2727 281.804V281.863H58.7919V282.684H53.2734ZM56.8679 284.25V276.613H57.7479V284.25H56.8679Z" fill="#797986"/>
<path d="M179.5 275.25C179.5 274.836 179.836 274.5 180.25 274.5H199.75C200.164 274.5 200.5 274.836 200.5 275.25V285.75C200.5 286.164 200.164 286.5 199.75 286.5H180.25C179.836 286.5 179.5 286.164 179.5 285.75V275.25Z" stroke="#797986" stroke-width="1.2"/>
<path d="M182.876 289.7C183.101 289.127 183.655 288.75 184.271 288.75H195.729C196.345 288.75 196.898 289.127 197.124 289.7L205.693 311.45C206.08 312.434 205.355 313.5 204.297 313.5H175.703C174.645 313.5 173.92 312.434 174.307 311.45L182.876 289.7Z" stroke="#797986" stroke-width="1.2"/>
<path d="M179.5 291H177.069C176.655 291 176.319 290.664 176.319 290.25V284.248C176.319 284.084 176.094 284.039 176.031 284.191L173.732 289.695C173.579 290.061 173.5 290.454 173.5 290.851V297C173.5 297.414 173.836 297.75 174.25 297.75H176.681M200.5 291H202.931C203.345 291 203.681 290.664 203.681 290.25V284.248C203.681 284.084 203.906 284.039 203.969 284.191L206.268 289.695C206.421 290.061 206.5 290.454 206.5 290.851V297C206.5 297.414 206.164 297.75 205.75 297.75H203.319M175 303H172.322C171.825 303 171.422 302.597 171.422 302.1V294.953C171.422 294.754 171.146 294.703 171.074 294.888L168.498 301.467C168.334 301.885 168.25 302.33 168.25 302.78V310.2C168.25 310.697 168.653 311.1 169.15 311.1H171.828M205 303H207.678C208.175 303 208.578 302.597 208.578 302.1V294.953C208.578 294.754 208.854 294.703 208.926 294.888L211.502 301.467C211.666 301.885 211.75 302.33 211.75 302.78V310.2C211.75 310.697 211.347 311.1 210.85 311.1H208.172" stroke="#797986" stroke-width="1.2"/>
<path d="M187.273 282.684V281.923L190.629 276.613H191.181V277.792H190.808L188.273 281.804V281.863H192.792V282.684H187.273ZM190.868 284.25V276.613H191.748V284.25H190.868Z" fill="#797986"/>
<path d="M313.5 275.25C313.5 274.836 313.836 274.5 314.25 274.5H333.75C334.164 274.5 334.5 274.836 334.5 275.25V285.75C334.5 286.164 334.164 286.5 333.75 286.5H314.25C313.836 286.5 313.5 286.164 313.5 285.75V275.25Z" stroke="#797986" stroke-width="1.2"/>
<path d="M316.876 289.7C317.101 289.127 317.655 288.75 318.271 288.75H329.729C330.345 288.75 330.898 289.127 331.124 289.7L339.693 311.45C340.08 312.434 339.355 313.5 338.297 313.5H309.703C308.645 313.5 307.92 312.434 308.307 311.45L316.876 289.7Z" stroke="#797986" stroke-width="1.2"/>
<path d="M313.5 291H311.069C310.655 291 310.319 290.664 310.319 290.25V284.248C310.319 284.084 310.094 284.039 310.031 284.191L307.732 289.695C307.579 290.061 307.5 290.454 307.5 290.851V297C307.5 297.414 307.836 297.75 308.25 297.75H310.681M334.5 291H336.931C337.345 291 337.681 290.664 337.681 290.25V284.248C337.681 284.084 337.906 284.039 337.969 284.191L340.268 289.695C340.421 290.061 340.5 290.454 340.5 290.851V297C340.5 297.414 340.164 297.75 339.75 297.75H337.319M309 303H306.322C305.825 303 305.422 302.597 305.422 302.1V294.953C305.422 294.754 305.146 294.703 305.074 294.888L302.498 301.467C302.334 301.885 302.25 302.33 302.25 302.78V310.2C302.25 310.697 302.653 311.1 303.15 311.1H305.828M339 303H341.678C342.175 303 342.578 302.597 342.578 302.1V294.953C342.578 294.754 342.854 294.703 342.926 294.888L345.502 301.467C345.666 301.885 345.75 302.33 345.75 302.78V310.2C345.75 310.697 345.347 311.1 344.85 311.1H342.172" stroke="#797986" stroke-width="1.2"/>
<path d="M321.273 282.684V281.923L324.629 276.613H325.181V277.792H324.808L322.273 281.804V281.863H326.792V282.684H321.273ZM324.868 284.25V276.613H325.748V284.25H324.868Z" fill="#797986"/>
<path d="M601.504 131.113C601.504 130.699 601.84 130.363 602.254 130.363H621.754C622.168 130.363 622.504 130.699 622.504 131.113V141.613C622.504 142.027 622.168 142.363 621.754 142.363H602.254C601.84 142.363 601.504 142.027 601.504 141.613V131.113Z" stroke="white" stroke-width="1.2"/>
<path d="M604.876 145.7C605.101 145.127 605.655 144.75 606.271 144.75H617.729C618.345 144.75 618.898 145.127 619.124 145.7L627.693 167.45C628.08 168.434 627.355 169.5 626.297 169.5H597.703C596.645 169.5 595.92 168.434 596.307 167.45L604.876 145.7Z" stroke="white" stroke-width="1.2"/>
<path d="M601.5 147H599.069C598.655 147 598.319 146.664 598.319 146.25V140.248C598.319 140.084 598.094 140.039 598.031 140.191L595.732 145.695C595.579 146.061 595.5 146.454 595.5 146.851V153C595.5 153.414 595.836 153.75 596.25 153.75H598.681M622.5 147H624.931C625.345 147 625.681 146.664 625.681 146.25V140.248C625.681 140.084 625.906 140.039 625.969 140.191L628.268 145.695C628.421 146.061 628.5 146.454 628.5 146.851V153C628.5 153.414 628.164 153.75 627.75 153.75H625.319M597 159H594.322C593.825 159 593.422 158.597 593.422 158.1V150.953C593.422 150.754 593.146 150.703 593.074 150.888L590.498 157.467C590.334 157.885 590.25 158.33 590.25 158.78V166.2C590.25 166.697 590.653 167.1 591.15 167.1H593.828M627 159H629.678C630.175 159 630.578 158.597 630.578 158.1V150.953C630.578 150.754 630.854 150.703 630.926 150.888L633.502 157.467C633.666 157.885 633.75 158.33 633.75 158.78V166.2C633.75 166.697 633.347 167.1 632.85 167.1H630.172" stroke="white" stroke-width="1.2"/>
<path d="M611.978 140.354C611.466 140.354 611.014 140.263 610.621 140.082C610.231 139.898 609.926 139.646 609.707 139.325C609.489 139.002 609.38 138.634 609.383 138.221C609.38 137.898 609.444 137.6 609.573 137.326C609.702 137.05 609.879 136.82 610.103 136.636C610.329 136.45 610.581 136.332 610.859 136.282V136.237C610.494 136.143 610.203 135.938 609.987 135.622C609.771 135.304 609.664 134.942 609.666 134.537C609.664 134.149 609.762 133.803 609.961 133.497C610.16 133.191 610.433 132.95 610.781 132.774C611.132 132.597 611.531 132.509 611.978 132.509C612.421 132.509 612.816 132.597 613.164 132.774C613.512 132.95 613.785 133.191 613.984 133.497C614.185 133.803 614.287 134.149 614.29 134.537C614.287 134.942 614.177 135.304 613.958 135.622C613.742 135.938 613.455 136.143 613.097 136.237V136.282C613.373 136.332 613.621 136.45 613.842 136.636C614.064 136.82 614.24 137.05 614.372 137.326C614.504 137.6 614.571 137.898 614.573 138.221C614.571 138.634 614.459 139.002 614.238 139.325C614.019 139.646 613.714 139.898 613.324 140.082C612.936 140.263 612.488 140.354 611.978 140.354ZM611.978 139.534C612.324 139.534 612.622 139.478 612.873 139.366C613.124 139.254 613.318 139.096 613.455 138.892C613.591 138.688 613.661 138.45 613.663 138.176C613.661 137.888 613.586 137.633 613.44 137.412C613.293 137.191 613.093 137.017 612.839 136.89C612.588 136.763 612.301 136.7 611.978 136.7C611.652 136.7 611.362 136.763 611.106 136.89C610.852 137.017 610.652 137.191 610.505 137.412C610.361 137.633 610.29 137.888 610.293 138.176C610.29 138.45 610.356 138.688 610.49 138.892C610.627 139.096 610.822 139.254 611.076 139.366C611.329 139.478 611.63 139.534 611.978 139.534ZM611.978 135.909C612.251 135.909 612.494 135.855 612.705 135.745C612.919 135.636 613.087 135.483 613.209 135.287C613.33 135.09 613.392 134.86 613.395 134.597C613.392 134.338 613.332 134.113 613.212 133.922C613.093 133.728 612.928 133.579 612.716 133.475C612.505 133.368 612.259 133.314 611.978 133.314C611.692 133.314 611.442 133.368 611.229 133.475C611.015 133.579 610.85 133.728 610.733 133.922C610.616 134.113 610.559 134.338 610.561 134.597C610.559 134.86 610.617 135.09 610.736 135.287C610.858 135.483 611.026 135.636 611.24 135.745C611.454 135.855 611.7 135.909 611.978 135.909Z" fill="white"/>
<path d="M601.504 315.113C601.504 314.699 601.84 314.363 602.254 314.363H621.754C622.168 314.363 622.504 314.699 622.504 315.113V325.613C622.504 326.027 622.168 326.363 621.754 326.363H602.254C601.84 326.363 601.504 326.027 601.504 325.613V315.113Z" stroke="white" stroke-width="1.2"/>
<path d="M604.876 329.7C605.101 329.127 605.655 328.75 606.271 328.75H617.729C618.345 328.75 618.898 329.127 619.124 329.7L627.693 351.45C628.08 352.434 627.355 353.5 626.297 353.5H597.703C596.645 353.5 595.92 352.434 596.307 351.45L604.876 329.7Z" stroke="white" stroke-width="1.2"/>
<path d="M601.5 331H599.069C598.655 331 598.319 330.664 598.319 330.25V324.248C598.319 324.084 598.094 324.039 598.031 324.191L595.732 329.695C595.579 330.061 595.5 330.454 595.5 330.851V337C595.5 337.414 595.836 337.75 596.25 337.75H598.681M622.5 331H624.931C625.345 331 625.681 330.664 625.681 330.25V324.248C625.681 324.084 625.906 324.039 625.969 324.191L628.268 329.695C628.421 330.061 628.5 330.454 628.5 330.851V337C628.5 337.414 628.164 337.75 627.75 337.75H625.319M597 343H594.322C593.825 343 593.422 342.597 593.422 342.1V334.953C593.422 334.754 593.146 334.703 593.074 334.888L590.498 341.467C590.334 341.885 590.25 342.33 590.25 342.78V350.2C590.25 350.697 590.653 351.1 591.15 351.1H593.828M627 343H629.678C630.175 343 630.578 342.597 630.578 342.1V334.953C630.578 334.754 630.854 334.703 630.926 334.888L633.502 341.467C633.666 341.885 633.75 342.33 633.75 342.78V350.2C633.75 350.697 633.347 351.1 632.85 351.1H630.172" stroke="white" stroke-width="1.2"/>
<path d="M611.978 324.354C611.466 324.354 611.014 324.263 610.621 324.082C610.231 323.898 609.926 323.646 609.707 323.325C609.489 323.002 609.38 322.634 609.383 322.221C609.38 321.898 609.444 321.6 609.573 321.326C609.702 321.05 609.879 320.82 610.103 320.636C610.329 320.45 610.581 320.332 610.859 320.282V320.237C610.494 320.143 610.203 319.938 609.987 319.622C609.771 319.304 609.664 318.942 609.666 318.537C609.664 318.149 609.762 317.803 609.961 317.497C610.16 317.191 610.433 316.95 610.781 316.774C611.132 316.597 611.531 316.509 611.978 316.509C612.421 316.509 612.816 316.597 613.164 316.774C613.512 316.95 613.785 317.191 613.984 317.497C614.185 317.803 614.287 318.149 614.29 318.537C614.287 318.942 614.177 319.304 613.958 319.622C613.742 319.938 613.455 320.143 613.097 320.237V320.282C613.373 320.332 613.621 320.45 613.842 320.636C614.064 320.82 614.24 321.05 614.372 321.326C614.504 321.6 614.571 321.898 614.573 322.221C614.571 322.634 614.459 323.002 614.238 323.325C614.019 323.646 613.714 323.898 613.324 324.082C612.936 324.263 612.488 324.354 611.978 324.354ZM611.978 323.534C612.324 323.534 612.622 323.478 612.873 323.366C613.124 323.254 613.318 323.096 613.455 322.892C613.591 322.688 613.661 322.45 613.663 322.176C613.661 321.888 613.586 321.633 613.44 321.412C613.293 321.191 613.093 321.017 612.839 320.89C612.588 320.763 612.301 320.7 611.978 320.7C611.652 320.7 611.362 320.763 611.106 320.89C610.852 321.017 610.652 321.191 610.505 321.412C610.361 321.633 610.29 321.888 610.293 322.176C610.29 322.45 610.356 322.688 610.49 322.892C610.627 323.096 610.822 323.254 611.076 323.366C611.329 323.478 611.63 323.534 611.978 323.534ZM611.978 319.909C612.251 319.909 612.494 319.855 612.705 319.745C612.919 319.636 613.087 319.483 613.209 319.287C613.33 319.09 613.392 318.86 613.395 318.597C613.392 318.338 613.332 318.113 613.212 317.922C613.093 317.728 612.928 317.579 612.716 317.475C612.505 317.368 612.259 317.314 611.978 317.314C611.692 317.314 611.442 317.368 611.229 317.475C611.015 317.579 610.85 317.728 610.733 317.922C610.616 318.113 610.559 318.338 610.561 318.597C610.559 318.86 610.617 319.09 610.736 319.287C610.858 319.483 611.026 319.636 611.24 319.745C611.454 319.855 611.7 319.909 611.978 319.909Z" fill="white"/>
<path d="M604.552 184.24V185.356H600.22V188.104H603.892V189.208H600.22V193.096H598.948V184.24H604.552ZM605.811 187.948H611.043V189.22H605.811V187.948ZM615.692 191.992C616.892 191.992 617.696 190.648 617.696 188.668C617.696 186.676 616.892 185.332 615.692 185.332C614.492 185.332 613.676 186.676 613.676 188.668C613.676 190.648 614.492 191.992 615.692 191.992ZM612.404 188.668C612.404 186.052 613.76 184.216 615.692 184.216C617.612 184.216 618.968 186.052 618.968 188.668C618.968 191.272 617.612 193.12 615.692 193.12C613.76 193.12 612.404 191.272 612.404 188.668ZM623.391 184.312V193.036L622.119 193.024V185.668L620.583 186.52L620.055 185.452L622.131 184.312H623.391Z" fill="white"/>
<path d="M602.552 368.24V369.356H598.22V372.104H601.892V373.208H598.22V377.096H596.948V368.24H602.552ZM603.811 371.948H609.043V373.22H603.811V371.948ZM613.692 375.992C614.892 375.992 615.696 374.648 615.696 372.668C615.696 370.676 614.892 369.332 613.692 369.332C612.492 369.332 611.676 370.676 611.676 372.668C611.676 374.648 612.492 375.992 613.692 375.992ZM610.404 372.668C610.404 370.052 611.76 368.216 613.692 368.216C615.612 368.216 616.968 370.052 616.968 372.668C616.968 375.272 615.612 377.12 613.692 377.12C611.76 377.12 610.404 375.272 610.404 372.668ZM618.319 375.92C620.071 374.24 622.459 372.536 622.459 371.06C622.459 370.076 621.835 369.38 620.947 369.38C620.263 369.38 619.579 369.872 619.267 370.58L618.151 370.088C618.631 368.984 619.795 368.216 620.947 368.216C622.591 368.216 623.731 369.392 623.731 371.06C623.731 372.896 621.739 374.528 620.119 375.92H623.875V377.036H618.439L618.319 375.92Z" fill="white"/>
<path d="M46.552 330.24V331.356H42.1V333.984H45.928V335.088H42.1V337.98H46.552V339.096H40.828V330.24H46.552ZM48.0573 333.948H53.2893V335.22H48.0573V333.948ZM57.9382 337.992C59.1382 337.992 59.9422 336.648 59.9422 334.668C59.9422 332.676 59.1382 331.332 57.9382 331.332C56.7382 331.332 55.9222 332.676 55.9222 334.668C55.9222 336.648 56.7382 337.992 57.9382 337.992ZM54.6502 334.668C54.6502 332.052 56.0062 330.216 57.9382 330.216C59.8582 330.216 61.2142 332.052 61.2142 334.668C61.2142 337.272 59.8582 339.12 57.9382 339.12C56.0062 339.12 54.6502 337.272 54.6502 334.668ZM62.5649 337.92C64.3169 336.24 66.7049 334.536 66.7049 333.06C66.7049 332.076 66.0809 331.38 65.1929 331.38C64.5089 331.38 63.8249 331.872 63.5129 332.58L62.3969 332.088C62.8769 330.984 64.0409 330.216 65.1929 330.216C66.8369 330.216 67.9769 331.392 67.9769 333.06C67.9769 334.896 65.9849 336.528 64.3649 337.92H68.1209V339.036H62.6849L62.5649 337.92Z" fill="#797986"/>
<path d="M180.552 330.24V331.356H176.1V333.984H179.928V335.088H176.1V337.98H180.552V339.096H174.828V330.24H180.552ZM182.057 333.948H187.289V335.22H182.057V333.948ZM191.938 337.992C193.138 337.992 193.942 336.648 193.942 334.668C193.942 332.676 193.138 331.332 191.938 331.332C190.738 331.332 189.922 332.676 189.922 334.668C189.922 336.648 190.738 337.992 191.938 337.992ZM188.65 334.668C188.65 332.052 190.006 330.216 191.938 330.216C193.858 330.216 195.214 332.052 195.214 334.668C195.214 337.272 193.858 339.12 191.938 339.12C190.006 339.12 188.65 337.272 188.65 334.668ZM201.029 334.524C201.809 334.98 202.301 335.832 202.301 336.564C202.301 338.052 201.077 339.108 199.337 339.108C197.609 339.108 196.385 338.028 196.385 336.492H197.657C197.657 337.368 198.353 337.98 199.337 337.98C200.345 337.98 201.065 337.368 201.065 336.492C201.065 335.652 200.357 335.052 199.361 335.052H198.737V333.984H199.373C200.285 333.984 200.933 333.444 200.933 332.676C200.933 331.896 200.309 331.356 199.421 331.356C198.533 331.356 197.921 331.908 197.921 332.688H196.649C196.649 331.236 197.789 330.228 199.421 330.228C201.029 330.228 202.169 331.212 202.169 332.604C202.169 333.276 201.737 334.068 201.029 334.524Z" fill="#797986"/>
<path d="M314.552 330.24V331.356H310.1V333.984H313.928V335.088H310.1V337.98H314.552V339.096H308.828V330.24H314.552ZM316.057 333.948H321.289V335.22H316.057V333.948ZM325.938 337.992C327.138 337.992 327.942 336.648 327.942 334.668C327.942 332.676 327.138 331.332 325.938 331.332C324.738 331.332 323.922 332.676 323.922 334.668C323.922 336.648 324.738 337.992 325.938 337.992ZM322.65 334.668C322.65 332.052 324.006 330.216 325.938 330.216C327.858 330.216 329.214 332.052 329.214 334.668C329.214 337.272 327.858 339.12 325.938 339.12C324.006 339.12 322.65 337.272 322.65 334.668ZM335.533 330.3V335.676H336.637V336.78H335.533V339.036H334.261V336.78H330.505L330.385 335.676L334.321 330.3H335.533ZM331.897 335.676H334.261V332.424L331.897 335.676Z" fill="#797986"/>
</g>
<defs>
<clipPath id="clip0_3397_248574">
<rect width="1005" height="820" fill="white"/>
</clipPath>
</defs>
</svg>
