<svg width="1005" height="820" viewBox="0 0 1005 820" fill="none" xmlns="http://www.w3.org/2000/svg">
<g clip-path="url(#clip0_3397_245116)">
<rect width="1005" height="820" fill="#3E3E49"/>
<rect x="984" y="539" width="48" height="24" rx="4" transform="rotate(90 984 539)" fill="#797986"/>
<rect x="984" y="589" width="48" height="24" rx="4" transform="rotate(90 984 589)" fill="#797986"/>
<rect x="984" y="639" width="48" height="24" rx="4" transform="rotate(90 984 639)" fill="#797986"/>
<rect x="1010" y="539" width="48" height="24" rx="4" transform="rotate(90 1010 539)" fill="#797986"/>
<rect x="1010" y="589" width="48" height="24" rx="4" transform="rotate(90 1010 589)" fill="#797986"/>
<rect x="1010" y="639" width="48" height="24" rx="4" transform="rotate(90 1010 639)" fill="#797986"/>
<rect x="1002" y="545" width="36" height="36" rx="18" fill="#3E3E49"/>
<rect x="1002" y="545" width="36" height="36" rx="18" stroke="#797986" stroke-width="2"/>
<rect x="1002" y="595" width="36" height="36" rx="18" fill="#3E3E49"/>
<rect x="1002" y="595" width="36" height="36" rx="18" stroke="#797986" stroke-width="2"/>
<rect x="1002" y="645" width="36" height="36" rx="18" fill="#3E3E49"/>
<rect x="1002" y="645" width="36" height="36" rx="18" stroke="#797986" stroke-width="2"/>
<rect x="935" y="545" width="36" height="36" rx="18" fill="#3E3E49"/>
<rect x="935" y="545" width="36" height="36" rx="18" stroke="#797986" stroke-width="2"/>
<path d="M941.472 558.74H942.744V567.596H941.472V558.74ZM944.491 562.448H949.723V563.72H944.491V562.448ZM951.276 566.42C953.028 564.74 955.416 563.036 955.416 561.56C955.416 560.576 954.792 559.88 953.904 559.88C953.22 559.88 952.536 560.372 952.224 561.08L951.108 560.588C951.588 559.484 952.752 558.716 953.904 558.716C955.548 558.716 956.688 559.892 956.688 561.56C956.688 563.396 954.696 565.028 953.076 566.42H956.832V567.536H951.396L951.276 566.42ZM959.63 563.624L958.358 563.468L958.658 558.8H963.326V559.916H959.882L959.738 562.052C960.134 561.872 960.578 561.764 960.974 561.764C962.774 561.764 964.046 562.976 964.046 564.692C964.046 566.432 962.774 567.656 960.974 567.656C959.558 567.656 958.334 566.708 958.022 565.364L959.258 565.076C959.438 565.88 960.146 566.456 960.974 566.456C962.03 566.456 962.774 565.724 962.774 564.692C962.774 563.684 962.03 562.964 960.974 562.964C960.53 562.964 959.978 563.24 959.63 563.624Z" fill="#797986"/>
<rect x="935" y="595" width="36" height="36" rx="18" fill="#3E3E49"/>
<rect x="935" y="595" width="36" height="36" rx="18" stroke="#797986" stroke-width="2"/>
<path d="M941.472 608.74H942.744V617.596H941.472V608.74ZM944.491 612.448H949.723V613.72H944.491V612.448ZM951.276 616.42C953.028 614.74 955.416 613.036 955.416 611.56C955.416 610.576 954.792 609.88 953.904 609.88C953.22 609.88 952.536 610.372 952.224 611.08L951.108 610.588C951.588 609.484 952.752 608.716 953.904 608.716C955.548 608.716 956.688 609.892 956.688 611.56C956.688 613.396 954.696 615.028 953.076 616.42H956.832V617.536H951.396L951.276 616.42ZM961.022 616.504C962.054 616.504 962.786 615.76 962.786 614.716C962.786 613.648 962.054 612.904 961.022 612.904C960.002 612.904 959.282 613.648 959.282 614.716C959.282 615.76 960.002 616.504 961.022 616.504ZM958.01 614.716C958.01 614.08 958.238 613.516 958.49 613.048L960.89 608.776H962.354L960.614 611.836C960.758 611.812 960.902 611.788 961.058 611.788C962.822 611.8 964.058 613 964.058 614.716C964.058 616.42 962.81 617.62 961.034 617.62C959.258 617.62 958.01 616.42 958.01 614.716Z" fill="#797986"/>
<rect x="935" y="645" width="36" height="36" rx="18" fill="#3E3E49"/>
<rect x="935" y="645" width="36" height="36" rx="18" stroke="#797986" stroke-width="2"/>
<path d="M941.972 658.74H943.244V667.596H941.972V658.74ZM944.991 662.448H950.223V663.72H944.991V662.448ZM951.776 666.42C953.528 664.74 955.916 663.036 955.916 661.56C955.916 660.576 955.292 659.88 954.404 659.88C953.72 659.88 953.036 660.372 952.724 661.08L951.608 660.588C952.088 659.484 953.252 658.716 954.404 658.716C956.048 658.716 957.188 659.892 957.188 661.56C957.188 663.396 955.196 665.028 953.576 666.42H957.332V667.536H951.896L951.776 666.42ZM960.682 667.56H959.29L962.71 659.88L958.702 659.892V658.764H963.982L964.102 659.88L960.682 667.56Z" fill="#797986"/>
<rect x="830" y="489" width="48" height="24" rx="4" transform="rotate(90 830 489)" fill="#797986"/>
<rect x="830" y="539" width="48" height="24" rx="4" transform="rotate(90 830 539)" fill="#797986"/>
<rect x="830" y="589" width="48" height="24" rx="4" transform="rotate(90 830 589)" fill="#797986"/>
<rect x="830" y="639" width="48" height="24" rx="4" transform="rotate(90 830 639)" fill="#797986"/>
<rect x="856" y="489" width="48" height="24" rx="4" transform="rotate(90 856 489)" fill="#797986"/>
<rect x="856" y="539" width="48" height="24" rx="4" transform="rotate(90 856 539)" fill="#797986"/>
<rect x="856" y="589" width="48" height="24" rx="4" transform="rotate(90 856 589)" fill="#797986"/>
<rect x="856" y="639" width="48" height="24" rx="4" transform="rotate(90 856 639)" fill="#797986"/>
<rect x="848" y="495" width="36" height="36" rx="18" fill="#3E3E49"/>
<rect x="848" y="495" width="36" height="36" rx="18" stroke="#797986" stroke-width="2"/>
<path d="M855.972 508.74H857.244V517.596H855.972V508.74ZM858.991 512.448H864.223V513.72H858.991V512.448ZM865.776 516.42C867.528 514.74 869.916 513.036 869.916 511.56C869.916 510.576 869.292 509.88 868.404 509.88C867.72 509.88 867.036 510.372 866.724 511.08L865.608 510.588C866.088 509.484 867.252 508.716 868.404 508.716C870.048 508.716 871.188 509.892 871.188 511.56C871.188 513.396 869.196 515.028 867.576 516.42H871.332V517.536H865.896L865.776 516.42ZM875.762 508.812V517.536L874.49 517.524V510.168L872.954 511.02L872.426 509.952L874.502 508.812H875.762Z" fill="#797986"/>
<rect x="848" y="545" width="36" height="36" rx="18" fill="#3E3E49"/>
<rect x="848" y="545" width="36" height="36" rx="18" stroke="#797986" stroke-width="2"/>
<path d="M854.972 558.74H856.244V567.596H854.972V558.74ZM857.991 562.448H863.223V563.72H857.991V562.448ZM864.776 566.42C866.528 564.74 868.916 563.036 868.916 561.56C868.916 560.576 868.292 559.88 867.404 559.88C866.72 559.88 866.036 560.372 865.724 561.08L864.608 560.588C865.088 559.484 866.252 558.716 867.404 558.716C869.048 558.716 870.188 559.892 870.188 561.56C870.188 563.396 868.196 565.028 866.576 566.42H870.332V567.536H864.896L864.776 566.42ZM871.69 566.42C873.442 564.74 875.83 563.036 875.83 561.56C875.83 560.576 875.206 559.88 874.318 559.88C873.634 559.88 872.95 560.372 872.638 561.08L871.522 560.588C872.002 559.484 873.166 558.716 874.318 558.716C875.962 558.716 877.102 559.892 877.102 561.56C877.102 563.396 875.11 565.028 873.49 566.42H877.246V567.536H871.81L871.69 566.42Z" fill="#797986"/>
<rect x="848" y="595" width="36" height="36" rx="18" fill="#3E3E49"/>
<rect x="848" y="595" width="36" height="36" rx="18" stroke="#797986" stroke-width="2"/>
<path d="M854.472 608.74H855.744V617.596H854.472V608.74ZM857.491 612.448H862.723V613.72H857.491V612.448ZM864.276 616.42C866.028 614.74 868.416 613.036 868.416 611.56C868.416 610.576 867.792 609.88 866.904 609.88C866.22 609.88 865.536 610.372 865.224 611.08L864.108 610.588C864.588 609.484 865.752 608.716 866.904 608.716C868.548 608.716 869.688 609.892 869.688 611.56C869.688 613.396 867.696 615.028 866.076 616.42H869.832V617.536H864.396L864.276 616.42ZM875.654 613.024C876.434 613.48 876.926 614.332 876.926 615.064C876.926 616.552 875.702 617.608 873.962 617.608C872.234 617.608 871.01 616.528 871.01 614.992H872.282C872.282 615.868 872.978 616.48 873.962 616.48C874.97 616.48 875.69 615.868 875.69 614.992C875.69 614.152 874.982 613.552 873.986 613.552H873.362V612.484H873.998C874.91 612.484 875.558 611.944 875.558 611.176C875.558 610.396 874.934 609.856 874.046 609.856C873.158 609.856 872.546 610.408 872.546 611.188H871.274C871.274 609.736 872.414 608.728 874.046 608.728C875.654 608.728 876.794 609.712 876.794 611.104C876.794 611.776 876.362 612.568 875.654 613.024Z" fill="#797986"/>
<rect x="848" y="645" width="36" height="36" rx="18" fill="#3E3E49"/>
<rect x="848" y="645" width="36" height="36" rx="18" stroke="#797986" stroke-width="2"/>
<path d="M854.472 658.74H855.744V667.596H854.472V658.74ZM857.491 662.448H862.723V663.72H857.491V662.448ZM864.276 666.42C866.028 664.74 868.416 663.036 868.416 661.56C868.416 660.576 867.792 659.88 866.904 659.88C866.22 659.88 865.536 660.372 865.224 661.08L864.108 660.588C864.588 659.484 865.752 658.716 866.904 658.716C868.548 658.716 869.688 659.892 869.688 661.56C869.688 663.396 867.696 665.028 866.076 666.42H869.832V667.536H864.396L864.276 666.42ZM876.158 658.8V664.176H877.262V665.28H876.158V667.536H874.886V665.28H871.13L871.01 664.176L874.946 658.8H876.158ZM872.522 664.176H874.886V660.924L872.522 664.176Z" fill="#797986"/>
<rect x="784" y="495" width="36" height="36" rx="18" fill="#3E3E49"/>
<rect x="784" y="495" width="36" height="36" rx="18" stroke="#797986" stroke-width="2"/>
<path d="M791.972 508.74H793.244V517.596H791.972V508.74ZM794.991 512.448H800.223V513.72H794.991V512.448ZM804.848 508.812V517.536L803.576 517.524V510.168L802.04 511.02L801.512 509.952L803.588 508.812H804.848ZM808.783 517.56H807.391L810.811 509.88L806.803 509.892V508.764H812.083L812.203 509.88L808.783 517.56Z" fill="#797986"/>
<rect x="784" y="545" width="36" height="36" rx="18" fill="#3E3E49"/>
<rect x="784" y="545" width="36" height="36" rx="18" stroke="#797986" stroke-width="2"/>
<path d="M791.472 558.74H792.744V567.596H791.472V558.74ZM794.491 562.448H799.723V563.72H794.491V562.448ZM804.348 558.812V567.536L803.076 567.524V560.168L801.54 561.02L801.012 559.952L803.088 558.812H804.348ZM809.087 566.588C810.083 566.588 810.779 565.952 810.779 565.04C810.779 564.128 810.083 563.48 809.087 563.48C808.091 563.48 807.383 564.128 807.383 565.04C807.383 565.952 808.091 566.588 809.087 566.588ZM806.111 565.064C806.111 564.296 806.711 563.408 807.551 562.94C806.855 562.46 806.351 561.68 806.351 561.056C806.351 559.64 807.479 558.656 809.087 558.656C810.695 558.656 811.823 559.64 811.823 561.056C811.823 561.692 811.331 562.472 810.623 562.94C811.463 563.42 812.063 564.296 812.063 565.064C812.063 566.6 810.839 567.68 809.087 567.68C807.347 567.68 806.111 566.6 806.111 565.064ZM807.635 561.056C807.635 561.836 808.235 562.388 809.087 562.388C809.951 562.388 810.551 561.836 810.551 561.056C810.551 560.276 809.951 559.736 809.087 559.736C808.235 559.736 807.635 560.276 807.635 561.056Z" fill="#797986"/>
<rect x="784" y="595" width="36" height="36" rx="18" fill="#3E3E49"/>
<rect x="784" y="595" width="36" height="36" rx="18" stroke="#797986" stroke-width="2"/>
<path d="M791.472 608.74H792.744V617.596H791.472V608.74ZM794.491 612.448H799.723V613.72H794.491V612.448ZM804.348 608.812V617.536L803.076 617.524V610.168L801.54 611.02L801.012 609.952L803.088 608.812H804.348ZM809.147 609.82C808.115 609.82 807.383 610.564 807.383 611.62C807.383 612.676 808.115 613.42 809.147 613.42C810.167 613.42 810.887 612.676 810.887 611.62C810.887 610.564 810.167 609.82 809.147 609.82ZM806.111 611.62C806.111 609.904 807.359 608.704 809.135 608.704C810.911 608.704 812.159 609.904 812.159 611.62C812.159 612.244 811.931 612.82 811.679 613.276L809.279 617.548H807.815L809.555 614.488C809.411 614.512 809.267 614.536 809.111 614.536C807.347 614.524 806.111 613.324 806.111 611.62Z" fill="#797986"/>
<rect x="784" y="645" width="36" height="36" rx="18" fill="#3E3E49"/>
<rect x="784" y="645" width="36" height="36" rx="18" stroke="#797986" stroke-width="2"/>
<path d="M790.472 658.74H791.744V667.596H790.472V658.74ZM793.491 662.448H798.723V663.72H793.491V662.448ZM800.276 666.42C802.028 664.74 804.416 663.036 804.416 661.56C804.416 660.576 803.792 659.88 802.904 659.88C802.22 659.88 801.536 660.372 801.224 661.08L800.108 660.588C800.588 659.484 801.752 658.716 802.904 658.716C804.548 658.716 805.688 659.892 805.688 661.56C805.688 663.396 803.696 665.028 802.076 666.42H805.832V667.536H800.396L800.276 666.42ZM810.286 666.492C811.486 666.492 812.29 665.148 812.29 663.168C812.29 661.176 811.486 659.832 810.286 659.832C809.086 659.832 808.27 661.176 808.27 663.168C808.27 665.148 809.086 666.492 810.286 666.492ZM806.998 663.168C806.998 660.552 808.354 658.716 810.286 658.716C812.206 658.716 813.562 660.552 813.562 663.168C813.562 665.772 812.206 667.62 810.286 667.62C808.354 667.62 806.998 665.772 806.998 663.168Z" fill="#797986"/>
<rect x="676" y="489" width="48" height="24" rx="4" transform="rotate(90 676 489)" fill="#797986"/>
<rect x="676" y="539" width="48" height="24" rx="4" transform="rotate(90 676 539)" fill="#797986"/>
<rect x="676" y="589" width="48" height="24" rx="4" transform="rotate(90 676 589)" fill="#797986"/>
<rect x="676" y="639" width="48" height="24" rx="4" transform="rotate(90 676 639)" fill="#797986"/>
<rect x="702" y="489" width="48" height="24" rx="4" transform="rotate(90 702 489)" fill="#797986"/>
<rect x="702" y="539" width="48" height="24" rx="4" transform="rotate(90 702 539)" fill="#797986"/>
<rect x="702" y="589" width="48" height="24" rx="4" transform="rotate(90 702 589)" fill="#797986"/>
<rect x="702" y="639" width="48" height="24" rx="4" transform="rotate(90 702 639)" fill="#797986"/>
<rect x="694" y="495" width="36" height="36" rx="18" fill="#3E3E49"/>
<rect x="694" y="495" width="36" height="36" rx="18" stroke="#797986" stroke-width="2"/>
<path d="M701.472 508.74H702.744V517.596H701.472V508.74ZM704.491 512.448H709.723V513.72H704.491V512.448ZM714.348 508.812V517.536L713.076 517.524V510.168L711.54 511.02L711.012 509.952L713.088 508.812H714.348ZM720.755 513.024C721.535 513.48 722.027 514.332 722.027 515.064C722.027 516.552 720.803 517.608 719.063 517.608C717.335 517.608 716.111 516.528 716.111 514.992H717.383C717.383 515.868 718.079 516.48 719.063 516.48C720.071 516.48 720.791 515.868 720.791 514.992C720.791 514.152 720.083 513.552 719.087 513.552H718.463V512.484H719.099C720.011 512.484 720.659 511.944 720.659 511.176C720.659 510.396 720.035 509.856 719.147 509.856C718.259 509.856 717.647 510.408 717.647 511.188H716.375C716.375 509.736 717.515 508.728 719.147 508.728C720.755 508.728 721.895 509.712 721.895 511.104C721.895 511.776 721.463 512.568 720.755 513.024Z" fill="#797986"/>
<rect x="694" y="545" width="36" height="36" rx="18" fill="#3E3E49"/>
<rect x="694" y="545" width="36" height="36" rx="18" stroke="#797986" stroke-width="2"/>
<path d="M701.472 558.74H702.744V567.596H701.472V558.74ZM704.491 562.448H709.723V563.72H704.491V562.448ZM714.348 558.812V567.536L713.076 567.524V560.168L711.54 561.02L711.012 559.952L713.088 558.812H714.348ZM721.259 558.8V564.176H722.363V565.28H721.259V567.536H719.987V565.28H716.231L716.111 564.176L720.047 558.8H721.259ZM717.623 564.176H719.987V560.924L717.623 564.176Z" fill="#797986"/>
<rect x="694" y="595" width="36" height="36" rx="18" fill="#3E3E49"/>
<rect x="694" y="595" width="36" height="36" rx="18" stroke="#797986" stroke-width="2"/>
<path d="M701.472 608.74H702.744V617.596H701.472V608.74ZM704.491 612.448H709.723V613.72H704.491V612.448ZM714.348 608.812V617.536L713.076 617.524V610.168L711.54 611.02L711.012 609.952L713.088 608.812H714.348ZM717.731 613.624L716.459 613.468L716.759 608.8H721.427V609.916H717.983L717.839 612.052C718.235 611.872 718.679 611.764 719.075 611.764C720.875 611.764 722.147 612.976 722.147 614.692C722.147 616.432 720.875 617.656 719.075 617.656C717.659 617.656 716.435 616.708 716.123 615.364L717.359 615.076C717.539 615.88 718.247 616.456 719.075 616.456C720.131 616.456 720.875 615.724 720.875 614.692C720.875 613.684 720.131 612.964 719.075 612.964C718.631 612.964 718.079 613.24 717.731 613.624Z" fill="#797986"/>
<rect x="694" y="645" width="36" height="36" rx="18" fill="#3E3E49"/>
<rect x="694" y="645" width="36" height="36" rx="18" stroke="#797986" stroke-width="2"/>
<path d="M701.472 658.74H702.744V667.596H701.472V658.74ZM704.491 662.448H709.723V663.72H704.491V662.448ZM714.348 658.812V667.536L713.076 667.524V660.168L711.54 661.02L711.012 659.952L713.088 658.812H714.348ZM719.123 666.504C720.155 666.504 720.887 665.76 720.887 664.716C720.887 663.648 720.155 662.904 719.123 662.904C718.103 662.904 717.383 663.648 717.383 664.716C717.383 665.76 718.103 666.504 719.123 666.504ZM716.111 664.716C716.111 664.08 716.339 663.516 716.591 663.048L718.991 658.776H720.455L718.715 661.836C718.859 661.812 719.003 661.788 719.159 661.788C720.923 661.8 722.159 663 722.159 664.716C722.159 666.42 720.911 667.62 719.135 667.62C717.359 667.62 716.111 666.42 716.111 664.716Z" fill="#797986"/>
<rect x="627" y="495" width="36" height="36" rx="18" fill="#3E3E49"/>
<rect x="627" y="495" width="36" height="36" rx="18" stroke="#797986" stroke-width="2"/>
<path d="M633.472 508.74H634.744V517.596H633.472V508.74ZM636.491 512.448H641.723V513.72H636.491V512.448ZM646.372 516.492C647.572 516.492 648.376 515.148 648.376 513.168C648.376 511.176 647.572 509.832 646.372 509.832C645.172 509.832 644.356 511.176 644.356 513.168C644.356 515.148 645.172 516.492 646.372 516.492ZM643.084 513.168C643.084 510.552 644.44 508.716 646.372 508.716C648.292 508.716 649.648 510.552 649.648 513.168C649.648 515.772 648.292 517.62 646.372 517.62C644.44 517.62 643.084 515.772 643.084 513.168ZM653.854 509.82C652.822 509.82 652.09 510.564 652.09 511.62C652.09 512.676 652.822 513.42 653.854 513.42C654.874 513.42 655.594 512.676 655.594 511.62C655.594 510.564 654.874 509.82 653.854 509.82ZM650.818 511.62C650.818 509.904 652.066 508.704 653.842 508.704C655.618 508.704 656.866 509.904 656.866 511.62C656.866 512.244 656.638 512.82 656.386 513.276L653.986 517.548H652.522L654.262 514.488C654.118 514.512 653.974 514.536 653.818 514.536C652.054 514.524 650.818 513.324 650.818 511.62Z" fill="#797986"/>
<rect x="627" y="545" width="36" height="36" rx="18" fill="#3E3E49"/>
<rect x="627" y="545" width="36" height="36" rx="18" stroke="#797986" stroke-width="2"/>
<path d="M634.472 558.74H635.744V567.596H634.472V558.74ZM637.491 562.448H642.723V563.72H637.491V562.448ZM647.348 558.812V567.536L646.076 567.524V560.168L644.54 561.02L644.012 559.952L646.088 558.812H647.348ZM652.387 566.492C653.587 566.492 654.391 565.148 654.391 563.168C654.391 561.176 653.587 559.832 652.387 559.832C651.187 559.832 650.371 561.176 650.371 563.168C650.371 565.148 651.187 566.492 652.387 566.492ZM649.099 563.168C649.099 560.552 650.455 558.716 652.387 558.716C654.307 558.716 655.663 560.552 655.663 563.168C655.663 565.772 654.307 567.62 652.387 567.62C650.455 567.62 649.099 565.772 649.099 563.168Z" fill="#797986"/>
<rect x="627" y="595" width="36" height="36" rx="18" fill="#3E3E49"/>
<rect x="627" y="595" width="36" height="36" rx="18" stroke="#797986" stroke-width="2"/>
<path d="M635.472 608.74H636.744V617.596H635.472V608.74ZM638.491 612.448H643.723V613.72H638.491V612.448ZM648.348 608.812V617.536L647.076 617.524V610.168L645.54 611.02L645.012 609.952L647.088 608.812H648.348ZM653.844 608.812V617.536L652.572 617.524V610.168L651.036 611.02L650.508 609.952L652.584 608.812H653.844Z" fill="#797986"/>
<rect x="627" y="645" width="36" height="36" rx="18" fill="#3E3E49"/>
<rect x="627" y="645" width="36" height="36" rx="18" stroke="#797986" stroke-width="2"/>
<path d="M634.972 658.74H636.244V667.596H634.972V658.74ZM637.991 662.448H643.223V663.72H637.991V662.448ZM647.848 658.812V667.536L646.576 667.524V660.168L645.04 661.02L644.512 659.952L646.588 658.812H647.848ZM649.791 666.42C651.543 664.74 653.931 663.036 653.931 661.56C653.931 660.576 653.307 659.88 652.419 659.88C651.735 659.88 651.051 660.372 650.739 661.08L649.623 660.588C650.103 659.484 651.267 658.716 652.419 658.716C654.063 658.716 655.203 659.892 655.203 661.56C655.203 663.396 653.211 665.028 651.591 666.42H655.347V667.536H649.911L649.791 666.42Z" fill="#797986"/>
<rect x="522" y="489" width="48" height="24" rx="4" transform="rotate(90 522 489)" fill="#797986"/>
<rect x="522" y="539" width="48" height="24" rx="4" transform="rotate(90 522 539)" fill="#797986"/>
<rect x="522" y="589" width="48" height="24" rx="4" transform="rotate(90 522 589)" fill="#797986"/>
<rect x="522" y="639" width="48" height="24" rx="4" transform="rotate(90 522 639)" fill="#797986"/>
<rect x="548" y="489" width="48" height="24" rx="4" transform="rotate(90 548 489)" fill="#797986"/>
<rect x="548" y="539" width="48" height="24" rx="4" transform="rotate(90 548 539)" fill="#797986"/>
<rect x="548" y="589" width="48" height="24" rx="4" transform="rotate(90 548 589)" fill="#797986"/>
<rect x="548" y="639" width="48" height="24" rx="4" transform="rotate(90 548 639)" fill="#797986"/>
<rect x="540" y="495" width="36" height="36" rx="18" fill="#3E3E49"/>
<rect x="540" y="495" width="36" height="36" rx="18" stroke="#797986" stroke-width="2"/>
<path d="M546.472 508.74H547.744V517.596H546.472V508.74ZM549.491 512.448H554.723V513.72H549.491V512.448ZM559.372 516.492C560.572 516.492 561.376 515.148 561.376 513.168C561.376 511.176 560.572 509.832 559.372 509.832C558.172 509.832 557.356 511.176 557.356 513.168C557.356 515.148 558.172 516.492 559.372 516.492ZM556.084 513.168C556.084 510.552 557.44 508.716 559.372 508.716C561.292 508.716 562.648 510.552 562.648 513.168C562.648 515.772 561.292 517.62 559.372 517.62C557.44 517.62 556.084 515.772 556.084 513.168ZM565.438 513.624L564.166 513.468L564.466 508.8H569.134V509.916H565.69L565.546 512.052C565.942 511.872 566.386 511.764 566.782 511.764C568.582 511.764 569.854 512.976 569.854 514.692C569.854 516.432 568.582 517.656 566.782 517.656C565.366 517.656 564.142 516.708 563.83 515.364L565.066 515.076C565.246 515.88 565.954 516.456 566.782 516.456C567.838 516.456 568.582 515.724 568.582 514.692C568.582 513.684 567.838 512.964 566.782 512.964C566.338 512.964 565.786 513.24 565.438 513.624Z" fill="#797986"/>
<rect x="540" y="545" width="36" height="36" rx="18" fill="#3E3E49"/>
<rect x="540" y="545" width="36" height="36" rx="18" stroke="#797986" stroke-width="2"/>
<path d="M546.472 558.74H547.744V567.596H546.472V558.74ZM549.491 562.448H554.723V563.72H549.491V562.448ZM559.372 566.492C560.572 566.492 561.376 565.148 561.376 563.168C561.376 561.176 560.572 559.832 559.372 559.832C558.172 559.832 557.356 561.176 557.356 563.168C557.356 565.148 558.172 566.492 559.372 566.492ZM556.084 563.168C556.084 560.552 557.44 558.716 559.372 558.716C561.292 558.716 562.648 560.552 562.648 563.168C562.648 565.772 561.292 567.62 559.372 567.62C557.44 567.62 556.084 565.772 556.084 563.168ZM566.83 566.504C567.862 566.504 568.594 565.76 568.594 564.716C568.594 563.648 567.862 562.904 566.83 562.904C565.81 562.904 565.09 563.648 565.09 564.716C565.09 565.76 565.81 566.504 566.83 566.504ZM563.818 564.716C563.818 564.08 564.046 563.516 564.298 563.048L566.698 558.776H568.162L566.422 561.836C566.566 561.812 566.71 561.788 566.866 561.788C568.63 561.8 569.866 563 569.866 564.716C569.866 566.42 568.618 567.62 566.842 567.62C565.066 567.62 563.818 566.42 563.818 564.716Z" fill="#797986"/>
<rect x="540" y="595" width="36" height="36" rx="18" fill="#3E3E49"/>
<rect x="540" y="595" width="36" height="36" rx="18" stroke="#797986" stroke-width="2"/>
<path d="M546.472 608.74H547.744V617.596H546.472V608.74ZM549.491 612.448H554.723V613.72H549.491V612.448ZM559.372 616.492C560.572 616.492 561.376 615.148 561.376 613.168C561.376 611.176 560.572 609.832 559.372 609.832C558.172 609.832 557.356 611.176 557.356 613.168C557.356 615.148 558.172 616.492 559.372 616.492ZM556.084 613.168C556.084 610.552 557.44 608.716 559.372 608.716C561.292 608.716 562.648 610.552 562.648 613.168C562.648 615.772 561.292 617.62 559.372 617.62C557.44 617.62 556.084 615.772 556.084 613.168ZM565.99 617.56H564.598L568.018 609.88L564.01 609.892V608.764H569.29L569.41 609.88L565.99 617.56Z" fill="#797986"/>
<rect x="540" y="645" width="36" height="36" rx="18" fill="#3E3E49"/>
<rect x="540" y="645" width="36" height="36" rx="18" stroke="#797986" stroke-width="2"/>
<path d="M546.472 658.74H547.744V667.596H546.472V658.74ZM549.491 662.448H554.723V663.72H549.491V662.448ZM559.372 666.492C560.572 666.492 561.376 665.148 561.376 663.168C561.376 661.176 560.572 659.832 559.372 659.832C558.172 659.832 557.356 661.176 557.356 663.168C557.356 665.148 558.172 666.492 559.372 666.492ZM556.084 663.168C556.084 660.552 557.44 658.716 559.372 658.716C561.292 658.716 562.648 660.552 562.648 663.168C562.648 665.772 561.292 667.62 559.372 667.62C557.44 667.62 556.084 665.772 556.084 663.168ZM566.794 666.588C567.79 666.588 568.486 665.952 568.486 665.04C568.486 664.128 567.79 663.48 566.794 663.48C565.798 663.48 565.09 664.128 565.09 665.04C565.09 665.952 565.798 666.588 566.794 666.588ZM563.818 665.064C563.818 664.296 564.418 663.408 565.258 662.94C564.562 662.46 564.058 661.68 564.058 661.056C564.058 659.64 565.186 658.656 566.794 658.656C568.402 658.656 569.53 659.64 569.53 661.056C569.53 661.692 569.038 662.472 568.33 662.94C569.17 663.42 569.77 664.296 569.77 665.064C569.77 666.6 568.546 667.68 566.794 667.68C565.054 667.68 563.818 666.6 563.818 665.064ZM565.342 661.056C565.342 661.836 565.942 662.388 566.794 662.388C567.658 662.388 568.258 661.836 568.258 661.056C568.258 660.276 567.658 659.736 566.794 659.736C565.942 659.736 565.342 660.276 565.342 661.056Z" fill="#797986"/>
<rect x="470" y="495" width="36" height="36" rx="18" fill="#3E3E49"/>
<rect x="470" y="495" width="36" height="36" rx="18" stroke="#797986" stroke-width="2"/>
<path d="M477.472 508.74H478.744V517.596H477.472V508.74ZM480.491 512.448H485.723V513.72H480.491V512.448ZM490.372 516.492C491.572 516.492 492.376 515.148 492.376 513.168C492.376 511.176 491.572 509.832 490.372 509.832C489.172 509.832 488.356 511.176 488.356 513.168C488.356 515.148 489.172 516.492 490.372 516.492ZM487.084 513.168C487.084 510.552 488.44 508.716 490.372 508.716C492.292 508.716 493.648 510.552 493.648 513.168C493.648 515.772 492.292 517.62 490.372 517.62C488.44 517.62 487.084 515.772 487.084 513.168ZM498.07 508.812V517.536L496.798 517.524V510.168L495.262 511.02L494.734 509.952L496.81 508.812H498.07Z" fill="#797986"/>
<rect x="470" y="545" width="36" height="36" rx="18" fill="#3E3E49"/>
<rect x="470" y="545" width="36" height="36" rx="18" stroke="#797986" stroke-width="2"/>
<path d="M476.472 558.74H477.744V567.596H476.472V558.74ZM479.491 562.448H484.723V563.72H479.491V562.448ZM489.372 566.492C490.572 566.492 491.376 565.148 491.376 563.168C491.376 561.176 490.572 559.832 489.372 559.832C488.172 559.832 487.356 561.176 487.356 563.168C487.356 565.148 488.172 566.492 489.372 566.492ZM486.084 563.168C486.084 560.552 487.44 558.716 489.372 558.716C491.292 558.716 492.648 560.552 492.648 563.168C492.648 565.772 491.292 567.62 489.372 567.62C487.44 567.62 486.084 565.772 486.084 563.168ZM493.998 566.42C495.75 564.74 498.138 563.036 498.138 561.56C498.138 560.576 497.514 559.88 496.626 559.88C495.942 559.88 495.258 560.372 494.946 561.08L493.83 560.588C494.31 559.484 495.474 558.716 496.626 558.716C498.27 558.716 499.41 559.892 499.41 561.56C499.41 563.396 497.418 565.028 495.798 566.42H499.554V567.536H494.118L493.998 566.42Z" fill="#797986"/>
<rect x="470" y="595" width="36" height="36" rx="18" fill="#3E3E49"/>
<rect x="470" y="595" width="36" height="36" rx="18" stroke="#797986" stroke-width="2"/>
<path d="M476.472 608.74H477.744V617.596H476.472V608.74ZM479.491 612.448H484.723V613.72H479.491V612.448ZM489.372 616.492C490.572 616.492 491.376 615.148 491.376 613.168C491.376 611.176 490.572 609.832 489.372 609.832C488.172 609.832 487.356 611.176 487.356 613.168C487.356 615.148 488.172 616.492 489.372 616.492ZM486.084 613.168C486.084 610.552 487.44 608.716 489.372 608.716C491.292 608.716 492.648 610.552 492.648 613.168C492.648 615.772 491.292 617.62 489.372 617.62C487.44 617.62 486.084 615.772 486.084 613.168ZM498.462 613.024C499.242 613.48 499.734 614.332 499.734 615.064C499.734 616.552 498.51 617.608 496.77 617.608C495.042 617.608 493.818 616.528 493.818 614.992H495.09C495.09 615.868 495.786 616.48 496.77 616.48C497.778 616.48 498.498 615.868 498.498 614.992C498.498 614.152 497.79 613.552 496.794 613.552H496.17V612.484H496.806C497.718 612.484 498.366 611.944 498.366 611.176C498.366 610.396 497.742 609.856 496.854 609.856C495.966 609.856 495.354 610.408 495.354 611.188H494.082C494.082 609.736 495.222 608.728 496.854 608.728C498.462 608.728 499.602 609.712 499.602 611.104C499.602 611.776 499.17 612.568 498.462 613.024Z" fill="#797986"/>
<rect x="470" y="645" width="36" height="36" rx="18" fill="#3E3E49"/>
<rect x="470" y="645" width="36" height="36" rx="18" stroke="#797986" stroke-width="2"/>
<path d="M475.972 658.74H477.244V667.596H475.972V658.74ZM478.991 662.448H484.223V663.72H478.991V662.448ZM488.872 666.492C490.072 666.492 490.876 665.148 490.876 663.168C490.876 661.176 490.072 659.832 488.872 659.832C487.672 659.832 486.856 661.176 486.856 663.168C486.856 665.148 487.672 666.492 488.872 666.492ZM485.584 663.168C485.584 660.552 486.94 658.716 488.872 658.716C490.792 658.716 492.148 660.552 492.148 663.168C492.148 665.772 490.792 667.62 488.872 667.62C486.94 667.62 485.584 665.772 485.584 663.168ZM498.466 658.8V664.176H499.57V665.28H498.466V667.536H497.194V665.28H493.438L493.318 664.176L497.254 658.8H498.466ZM494.83 664.176H497.194V660.924L494.83 664.176Z" fill="#797986"/>
<rect x="754" y="-307" width="426" height="3.99998" transform="rotate(90 754 -307)" fill="#797986"/>
<rect x="662" y="-307" width="426" height="3.99998" transform="rotate(90 662 -307)" fill="#797986"/>
<rect x="558" y="-195" width="310" height="3.99999" transform="rotate(90 558 -195)" fill="#797986"/>
<rect x="252" y="-7" width="126" height="3.99999" transform="rotate(90 252 -7)" fill="#797986"/>
<rect x="1080" y="49" width="152" height="3.99999" transform="rotate(-180 1080 49)" fill="#797986"/>
<rect x="928" y="191" width="142" height="4.00001" transform="rotate(-90 928 191)" fill="#797986"/>
<rect x="928" y="375" width="142" height="4.00001" transform="rotate(-90 928 375)" fill="#797986"/>
<rect x="248" y="345" width="130" height="4.00001" transform="rotate(-90 248 345)" fill="#797986"/>
<rect x="248" y="701" width="260" height="4.00001" transform="rotate(-90 248 701)" fill="#797986"/>
<rect x="422" y="701" width="260" height="4.00001" transform="rotate(-90 422 701)" fill="#797986"/>
<rect x="382" y="345" width="130" height="4.00001" transform="rotate(-90 382 345)" fill="#797986"/>
<rect x="516" y="345" width="130" height="4.00001" transform="rotate(-90 516 345)" fill="#797986"/>
<rect x="650" y="345" width="130" height="4.00001" transform="rotate(-90 650 345)" fill="#797986"/>
<rect x="784" y="345" width="130" height="4.00001" transform="rotate(-90 784 345)" fill="#797986"/>
<rect x="38" y="299" width="60" height="4" transform="rotate(-90 38 299)" fill="#797986"/>
<rect x="38" y="391" width="92" height="4" transform="rotate(-90 38 391)" fill="#797986"/>
<rect x="92" y="299" width="60" height="4" transform="rotate(-90 92 299)" fill="#797986"/>
<rect x="146" y="299" width="60" height="4" transform="rotate(-90 146 299)" fill="#797986"/>
<rect x="248" y="211" width="540" height="4" fill="#797986"/>
<rect x="1080" y="233" width="152" height="3.99999" transform="rotate(-180 1080 233)" fill="#797986"/>
<rect x="1082" y="417" width="154" height="3.99999" transform="rotate(-180 1082 417)" fill="#797986"/>
<rect x="382" y="345" width="92" height="3.99999" transform="rotate(-180 382 345)" fill="#797986"/>
<rect x="386" y="445" width="134" height="3.99999" transform="rotate(-180 386 445)" fill="#797986"/>
<rect x="516" y="345" width="92" height="3.99999" transform="rotate(-180 516 345)" fill="#797986"/>
<rect x="650" y="345" width="92" height="3.99999" transform="rotate(-180 650 345)" fill="#797986"/>
<rect x="784" y="345" width="92" height="3.99999" transform="rotate(-180 784 345)" fill="#797986"/>
<rect x="38" y="299" width="50" height="4" transform="rotate(-180 38 299)" fill="#797986"/>
<rect x="92" y="299" width="50" height="4" transform="rotate(-180 92 299)" fill="#797986"/>
<rect x="146" y="299" width="50" height="4" transform="rotate(-180 146 299)" fill="#797986"/>
<rect x="6" y="243" width="18" height="4" transform="rotate(-180 6 243)" fill="#797986"/>
<rect x="60" y="243" width="18" height="4" transform="rotate(-180 60 243)" fill="#797986"/>
<rect x="114" y="243" width="18" height="4" transform="rotate(-180 114 243)" fill="#797986"/>
<rect x="864" y="49" width="110" height="3.99999" transform="rotate(-180 864 49)" fill="#797986"/>
<rect x="612" y="119" width="360" height="3.99997" transform="rotate(-180 612 119)" fill="#797986"/>
<rect x="612" y="19" width="54" height="4" transform="rotate(-180 612 19)" fill="#797986"/>
<rect x="750" y="119" width="88" height="3.99999" transform="rotate(-180 750 119)" fill="#797986"/>
<rect x="1080" y="713" width="1890" height="11.9998" transform="rotate(-180 1080 713)" fill="#797986"/>
<path d="M336 561V580.5M349.5 580.5L337.139 566.079C336.54 565.38 335.46 565.38 334.861 566.079L322.5 580.5M349.5 545.25V560.25C349.5 560.664 349.164 561 348.75 561H323.25C322.836 561 322.5 560.664 322.5 560.25V545.25C322.5 544.836 322.836 544.5 323.25 544.5H332.25L332.858 542.068C332.941 541.734 333.241 541.5 333.586 541.5H339.164C339.509 541.5 339.809 541.734 339.892 542.068L340.5 544.5H348.75C349.164 544.5 349.5 544.836 349.5 545.25ZM342 552.75C342 556.064 339.314 558.75 336 558.75C332.686 558.75 330 556.064 330 552.75C330 549.436 332.686 546.75 336 546.75C339.314 546.75 342 549.436 342 552.75ZM340.5 552.75C340.5 555.235 338.485 557.25 336 557.25C333.515 557.25 331.5 555.235 331.5 552.75C331.5 550.265 333.515 548.25 336 548.25C338.485 548.25 340.5 550.265 340.5 552.75ZM343.5 547.5V546.75C343.5 546.336 343.836 546 344.25 546H347.25C347.664 546 348 546.336 348 546.75V547.5C348 547.914 347.664 548.25 347.25 548.25H344.25C343.836 548.25 343.5 547.914 343.5 547.5ZM329.25 544.5V543.75C329.25 543.336 328.914 543 328.5 543H325.5C325.086 543 324.75 543.336 324.75 543.75V544.5H329.25Z" stroke="#797986" stroke-width="1.2"/>
<path d="M5.51888 259.46C6.74155 256.745 8.90107 254.617 11.5211 253.299C13.2042 252.441 15.2526 253.521 15.6496 255.363L16.1895 257.856C16.5388 259.46 15.5225 261.032 13.9188 261.381L12.0133 261.794C10.9653 262.016 10.2031 262.921 10.1396 263.985C9.91731 267.622 10.8065 271.734 12.5214 274.958C13.0296 275.91 14.0934 276.403 15.1414 276.18L17.0469 275.767C18.6507 275.418 20.2227 276.434 20.572 278.038L21.1278 280.61C21.5247 282.437 20.1592 284.247 18.2855 284.199C8.77404 283.961 2.5813 272.703 4.28033 263.461C4.51851 262.032 4.93136 260.698 5.503 259.444L5.51888 259.46Z" fill="#3E3E49" stroke="#797986" stroke-width="1.2" stroke-miterlimit="10"/>
<path d="M59.5189 259.46C60.7415 256.745 62.9011 254.617 65.5211 253.299C67.2042 252.441 69.2526 253.521 69.6496 255.363L70.1895 257.856C70.5388 259.46 69.5225 261.032 67.9188 261.381L66.0133 261.794C64.9653 262.016 64.2031 262.921 64.1396 263.985C63.9173 267.622 64.8065 271.734 66.5214 274.958C67.0296 275.91 68.0934 276.403 69.1414 276.18L71.0469 275.767C72.6507 275.418 74.2227 276.434 74.572 278.038L75.1278 280.61C75.5247 282.437 74.1592 284.247 72.2855 284.199C62.774 283.961 56.5813 272.703 58.2803 263.461C58.5185 262.032 58.9314 260.698 59.503 259.444L59.5189 259.46Z" fill="#3E3E49" stroke="#797986" stroke-width="1.2" stroke-miterlimit="10"/>
<path d="M113.519 259.46C114.742 256.745 116.901 254.617 119.521 253.299C121.204 252.441 123.253 253.521 123.65 255.363L124.189 257.856C124.539 259.46 123.523 261.032 121.919 261.381L120.013 261.794C118.965 262.016 118.203 262.921 118.14 263.985C117.917 267.622 118.807 271.734 120.521 274.958C121.03 275.91 122.093 276.403 123.141 276.18L125.047 275.767C126.651 275.418 128.223 276.434 128.572 278.038L129.128 280.61C129.525 282.437 128.159 284.247 126.285 284.199C116.774 283.961 110.581 272.703 112.28 263.461C112.519 262.032 112.931 260.698 113.503 259.444L113.519 259.46Z" fill="#3E3E49" stroke="#797986" stroke-width="1.2" stroke-miterlimit="10"/>
<rect x="-108" y="591" width="248" height="50" rx="4" fill="#797986"/>
<rect x="-2" y="563" width="36" height="36" rx="18" fill="#3E3E49"/>
<rect x="-2" y="563" width="36" height="36" rx="18" stroke="#797986" stroke-width="2"/>
<path d="M6.128 576.74L9.416 585.596H8.06L7.172 583.184H3.536L2.612 585.596H1.256L4.604 576.74H6.128ZM3.944 582.08H6.752L5.372 578.348L3.944 582.08ZM10.948 580.448H16.18V581.72H10.948V580.448ZM17.7328 584.42C19.4848 582.74 21.8728 581.036 21.8728 579.56C21.8728 578.576 21.2488 577.88 20.3608 577.88C19.6768 577.88 18.9928 578.372 18.6808 579.08L17.5648 578.588C18.0448 577.484 19.2088 576.716 20.3608 576.716C22.0048 576.716 23.1448 577.892 23.1448 579.56C23.1448 581.396 21.1528 583.028 19.5328 584.42H23.2888V585.536H17.8528L17.7328 584.42ZM29.1109 581.024C29.8909 581.48 30.3829 582.332 30.3829 583.064C30.3829 584.552 29.1589 585.608 27.4189 585.608C25.6909 585.608 24.4669 584.528 24.4669 582.992H25.7389C25.7389 583.868 26.4349 584.48 27.4189 584.48C28.4269 584.48 29.1469 583.868 29.1469 582.992C29.1469 582.152 28.4389 581.552 27.4429 581.552H26.8189V580.484H27.4549C28.3669 580.484 29.0149 579.944 29.0149 579.176C29.0149 578.396 28.3909 577.856 27.5029 577.856C26.6149 577.856 26.0029 578.408 26.0029 579.188H24.7309C24.7309 577.736 25.8709 576.728 27.5029 576.728C29.1109 576.728 30.2509 577.712 30.2509 579.104C30.2509 579.776 29.8189 580.568 29.1109 581.024Z" fill="#797986"/>
<rect x="48" y="563" width="36" height="36" rx="18" fill="#3E3E49"/>
<rect x="48" y="563" width="36" height="36" rx="18" stroke="#797986" stroke-width="2"/>
<path d="M56.128 576.74L59.416 585.596H58.06L57.172 583.184H53.536L52.612 585.596H51.256L54.604 576.74H56.128ZM53.944 582.08H56.752L55.372 578.348L53.944 582.08ZM60.948 580.448H66.18V581.72H60.948V580.448ZM67.7328 584.42C69.4848 582.74 71.8728 581.036 71.8728 579.56C71.8728 578.576 71.2488 577.88 70.3608 577.88C69.6768 577.88 68.9928 578.372 68.6808 579.08L67.5648 578.588C68.0448 577.484 69.2088 576.716 70.3608 576.716C72.0048 576.716 73.1448 577.892 73.1448 579.56C73.1448 581.396 71.1528 583.028 69.5328 584.42H73.2888V585.536H67.8528L67.7328 584.42ZM79.6149 576.8V582.176H80.7189V583.28H79.6149V585.536H78.3429V583.28H74.5869L74.4669 582.176L78.4029 576.8H79.6149ZM75.9789 582.176H78.3429V578.924L75.9789 582.176Z" fill="#797986"/>
<rect x="98" y="563" width="36" height="36" rx="18" fill="#3E3E49"/>
<rect x="98" y="563" width="36" height="36" rx="18" stroke="#797986" stroke-width="2"/>
<path d="M106.128 576.74L109.416 585.596H108.06L107.172 583.184H103.536L102.612 585.596H101.256L104.604 576.74H106.128ZM103.944 582.08H106.752L105.372 578.348L103.944 582.08ZM110.948 580.448H116.18V581.72H110.948V580.448ZM117.733 584.42C119.485 582.74 121.873 581.036 121.873 579.56C121.873 578.576 121.249 577.88 120.361 577.88C119.677 577.88 118.993 578.372 118.681 579.08L117.565 578.588C118.045 577.484 119.209 576.716 120.361 576.716C122.005 576.716 123.145 577.892 123.145 579.56C123.145 581.396 121.153 583.028 119.533 584.42H123.289V585.536H117.853L117.733 584.42ZM126.087 581.624L124.815 581.468L125.115 576.8H129.783V577.916H126.339L126.195 580.052C126.591 579.872 127.035 579.764 127.431 579.764C129.231 579.764 130.503 580.976 130.503 582.692C130.503 584.432 129.231 585.656 127.431 585.656C126.015 585.656 124.791 584.708 124.479 583.364L125.715 583.076C125.895 583.88 126.603 584.456 127.431 584.456C128.487 584.456 129.231 583.724 129.231 582.692C129.231 581.684 128.487 580.964 127.431 580.964C126.987 580.964 126.435 581.24 126.087 581.624Z" fill="#797986"/>
<rect x="-2" y="633" width="36" height="36" rx="18" fill="#3E3E49"/>
<rect x="-2" y="633" width="36" height="36" rx="18" stroke="#797986" stroke-width="2"/>
<path d="M6.128 646.74L9.416 655.596H8.06L7.172 653.184H3.536L2.612 655.596H1.256L4.604 646.74H6.128ZM3.944 652.08H6.752L5.372 648.348L3.944 652.08ZM10.948 650.448H16.18V651.72H10.948V650.448ZM17.7328 654.42C19.4848 652.74 21.8728 651.036 21.8728 649.56C21.8728 648.576 21.2488 647.88 20.3608 647.88C19.6768 647.88 18.9928 648.372 18.6808 649.08L17.5648 648.588C18.0448 647.484 19.2088 646.716 20.3608 646.716C22.0048 646.716 23.1448 647.892 23.1448 649.56C23.1448 651.396 21.1528 653.028 19.5328 654.42H23.2888V655.536H17.8528L17.7328 654.42ZM27.4429 654.588C28.4389 654.588 29.1349 653.952 29.1349 653.04C29.1349 652.128 28.4389 651.48 27.4429 651.48C26.4469 651.48 25.7389 652.128 25.7389 653.04C25.7389 653.952 26.4469 654.588 27.4429 654.588ZM24.4669 653.064C24.4669 652.296 25.0669 651.408 25.9069 650.94C25.2109 650.46 24.7069 649.68 24.7069 649.056C24.7069 647.64 25.8349 646.656 27.4429 646.656C29.0509 646.656 30.1789 647.64 30.1789 649.056C30.1789 649.692 29.6869 650.472 28.9789 650.94C29.8189 651.42 30.4189 652.296 30.4189 653.064C30.4189 654.6 29.1949 655.68 27.4429 655.68C25.7029 655.68 24.4669 654.6 24.4669 653.064ZM25.9909 649.056C25.9909 649.836 26.5909 650.388 27.4429 650.388C28.3069 650.388 28.9069 649.836 28.9069 649.056C28.9069 648.276 28.3069 647.736 27.4429 647.736C26.5909 647.736 25.9909 648.276 25.9909 649.056Z" fill="#797986"/>
<rect x="48" y="633" width="36" height="36" rx="18" fill="#3E3E49"/>
<rect x="48" y="633" width="36" height="36" rx="18" stroke="#797986" stroke-width="2"/>
<path d="M56.128 646.74L59.416 655.596H58.06L57.172 653.184H53.536L52.612 655.596H51.256L54.604 646.74H56.128ZM53.944 652.08H56.752L55.372 648.348L53.944 652.08ZM60.948 650.448H66.18V651.72H60.948V650.448ZM67.7328 654.42C69.4848 652.74 71.8728 651.036 71.8728 649.56C71.8728 648.576 71.2488 647.88 70.3608 647.88C69.6768 647.88 68.9928 648.372 68.6808 649.08L67.5648 648.588C68.0448 647.484 69.2088 646.716 70.3608 646.716C72.0048 646.716 73.1448 647.892 73.1448 649.56C73.1448 651.396 71.1528 653.028 69.5328 654.42H73.2888V655.536H67.8528L67.7328 654.42ZM77.5029 647.82C76.4709 647.82 75.7389 648.564 75.7389 649.62C75.7389 650.676 76.4709 651.42 77.5029 651.42C78.5229 651.42 79.2429 650.676 79.2429 649.62C79.2429 648.564 78.5229 647.82 77.5029 647.82ZM74.4669 649.62C74.4669 647.904 75.7149 646.704 77.4909 646.704C79.2669 646.704 80.5149 647.904 80.5149 649.62C80.5149 650.244 80.2869 650.82 80.0349 651.276L77.6349 655.548H76.1709L77.9109 652.488C77.7669 652.512 77.6229 652.536 77.4669 652.536C75.7029 652.524 74.4669 651.324 74.4669 649.62Z" fill="#797986"/>
<rect x="98" y="633" width="36" height="36" rx="18" fill="#3E3E49"/>
<rect x="98" y="633" width="36" height="36" rx="18" stroke="#797986" stroke-width="2"/>
<path d="M105.628 646.74L108.916 655.596H107.56L106.672 653.184H103.036L102.112 655.596H100.756L104.104 646.74H105.628ZM103.444 652.08H106.252L104.872 648.348L103.444 652.08ZM110.448 650.448H115.68V651.72H110.448V650.448ZM121.697 651.024C122.477 651.48 122.969 652.332 122.969 653.064C122.969 654.552 121.745 655.608 120.005 655.608C118.277 655.608 117.053 654.528 117.053 652.992H118.325C118.325 653.868 119.021 654.48 120.005 654.48C121.013 654.48 121.733 653.868 121.733 652.992C121.733 652.152 121.025 651.552 120.029 651.552H119.405V650.484H120.041C120.953 650.484 121.601 649.944 121.601 649.176C121.601 648.396 120.977 647.856 120.089 647.856C119.201 647.856 118.589 648.408 118.589 649.188H117.317C117.317 647.736 118.457 646.728 120.089 646.728C121.697 646.728 122.837 647.712 122.837 649.104C122.837 649.776 122.405 650.568 121.697 651.024ZM127.419 654.492C128.619 654.492 129.423 653.148 129.423 651.168C129.423 649.176 128.619 647.832 127.419 647.832C126.219 647.832 125.403 649.176 125.403 651.168C125.403 653.148 126.219 654.492 127.419 654.492ZM124.131 651.168C124.131 648.552 125.487 646.716 127.419 646.716C129.339 646.716 130.695 648.552 130.695 651.168C130.695 653.772 129.339 655.62 127.419 655.62C125.487 655.62 124.131 653.772 124.131 651.168Z" fill="#797986"/>
<path d="M305.5 248.25C305.5 247.836 305.836 247.5 306.25 247.5H325.75C326.164 247.5 326.5 247.836 326.5 248.25V258.75C326.5 259.164 326.164 259.5 325.75 259.5H306.25C305.836 259.5 305.5 259.164 305.5 258.75V248.25Z" stroke="white" stroke-width="1.2"/>
<path d="M308.876 262.7C309.101 262.127 309.655 261.75 310.271 261.75H321.729C322.345 261.75 322.898 262.127 323.124 262.7L331.693 284.45C332.08 285.434 331.355 286.5 330.297 286.5H301.703C300.645 286.5 299.92 285.434 300.307 284.45L308.876 262.7Z" stroke="white" stroke-width="1.2"/>
<path d="M305.5 264H303.069C302.655 264 302.319 263.664 302.319 263.25V257.248C302.319 257.084 302.094 257.039 302.031 257.191L299.732 262.695C299.579 263.061 299.5 263.454 299.5 263.851V270C299.5 270.414 299.836 270.75 300.25 270.75H302.681M326.5 264H328.931C329.345 264 329.681 263.664 329.681 263.25V257.248C329.681 257.084 329.906 257.039 329.969 257.191L332.268 262.695C332.421 263.061 332.5 263.454 332.5 263.851V270C332.5 270.414 332.164 270.75 331.75 270.75H329.319M301 276H298.322C297.825 276 297.422 275.597 297.422 275.1V267.953C297.422 267.754 297.146 267.703 297.074 267.888L294.498 274.467C294.334 274.885 294.25 275.33 294.25 275.78V283.2C294.25 283.697 294.653 284.1 295.15 284.1H297.828M331 276H333.678C334.175 276 334.578 275.597 334.578 275.1V267.953C334.578 267.754 334.854 267.703 334.926 267.888L337.502 274.467C337.666 274.885 337.75 275.33 337.75 275.78V283.2C337.75 283.697 337.347 284.1 336.85 284.1H334.172" stroke="white" stroke-width="1.2"/>
<path d="M313.273 255.684V254.923L316.629 249.613H317.181V250.792H316.808L314.273 254.804V254.863H318.792V255.684H313.273ZM316.868 257.25V249.613H317.748V257.25H316.868Z" fill="white"/>
<path d="M439.5 248.25C439.5 247.836 439.836 247.5 440.25 247.5H459.75C460.164 247.5 460.5 247.836 460.5 248.25V258.75C460.5 259.164 460.164 259.5 459.75 259.5H440.25C439.836 259.5 439.5 259.164 439.5 258.75V248.25Z" stroke="white" stroke-width="1.2"/>
<path d="M442.876 262.7C443.101 262.127 443.655 261.75 444.271 261.75H455.729C456.345 261.75 456.898 262.127 457.124 262.7L465.693 284.45C466.08 285.434 465.355 286.5 464.297 286.5H435.703C434.645 286.5 433.92 285.434 434.307 284.45L442.876 262.7Z" stroke="white" stroke-width="1.2"/>
<path d="M439.5 264H437.069C436.655 264 436.319 263.664 436.319 263.25V257.248C436.319 257.084 436.094 257.039 436.031 257.191L433.732 262.695C433.579 263.061 433.5 263.454 433.5 263.851V270C433.5 270.414 433.836 270.75 434.25 270.75H436.681M460.5 264H462.931C463.345 264 463.681 263.664 463.681 263.25V257.248C463.681 257.084 463.906 257.039 463.969 257.191L466.268 262.695C466.421 263.061 466.5 263.454 466.5 263.851V270C466.5 270.414 466.164 270.75 465.75 270.75H463.319M435 276H432.322C431.825 276 431.422 275.597 431.422 275.1V267.953C431.422 267.754 431.146 267.703 431.074 267.888L428.498 274.467C428.334 274.885 428.25 275.33 428.25 275.78V283.2C428.25 283.697 428.653 284.1 429.15 284.1H431.828M465 276H467.678C468.175 276 468.578 275.597 468.578 275.1V267.953C468.578 267.754 468.854 267.703 468.926 267.888L471.502 274.467C471.666 274.885 471.75 275.33 471.75 275.78V283.2C471.75 283.697 471.347 284.1 470.85 284.1H468.172" stroke="white" stroke-width="1.2"/>
<path d="M447.273 255.684V254.923L450.629 249.613H451.181V250.792H450.808L448.273 254.804V254.863H452.792V255.684H447.273ZM450.868 257.25V249.613H451.748V257.25H450.868Z" fill="white"/>
<path d="M573.5 248.25C573.5 247.836 573.836 247.5 574.25 247.5H593.75C594.164 247.5 594.5 247.836 594.5 248.25V258.75C594.5 259.164 594.164 259.5 593.75 259.5H574.25C573.836 259.5 573.5 259.164 573.5 258.75V248.25Z" stroke="white" stroke-width="1.2"/>
<path d="M576.876 262.7C577.101 262.127 577.655 261.75 578.271 261.75H589.729C590.345 261.75 590.898 262.127 591.124 262.7L599.693 284.45C600.08 285.434 599.355 286.5 598.297 286.5H569.703C568.645 286.5 567.92 285.434 568.307 284.45L576.876 262.7Z" stroke="white" stroke-width="1.2"/>
<path d="M573.5 264H571.069C570.655 264 570.319 263.664 570.319 263.25V257.248C570.319 257.084 570.094 257.039 570.031 257.191L567.732 262.695C567.579 263.061 567.5 263.454 567.5 263.851V270C567.5 270.414 567.836 270.75 568.25 270.75H570.681M594.5 264H596.931C597.345 264 597.681 263.664 597.681 263.25V257.248C597.681 257.084 597.906 257.039 597.969 257.191L600.268 262.695C600.421 263.061 600.5 263.454 600.5 263.851V270C600.5 270.414 600.164 270.75 599.75 270.75H597.319M569 276H566.322C565.825 276 565.422 275.597 565.422 275.1V267.953C565.422 267.754 565.146 267.703 565.074 267.888L562.498 274.467C562.334 274.885 562.25 275.33 562.25 275.78V283.2C562.25 283.697 562.653 284.1 563.15 284.1H565.828M599 276H601.678C602.175 276 602.578 275.597 602.578 275.1V267.953C602.578 267.754 602.854 267.703 602.926 267.888L605.502 274.467C605.666 274.885 605.75 275.33 605.75 275.78V283.2C605.75 283.697 605.347 284.1 604.85 284.1H602.172" stroke="white" stroke-width="1.2"/>
<path d="M581.273 255.684V254.923L584.629 249.613H585.181V250.792H584.808L582.273 254.804V254.863H586.792V255.684H581.273ZM584.868 257.25V249.613H585.748V257.25H584.868Z" fill="white"/>
<path d="M707.5 248.25C707.5 247.836 707.836 247.5 708.25 247.5H727.75C728.164 247.5 728.5 247.836 728.5 248.25V258.75C728.5 259.164 728.164 259.5 727.75 259.5H708.25C707.836 259.5 707.5 259.164 707.5 258.75V248.25Z" stroke="white" stroke-width="1.2"/>
<path d="M710.876 262.7C711.101 262.127 711.655 261.75 712.271 261.75H723.729C724.345 261.75 724.898 262.127 725.124 262.7L733.693 284.45C734.08 285.434 733.355 286.5 732.297 286.5H703.703C702.645 286.5 701.92 285.434 702.307 284.45L710.876 262.7Z" stroke="white" stroke-width="1.2"/>
<path d="M707.5 264H705.069C704.655 264 704.319 263.664 704.319 263.25V257.248C704.319 257.084 704.094 257.039 704.031 257.191L701.732 262.695C701.579 263.061 701.5 263.454 701.5 263.851V270C701.5 270.414 701.836 270.75 702.25 270.75H704.681M728.5 264H730.931C731.345 264 731.681 263.664 731.681 263.25V257.248C731.681 257.084 731.906 257.039 731.969 257.191L734.268 262.695C734.421 263.061 734.5 263.454 734.5 263.851V270C734.5 270.414 734.164 270.75 733.75 270.75H731.319M703 276H700.322C699.825 276 699.422 275.597 699.422 275.1V267.953C699.422 267.754 699.146 267.703 699.074 267.888L696.498 274.467C696.334 274.885 696.25 275.33 696.25 275.78V283.2C696.25 283.697 696.653 284.1 697.15 284.1H699.828M733 276H735.678C736.175 276 736.578 275.597 736.578 275.1V267.953C736.578 267.754 736.854 267.703 736.926 267.888L739.502 274.467C739.666 274.885 739.75 275.33 739.75 275.78V283.2C739.75 283.697 739.347 284.1 738.85 284.1H736.172" stroke="white" stroke-width="1.2"/>
<path d="M715.273 255.684V254.923L718.629 249.613H719.181V250.792H718.808L716.273 254.804V254.863H720.792V255.684H715.273ZM718.868 257.25V249.613H719.748V257.25H718.868Z" fill="white"/>
<path d="M995.504 104.113C995.504 103.699 995.84 103.363 996.254 103.363H1015.75C1016.17 103.363 1016.5 103.699 1016.5 104.113V114.613C1016.5 115.027 1016.17 115.363 1015.75 115.363H996.254C995.84 115.363 995.504 115.027 995.504 114.613V104.113Z" stroke="#797986" stroke-width="1.2"/>
<path d="M998.876 118.7C999.101 118.127 999.655 117.75 1000.27 117.75H1011.73C1012.34 117.75 1012.9 118.127 1013.12 118.7L1021.69 140.45C1022.08 141.434 1021.35 142.5 1020.3 142.5H991.703C990.645 142.5 989.92 141.434 990.307 140.45L998.876 118.7Z" stroke="#797986" stroke-width="1.2"/>
<path d="M995.5 120H993.069C992.655 120 992.319 119.664 992.319 119.25V113.248C992.319 113.084 992.094 113.039 992.031 113.191L989.732 118.695C989.579 119.061 989.5 119.454 989.5 119.851V126C989.5 126.414 989.836 126.75 990.25 126.75H992.681M1016.5 120H1018.93C1019.35 120 1019.68 119.664 1019.68 119.25V113.248C1019.68 113.084 1019.91 113.039 1019.97 113.191L1022.27 118.695C1022.42 119.061 1022.5 119.454 1022.5 119.851V126C1022.5 126.414 1022.16 126.75 1021.75 126.75H1019.32M991 132H988.322C987.825 132 987.422 131.597 987.422 131.1V123.953C987.422 123.754 987.146 123.703 987.074 123.888L984.498 130.467C984.334 130.885 984.25 131.33 984.25 131.78V139.2C984.25 139.697 984.653 140.1 985.15 140.1H987.828M1021 132H1023.68C1024.18 132 1024.58 131.597 1024.58 131.1V123.953C1024.58 123.754 1024.85 123.703 1024.93 123.888L1027.5 130.467C1027.67 130.885 1027.75 131.33 1027.75 131.78V139.2C1027.75 139.697 1027.35 140.1 1026.85 140.1H1024.17" stroke="#797986" stroke-width="1.2"/>
<path d="M1005.98 113.354C1005.47 113.354 1005.01 113.264 1004.62 113.082C1004.23 112.898 1003.93 112.646 1003.71 112.325C1003.49 112.002 1003.38 111.634 1003.38 111.222C1003.38 110.898 1003.44 110.6 1003.57 110.327C1003.7 110.051 1003.88 109.821 1004.1 109.637C1004.33 109.451 1004.58 109.332 1004.86 109.283V109.238C1004.49 109.144 1004.2 108.938 1003.99 108.623C1003.77 108.305 1003.66 107.943 1003.67 107.538C1003.66 107.15 1003.76 106.803 1003.96 106.497C1004.16 106.192 1004.43 105.951 1004.78 105.774C1005.13 105.598 1005.53 105.509 1005.98 105.509C1006.42 105.509 1006.82 105.598 1007.16 105.774C1007.51 105.951 1007.79 106.192 1007.98 106.497C1008.19 106.803 1008.29 107.15 1008.29 107.538C1008.29 107.943 1008.18 108.305 1007.96 108.623C1007.74 108.938 1007.45 109.144 1007.1 109.238V109.283C1007.37 109.332 1007.62 109.451 1007.84 109.637C1008.06 109.821 1008.24 110.051 1008.37 110.327C1008.5 110.6 1008.57 110.898 1008.57 111.222C1008.57 111.634 1008.46 112.002 1008.24 112.325C1008.02 112.646 1007.71 112.898 1007.32 113.082C1006.94 113.264 1006.49 113.354 1005.98 113.354ZM1005.98 112.534C1006.32 112.534 1006.62 112.478 1006.87 112.366C1007.12 112.254 1007.32 112.097 1007.45 111.893C1007.59 111.689 1007.66 111.45 1007.66 111.177C1007.66 110.889 1007.59 110.634 1007.44 110.413C1007.29 110.191 1007.09 110.017 1006.84 109.89C1006.59 109.764 1006.3 109.7 1005.98 109.7C1005.65 109.7 1005.36 109.764 1005.11 109.89C1004.85 110.017 1004.65 110.191 1004.51 110.413C1004.36 110.634 1004.29 110.889 1004.29 111.177C1004.29 111.45 1004.36 111.689 1004.49 111.893C1004.63 112.097 1004.82 112.254 1005.08 112.366C1005.33 112.478 1005.63 112.534 1005.98 112.534ZM1005.98 108.91C1006.25 108.91 1006.49 108.855 1006.71 108.746C1006.92 108.636 1007.09 108.484 1007.21 108.287C1007.33 108.091 1007.39 107.861 1007.39 107.597C1007.39 107.339 1007.33 107.114 1007.21 106.922C1007.09 106.729 1006.93 106.579 1006.72 106.475C1006.51 106.368 1006.26 106.315 1005.98 106.315C1005.69 106.315 1005.44 106.368 1005.23 106.475C1005.01 106.579 1004.85 106.729 1004.73 106.922C1004.62 107.114 1004.56 107.339 1004.56 107.597C1004.56 107.861 1004.62 108.091 1004.74 108.287C1004.86 108.484 1005.03 108.636 1005.24 108.746C1005.45 108.855 1005.7 108.91 1005.98 108.91Z" fill="#797986"/>
<path d="M995.504 288.113C995.504 287.699 995.84 287.363 996.254 287.363H1015.75C1016.17 287.363 1016.5 287.699 1016.5 288.113V298.613C1016.5 299.027 1016.17 299.363 1015.75 299.363H996.254C995.84 299.363 995.504 299.027 995.504 298.613V288.113Z" stroke="#797986" stroke-width="1.2"/>
<path d="M998.876 302.7C999.101 302.127 999.655 301.75 1000.27 301.75H1011.73C1012.34 301.75 1012.9 302.127 1013.12 302.7L1021.69 324.45C1022.08 325.434 1021.35 326.5 1020.3 326.5H991.703C990.645 326.5 989.92 325.434 990.307 324.45L998.876 302.7Z" stroke="#797986" stroke-width="1.2"/>
<path d="M995.5 304H993.069C992.655 304 992.319 303.664 992.319 303.25V297.248C992.319 297.084 992.094 297.039 992.031 297.191L989.732 302.695C989.579 303.061 989.5 303.454 989.5 303.851V310C989.5 310.414 989.836 310.75 990.25 310.75H992.681M1016.5 304H1018.93C1019.35 304 1019.68 303.664 1019.68 303.25V297.248C1019.68 297.084 1019.91 297.039 1019.97 297.191L1022.27 302.695C1022.42 303.061 1022.5 303.454 1022.5 303.851V310C1022.5 310.414 1022.16 310.75 1021.75 310.75H1019.32M991 316H988.322C987.825 316 987.422 315.597 987.422 315.1V307.953C987.422 307.754 987.146 307.703 987.074 307.888L984.498 314.467C984.334 314.885 984.25 315.33 984.25 315.78V323.2C984.25 323.697 984.653 324.1 985.15 324.1H987.828M1021 316H1023.68C1024.18 316 1024.58 315.597 1024.58 315.1V307.953C1024.58 307.754 1024.85 307.703 1024.93 307.888L1027.5 314.467C1027.67 314.885 1027.75 315.33 1027.75 315.78V323.2C1027.75 323.697 1027.35 324.1 1026.85 324.1H1024.17" stroke="#797986" stroke-width="1.2"/>
<path d="M1005.98 297.354C1005.47 297.354 1005.01 297.264 1004.62 297.082C1004.23 296.898 1003.93 296.646 1003.71 296.325C1003.49 296.002 1003.38 295.634 1003.38 295.222C1003.38 294.898 1003.44 294.6 1003.57 294.327C1003.7 294.051 1003.88 293.821 1004.1 293.637C1004.33 293.451 1004.58 293.332 1004.86 293.283V293.238C1004.49 293.144 1004.2 292.938 1003.99 292.623C1003.77 292.305 1003.66 291.943 1003.67 291.538C1003.66 291.15 1003.76 290.803 1003.96 290.497C1004.16 290.192 1004.43 289.951 1004.78 289.774C1005.13 289.598 1005.53 289.509 1005.98 289.509C1006.42 289.509 1006.82 289.598 1007.16 289.774C1007.51 289.951 1007.79 290.192 1007.98 290.497C1008.19 290.803 1008.29 291.15 1008.29 291.538C1008.29 291.943 1008.18 292.305 1007.96 292.623C1007.74 292.938 1007.45 293.144 1007.1 293.238V293.283C1007.37 293.332 1007.62 293.451 1007.84 293.637C1008.06 293.821 1008.24 294.051 1008.37 294.327C1008.5 294.6 1008.57 294.898 1008.57 295.222C1008.57 295.634 1008.46 296.002 1008.24 296.325C1008.02 296.646 1007.71 296.898 1007.32 297.082C1006.94 297.264 1006.49 297.354 1005.98 297.354ZM1005.98 296.534C1006.32 296.534 1006.62 296.478 1006.87 296.366C1007.12 296.254 1007.32 296.097 1007.45 295.893C1007.59 295.689 1007.66 295.45 1007.66 295.177C1007.66 294.889 1007.59 294.634 1007.44 294.413C1007.29 294.191 1007.09 294.017 1006.84 293.89C1006.59 293.764 1006.3 293.7 1005.98 293.7C1005.65 293.7 1005.36 293.764 1005.11 293.89C1004.85 294.017 1004.65 294.191 1004.51 294.413C1004.36 294.634 1004.29 294.889 1004.29 295.177C1004.29 295.45 1004.36 295.689 1004.49 295.893C1004.63 296.097 1004.82 296.254 1005.08 296.366C1005.33 296.478 1005.63 296.534 1005.98 296.534ZM1005.98 292.91C1006.25 292.91 1006.49 292.855 1006.71 292.746C1006.92 292.636 1007.09 292.484 1007.21 292.287C1007.33 292.091 1007.39 291.861 1007.39 291.597C1007.39 291.339 1007.33 291.114 1007.21 290.922C1007.09 290.729 1006.93 290.579 1006.72 290.475C1006.51 290.368 1006.26 290.315 1005.98 290.315C1005.69 290.315 1005.44 290.368 1005.23 290.475C1005.01 290.579 1004.85 290.729 1004.73 290.922C1004.62 291.114 1004.56 291.339 1004.56 291.597C1004.56 291.861 1004.62 292.091 1004.74 292.287C1004.86 292.484 1005.03 292.636 1005.24 292.746C1005.45 292.855 1005.7 292.91 1005.98 292.91Z" fill="#797986"/>
<path d="M-10 507C-12.2091 507 -14 505.209 -14 503L-14 451C-14 448.791 -12.2091 447 -10 447L-8.66667 447L2 447C4.20913 447 6 448.791 6 451L6 503C6 505.209 4.20914 507 2 507L-8.66667 507L-10 507Z" fill="#3E3E49"/>
<path d="M-8.66667 447L-10 447C-12.2091 447 -14 448.791 -14 451L-14 503C-14 505.209 -12.2091 507 -10 507L-8.66667 507M-8.66667 447L2 447C4.20914 447 6 448.791 6 451L6 503C6 505.209 4.20914 507 2 507L-8.66667 507M-8.66667 447L-8.66667 507" stroke="#797986" stroke-width="2"/>
<path d="M68 507C65.7909 507 64 505.209 64 503L64 451C64 448.791 65.7909 447 68 447L69.3333 447L80 447C82.2091 447 84 448.791 84 451L84 503C84 505.209 82.2091 507 80 507L69.3333 507L68 507Z" fill="#3E3E49"/>
<path d="M69.3333 447L68 447C65.7909 447 64 448.791 64 451L64 503C64 505.209 65.7909 507 68 507L69.3333 507M69.3333 447L80 447C82.2091 447 84 448.791 84 451L84 503C84 505.209 82.2091 507 80 507L69.3333 507M69.3333 447L69.3333 507" stroke="#797986" stroke-width="2"/>
<path d="M52 507C54.2091 507 56 505.209 56 503L56 451C56 448.791 54.2091 447 52 447L50.6667 447L40 447C37.7909 447 36 448.791 36 451L36 503C36 505.209 37.7909 507 40 507L50.6667 507L52 507Z" fill="#3E3E49"/>
<path d="M50.6667 447L52 447C54.2091 447 56 448.791 56 451L56 503C56 505.209 54.2091 507 52 507L50.6667 507M50.6667 447L40 447C37.7909 447 36 448.791 36 451L36 503C36 505.209 37.7909 507 40 507L50.6667 507M50.6667 447L50.6667 507" stroke="#797986" stroke-width="2"/>
<path d="M134 507C136.209 507 138 505.209 138 503L138 451C138 448.791 136.209 447 134 447L132.667 447L122 447C119.791 447 118 448.791 118 451L118 503C118 505.209 119.791 507 122 507L132.667 507L134 507Z" fill="#3E3E49"/>
<path d="M132.667 447L134 447C136.209 447 138 448.791 138 451L138 503C138 505.209 136.209 507 134 507L132.667 507M132.667 447L122 447C119.791 447 118 448.791 118 451L118 503C118 505.209 119.791 507 122 507L132.667 507M132.667 447L132.667 507" stroke="#797986" stroke-width="2"/>
<rect x="10" y="451" width="22" height="52" rx="4" fill="#3E3E49" stroke="#797986" stroke-width="2"/>
<rect x="92" y="451" width="22" height="52" rx="4" fill="#3E3E49" stroke="#797986" stroke-width="2"/>
<rect x="80" y="331" width="38" height="38" rx="19" fill="#3E3E49" stroke="#797986" stroke-width="2"/>
<path d="M14.4824 362.774C15.2558 364.113 14.7968 365.826 13.4572 366.6L1.32936 373.602C-0.0102513 374.375 -1.7232 373.916 -2.49662 372.576L-3.89703 370.151L-10.1989 359.236C-10.9723 357.896 -10.5133 356.183 -9.17369 355.41L2.95419 348.408C4.2938 347.634 6.00675 348.093 6.78017 349.433L13.082 360.348L14.4824 362.774Z" fill="#3E3E49"/>
<path d="M-3.89703 370.151L-2.49662 372.576C-1.7232 373.916 -0.0102512 374.375 1.32936 373.602L13.4572 366.6C14.7968 365.826 15.2558 364.113 14.4824 362.774L13.082 360.348M-3.89703 370.151L-10.1989 359.236C-10.9723 357.896 -10.5133 356.183 -9.17369 355.41L2.95419 348.408C4.2938 347.634 6.00675 348.093 6.78017 349.433L13.082 360.348M-3.89703 370.151L13.082 360.348" stroke="#797986" stroke-width="2"/>
<path d="M132.482 146.774C133.256 148.113 132.797 149.826 131.457 150.6L119.329 157.602C117.99 158.375 116.277 157.916 115.503 156.576L114.103 154.151L107.801 143.236C107.028 141.896 107.487 140.183 108.826 139.41L120.954 132.408C122.294 131.634 124.007 132.093 124.78 133.433L131.082 144.348L132.482 146.774Z" fill="#3E3E49"/>
<path d="M114.103 154.151L115.503 156.576C116.277 157.916 117.99 158.375 119.329 157.602L131.457 150.6C132.797 149.826 133.256 148.113 132.482 146.774L131.082 144.348M114.103 154.151L107.801 143.236C107.028 141.896 107.487 140.183 108.826 139.41L120.954 132.408C122.294 131.634 124.007 132.093 124.78 133.433L131.082 144.348M114.103 154.151L131.082 144.348" stroke="#797986" stroke-width="2"/>
<path d="M19.9899 319.725C21.4841 319.325 23.0199 320.211 23.4202 321.705L27.0447 335.232C27.4451 336.726 26.5584 338.262 25.0643 338.663L22.3589 339.387L10.1847 342.65C8.69054 343.05 7.15475 342.163 6.7544 340.669L3.12988 327.142C2.72953 325.648 3.61621 324.112 5.11035 323.712L17.2846 320.45L19.9899 319.725Z" fill="#3E3E49"/>
<path d="M22.3589 339.387L25.0643 338.663C26.5584 338.262 27.4451 336.726 27.0447 335.232L23.4202 321.705C23.0199 320.211 21.4841 319.325 19.9899 319.725L17.2846 320.45M22.3589 339.387L10.1847 342.65C8.69054 343.05 7.15475 342.163 6.7544 340.669L3.12988 327.142C2.72953 325.648 3.61622 324.112 5.11035 323.712L17.2846 320.45M22.3589 339.387L17.2846 320.45" stroke="#797986" stroke-width="2"/>
<path d="M137.99 103.725C139.484 103.325 141.02 104.211 141.42 105.705L145.045 119.232C145.445 120.726 144.558 122.262 143.064 122.663L140.359 123.387L128.185 126.65C126.691 127.05 125.155 126.163 124.754 124.669L121.13 111.142C120.73 109.648 121.616 108.112 123.11 107.712L135.285 104.45L137.99 103.725Z" fill="#3E3E49"/>
<path d="M140.359 123.387L143.064 122.663C144.558 122.262 145.445 120.726 145.045 119.232L141.42 105.705C141.02 104.211 139.484 103.325 137.99 103.725L135.285 104.45M140.359 123.387L128.185 126.65C126.691 127.05 125.155 126.163 124.754 124.669L121.13 111.142C120.73 109.648 121.616 108.112 123.11 107.712L135.285 104.45M140.359 123.387L135.285 104.45" stroke="#797986" stroke-width="2"/>
<path d="M123.594 310.98C124.688 309.887 126.461 309.887 127.555 310.98L137.457 320.883C138.551 321.977 138.551 323.75 137.457 324.844L135.477 326.824L126.564 335.736C125.471 336.83 123.697 336.83 122.604 335.736L112.701 325.834C111.607 324.74 111.607 322.967 112.701 321.873L121.613 312.961L123.594 310.98Z" fill="#3E3E49"/>
<path d="M135.477 326.824L137.457 324.844C138.551 323.75 138.551 321.977 137.457 320.883L127.555 310.98C126.461 309.887 124.688 309.887 123.594 310.98L121.613 312.961M135.477 326.824L126.564 335.736C125.471 336.83 123.697 336.83 122.604 335.736L112.701 325.834C111.607 324.74 111.607 322.967 112.701 321.873L121.613 312.961M135.477 326.824L121.613 312.961" stroke="#797986" stroke-width="2"/>
<path d="M123.594 388.453C124.688 389.547 126.461 389.547 127.555 388.453L137.457 378.551C138.551 377.457 138.551 375.684 137.457 374.59L135.477 372.609L126.564 363.697C125.471 362.603 123.697 362.603 122.604 363.697L112.701 373.6C111.607 374.693 111.607 376.467 112.701 377.561L121.613 386.473L123.594 388.453Z" fill="#3E3E49"/>
<path d="M135.477 372.609L137.457 374.59C138.551 375.684 138.551 377.457 137.457 378.551L127.555 388.453C126.461 389.547 124.688 389.547 123.594 388.453L121.613 386.473M135.477 372.609L126.564 363.697C125.471 362.603 123.697 362.603 122.604 363.697L112.701 373.6C111.607 374.693 111.607 376.467 112.701 377.561L121.613 386.473M135.477 372.609L121.613 386.473" stroke="#797986" stroke-width="2"/>
<path d="M73.8438 310.98C72.75 309.887 70.9766 309.887 69.8828 310.98L59.9804 320.883C58.8866 321.977 58.8867 323.75 59.9804 324.844L61.9609 326.824L70.873 335.736C71.9668 336.83 73.7402 336.83 74.834 335.736L84.7364 325.834C85.8301 324.74 85.8301 322.967 84.7364 321.873L75.8242 312.961L73.8438 310.98Z" fill="#3E3E49"/>
<path d="M61.9609 326.824L59.9804 324.844C58.8867 323.75 58.8866 321.977 59.9804 320.883L69.8828 310.98C70.9766 309.887 72.75 309.887 73.8438 310.98L75.8242 312.961M61.9609 326.824L70.873 335.736C71.9668 336.83 73.7402 336.83 74.834 335.736L84.7364 325.834C85.8302 324.74 85.8301 322.967 84.7364 321.873L75.8242 312.961M61.9609 326.824L75.8242 312.961" stroke="#797986" stroke-width="2"/>
<path d="M73.8438 388.453C72.75 389.547 70.9766 389.547 69.8828 388.453L59.9804 378.551C58.8866 377.457 58.8867 375.684 59.9804 374.59L61.9609 372.609L70.873 363.697C71.9668 362.603 73.7402 362.603 74.834 363.697L84.7364 373.6C85.8301 374.693 85.8301 376.467 84.7364 377.561L75.8242 386.473L73.8438 388.453Z" fill="#3E3E49"/>
<path d="M61.9609 372.609L59.9804 374.59C58.8867 375.684 58.8866 377.457 59.9804 378.551L69.8828 388.453C70.9766 389.547 72.75 389.547 73.8438 388.453L75.8242 386.473M61.9609 372.609L70.873 363.697C71.9668 362.603 73.7402 362.603 74.834 363.697L84.7364 373.6C85.8302 374.693 85.8301 376.467 84.7364 377.561L75.8242 386.473M61.9609 372.609L75.8242 386.473" stroke="#797986" stroke-width="2"/>
<rect x="98" y="108.602" width="15.4045" height="16" rx="7.70224" fill="#3E3E49" stroke="#797986" stroke-width="2"/>
<path d="M13.9324 29L-114.717 29C-116.058 29 -117.145 30.0868 -117.145 31.4274V54.4872C-117.145 55.8278 -116.058 56.9145 -114.717 56.9145L13.9324 56.9145C15.273 56.9145 16.3597 55.8278 16.3597 54.4872V31.4274C16.3597 30.0868 15.273 29 13.9324 29Z" fill="#3E3E49" stroke="#797986" stroke-width="2" stroke-miterlimit="10"/>
<path d="M50.3418 116.385L-83.1625 116.385C-84.5031 116.385 -85.5898 117.472 -85.5898 118.812L-85.5898 162.504C-85.5898 163.845 -84.5031 164.932 -83.1625 164.932L50.3418 164.932C51.6824 164.932 52.7691 163.845 52.7691 162.504V118.812C52.7691 117.472 51.6824 116.385 50.3418 116.385Z" fill="#3E3E49" stroke="#797986" stroke-width="2" stroke-miterlimit="10"/>
<path d="M147.573 29L54.4274 29C53.0868 29 52 30.0868 52 31.4274L52 54.5726C52 55.9132 53.0868 57 54.4274 57L147.573 57C148.913 57 150 55.9132 150 54.5726V31.4274C150 30.0868 148.913 29 147.573 29Z" fill="#3E3E49" stroke="#797986" stroke-width="2" stroke-miterlimit="10"/>
<path d="M50.3423 29L18.7867 29C17.4461 29 16.3594 30.0868 16.3594 31.4274L16.3594 54.4872C16.3594 55.8278 17.4461 56.9145 18.7867 56.9145L50.3423 56.9145C51.6829 56.9145 52.7696 55.8278 52.7696 54.4872L52.7696 31.4274C52.7696 30.0868 51.6829 29 50.3423 29Z" fill="#3E3E49" stroke="#797986" stroke-width="2" stroke-miterlimit="10"/>
<path d="M50.3422 56.9146H30.9234C29.5829 56.9146 28.4961 58.0013 28.4961 59.3419L28.4961 103.034C28.4961 104.375 29.5829 105.462 30.9234 105.462H50.3422C51.6828 105.462 52.7696 104.375 52.7696 103.034L52.7696 59.3419C52.7696 58.0013 51.6828 56.9146 50.3422 56.9146Z" fill="#3E3E49" stroke="#797986" stroke-width="2" stroke-miterlimit="10"/>
<path d="M4.66016 130.731C4.66016 129.39 5.74692 128.303 7.08751 128.303H14.3696C15.7101 128.303 16.7969 129.39 16.7969 130.731L16.7969 146.508C16.7969 149.858 14.0783 152.577 10.7285 152.577C7.37879 152.577 4.66016 149.858 4.66016 146.508L4.66016 130.731Z" fill="#3E3E49" stroke="#797986" stroke-width="2" stroke-miterlimit="10"/>
<path d="M308.552 303.24V304.356H304.1V306.984H307.928V308.088H304.1V310.98H308.552V312.096H302.828V303.24H308.552ZM310.057 306.948H315.289V308.22H310.057V306.948ZM319.938 310.992C321.138 310.992 321.942 309.648 321.942 307.668C321.942 305.676 321.138 304.332 319.938 304.332C318.738 304.332 317.922 305.676 317.922 307.668C317.922 309.648 318.738 310.992 319.938 310.992ZM316.65 307.668C316.65 305.052 318.006 303.216 319.938 303.216C321.858 303.216 323.214 305.052 323.214 307.668C323.214 310.272 321.858 312.12 319.938 312.12C318.006 312.12 316.65 310.272 316.65 307.668ZM327.637 303.312V312.036L326.365 312.024V304.668L324.829 305.52L324.301 304.452L326.377 303.312H327.637Z" fill="white"/>
<path d="M327.704 595.24V604.096H326.42V600.1H322.244V604.096H320.972V595.24H322.244V598.996H326.42V595.24H327.704ZM329.452 598.948H334.684V600.22H329.452V598.948ZM339.333 602.992C340.533 602.992 341.337 601.648 341.337 599.668C341.337 597.676 340.533 596.332 339.333 596.332C338.133 596.332 337.317 597.676 337.317 599.668C337.317 601.648 338.133 602.992 339.333 602.992ZM336.045 599.668C336.045 597.052 337.401 595.216 339.333 595.216C341.253 595.216 342.609 597.052 342.609 599.668C342.609 602.272 341.253 604.12 339.333 604.12C337.401 604.12 336.045 602.272 336.045 599.668ZM347.031 595.312V604.036L345.759 604.024V596.668L344.223 597.52L343.695 596.452L345.771 595.312H347.031Z" fill="#797986"/>
<path d="M998.552 157.24V158.356H994.22V161.104H997.892V162.208H994.22V166.096H992.948V157.24H998.552ZM999.811 160.948H1005.04V162.22H999.811V160.948ZM1009.69 164.992C1010.89 164.992 1011.7 163.648 1011.7 161.668C1011.7 159.676 1010.89 158.332 1009.69 158.332C1008.49 158.332 1007.68 159.676 1007.68 161.668C1007.68 163.648 1008.49 164.992 1009.69 164.992ZM1006.4 161.668C1006.4 159.052 1007.76 157.216 1009.69 157.216C1011.61 157.216 1012.97 159.052 1012.97 161.668C1012.97 164.272 1011.61 166.12 1009.69 166.12C1007.76 166.12 1006.4 164.272 1006.4 161.668ZM1017.39 157.312V166.036L1016.12 166.024V158.668L1014.58 159.52L1014.05 158.452L1016.13 157.312H1017.39Z" fill="#797986"/>
<path d="M996.552 341.24V342.356H992.22V345.104H995.892V346.208H992.22V350.096H990.948V341.24H996.552ZM997.811 344.948H1003.04V346.22H997.811V344.948ZM1007.69 348.992C1008.89 348.992 1009.7 347.648 1009.7 345.668C1009.7 343.676 1008.89 342.332 1007.69 342.332C1006.49 342.332 1005.68 343.676 1005.68 345.668C1005.68 347.648 1006.49 348.992 1007.69 348.992ZM1004.4 345.668C1004.4 343.052 1005.76 341.216 1007.69 341.216C1009.61 341.216 1010.97 343.052 1010.97 345.668C1010.97 348.272 1009.61 350.12 1007.69 350.12C1005.76 350.12 1004.4 348.272 1004.4 345.668ZM1012.32 348.92C1014.07 347.24 1016.46 345.536 1016.46 344.06C1016.46 343.076 1015.83 342.38 1014.95 342.38C1014.26 342.38 1013.58 342.872 1013.27 343.58L1012.15 343.088C1012.63 341.984 1013.79 341.216 1014.95 341.216C1016.59 341.216 1017.73 342.392 1017.73 344.06C1017.73 345.896 1015.74 347.528 1014.12 348.92H1017.87V350.036H1012.44L1012.32 348.92Z" fill="#797986"/>
<path d="M440.552 303.24V304.356H436.1V306.984H439.928V308.088H436.1V310.98H440.552V312.096H434.828V303.24H440.552ZM442.057 306.948H447.289V308.22H442.057V306.948ZM451.938 310.992C453.138 310.992 453.942 309.648 453.942 307.668C453.942 305.676 453.138 304.332 451.938 304.332C450.738 304.332 449.922 305.676 449.922 307.668C449.922 309.648 450.738 310.992 451.938 310.992ZM448.65 307.668C448.65 305.052 450.006 303.216 451.938 303.216C453.858 303.216 455.214 305.052 455.214 307.668C455.214 310.272 453.858 312.12 451.938 312.12C450.006 312.12 448.65 310.272 448.65 307.668ZM456.565 310.92C458.317 309.24 460.705 307.536 460.705 306.06C460.705 305.076 460.081 304.38 459.193 304.38C458.509 304.38 457.825 304.872 457.513 305.58L456.397 305.088C456.877 303.984 458.041 303.216 459.193 303.216C460.837 303.216 461.977 304.392 461.977 306.06C461.977 307.896 459.985 309.528 458.365 310.92H462.121V312.036H456.685L456.565 310.92Z" fill="white"/>
<path d="M574.552 303.24V304.356H570.1V306.984H573.928V308.088H570.1V310.98H574.552V312.096H568.828V303.24H574.552ZM576.057 306.948H581.289V308.22H576.057V306.948ZM585.938 310.992C587.138 310.992 587.942 309.648 587.942 307.668C587.942 305.676 587.138 304.332 585.938 304.332C584.738 304.332 583.922 305.676 583.922 307.668C583.922 309.648 584.738 310.992 585.938 310.992ZM582.65 307.668C582.65 305.052 584.006 303.216 585.938 303.216C587.858 303.216 589.214 305.052 589.214 307.668C589.214 310.272 587.858 312.12 585.938 312.12C584.006 312.12 582.65 310.272 582.65 307.668ZM595.029 307.524C595.809 307.98 596.301 308.832 596.301 309.564C596.301 311.052 595.077 312.108 593.337 312.108C591.609 312.108 590.385 311.028 590.385 309.492H591.657C591.657 310.368 592.353 310.98 593.337 310.98C594.345 310.98 595.065 310.368 595.065 309.492C595.065 308.652 594.357 308.052 593.361 308.052H592.737V306.984H593.373C594.285 306.984 594.933 306.444 594.933 305.676C594.933 304.896 594.309 304.356 593.421 304.356C592.533 304.356 591.921 304.908 591.921 305.688H590.649C590.649 304.236 591.789 303.228 593.421 303.228C595.029 303.228 596.169 304.212 596.169 305.604C596.169 306.276 595.737 307.068 595.029 307.524Z" fill="white"/>
<path d="M708.552 303.24V304.356H704.1V306.984H707.928V308.088H704.1V310.98H708.552V312.096H702.828V303.24H708.552ZM710.057 306.948H715.289V308.22H710.057V306.948ZM719.938 310.992C721.138 310.992 721.942 309.648 721.942 307.668C721.942 305.676 721.138 304.332 719.938 304.332C718.738 304.332 717.922 305.676 717.922 307.668C717.922 309.648 718.738 310.992 719.938 310.992ZM716.65 307.668C716.65 305.052 718.006 303.216 719.938 303.216C721.858 303.216 723.214 305.052 723.214 307.668C723.214 310.272 721.858 312.12 719.938 312.12C718.006 312.12 716.65 310.272 716.65 307.668ZM729.533 303.3V308.676H730.637V309.78H729.533V312.036H728.261V309.78H724.505L724.385 308.676L728.321 303.3H729.533ZM725.897 308.676H728.261V305.424L725.897 308.676Z" fill="white"/>
</g>
<defs>
<clipPath id="clip0_3397_245116">
<rect width="1005" height="820" fill="white"/>
</clipPath>
</defs>
</svg>
