<svg width="360" height="293" viewBox="0 0 360 293" fill="none" xmlns="http://www.w3.org/2000/svg">
<g clip-path="url(#clip0_3397_243954)">
<rect width="360" height="293" fill="#3E3E49"/>
<rect x="58.0312" y="12.8662" width="17.193" height="8.5965" rx="1.43275" fill="#797986"/>
<rect x="75.9414" y="12.8662" width="17.193" height="8.5965" rx="1.43275" fill="#797986"/>
<rect x="93.8516" y="12.8662" width="17.193" height="8.5965" rx="1.43275" fill="#797986"/>
<rect x="111.762" y="12.8662" width="17.193" height="8.5965" rx="1.43275" fill="#797986"/>
<rect x="58.0312" y="3.55469" width="17.193" height="8.5965" rx="1.43275" fill="#797986"/>
<rect x="75.9414" y="3.55469" width="17.193" height="8.5965" rx="1.43275" fill="#797986"/>
<rect x="93.8516" y="3.55469" width="17.193" height="8.5965" rx="1.43275" fill="#797986"/>
<rect x="111.762" y="3.55469" width="17.193" height="8.5965" rx="1.43275" fill="#797986"/>
<rect x="60.1797" y="-6.47461" width="12.8948" height="12.8948" rx="6.44738" fill="#3E3E49"/>
<rect x="60.1797" y="-6.47461" width="12.8948" height="12.8948" rx="6.44738" stroke="#797986" stroke-width="0.716375"/>
<path d="M61.9728 1.50704V-1.66507H63.0301C63.5373 -1.66507 63.8984 -1.30831 63.8984 -0.801119C63.8984 -0.603399 63.7952 -0.375592 63.6405 -0.216556C63.6792 -0.195065 63.7179 -0.169276 63.7522 -0.147784C63.9886 0.00695252 64.1606 0.316427 64.1606 0.604409C64.1606 1.13309 63.7995 1.50704 63.288 1.50704H61.9728ZM62.4284 1.1073H63.2408C63.5201 1.1073 63.7093 0.905287 63.7093 0.608708C63.7093 0.286339 63.5201 0.0714264 63.2408 0.0714264H62.4284V1.1073ZM62.4284 -0.324013H63.0387C63.2837 -0.336908 63.4514 -0.517434 63.4514 -0.779628C63.4514 -1.07191 63.2665 -1.26533 62.9915 -1.26533H62.4284V-0.324013ZM64.6409 -0.336908H66.5149V0.118707H64.6409V-0.336908ZM68.1715 -1.63928V1.48555L67.7159 1.48125V-1.15358L67.1657 -0.848399L66.9766 -1.23094L67.7202 -1.63928H68.1715ZM69.5812 1.49415H69.0826L70.3076 -1.25673L68.872 -1.25243V-1.65647H70.7632L70.8062 -1.25673L69.5812 1.49415Z" fill="#797986"/>
<rect x="78.0898" y="-6.47461" width="12.8948" height="12.8948" rx="6.44738" fill="#3E3E49"/>
<rect x="78.0898" y="-6.47461" width="12.8948" height="12.8948" rx="6.44738" stroke="#797986" stroke-width="0.716375"/>
<path d="M79.8829 1.50704V-1.66507H80.9403C81.4475 -1.66507 81.8085 -1.30831 81.8085 -0.801119C81.8085 -0.603399 81.7054 -0.375592 81.5506 -0.216556C81.5893 -0.195065 81.628 -0.169276 81.6624 -0.147784C81.8988 0.00695252 82.0707 0.316427 82.0707 0.604409C82.0707 1.13309 81.7097 1.50704 81.1982 1.50704H79.8829ZM80.3385 1.1073H81.1509C81.4303 1.1073 81.6194 0.905287 81.6194 0.608708C81.6194 0.286339 81.4303 0.0714264 81.1509 0.0714264H80.3385V1.1073ZM80.3385 -0.324013H80.9489C81.1939 -0.336908 81.3615 -0.517434 81.3615 -0.779628C81.3615 -1.07191 81.1767 -1.26533 80.9016 -1.26533H80.3385V-0.324013ZM82.551 -0.336908H84.4251V0.118707H82.551V-0.336908ZM86.0816 -1.63928V1.48555L85.626 1.48125V-1.15358L85.0758 -0.848399L84.8867 -1.23094L85.6303 -1.63928H86.0816ZM87.7793 1.14599C88.1361 1.14599 88.3854 0.918182 88.3854 0.591515C88.3854 0.264848 88.1361 0.0327421 87.7793 0.0327421C87.4226 0.0327421 87.169 0.264848 87.169 0.591515C87.169 0.918182 87.4226 1.14599 87.7793 1.14599ZM86.7133 0.600111C86.7133 0.325023 86.9283 0.00695252 87.2291 -0.160679C86.9798 -0.332609 86.7993 -0.611996 86.7993 -0.835505C86.7993 -1.3427 87.2033 -1.69516 87.7793 -1.69516C88.3553 -1.69516 88.7593 -1.3427 88.7593 -0.835505C88.7593 -0.607697 88.5831 -0.328311 88.3295 -0.160679C88.6304 0.0112508 88.8453 0.325023 88.8453 0.600111C88.8453 1.15029 88.4069 1.53713 87.7793 1.53713C87.1561 1.53713 86.7133 1.15029 86.7133 0.600111ZM87.2592 -0.835505C87.2592 -0.556118 87.4741 -0.358399 87.7793 -0.358399C88.0888 -0.358399 88.3037 -0.556118 88.3037 -0.835505C88.3037 -1.11489 88.0888 -1.30831 87.7793 -1.30831C87.4741 -1.30831 87.2592 -1.11489 87.2592 -0.835505Z" fill="#797986"/>
<rect x="96" y="-6.47461" width="12.8948" height="12.8948" rx="6.44738" fill="#3E3E49"/>
<rect x="96" y="-6.47461" width="12.8948" height="12.8948" rx="6.44738" stroke="#797986" stroke-width="0.716375"/>
<path d="M97.7931 1.50704V-1.66507H98.8504C99.3576 -1.66507 99.7187 -1.30831 99.7187 -0.801119C99.7187 -0.603399 99.6155 -0.375592 99.4608 -0.216556C99.4995 -0.195065 99.5382 -0.169276 99.5726 -0.147784C99.809 0.00695252 99.9809 0.316427 99.9809 0.604409C99.9809 1.13309 99.6198 1.50704 99.1083 1.50704H97.7931ZM98.2487 1.1073H99.0611C99.3404 1.1073 99.5296 0.905287 99.5296 0.608708C99.5296 0.286339 99.3404 0.0714264 99.0611 0.0714264H98.2487V1.1073ZM98.2487 -0.324013H98.859C99.104 -0.336908 99.2717 -0.517434 99.2717 -0.779628C99.2717 -1.07191 99.0869 -1.26533 98.8118 -1.26533H98.2487V-0.324013ZM100.461 -0.336908H102.335V0.118707H100.461V-0.336908ZM103.992 -1.63928V1.48555L103.536 1.48125V-1.15358L102.986 -0.848399L102.797 -1.23094L103.54 -1.63928H103.992ZM105.711 -1.27822C105.341 -1.27822 105.079 -1.01173 105.079 -0.633487C105.079 -0.255241 105.341 0.0112508 105.711 0.0112508C106.076 0.0112508 106.334 -0.255241 106.334 -0.633487C106.334 -1.01173 106.076 -1.27822 105.711 -1.27822ZM104.624 -0.633487C104.624 -1.24814 105.071 -1.67796 105.707 -1.67796C106.343 -1.67796 106.79 -1.24814 106.79 -0.633487C106.79 -0.409978 106.708 -0.203662 106.618 -0.0403283L105.758 1.48985H105.234L105.857 0.393795C105.806 0.402392 105.754 0.410988 105.698 0.410988C105.066 0.40669 104.624 -0.0231352 104.624 -0.633487Z" fill="#797986"/>
<rect x="113.91" y="-6.47461" width="12.8948" height="12.8948" rx="6.44738" fill="#3E3E49"/>
<rect x="113.91" y="-6.47461" width="12.8948" height="12.8948" rx="6.44738" stroke="#797986" stroke-width="0.716375"/>
<path d="M115.203 1.50704V-1.66507H116.261C116.768 -1.66507 117.129 -1.30831 117.129 -0.801119C117.129 -0.603399 117.026 -0.375592 116.871 -0.216556C116.91 -0.195065 116.948 -0.169276 116.983 -0.147784C117.219 0.00695252 117.391 0.316427 117.391 0.604409C117.391 1.13309 117.03 1.50704 116.518 1.50704H115.203ZM115.659 1.1073H116.471C116.751 1.1073 116.94 0.905287 116.94 0.608708C116.94 0.286339 116.751 0.0714264 116.471 0.0714264H115.659V1.1073ZM115.659 -0.324013H116.269C116.514 -0.336908 116.682 -0.517434 116.682 -0.779628C116.682 -1.07191 116.497 -1.26533 116.222 -1.26533H115.659V-0.324013ZM117.871 -0.336908H119.745V0.118707H117.871V-0.336908ZM120.302 1.08581C120.929 0.484058 121.784 -0.126293 121.784 -0.654978C121.784 -1.00743 121.561 -1.25673 121.243 -1.25673C120.998 -1.25673 120.753 -1.08051 120.641 -0.826908L120.241 -1.00314C120.413 -1.39858 120.83 -1.67366 121.243 -1.67366C121.832 -1.67366 122.24 -1.25243 122.24 -0.654978C122.24 0.00265432 121.527 0.587216 120.946 1.08581H122.292V1.48555H120.345L120.302 1.08581ZM123.887 1.1116C124.317 1.1116 124.605 0.630199 124.605 -0.0790126C124.605 -0.792522 124.317 -1.27393 123.887 -1.27393C123.457 -1.27393 123.165 -0.792522 123.165 -0.0790126C123.165 0.630199 123.457 1.1116 123.887 1.1116ZM122.709 -0.0790126C122.709 -1.01603 123.195 -1.67366 123.887 -1.67366C124.575 -1.67366 125.061 -1.01603 125.061 -0.0790126C125.061 0.853708 124.575 1.51564 123.887 1.51564C123.195 1.51564 122.709 0.853708 122.709 -0.0790126Z" fill="#797986"/>
<rect x="60.1797" y="18.5972" width="12.8948" height="12.8948" rx="6.44738" fill="#3E3E49"/>
<rect x="60.1797" y="18.5972" width="12.8948" height="12.8948" rx="6.44738" stroke="#797986" stroke-width="0.716375"/>
<path d="M61.9728 26.5788V23.4067H63.0301C63.5373 23.4067 63.8984 23.7635 63.8984 24.2707C63.8984 24.4684 63.7952 24.6962 63.6405 24.8552C63.6792 24.8767 63.7179 24.9025 63.7522 24.924C63.9886 25.0787 64.1606 25.3882 64.1606 25.6762C64.1606 26.2049 63.7995 26.5788 63.288 26.5788H61.9728ZM62.4284 26.1791H63.2408C63.5201 26.1791 63.7093 25.9771 63.7093 25.6805C63.7093 25.3581 63.5201 25.1432 63.2408 25.1432H62.4284V26.1791ZM62.4284 24.7478H63.0387C63.2837 24.7349 63.4514 24.5543 63.4514 24.2921C63.4514 23.9999 63.2665 23.8064 62.9915 23.8064H62.4284V24.7478ZM64.6409 24.7349H66.5149V25.1905H64.6409V24.7349ZM67.0711 26.1576C67.6987 25.5558 68.554 24.9455 68.554 24.4168C68.554 24.0643 68.3305 23.815 68.0124 23.815C67.7674 23.815 67.5224 23.9913 67.4107 24.2449L67.011 24.0686C67.1829 23.6732 67.5998 23.3981 68.0124 23.3981C68.6013 23.3981 69.0096 23.8193 69.0096 24.4168C69.0096 25.0744 68.2961 25.659 67.7159 26.1576H69.0612V26.5573H67.1141L67.0711 26.1576ZM70.648 23.4325V26.5573L70.1924 26.553V23.9182L69.6422 24.2234L69.4531 23.8408L70.1967 23.4325H70.648Z" fill="#797986"/>
<rect x="78.0898" y="18.5972" width="12.8948" height="12.8948" rx="6.44738" fill="#3E3E49"/>
<rect x="78.0898" y="18.5972" width="12.8948" height="12.8948" rx="6.44738" stroke="#797986" stroke-width="0.716375"/>
<path d="M79.3829 26.5788V23.4067H80.4403C80.9475 23.4067 81.3085 23.7635 81.3085 24.2707C81.3085 24.4684 81.2054 24.6962 81.0506 24.8552C81.0893 24.8767 81.128 24.9025 81.1624 24.924C81.3988 25.0787 81.5707 25.3882 81.5707 25.6762C81.5707 26.2049 81.2097 26.5788 80.6982 26.5788H79.3829ZM79.8385 26.1791H80.6509C80.9303 26.1791 81.1194 25.9771 81.1194 25.6805C81.1194 25.3581 80.9303 25.1432 80.6509 25.1432H79.8385V26.1791ZM79.8385 24.7478H80.4489C80.6939 24.7349 80.8615 24.5543 80.8615 24.2921C80.8615 23.9999 80.6767 23.8064 80.4016 23.8064H79.8385V24.7478ZM82.051 24.7349H83.9251V25.1905H82.051V24.7349ZM84.4813 26.1576C85.1088 25.5558 85.9642 24.9455 85.9642 24.4168C85.9642 24.0643 85.7407 23.815 85.4226 23.815C85.1776 23.815 84.9326 23.9913 84.8208 24.2449L84.4211 24.0686C84.593 23.6732 85.01 23.3981 85.4226 23.3981C86.0115 23.3981 86.4198 23.8193 86.4198 24.4168C86.4198 25.0744 85.7063 25.659 85.126 26.1576H86.4714V26.5573H84.5243L84.4813 26.1576ZM86.9578 26.1576C87.5854 25.5558 88.4407 24.9455 88.4407 24.4168C88.4407 24.0643 88.2172 23.815 87.8991 23.815C87.6541 23.815 87.4091 23.9913 87.2974 24.2449L86.8976 24.0686C87.0696 23.6732 87.4865 23.3981 87.8991 23.3981C88.488 23.3981 88.8963 23.8193 88.8963 24.4168C88.8963 25.0744 88.1828 25.659 87.6026 26.1576H88.9479V26.5573H87.0008L86.9578 26.1576Z" fill="#797986"/>
<rect x="96" y="18.5972" width="12.8948" height="12.8948" rx="6.44738" fill="#3E3E49"/>
<rect x="96" y="18.5972" width="12.8948" height="12.8948" rx="6.44738" stroke="#797986" stroke-width="0.716375"/>
<path d="M97.2931 26.5788V23.4067H98.3504C98.8576 23.4067 99.2187 23.7635 99.2187 24.2707C99.2187 24.4684 99.1155 24.6962 98.9608 24.8552C98.9995 24.8767 99.0382 24.9025 99.0726 24.924C99.309 25.0787 99.4809 25.3882 99.4809 25.6762C99.4809 26.2049 99.1198 26.5788 98.6083 26.5788H97.2931ZM97.7487 26.1791H98.5611C98.8404 26.1791 99.0296 25.9771 99.0296 25.6805C99.0296 25.3581 98.8404 25.1432 98.5611 25.1432H97.7487V26.1791ZM97.7487 24.7478H98.359C98.604 24.7349 98.7717 24.5543 98.7717 24.2921C98.7717 23.9999 98.5869 23.8064 98.3118 23.8064H97.7487V24.7478ZM99.9612 24.7349H101.835V25.1905H99.9612V24.7349ZM102.391 26.1576C103.019 25.5558 103.874 24.9455 103.874 24.4168C103.874 24.0643 103.651 23.815 103.333 23.815C103.088 23.815 102.843 23.9913 102.731 24.2449L102.331 24.0686C102.503 23.6732 102.92 23.3981 103.333 23.3981C103.922 23.3981 104.33 23.8193 104.33 24.4168C104.33 25.0744 103.616 25.659 103.036 26.1576H104.382V26.5573H102.434L102.391 26.1576ZM106.467 24.9412C106.746 25.1045 106.923 25.4097 106.923 25.6719C106.923 26.2049 106.484 26.5831 105.861 26.5831C105.242 26.5831 104.804 26.1963 104.804 25.6461H105.259C105.259 25.9599 105.508 26.1791 105.861 26.1791C106.222 26.1791 106.48 25.9599 106.48 25.6461C106.48 25.3452 106.226 25.1303 105.869 25.1303H105.646V24.7478H105.874C106.2 24.7478 106.433 24.5543 106.433 24.2793C106.433 23.9999 106.209 23.8064 105.891 23.8064C105.573 23.8064 105.354 24.0042 105.354 24.2836H104.898C104.898 23.7635 105.306 23.4024 105.891 23.4024C106.467 23.4024 106.875 23.7549 106.875 24.2535C106.875 24.4942 106.721 24.7779 106.467 24.9412Z" fill="#797986"/>
<rect x="113.91" y="18.5972" width="12.8948" height="12.8948" rx="6.44738" fill="#3E3E49"/>
<rect x="113.91" y="18.5972" width="12.8948" height="12.8948" rx="6.44738" stroke="#797986" stroke-width="0.716375"/>
<path d="M115.203 26.5788V23.4067H116.261C116.768 23.4067 117.129 23.7635 117.129 24.2707C117.129 24.4684 117.026 24.6962 116.871 24.8552C116.91 24.8767 116.948 24.9025 116.983 24.924C117.219 25.0787 117.391 25.3882 117.391 25.6762C117.391 26.2049 117.03 26.5788 116.518 26.5788H115.203ZM115.659 26.1791H116.471C116.751 26.1791 116.94 25.9771 116.94 25.6805C116.94 25.3581 116.751 25.1432 116.471 25.1432H115.659V26.1791ZM115.659 24.7478H116.269C116.514 24.7349 116.682 24.5543 116.682 24.2921C116.682 23.9999 116.497 23.8064 116.222 23.8064H115.659V24.7478ZM117.871 24.7349H119.745V25.1905H117.871V24.7349ZM120.302 26.1576C120.929 25.5558 121.784 24.9455 121.784 24.4168C121.784 24.0643 121.561 23.815 121.243 23.815C120.998 23.815 120.753 23.9913 120.641 24.2449L120.241 24.0686C120.413 23.6732 120.83 23.3981 121.243 23.3981C121.832 23.3981 122.24 23.8193 122.24 24.4168C122.24 25.0744 121.527 25.659 120.946 26.1576H122.292V26.5573H120.345L120.302 26.1576ZM124.558 23.4282V25.3538H124.953V25.7493H124.558V26.5573H124.102V25.7493H122.757L122.714 25.3538L124.123 23.4282H124.558ZM123.255 25.3538H124.102V24.189L123.255 25.3538Z" fill="#797986"/>
<rect x="58.0312" y="68.0234" width="17.193" height="8.5965" rx="1.43275" fill="#797986"/>
<rect x="75.9414" y="68.0234" width="17.193" height="8.5965" rx="1.43275" fill="#797986"/>
<rect x="93.8516" y="68.0234" width="17.193" height="8.5965" rx="1.43275" fill="#797986"/>
<rect x="58.0312" y="58.7109" width="17.193" height="8.5965" rx="1.43275" fill="#797986"/>
<rect x="75.9414" y="58.7109" width="17.193" height="8.5965" rx="1.43275" fill="#797986"/>
<rect x="93.8516" y="58.7109" width="17.193" height="8.5965" rx="1.43275" fill="#797986"/>
<rect x="60.1797" y="48.6826" width="12.8948" height="12.8948" rx="6.44738" fill="#3E3E49"/>
<rect x="60.1797" y="48.6826" width="12.8948" height="12.8948" rx="6.44738" stroke="#797986" stroke-width="0.716375"/>
<path d="M61.4728 56.6643V53.4922H62.5301C63.0373 53.4922 63.3984 53.8489 63.3984 54.3561C63.3984 54.5538 63.2952 54.7816 63.1405 54.9407C63.1792 54.9622 63.2179 54.988 63.2522 55.0094C63.4886 55.1642 63.6606 55.4737 63.6606 55.7616C63.6606 56.2903 63.2995 56.6643 62.788 56.6643H61.4728ZM61.9284 56.2645H62.7408C63.0201 56.2645 63.2093 56.0625 63.2093 55.7659C63.2093 55.4436 63.0201 55.2287 62.7408 55.2287H61.9284V56.2645ZM61.9284 54.8332H62.5387C62.7837 54.8203 62.9514 54.6398 62.9514 54.3776C62.9514 54.0853 62.7665 53.8919 62.4915 53.8919H61.9284V54.8332ZM64.1409 54.8203H66.0149V55.2759H64.1409V54.8203ZM66.5711 56.243C67.1987 55.6413 68.054 55.0309 68.054 54.5022C68.054 54.1498 67.8305 53.9005 67.5124 53.9005C67.2674 53.9005 67.0224 54.0767 66.9107 54.3303L66.511 54.1541C66.6829 53.7587 67.0998 53.4836 67.5124 53.4836C68.1013 53.4836 68.5096 53.9048 68.5096 54.5022C68.5096 55.1599 67.7961 55.7444 67.2159 56.243H68.5612V56.6428H66.6141L66.5711 56.243ZM69.5635 55.2415L69.1078 55.1857L69.2153 53.5137H70.8873V53.9134H69.6537L69.6021 54.6785C69.744 54.614 69.903 54.5753 70.0449 54.5753C70.6896 54.5753 71.1452 55.0094 71.1452 55.6241C71.1452 56.2473 70.6896 56.6858 70.0449 56.6858C69.5377 56.6858 69.0992 56.3462 68.9875 55.8648L69.4302 55.7616C69.4947 56.0496 69.7483 56.2559 70.0449 56.2559C70.4231 56.2559 70.6896 55.9937 70.6896 55.6241C70.6896 55.263 70.4231 55.0051 70.0449 55.0051C69.8858 55.0051 69.6881 55.104 69.5635 55.2415Z" fill="#797986"/>
<rect x="78.0898" y="48.6826" width="12.8948" height="12.8948" rx="6.44738" fill="#3E3E49"/>
<rect x="78.0898" y="48.6826" width="12.8948" height="12.8948" rx="6.44738" stroke="#797986" stroke-width="0.716375"/>
<path d="M79.3829 56.6643V53.4922H80.4403C80.9475 53.4922 81.3085 53.8489 81.3085 54.3561C81.3085 54.5538 81.2054 54.7816 81.0506 54.9407C81.0893 54.9622 81.128 54.988 81.1624 55.0094C81.3988 55.1642 81.5707 55.4737 81.5707 55.7616C81.5707 56.2903 81.2097 56.6643 80.6982 56.6643H79.3829ZM79.8385 56.2645H80.6509C80.9303 56.2645 81.1194 56.0625 81.1194 55.7659C81.1194 55.4436 80.9303 55.2287 80.6509 55.2287H79.8385V56.2645ZM79.8385 54.8332H80.4489C80.6939 54.8203 80.8615 54.6398 80.8615 54.3776C80.8615 54.0853 80.6767 53.8919 80.4016 53.8919H79.8385V54.8332ZM82.051 54.8203H83.9251V55.2759H82.051V54.8203ZM84.4813 56.243C85.1088 55.6413 85.9642 55.0309 85.9642 54.5022C85.9642 54.1498 85.7407 53.9005 85.4226 53.9005C85.1776 53.9005 84.9326 54.0767 84.8208 54.3303L84.4211 54.1541C84.593 53.7587 85.01 53.4836 85.4226 53.4836C86.0115 53.4836 86.4198 53.9048 86.4198 54.5022C86.4198 55.1599 85.7063 55.7444 85.126 56.243H86.4714V56.6428H84.5243L84.4813 56.243ZM87.9722 56.2731C88.3419 56.2731 88.604 56.0066 88.604 55.6327C88.604 55.2501 88.3419 54.9837 87.9722 54.9837C87.6069 54.9837 87.349 55.2501 87.349 55.6327C87.349 56.0066 87.6069 56.2731 87.9722 56.2731ZM86.8933 55.6327C86.8933 55.4049 86.975 55.2029 87.0653 55.0352L87.9249 53.5051H88.4493L87.8261 54.6011C87.8776 54.5925 87.9292 54.5839 87.9851 54.5839C88.6169 54.5882 89.0597 55.018 89.0597 55.6327C89.0597 56.243 88.6126 56.6729 87.9765 56.6729C87.3404 56.6729 86.8933 56.243 86.8933 55.6327Z" fill="#797986"/>
<rect x="96" y="48.6826" width="12.8948" height="12.8948" rx="6.44738" fill="#3E3E49"/>
<rect x="96" y="48.6826" width="12.8948" height="12.8948" rx="6.44738" stroke="#797986" stroke-width="0.716375"/>
<path d="M97.2931 56.6643V53.4922H98.3504C98.8576 53.4922 99.2187 53.8489 99.2187 54.3561C99.2187 54.5538 99.1155 54.7816 98.9608 54.9407C98.9995 54.9622 99.0382 54.988 99.0726 55.0094C99.309 55.1642 99.4809 55.4737 99.4809 55.7616C99.4809 56.2903 99.1198 56.6643 98.6083 56.6643H97.2931ZM97.7487 56.2645H98.5611C98.8404 56.2645 99.0296 56.0625 99.0296 55.7659C99.0296 55.4436 98.8404 55.2287 98.5611 55.2287H97.7487V56.2645ZM97.7487 54.8332H98.359C98.604 54.8203 98.7717 54.6398 98.7717 54.3776C98.7717 54.0853 98.5869 53.8919 98.3118 53.8919H97.7487V54.8332ZM99.9612 54.8203H101.835V55.2759H99.9612V54.8203ZM102.391 56.243C103.019 55.6413 103.874 55.0309 103.874 54.5022C103.874 54.1498 103.651 53.9005 103.333 53.9005C103.088 53.9005 102.843 54.0767 102.731 54.3303L102.331 54.1541C102.503 53.7587 102.92 53.4836 103.333 53.4836C103.922 53.4836 104.33 53.9048 104.33 54.5022C104.33 55.1599 103.616 55.7444 103.036 56.243H104.382V56.6428H102.434L102.391 56.243ZM105.581 56.6514H105.083L106.308 53.9005L104.872 53.9048V53.5008H106.764L106.806 53.9005L105.581 56.6514Z" fill="#797986"/>
<rect x="60.1797" y="73.7539" width="12.8948" height="12.8948" rx="6.44738" fill="#3E3E49"/>
<rect x="60.1797" y="73.7539" width="12.8948" height="12.8948" rx="6.44738" stroke="#797986" stroke-width="0.716375"/>
<path d="M61.4728 81.7356V78.5634H62.5301C63.0373 78.5634 63.3984 78.9202 63.3984 79.4274C63.3984 79.6251 63.2952 79.8529 63.1405 80.012C63.1792 80.0335 63.2179 80.0592 63.2522 80.0807C63.4886 80.2355 63.6606 80.5449 63.6606 80.8329C63.6606 81.3616 63.2995 81.7356 62.788 81.7356H61.4728ZM61.9284 81.3358H62.7408C63.0201 81.3358 63.2093 81.1338 63.2093 80.8372C63.2093 80.5149 63.0201 80.2999 62.7408 80.2999H61.9284V81.3358ZM61.9284 79.9045H62.5387C62.7837 79.8916 62.9514 79.7111 62.9514 79.4489C62.9514 79.1566 62.7665 78.9632 62.4915 78.9632H61.9284V79.9045ZM64.1409 79.8916H66.0149V80.3472H64.1409V79.8916ZM66.5711 81.3143C67.1987 80.7126 68.054 80.1022 68.054 79.5735C68.054 79.2211 67.8305 78.9718 67.5124 78.9718C67.2674 78.9718 67.0224 79.148 66.9107 79.4016L66.511 79.2254C66.6829 78.8299 67.0998 78.5549 67.5124 78.5549C68.1013 78.5549 68.5096 78.9761 68.5096 79.5735C68.5096 80.2312 67.7961 80.8157 67.2159 81.3143H68.5612V81.7141H66.6141L66.5711 81.3143ZM70.0492 81.3745C70.4059 81.3745 70.6552 81.1467 70.6552 80.82C70.6552 80.4934 70.4059 80.2613 70.0492 80.2613C69.6924 80.2613 69.4388 80.4934 69.4388 80.82C69.4388 81.1467 69.6924 81.3745 70.0492 81.3745ZM68.9832 80.8286C68.9832 80.5535 69.1981 80.2355 69.499 80.0678C69.2497 79.8959 69.0692 79.6165 69.0692 79.393C69.0692 78.8858 69.4732 78.5334 70.0492 78.5334C70.6251 78.5334 71.0292 78.8858 71.0292 79.393C71.0292 79.6208 70.8529 79.9002 70.5993 80.0678C70.9002 80.2398 71.1151 80.5535 71.1151 80.8286C71.1151 81.3788 70.6767 81.7656 70.0492 81.7656C69.4259 81.7656 68.9832 81.3788 68.9832 80.8286ZM69.5291 79.393C69.5291 79.6724 69.744 79.8701 70.0492 79.8701C70.3586 79.8701 70.5735 79.6724 70.5735 79.393C70.5735 79.1136 70.3586 78.9202 70.0492 78.9202C69.744 78.9202 69.5291 79.1136 69.5291 79.393Z" fill="#797986"/>
<rect x="78.0898" y="73.7539" width="12.8948" height="12.8948" rx="6.44738" fill="#3E3E49"/>
<rect x="78.0898" y="73.7539" width="12.8948" height="12.8948" rx="6.44738" stroke="#797986" stroke-width="0.716375"/>
<path d="M79.3829 81.7356V78.5634H80.4403C80.9475 78.5634 81.3085 78.9202 81.3085 79.4274C81.3085 79.6251 81.2054 79.8529 81.0506 80.012C81.0893 80.0335 81.128 80.0592 81.1624 80.0807C81.3988 80.2355 81.5707 80.5449 81.5707 80.8329C81.5707 81.3616 81.2097 81.7356 80.6982 81.7356H79.3829ZM79.8385 81.3358H80.6509C80.9303 81.3358 81.1194 81.1338 81.1194 80.8372C81.1194 80.5149 80.9303 80.2999 80.6509 80.2999H79.8385V81.3358ZM79.8385 79.9045H80.4489C80.6939 79.8916 80.8615 79.7111 80.8615 79.4489C80.8615 79.1566 80.6767 78.9632 80.4016 78.9632H79.8385V79.9045ZM82.051 79.8916H83.9251V80.3472H82.051V79.8916ZM84.4813 81.3143C85.1088 80.7126 85.9642 80.1022 85.9642 79.5735C85.9642 79.2211 85.7407 78.9718 85.4226 78.9718C85.1776 78.9718 84.9326 79.148 84.8208 79.4016L84.4211 79.2254C84.593 78.8299 85.01 78.5549 85.4226 78.5549C86.0115 78.5549 86.4198 78.9761 86.4198 79.5735C86.4198 80.2312 85.7063 80.8157 85.126 81.3143H86.4714V81.7141H84.5243L84.4813 81.3143ZM87.9808 78.9503C87.6112 78.9503 87.349 79.2168 87.349 79.595C87.349 79.9733 87.6112 80.2398 87.9808 80.2398C88.3462 80.2398 88.604 79.9733 88.604 79.595C88.604 79.2168 88.3462 78.9503 87.9808 78.9503ZM86.8933 79.595C86.8933 78.9804 87.3404 78.5506 87.9765 78.5506C88.6126 78.5506 89.0597 78.9804 89.0597 79.595C89.0597 79.8185 88.978 80.0249 88.8877 80.1882L88.0281 81.7184H87.5037L88.1269 80.6223C88.0754 80.6309 88.0238 80.6395 87.9679 80.6395C87.3361 80.6352 86.8933 80.2054 86.8933 79.595Z" fill="#797986"/>
<rect x="96" y="73.7539" width="12.8948" height="12.8948" rx="6.44738" fill="#3E3E49"/>
<rect x="96" y="73.7539" width="12.8948" height="12.8948" rx="6.44738" stroke="#797986" stroke-width="0.716375"/>
<path d="M97.2931 81.7356V78.5634H98.3504C98.8576 78.5634 99.2187 78.9202 99.2187 79.4274C99.2187 79.6251 99.1155 79.8529 98.9608 80.012C98.9995 80.0335 99.0382 80.0592 99.0726 80.0807C99.309 80.2355 99.4809 80.5449 99.4809 80.8329C99.4809 81.3616 99.1198 81.7356 98.6083 81.7356H97.2931ZM97.7487 81.3358H98.5611C98.8404 81.3358 99.0296 81.1338 99.0296 80.8372C99.0296 80.5149 98.8404 80.2999 98.5611 80.2999H97.7487V81.3358ZM97.7487 79.9045H98.359C98.604 79.8916 98.7717 79.7111 98.7717 79.4489C98.7717 79.1566 98.5869 78.9632 98.3118 78.9632H97.7487V79.9045ZM99.9612 79.8916H101.835V80.3472H99.9612V79.8916ZM103.99 80.0979C104.27 80.2613 104.446 80.5664 104.446 80.8286C104.446 81.3616 104.008 81.7399 103.384 81.7399C102.765 81.7399 102.327 81.353 102.327 80.8028H102.783C102.783 81.1166 103.032 81.3358 103.384 81.3358C103.745 81.3358 104.003 81.1166 104.003 80.8028C104.003 80.502 103.75 80.287 103.393 80.287H103.169V79.9045H103.397C103.724 79.9045 103.956 79.7111 103.956 79.436C103.956 79.1566 103.732 78.9632 103.414 78.9632C103.096 78.9632 102.877 79.1609 102.877 79.4403H102.422C102.422 78.9202 102.83 78.5592 103.414 78.5592C103.99 78.5592 104.399 78.9116 104.399 79.4102C104.399 79.6509 104.244 79.9346 103.99 80.0979ZM106.04 81.3401C106.47 81.3401 106.758 80.8587 106.758 80.1495C106.758 79.436 106.47 78.9546 106.04 78.9546C105.61 78.9546 105.318 79.436 105.318 80.1495C105.318 80.8587 105.61 81.3401 106.04 81.3401ZM104.862 80.1495C104.862 79.2125 105.348 78.5549 106.04 78.5549C106.728 78.5549 107.213 79.2125 107.213 80.1495C107.213 81.0822 106.728 81.7442 106.04 81.7442C105.348 81.7442 104.862 81.0822 104.862 80.1495Z" fill="#797986"/>
<rect x="153.312" y="48.6826" width="45.1316" height="1.43275" transform="rotate(-90 153.312 48.6826)" fill="#797986"/>
<rect x="227.82" y="48.6826" width="45.1316" height="1.43275" transform="rotate(-90 227.82 48.6826)" fill="#797986"/>
<rect x="173.371" y="2.12109" width="22.924" height="1.43275" transform="rotate(-90 173.371 2.12109)" fill="#797986"/>
<rect x="193.434" y="2.12109" width="10.7456" height="1.43275" transform="rotate(-90 193.434 2.12109)" fill="#797986"/>
<rect x="257.195" y="23.6104" width="21.4913" height="1.43275" transform="rotate(-90 257.195 23.6104)" fill="#797986"/>
<rect x="276.535" y="23.6104" width="21.4913" height="1.43275" transform="rotate(-90 276.535 23.6104)" fill="#797986"/>
<rect x="295.879" y="23.6104" width="21.4913" height="1.43275" transform="rotate(-90 295.879 23.6104)" fill="#797986"/>
<rect x="315.223" y="23.6104" width="21.4913" height="1.43275" transform="rotate(-90 315.223 23.6104)" fill="#797986"/>
<rect x="315.223" y="56.5615" width="32.9533" height="1.43275" transform="rotate(-90 315.223 56.5615)" fill="#797986"/>
<rect x="334.566" y="23.6104" width="21.4913" height="1.43275" transform="rotate(-90 334.566 23.6104)" fill="#797986"/>
<rect x="353.91" y="23.6104" width="21.4913" height="1.43275" transform="rotate(-90 353.91 23.6104)" fill="#797986"/>
<rect x="153.312" y="2.12109" width="75.9358" height="1.43275" fill="#797986"/>
<rect x="276.535" y="23.6104" width="17.9094" height="1.43275" transform="rotate(-180 276.535 23.6104)" fill="#797986"/>
<rect x="295.879" y="23.6104" width="17.9094" height="1.43275" transform="rotate(-180 295.879 23.6104)" fill="#797986"/>
<rect x="315.223" y="23.6104" width="17.9094" height="1.43275" transform="rotate(-180 315.223 23.6104)" fill="#797986"/>
<rect x="334.566" y="23.6104" width="17.9094" height="1.43275" transform="rotate(-180 334.566 23.6104)" fill="#797986"/>
<rect x="353.91" y="23.6104" width="17.9094" height="1.43275" transform="rotate(-180 353.91 23.6104)" fill="#797986"/>
<rect x="284.418" y="3.55273" width="6.44738" height="1.43275" transform="rotate(-180 284.418 3.55273)" fill="#797986"/>
<rect x="303.762" y="3.55273" width="6.44738" height="1.43275" transform="rotate(-180 303.762 3.55273)" fill="#797986"/>
<rect x="323.105" y="3.55273" width="6.44738" height="1.43275" transform="rotate(-180 323.105 3.55273)" fill="#797986"/>
<rect x="342.449" y="3.55273" width="6.44738" height="1.43275" transform="rotate(-180 342.449 3.55273)" fill="#797986"/>
<rect x="265.074" y="3.55273" width="6.44738" height="1.43275" transform="rotate(-180 265.074 3.55273)" fill="#797986"/>
<rect x="11.4609" y="-245.73" width="417.647" height="4.29823" transform="rotate(90 11.4609 -245.73)" fill="#797986"/>
<rect x="688.477" y="171.891" width="676.975" height="4.29819" transform="rotate(-180 688.477 171.891)" fill="#797986"/>
<path d="M186.89 23.7657H196.822C197.163 23.7657 197.443 24.0451 197.443 24.3865V28.3263C197.443 28.7219 197.122 29.0427 196.726 29.0427H186.89C186.549 29.0427 186.27 28.7633 186.27 28.4218V24.3865C186.27 24.0451 186.549 23.7657 186.89 23.7657Z" fill="#3E3E49"/>
<path d="M195.123 23.7657V22.1298C195.123 21.4469 194.564 20.8882 193.881 20.8882H189.827C189.144 20.8882 188.585 21.4469 188.585 22.1298V23.7657H195.123Z" fill="#3E3E49"/>
<path d="M186.89 23.7657H196.822C197.163 23.7657 197.443 24.0451 197.443 24.3865V28.3263C197.443 28.7219 197.122 29.0427 196.726 29.0427H186.89C186.549 29.0427 186.27 28.7633 186.27 28.4218V24.3865C186.27 24.0451 186.549 23.7657 186.89 23.7657Z" stroke="#797986" stroke-width="0.429825" stroke-miterlimit="10"/>
<path d="M195.123 23.7657V22.1298C195.123 21.4469 194.564 20.8882 193.881 20.8882H189.827C189.144 20.8882 188.585 21.4469 188.585 22.1298V23.7657H195.123Z" stroke="#797986" stroke-width="0.429825" stroke-miterlimit="10"/>
<path d="M188.418 27.4907V30.8214C188.418 31.5043 188.977 32.0631 189.66 32.0631H193.714C194.397 32.0631 194.956 31.5043 194.956 30.8214V27.4907H188.418Z" fill="#3E3E49"/>
<path d="M189.209 29.0428H194.164M189.209 29.8747H194.164M189.209 30.7065H194.164M188.418 27.4907V30.8214C188.418 31.5043 188.977 32.0631 189.66 32.0631H193.714C194.397 32.0631 194.956 31.5043 194.956 30.8214V27.4907H188.418Z" stroke="#797986" stroke-width="0.429825" stroke-miterlimit="10" stroke-linecap="round"/>
<path d="M264.903 9.44798C265.341 8.47546 266.115 7.71337 267.053 7.24132C267.656 6.93421 268.39 7.32094 268.532 7.98067L268.726 8.87357C268.851 9.44798 268.487 10.011 267.912 10.1361L267.23 10.284C266.854 10.3636 266.581 10.6878 266.559 11.0689C266.479 12.3712 266.798 13.8442 267.412 14.9988C267.594 15.34 267.975 15.5163 268.35 15.4367L269.033 15.2888C269.607 15.1637 270.17 15.5277 270.296 16.1021L270.495 17.0234C270.637 17.6775 270.148 18.3258 269.477 18.3087C266.069 18.2234 263.851 14.1912 264.46 10.8812C264.545 10.3693 264.693 9.89159 264.898 9.44229L264.903 9.44798Z" fill="#3E3E49" stroke="#797986" stroke-width="0.429825" stroke-miterlimit="10"/>
<path d="M284.247 9.44798C284.685 8.47546 285.459 7.71337 286.397 7.24132C287 6.93421 287.734 7.32094 287.876 7.98067L288.069 8.87357C288.195 9.44798 287.831 10.011 287.256 10.1361L286.574 10.284C286.198 10.3636 285.925 10.6878 285.902 11.0689C285.823 12.3712 286.141 13.8442 286.756 14.9988C286.938 15.34 287.319 15.5163 287.694 15.4367L288.377 15.2888C288.951 15.1637 289.514 15.5277 289.639 16.1021L289.838 17.0234C289.981 17.6775 289.491 18.3258 288.82 18.3087C285.413 18.2234 283.195 14.1912 283.804 10.8812C283.889 10.3693 284.037 9.89159 284.242 9.44229L284.247 9.44798Z" fill="#3E3E49" stroke="#797986" stroke-width="0.429825" stroke-miterlimit="10"/>
<path d="M303.587 9.44798C304.025 8.47546 304.799 7.71337 305.737 7.24132C306.34 6.93421 307.074 7.32094 307.216 7.98067L307.409 8.87357C307.534 9.44798 307.17 10.011 306.596 10.1361L305.913 10.284C305.538 10.3636 305.265 10.6878 305.242 11.0689C305.163 12.3712 305.481 13.8442 306.095 14.9988C306.277 15.34 306.659 15.5163 307.034 15.4367L307.716 15.2888C308.291 15.1637 308.854 15.5277 308.979 16.1021L309.178 17.0234C309.32 17.6775 308.831 18.3258 308.16 18.3087C304.753 18.2234 302.535 14.1912 303.143 10.8812C303.229 10.3693 303.377 9.89159 303.581 9.44229L303.587 9.44798Z" fill="#3E3E49" stroke="#797986" stroke-width="0.429825" stroke-miterlimit="10"/>
<path d="M322.931 9.44798C323.369 8.47546 324.142 7.71337 325.081 7.24132C325.684 6.93421 326.418 7.32094 326.56 7.98067L326.753 8.87357C326.878 9.44798 326.514 10.011 325.94 10.1361L325.257 10.284C324.882 10.3636 324.609 10.6878 324.586 11.0689C324.506 12.3712 324.825 13.8442 325.439 14.9988C325.621 15.34 326.002 15.5163 326.378 15.4367L327.06 15.2888C327.635 15.1637 328.198 15.5277 328.323 16.1021L328.522 17.0234C328.664 17.6775 328.175 18.3258 327.504 18.3087C324.097 18.2234 321.879 14.1912 322.487 10.8812C322.572 10.3693 322.72 9.89159 322.925 9.44229L322.931 9.44798Z" fill="#3E3E49" stroke="#797986" stroke-width="0.429825" stroke-miterlimit="10"/>
<path d="M342.275 9.44798C342.713 8.47546 343.486 7.71337 344.425 7.24132C345.028 6.93421 345.761 7.32094 345.903 7.98067L346.097 8.87357C346.222 9.44798 345.858 10.011 345.283 10.1361L344.601 10.284C344.226 10.3636 343.952 10.6878 343.93 11.0689C343.85 12.3712 344.169 13.8442 344.783 14.9988C344.965 15.34 345.346 15.5163 345.721 15.4367L346.404 15.2888C346.978 15.1637 347.542 15.5277 347.667 16.1021L347.866 17.0234C348.008 17.6775 347.519 18.3258 346.848 18.3087C343.441 18.2234 341.222 14.1912 341.831 10.8812C341.916 10.3693 342.064 9.89159 342.269 9.44229L342.275 9.44798Z" fill="#3E3E49" stroke="#797986" stroke-width="0.429825" stroke-miterlimit="10"/>
<rect x="175.523" y="-7.19141" width="17.193" height="8.5965" rx="1.43275" fill="#797986"/>
<rect x="20.7773" y="-12.9229" width="17.193" height="8.5965" rx="1.43275" transform="rotate(90 20.7773 -12.9229)" fill="#797986"/>
<rect x="17.9102" y="-10.7734" width="12.8948" height="12.8948" rx="6.44738" fill="#3E3E49"/>
<rect x="17.9102" y="-10.7734" width="12.8948" height="12.8948" rx="6.44738" stroke="#797986" stroke-width="0.716375"/>
<rect x="20.7773" y="11.4331" width="17.193" height="8.5965" rx="1.43275" transform="rotate(90 20.7773 11.4331)" fill="#797986"/>
<rect x="17.9102" y="13.582" width="12.8948" height="12.8948" rx="6.44738" fill="#3E3E49"/>
<rect x="17.9102" y="13.582" width="12.8948" height="12.8948" rx="6.44738" stroke="#797986" stroke-width="0.716375"/>
<path d="M20.1145 21.1639C20.7936 21.1639 21.2492 20.6868 21.2492 19.9776C21.2492 19.2684 20.7936 18.7913 20.1145 18.7913L19.6631 18.7956V21.1596L20.1145 21.1639ZM19.2075 21.5637V18.3916H20.1188C21.0472 18.3916 21.7005 19.0449 21.7005 19.9776C21.7005 20.9103 21.0472 21.5637 20.1188 21.5637H19.2075ZM22.2911 19.7197H24.1651V20.1753H22.2911V19.7197ZM25.8303 21.1682C26.2601 21.1682 26.5481 20.6868 26.5481 19.9776C26.5481 19.2641 26.2601 18.7827 25.8303 18.7827C25.4005 18.7827 25.1082 19.2641 25.1082 19.9776C25.1082 20.6868 25.4005 21.1682 25.8303 21.1682ZM24.6526 19.9776C24.6526 19.0406 25.1383 18.383 25.8303 18.383C26.518 18.383 27.0037 19.0406 27.0037 19.9776C27.0037 20.9103 26.518 21.5723 25.8303 21.5723C25.1383 21.5723 24.6526 20.9103 24.6526 19.9776ZM28.201 21.5508H27.7024L28.9274 18.7999L27.4918 18.8042V18.4002H29.383L29.426 18.7999L28.201 21.5508Z" fill="#797986"/>
<rect x="20.7773" y="60.1436" width="17.193" height="8.5965" rx="1.43275" transform="rotate(90 20.7773 60.1436)" fill="#797986"/>
<rect x="17.9102" y="62.2925" width="12.8948" height="12.8948" rx="6.44738" fill="#3E3E49"/>
<rect x="17.9102" y="62.2925" width="12.8948" height="12.8948" rx="6.44738" stroke="#797986" stroke-width="0.716375"/>
<path d="M20.1145 69.8744C20.7936 69.8744 21.2492 69.3973 21.2492 68.6881C21.2492 67.9789 20.7936 67.5018 20.1145 67.5018L19.6631 67.5061V69.8701L20.1145 69.8744ZM19.2075 70.2741V67.102H20.1188C21.0472 67.102 21.7005 67.7554 21.7005 68.6881C21.7005 69.6208 21.0472 70.2741 20.1188 70.2741H19.2075ZM22.2911 68.4302H24.1651V68.8858H22.2911V68.4302ZM25.8303 69.8787C26.2601 69.8787 26.5481 69.3973 26.5481 68.6881C26.5481 67.9746 26.2601 67.4932 25.8303 67.4932C25.4005 67.4932 25.1082 67.9746 25.1082 68.6881C25.1082 69.3973 25.4005 69.8787 25.8303 69.8787ZM24.6526 68.6881C24.6526 67.7511 25.1383 67.0934 25.8303 67.0934C26.518 67.0934 27.0037 67.7511 27.0037 68.6881C27.0037 69.6208 26.518 70.2827 25.8303 70.2827C25.1383 70.2827 24.6526 69.6208 24.6526 68.6881ZM28.5105 67.4889C28.1408 67.4889 27.8787 67.7554 27.8787 68.1336C27.8787 68.5118 28.1408 68.7783 28.5105 68.7783C28.8758 68.7783 29.1337 68.5118 29.1337 68.1336C29.1337 67.7554 28.8758 67.4889 28.5105 67.4889ZM27.423 68.1336C27.423 67.519 27.8701 67.0891 28.5062 67.0891C29.1423 67.0891 29.5894 67.519 29.5894 68.1336C29.5894 68.3571 29.5077 68.5634 29.4174 68.7268L28.5578 70.2569H28.0334L28.6566 69.1609C28.6051 69.1695 28.5535 69.1781 28.4976 69.1781C27.8658 69.1738 27.423 68.744 27.423 68.1336Z" fill="#797986"/>
<rect x="20.7773" y="35.7886" width="17.193" height="8.5965" rx="1.43275" transform="rotate(90 20.7773 35.7886)" fill="#797986"/>
<rect x="17.9102" y="37.9375" width="12.8948" height="12.8948" rx="6.44738" fill="#3E3E49"/>
<rect x="17.9102" y="37.9375" width="12.8948" height="12.8948" rx="6.44738" stroke="#797986" stroke-width="0.716375"/>
<path d="M20.1145 45.5194C20.7936 45.5194 21.2492 45.0423 21.2492 44.3331C21.2492 43.6239 20.7936 43.1468 20.1145 43.1468L19.6631 43.1511V45.5151L20.1145 45.5194ZM19.2075 45.9192V42.747H20.1188C21.0472 42.747 21.7005 43.4004 21.7005 44.3331C21.7005 45.2658 21.0472 45.9192 20.1188 45.9192H19.2075ZM22.2911 44.0752H24.1651V44.5308H22.2911V44.0752ZM25.8303 45.5237C26.2601 45.5237 26.5481 45.0423 26.5481 44.3331C26.5481 43.6196 26.2601 43.1382 25.8303 43.1382C25.4005 43.1382 25.1082 43.6196 25.1082 44.3331C25.1082 45.0423 25.4005 45.5237 25.8303 45.5237ZM24.6526 44.3331C24.6526 43.3961 25.1383 42.7384 25.8303 42.7384C26.518 42.7384 27.0037 43.3961 27.0037 44.3331C27.0037 45.2658 26.518 45.9277 25.8303 45.9277C25.1383 45.9277 24.6526 45.2658 24.6526 44.3331ZM28.489 45.5581C28.8458 45.5581 29.0951 45.3303 29.0951 45.0036C29.0951 44.677 28.8458 44.4449 28.489 44.4449C28.1322 44.4449 27.8787 44.677 27.8787 45.0036C27.8787 45.3303 28.1322 45.5581 28.489 45.5581ZM27.423 45.0122C27.423 44.7371 27.6379 44.4191 27.9388 44.2514C27.6895 44.0795 27.509 43.8001 27.509 43.5766C27.509 43.0694 27.913 42.717 28.489 42.717C29.065 42.717 29.469 43.0694 29.469 43.5766C29.469 43.8044 29.2928 44.0838 29.0392 44.2514C29.3401 44.4234 29.555 44.7371 29.555 45.0122C29.555 45.5624 29.1165 45.9492 28.489 45.9492C27.8658 45.9492 27.423 45.5624 27.423 45.0122ZM27.9689 43.5766C27.9689 43.856 28.1838 44.0537 28.489 44.0537C28.7985 44.0537 29.0134 43.856 29.0134 43.5766C29.0134 43.2972 28.7985 43.1038 28.489 43.1038C28.1838 43.1038 27.9689 43.2972 27.9689 43.5766Z" fill="#797986"/>
<rect x="20.7773" y="84.499" width="17.193" height="8.5965" rx="1.43275" transform="rotate(90 20.7773 84.499)" fill="#797986"/>
<rect x="17.9102" y="86.6479" width="12.8948" height="12.8948" rx="6.44738" fill="#3E3E49"/>
<rect x="17.9102" y="86.6479" width="12.8948" height="12.8948" rx="6.44738" stroke="#797986" stroke-width="0.716375"/>
<path d="M20.1145 94.2299C20.7936 94.2299 21.2492 93.7528 21.2492 93.0435C21.2492 92.3343 20.7936 91.8572 20.1145 91.8572L19.6631 91.8615V94.2256L20.1145 94.2299ZM19.2075 94.6296V91.4575H20.1188C21.0472 91.4575 21.7005 92.1108 21.7005 93.0435C21.7005 93.9763 21.0472 94.6296 20.1188 94.6296H19.2075ZM22.2911 92.7857H24.1651V93.2413H22.2911V92.7857ZM25.8217 91.4833V94.6081L25.3661 94.6038V91.969L24.8159 92.2742L24.6268 91.8916L25.3704 91.4833H25.8217ZM27.6268 94.2342C28.0567 94.2342 28.3446 93.7528 28.3446 93.0435C28.3446 92.33 28.0567 91.8486 27.6268 91.8486C27.197 91.8486 26.9047 92.33 26.9047 93.0435C26.9047 93.7528 27.197 94.2342 27.6268 94.2342ZM26.4491 93.0435C26.4491 92.1065 26.9348 91.4489 27.6268 91.4489C28.3146 91.4489 28.8003 92.1065 28.8003 93.0435C28.8003 93.9763 28.3146 94.6382 27.6268 94.6382C26.9348 94.6382 26.4491 93.9763 26.4491 93.0435Z" fill="#797986"/>
<rect x="33.6719" y="128.195" width="88.8305" height="17.9094" rx="1.43275" fill="white"/>
<rect x="35.8203" y="118.167" width="12.8948" height="12.8948" rx="6.44738" fill="#3E3E49"/>
<rect x="35.8203" y="118.167" width="12.8948" height="12.8948" rx="6.44738" stroke="white" stroke-width="0.716375"/>
<path d="M38.7854 122.976L39.9631 126.148H39.4774L39.1594 125.284H37.857L37.526 126.148H37.0403L38.2395 122.976H38.7854ZM38.0031 124.889H39.0089L38.5146 123.552L38.0031 124.889ZM40.5119 124.304H42.3859V124.76H40.5119V124.304ZM44.0511 125.753C44.4809 125.753 44.7689 125.271 44.7689 124.562C44.7689 123.849 44.4809 123.367 44.0511 123.367C43.6212 123.367 43.329 123.849 43.329 124.562C43.329 125.271 43.6212 125.753 44.0511 125.753ZM42.8734 124.562C42.8734 123.625 43.3591 122.967 44.0511 122.967C44.7388 122.967 45.2245 123.625 45.2245 124.562C45.2245 125.495 44.7388 126.157 44.0511 126.157C43.3591 126.157 42.8734 125.495 42.8734 124.562ZM46.8086 123.002V126.127L46.353 126.122V123.488L45.8028 123.793L45.6137 123.41L46.3573 123.002H46.8086Z" fill="white"/>
<rect x="53.7305" y="118.167" width="12.8948" height="12.8948" rx="6.44738" fill="#3E3E49"/>
<rect x="53.7305" y="118.167" width="12.8948" height="12.8948" rx="6.44738" stroke="white" stroke-width="0.716375"/>
<path d="M56.1956 122.976L57.3733 126.148H56.8876L56.5695 125.284H55.2671L54.9362 126.148H54.4505L55.6497 122.976H56.1956ZM55.4133 124.889H56.4191L55.9248 123.552L55.4133 124.889ZM57.922 124.304H59.7961V124.76H57.922V124.304ZM61.4612 125.753C61.8911 125.753 62.179 125.271 62.179 124.562C62.179 123.849 61.8911 123.367 61.4612 123.367C61.0314 123.367 60.7391 123.849 60.7391 124.562C60.7391 125.271 61.0314 125.753 61.4612 125.753ZM60.2835 124.562C60.2835 123.625 60.7692 122.967 61.4612 122.967C62.1489 122.967 62.6346 123.625 62.6346 124.562C62.6346 125.495 62.1489 126.157 61.4612 126.157C60.7692 126.157 60.2835 125.495 60.2835 124.562ZM63.1184 125.727C63.746 125.125 64.6013 124.515 64.6013 123.986C64.6013 123.634 64.3778 123.384 64.0598 123.384C63.8148 123.384 63.5698 123.561 63.458 123.814L63.0583 123.638C63.2302 123.243 63.6471 122.967 64.0598 122.967C64.6486 122.967 65.0569 123.389 65.0569 123.986C65.0569 124.644 64.3434 125.228 63.7632 125.727H65.1085V126.127H63.1614L63.1184 125.727Z" fill="white"/>
<rect x="71.6406" y="118.167" width="12.8948" height="12.8948" rx="6.44738" fill="#3E3E49"/>
<rect x="71.6406" y="118.167" width="12.8948" height="12.8948" rx="6.44738" stroke="white" stroke-width="0.716375"/>
<path d="M74.1057 122.976L75.2834 126.148H74.7977L74.4797 125.284H73.1773L72.8463 126.148H72.3606L73.5598 122.976H74.1057ZM73.3234 124.889H74.3292L73.8349 123.552L73.3234 124.889ZM75.8322 124.304H77.7062V124.76H75.8322V124.304ZM79.3714 125.753C79.8012 125.753 80.0892 125.271 80.0892 124.562C80.0892 123.849 79.8012 123.367 79.3714 123.367C78.9416 123.367 78.6493 123.849 78.6493 124.562C78.6493 125.271 78.9416 125.753 79.3714 125.753ZM78.1937 124.562C78.1937 123.625 78.6794 122.967 79.3714 122.967C80.0591 122.967 80.5448 123.625 80.5448 124.562C80.5448 125.495 80.0591 126.157 79.3714 126.157C78.6794 126.157 78.1937 125.495 78.1937 124.562ZM82.6275 124.511C82.9069 124.674 83.0832 124.979 83.0832 125.241C83.0832 125.774 82.6447 126.152 82.0215 126.152C81.4025 126.152 80.9641 125.766 80.9641 125.215H81.4197C81.4197 125.529 81.669 125.748 82.0215 125.748C82.3825 125.748 82.6404 125.529 82.6404 125.215C82.6404 124.915 82.3868 124.7 82.0301 124.7H81.8066V124.317H82.0344C82.3611 124.317 82.5932 124.124 82.5932 123.849C82.5932 123.569 82.3696 123.376 82.0516 123.376C81.7335 123.376 81.5143 123.574 81.5143 123.853H81.0587C81.0587 123.333 81.467 122.972 82.0516 122.972C82.6275 122.972 83.0359 123.324 83.0359 123.823C83.0359 124.064 82.8811 124.347 82.6275 124.511Z" fill="white"/>
<rect x="89.5508" y="118.167" width="12.8948" height="12.8948" rx="6.44738" fill="#3E3E49"/>
<rect x="89.5508" y="118.167" width="12.8948" height="12.8948" rx="6.44738" stroke="white" stroke-width="0.716375"/>
<path d="M92.0159 122.976L93.1936 126.148H92.7079L92.3898 125.284H91.0875L90.7565 126.148H90.2708L91.47 122.976H92.0159ZM91.2336 124.889H92.2394L91.7451 123.552L91.2336 124.889ZM93.7423 124.304H95.6164V124.76H93.7423V124.304ZM97.2815 125.753C97.7114 125.753 97.9993 125.271 97.9993 124.562C97.9993 123.849 97.7114 123.367 97.2815 123.367C96.8517 123.367 96.5594 123.849 96.5594 124.562C96.5594 125.271 96.8517 125.753 97.2815 125.753ZM96.1038 124.562C96.1038 123.625 96.5895 122.967 97.2815 122.967C97.9693 122.967 98.455 123.625 98.455 124.562C98.455 125.495 97.9693 126.157 97.2815 126.157C96.5895 126.157 96.1038 125.495 96.1038 124.562ZM100.718 122.998V124.923H101.114V125.319H100.718V126.127H100.263V125.319H98.9173L98.8743 124.923L100.284 122.998H100.718ZM99.4159 124.923H100.263V123.758L99.4159 124.923Z" fill="white"/>
<rect x="107.465" y="118.167" width="12.8948" height="12.8948" rx="6.44738" fill="#3E3E49"/>
<rect x="107.465" y="118.167" width="12.8948" height="12.8948" rx="6.44738" stroke="white" stroke-width="0.716375"/>
<path d="M109.93 122.976L111.108 126.148H110.622L110.304 125.284H109.002L108.671 126.148H108.185L109.384 122.976H109.93ZM109.148 124.889H110.153L109.659 123.552L109.148 124.889ZM111.656 124.304H113.53V124.76H111.656V124.304ZM115.196 125.753C115.625 125.753 115.913 125.271 115.913 124.562C115.913 123.849 115.625 123.367 115.196 123.367C114.766 123.367 114.473 123.849 114.473 124.562C114.473 125.271 114.766 125.753 115.196 125.753ZM114.018 124.562C114.018 123.625 114.504 122.967 115.196 122.967C115.883 122.967 116.369 123.625 116.369 124.562C116.369 125.495 115.883 126.157 115.196 126.157C114.504 126.157 114.018 125.495 114.018 124.562ZM117.369 124.725L116.913 124.67L117.02 122.998H118.692V123.397H117.459L117.407 124.162C117.549 124.098 117.708 124.059 117.85 124.059C118.495 124.059 118.95 124.493 118.95 125.108C118.95 125.731 118.495 126.17 117.85 126.17C117.343 126.17 116.904 125.83 116.793 125.349L117.235 125.246C117.3 125.534 117.553 125.74 117.85 125.74C118.228 125.74 118.495 125.478 118.495 125.108C118.495 124.747 118.228 124.489 117.85 124.489C117.691 124.489 117.493 124.588 117.369 124.725Z" fill="white"/>
<rect x="35.8203" y="143.238" width="12.8948" height="12.8948" rx="6.44738" fill="#3E3E49"/>
<rect x="35.8203" y="143.238" width="12.8948" height="12.8948" rx="6.44738" stroke="white" stroke-width="0.716375"/>
<path d="M38.2854 148.047L39.4631 151.219H38.9774L38.6594 150.355H37.357L37.026 151.219H36.5403L37.7395 148.047H38.2854ZM37.5031 149.96H38.5089L38.0146 148.623L37.5031 149.96ZM40.0119 149.375H41.8859V149.831H40.0119V149.375ZM43.5511 150.824C43.9809 150.824 44.2689 150.343 44.2689 149.633C44.2689 148.92 43.9809 148.438 43.5511 148.438C43.1212 148.438 42.829 148.92 42.829 149.633C42.829 150.343 43.1212 150.824 43.5511 150.824ZM42.3734 149.633C42.3734 148.696 42.8591 148.039 43.5511 148.039C44.2388 148.039 44.7245 148.696 44.7245 149.633C44.7245 150.566 44.2388 151.228 43.5511 151.228C42.8591 151.228 42.3734 150.566 42.3734 149.633ZM46.2227 150.828C46.5923 150.828 46.8545 150.562 46.8545 150.188C46.8545 149.805 46.5923 149.539 46.2227 149.539C45.8573 149.539 45.5994 149.805 45.5994 150.188C45.5994 150.562 45.8573 150.828 46.2227 150.828ZM45.1438 150.188C45.1438 149.96 45.2255 149.758 45.3157 149.59L46.1754 148.06H46.6998L46.0765 149.156C46.1281 149.148 46.1797 149.139 46.2356 149.139C46.8674 149.143 47.3101 149.573 47.3101 150.188C47.3101 150.798 46.8631 151.228 46.227 151.228C45.5908 151.228 45.1438 150.798 45.1438 150.188Z" fill="white"/>
<rect x="53.7305" y="143.238" width="12.8948" height="12.8948" rx="6.44738" fill="#3E3E49"/>
<rect x="53.7305" y="143.238" width="12.8948" height="12.8948" rx="6.44738" stroke="white" stroke-width="0.716375"/>
<path d="M56.1956 148.047L57.3733 151.219H56.8876L56.5695 150.355H55.2671L54.9362 151.219H54.4505L55.6497 148.047H56.1956ZM55.4133 149.96H56.4191L55.9248 148.623L55.4133 149.96ZM57.922 149.375H59.7961V149.831H57.922V149.375ZM61.4612 150.824C61.8911 150.824 62.179 150.343 62.179 149.633C62.179 148.92 61.8911 148.438 61.4612 148.438C61.0314 148.438 60.7391 148.92 60.7391 149.633C60.7391 150.343 61.0314 150.824 61.4612 150.824ZM60.2835 149.633C60.2835 148.696 60.7692 148.039 61.4612 148.039C62.1489 148.039 62.6346 148.696 62.6346 149.633C62.6346 150.566 62.1489 151.228 61.4612 151.228C60.7692 151.228 60.2835 150.566 60.2835 149.633ZM63.8319 151.207H63.3334L64.5584 148.456L63.1227 148.46V148.056H65.014L65.0569 148.456L63.8319 151.207Z" fill="white"/>
<rect x="71.6406" y="143.238" width="12.8948" height="12.8948" rx="6.44738" fill="#3E3E49"/>
<rect x="71.6406" y="143.238" width="12.8948" height="12.8948" rx="6.44738" stroke="white" stroke-width="0.716375"/>
<path d="M74.1057 148.047L75.2834 151.219H74.7977L74.4797 150.355H73.1773L72.8463 151.219H72.3606L73.5598 148.047H74.1057ZM73.3234 149.96H74.3292L73.8349 148.623L73.3234 149.96ZM75.8322 149.375H77.7062V149.831H75.8322V149.375ZM79.3714 150.824C79.8012 150.824 80.0892 150.343 80.0892 149.633C80.0892 148.92 79.8012 148.438 79.3714 148.438C78.9416 148.438 78.6493 148.92 78.6493 149.633C78.6493 150.343 78.9416 150.824 79.3714 150.824ZM78.1937 149.633C78.1937 148.696 78.6794 148.039 79.3714 148.039C80.0591 148.039 80.5448 148.696 80.5448 149.633C80.5448 150.566 80.0591 151.228 79.3714 151.228C78.6794 151.228 78.1937 150.566 78.1937 149.633ZM82.0301 150.858C82.3868 150.858 82.6361 150.631 82.6361 150.304C82.6361 149.977 82.3868 149.745 82.0301 149.745C81.6733 149.745 81.4197 149.977 81.4197 150.304C81.4197 150.631 81.6733 150.858 82.0301 150.858ZM80.9641 150.313C80.9641 150.037 81.179 149.719 81.4799 149.552C81.2306 149.38 81.0501 149.1 81.0501 148.877C81.0501 148.37 81.4541 148.017 82.0301 148.017C82.6061 148.017 83.0101 148.37 83.0101 148.877C83.0101 149.105 82.8339 149.384 82.5803 149.552C82.8811 149.724 83.0961 150.037 83.0961 150.313C83.0961 150.863 82.6576 151.25 82.0301 151.25C81.4068 151.25 80.9641 150.863 80.9641 150.313ZM81.51 148.877C81.51 149.156 81.7249 149.354 82.0301 149.354C82.3396 149.354 82.5545 149.156 82.5545 148.877C82.5545 148.598 82.3396 148.404 82.0301 148.404C81.7249 148.404 81.51 148.598 81.51 148.877Z" fill="white"/>
<rect x="89.5508" y="143.238" width="12.8948" height="12.8948" rx="6.44738" fill="#3E3E49"/>
<rect x="89.5508" y="143.238" width="12.8948" height="12.8948" rx="6.44738" stroke="white" stroke-width="0.716375"/>
<path d="M92.0159 148.047L93.1936 151.219H92.7079L92.3898 150.355H91.0875L90.7565 151.219H90.2708L91.47 148.047H92.0159ZM91.2336 149.96H92.2394L91.7451 148.623L91.2336 149.96ZM93.7423 149.375H95.6164V149.831H93.7423V149.375ZM97.2815 150.824C97.7114 150.824 97.9993 150.343 97.9993 149.633C97.9993 148.92 97.7114 148.438 97.2815 148.438C96.8517 148.438 96.5594 148.92 96.5594 149.633C96.5594 150.343 96.8517 150.824 97.2815 150.824ZM96.1038 149.633C96.1038 148.696 96.5895 148.039 97.2815 148.039C97.9693 148.039 98.455 148.696 98.455 149.633C98.455 150.566 97.9693 151.228 97.2815 151.228C96.5895 151.228 96.1038 150.566 96.1038 149.633ZM99.9617 148.434C99.5921 148.434 99.3299 148.701 99.3299 149.079C99.3299 149.457 99.5921 149.724 99.9617 149.724C100.327 149.724 100.585 149.457 100.585 149.079C100.585 148.701 100.327 148.434 99.9617 148.434ZM98.8743 149.079C98.8743 148.464 99.3213 148.034 99.9574 148.034C100.594 148.034 101.041 148.464 101.041 149.079C101.041 149.302 100.959 149.509 100.869 149.672L100.009 151.202H99.4846L100.108 150.106C100.056 150.115 100.005 150.123 99.9488 150.123C99.317 150.119 98.8743 149.689 98.8743 149.079Z" fill="white"/>
<rect x="107.465" y="143.238" width="12.8948" height="12.8948" rx="6.44738" fill="#3E3E49"/>
<rect x="107.465" y="143.238" width="12.8948" height="12.8948" rx="6.44738" stroke="white" stroke-width="0.716375"/>
<path d="M110.43 148.047L111.608 151.219H111.122L110.804 150.355H109.502L109.171 151.219H108.685L109.884 148.047H110.43ZM109.648 149.96H110.653L110.159 148.623L109.648 149.96ZM112.156 149.375H114.03V149.831H112.156V149.375ZM115.687 148.073V151.198L115.231 151.194V148.559L114.681 148.864L114.492 148.481L115.236 148.073H115.687ZM117.492 150.824C117.922 150.824 118.21 150.343 118.21 149.633C118.21 148.92 117.922 148.438 117.492 148.438C117.062 148.438 116.77 148.92 116.77 149.633C116.77 150.343 117.062 150.824 117.492 150.824ZM116.314 149.633C116.314 148.696 116.8 148.039 117.492 148.039C118.18 148.039 118.666 148.696 118.666 149.633C118.666 150.566 118.18 151.228 117.492 151.228C116.8 151.228 116.314 150.566 116.314 149.633Z" fill="white"/>
<rect x="148.297" y="128.195" width="88.8305" height="17.9094" rx="1.43275" fill="white"/>
<rect x="150.445" y="118.167" width="12.8948" height="12.8948" rx="6.44738" fill="#3E3E49"/>
<rect x="150.445" y="118.167" width="12.8948" height="12.8948" rx="6.44738" stroke="white" stroke-width="0.716375"/>
<path d="M153.91 122.976L155.088 126.148H154.602L154.284 125.284H152.982L152.651 126.148H152.165L153.365 122.976H153.91ZM153.128 124.889H154.134L153.64 123.552L153.128 124.889ZM155.637 124.304H157.511V124.76H155.637V124.304ZM159.167 123.002V126.127L158.712 126.122V123.488L158.162 123.793L157.973 123.41L158.716 123.002H159.167ZM161.136 123.002V126.127L160.68 126.122V123.488L160.13 123.793L159.941 123.41L160.685 123.002H161.136Z" fill="white"/>
<rect x="168.355" y="118.167" width="12.8948" height="12.8948" rx="6.44738" fill="#3E3E49"/>
<rect x="168.355" y="118.167" width="12.8948" height="12.8948" rx="6.44738" stroke="white" stroke-width="0.716375"/>
<path d="M171.321 122.976L172.498 126.148H172.013L171.695 125.284H170.392L170.061 126.148H169.575L170.775 122.976H171.321ZM170.538 124.889H171.544L171.05 123.552L170.538 124.889ZM173.047 124.304H174.921V124.76H173.047V124.304ZM176.578 123.002V126.127L176.122 126.122V123.488L175.572 123.793L175.383 123.41L176.126 123.002H176.578ZM177.274 125.727C177.901 125.125 178.757 124.515 178.757 123.986C178.757 123.634 178.533 123.384 178.215 123.384C177.97 123.384 177.725 123.561 177.613 123.814L177.214 123.638C177.386 123.243 177.802 122.967 178.215 122.967C178.804 122.967 179.212 123.389 179.212 123.986C179.212 124.644 178.499 125.228 177.919 125.727H179.264V126.127H177.317L177.274 125.727Z" fill="white"/>
<rect x="186.266" y="118.167" width="12.8948" height="12.8948" rx="6.44738" fill="#3E3E49"/>
<rect x="186.266" y="118.167" width="12.8948" height="12.8948" rx="6.44738" stroke="white" stroke-width="0.716375"/>
<path d="M189.231 122.976L190.408 126.148H189.923L189.605 125.284H188.302L187.971 126.148H187.486L188.685 122.976H189.231ZM188.448 124.889H189.454L188.96 123.552L188.448 124.889ZM190.957 124.304H192.831V124.76H190.957V124.304ZM194.488 123.002V126.127L194.032 126.122V123.488L193.482 123.793L193.293 123.41L194.036 123.002H194.488ZM196.783 124.511C197.062 124.674 197.239 124.979 197.239 125.241C197.239 125.774 196.8 126.152 196.177 126.152C195.558 126.152 195.119 125.766 195.119 125.215H195.575C195.575 125.529 195.824 125.748 196.177 125.748C196.538 125.748 196.796 125.529 196.796 125.215C196.796 124.915 196.542 124.7 196.185 124.7H195.962V124.317H196.19C196.516 124.317 196.749 124.124 196.749 123.849C196.749 123.569 196.525 123.376 196.207 123.376C195.889 123.376 195.67 123.574 195.67 123.853H195.214C195.214 123.333 195.622 122.972 196.207 122.972C196.783 122.972 197.191 123.324 197.191 123.823C197.191 124.064 197.037 124.347 196.783 124.511Z" fill="white"/>
<rect x="204.176" y="118.167" width="12.8948" height="12.8948" rx="6.44738" fill="#3E3E49"/>
<rect x="204.176" y="118.167" width="12.8948" height="12.8948" rx="6.44738" stroke="white" stroke-width="0.716375"/>
<path d="M207.141 122.976L208.319 126.148H207.833L207.515 125.284H206.212L205.881 126.148H205.396L206.595 122.976H207.141ZM206.359 124.889H207.364L206.87 123.552L206.359 124.889ZM208.867 124.304H210.741V124.76H208.867V124.304ZM212.398 123.002V126.127L211.942 126.122V123.488L211.392 123.793L211.203 123.41L211.947 123.002H212.398ZM214.874 122.998V124.923H215.269V125.319H214.874V126.127H214.418V125.319H213.073L213.03 124.923L214.439 122.998H214.874ZM213.571 124.923H214.418V123.758L213.571 124.923Z" fill="white"/>
<rect x="222.086" y="118.167" width="12.8948" height="12.8948" rx="6.44738" fill="#3E3E49"/>
<rect x="222.086" y="118.167" width="12.8948" height="12.8948" rx="6.44738" stroke="white" stroke-width="0.716375"/>
<path d="M225.051 122.976L226.229 126.148H225.743L225.425 125.284H224.123L223.792 126.148H223.306L224.505 122.976H225.051ZM224.269 124.889H225.275L224.78 123.552L224.269 124.889ZM226.777 124.304H228.652V124.76H226.777V124.304ZM230.308 123.002V126.127L229.852 126.122V123.488L229.302 123.793L229.113 123.41L229.857 123.002H230.308ZM231.52 124.725L231.064 124.67L231.172 122.998H232.844V123.397H231.61L231.559 124.162C231.701 124.098 231.86 124.059 232.001 124.059C232.646 124.059 233.102 124.493 233.102 125.108C233.102 125.731 232.646 126.17 232.001 126.17C231.494 126.17 231.056 125.83 230.944 125.349L231.387 125.246C231.451 125.534 231.705 125.74 232.001 125.74C232.38 125.74 232.646 125.478 232.646 125.108C232.646 124.747 232.38 124.489 232.001 124.489C231.842 124.489 231.645 124.588 231.52 124.725Z" fill="white"/>
<rect x="150.445" y="143.238" width="12.8948" height="12.8948" rx="6.44738" fill="#3E3E49"/>
<rect x="150.445" y="143.238" width="12.8948" height="12.8948" rx="6.44738" stroke="white" stroke-width="0.716375"/>
<path d="M153.41 148.047L154.588 151.219H154.102L153.784 150.355H152.482L152.151 151.219H151.665L152.865 148.047H153.41ZM152.628 149.96H153.634L153.14 148.623L152.628 149.96ZM155.137 149.375H157.011V149.831H155.137V149.375ZM158.667 148.073V151.198L158.212 151.194V148.559L157.662 148.864L157.473 148.481L158.216 148.073H158.667ZM160.378 150.828C160.748 150.828 161.01 150.562 161.01 150.188C161.01 149.805 160.748 149.539 160.378 149.539C160.013 149.539 159.755 149.805 159.755 150.188C159.755 150.562 160.013 150.828 160.378 150.828ZM159.299 150.188C159.299 149.96 159.381 149.758 159.471 149.59L160.331 148.06H160.855L160.232 149.156C160.283 149.148 160.335 149.139 160.391 149.139C161.023 149.143 161.466 149.573 161.466 150.188C161.466 150.798 161.018 151.228 160.382 151.228C159.746 151.228 159.299 150.798 159.299 150.188Z" fill="white"/>
<rect x="168.355" y="143.238" width="12.8948" height="12.8948" rx="6.44738" fill="#3E3E49"/>
<rect x="168.355" y="143.238" width="12.8948" height="12.8948" rx="6.44738" stroke="white" stroke-width="0.716375"/>
<path d="M171.321 148.047L172.498 151.219H172.013L171.695 150.355H170.392L170.061 151.219H169.575L170.775 148.047H171.321ZM170.538 149.96H171.544L171.05 148.623L170.538 149.96ZM173.047 149.375H174.921V149.831H173.047V149.375ZM176.578 148.073V151.198L176.122 151.194V148.559L175.572 148.864L175.383 148.481L176.126 148.073H176.578ZM177.987 151.207H177.489L178.714 148.456L177.278 148.46V148.056H179.169L179.212 148.456L177.987 151.207Z" fill="white"/>
<rect x="186.266" y="143.238" width="12.8948" height="12.8948" rx="6.44738" fill="#3E3E49"/>
<rect x="186.266" y="143.238" width="12.8948" height="12.8948" rx="6.44738" stroke="white" stroke-width="0.716375"/>
<path d="M189.231 148.047L190.408 151.219H189.923L189.605 150.355H188.302L187.971 151.219H187.486L188.685 148.047H189.231ZM188.448 149.96H189.454L188.96 148.623L188.448 149.96ZM190.957 149.375H192.831V149.831H190.957V149.375ZM194.488 148.073V151.198L194.032 151.194V148.559L193.482 148.864L193.293 148.481L194.036 148.073H194.488ZM196.185 150.858C196.542 150.858 196.792 150.631 196.792 150.304C196.792 149.977 196.542 149.745 196.185 149.745C195.829 149.745 195.575 149.977 195.575 150.304C195.575 150.631 195.829 150.858 196.185 150.858ZM195.119 150.313C195.119 150.037 195.334 149.719 195.635 149.552C195.386 149.38 195.205 149.1 195.205 148.877C195.205 148.37 195.609 148.017 196.185 148.017C196.761 148.017 197.165 148.37 197.165 148.877C197.165 149.105 196.989 149.384 196.736 149.552C197.037 149.724 197.251 150.037 197.251 150.313C197.251 150.863 196.813 151.25 196.185 151.25C195.562 151.25 195.119 150.863 195.119 150.313ZM195.665 148.877C195.665 149.156 195.88 149.354 196.185 149.354C196.495 149.354 196.71 149.156 196.71 148.877C196.71 148.598 196.495 148.404 196.185 148.404C195.88 148.404 195.665 148.598 195.665 148.877Z" fill="white"/>
<rect x="204.176" y="143.238" width="12.8948" height="12.8948" rx="6.44738" fill="#3E3E49"/>
<rect x="204.176" y="143.238" width="12.8948" height="12.8948" rx="6.44738" stroke="white" stroke-width="0.716375"/>
<path d="M207.141 148.047L208.319 151.219H207.833L207.515 150.355H206.212L205.881 151.219H205.396L206.595 148.047H207.141ZM206.359 149.96H207.364L206.87 148.623L206.359 149.96ZM208.867 149.375H210.741V149.831H208.867V149.375ZM212.398 148.073V151.198L211.942 151.194V148.559L211.392 148.864L211.203 148.481L211.947 148.073H212.398ZM214.117 148.434C213.747 148.434 213.485 148.701 213.485 149.079C213.485 149.457 213.747 149.724 214.117 149.724C214.482 149.724 214.74 149.457 214.74 149.079C214.74 148.701 214.482 148.434 214.117 148.434ZM213.03 149.079C213.03 148.464 213.477 148.034 214.113 148.034C214.749 148.034 215.196 148.464 215.196 149.079C215.196 149.302 215.114 149.509 215.024 149.672L214.164 151.202H213.64L214.263 150.106C214.212 150.115 214.16 150.123 214.104 150.123C213.472 150.119 213.03 149.689 213.03 149.079Z" fill="white"/>
<rect x="222.086" y="143.238" width="12.8948" height="12.8948" rx="6.44738" fill="#3E3E49"/>
<rect x="222.086" y="143.238" width="12.8948" height="12.8948" rx="6.44738" stroke="white" stroke-width="0.716375"/>
<path d="M224.551 148.047L225.729 151.219H225.243L224.925 150.355H223.623L223.292 151.219H222.806L224.005 148.047H224.551ZM223.769 149.96H224.775L224.28 148.623L223.769 149.96ZM226.277 149.375H228.152V149.831H226.277V149.375ZM228.708 150.798C229.335 150.196 230.191 149.586 230.191 149.057C230.191 148.705 229.967 148.456 229.649 148.456C229.404 148.456 229.159 148.632 229.047 148.885L228.648 148.709C228.82 148.314 229.236 148.039 229.649 148.039C230.238 148.039 230.646 148.46 230.646 149.057C230.646 149.715 229.933 150.3 229.352 150.798H230.698V151.198H228.751L228.708 150.798ZM232.293 150.824C232.723 150.824 233.011 150.343 233.011 149.633C233.011 148.92 232.723 148.438 232.293 148.438C231.863 148.438 231.571 148.92 231.571 149.633C231.571 150.343 231.863 150.824 232.293 150.824ZM231.116 149.633C231.116 148.696 231.601 148.039 232.293 148.039C232.981 148.039 233.467 148.696 233.467 149.633C233.467 150.566 232.981 151.228 232.293 151.228C231.601 151.228 231.116 150.566 231.116 149.633Z" fill="white"/>
<rect x="262.926" y="128.195" width="88.8305" height="17.9094" rx="1.43275" fill="white"/>
<rect x="265.074" y="118.167" width="12.8948" height="12.8948" rx="6.44738" fill="#3E3E49"/>
<rect x="265.074" y="118.167" width="12.8948" height="12.8948" rx="6.44738" stroke="white" stroke-width="0.716375"/>
<path d="M268.039 122.976L269.217 126.148H268.731L268.413 125.284H267.111L266.78 126.148H266.294L267.493 122.976H268.039ZM267.257 124.889H268.263L267.769 123.552L267.257 124.889ZM269.766 124.304H271.64V124.76H269.766V124.304ZM272.196 125.727C272.824 125.125 273.679 124.515 273.679 123.986C273.679 123.634 273.455 123.384 273.137 123.384C272.892 123.384 272.647 123.561 272.536 123.814L272.136 123.638C272.308 123.243 272.725 122.967 273.137 122.967C273.726 122.967 274.135 123.389 274.135 123.986C274.135 124.644 273.421 125.228 272.841 125.727H274.186V126.127H272.239L272.196 125.727ZM275.773 123.002V126.127L275.317 126.122V123.488L274.767 123.793L274.578 123.41L275.322 123.002H275.773Z" fill="white"/>
<rect x="282.984" y="118.167" width="12.8948" height="12.8948" rx="6.44738" fill="#3E3E49"/>
<rect x="282.984" y="118.167" width="12.8948" height="12.8948" rx="6.44738" stroke="white" stroke-width="0.716375"/>
<path d="M285.949 122.976L287.127 126.148H286.641L286.323 125.284H285.021L284.69 126.148H284.204L285.404 122.976H285.949ZM285.167 124.889H286.173L285.679 123.552L285.167 124.889ZM287.676 124.304H289.55V124.76H287.676V124.304ZM290.106 125.727C290.734 125.125 291.589 124.515 291.589 123.986C291.589 123.634 291.366 123.384 291.048 123.384C290.803 123.384 290.558 123.561 290.446 123.814L290.046 123.638C290.218 123.243 290.635 122.967 291.048 122.967C291.636 122.967 292.045 123.389 292.045 123.986C292.045 124.644 291.331 125.228 290.751 125.727H292.096V126.127H290.149L290.106 125.727ZM292.583 125.727C293.21 125.125 294.066 124.515 294.066 123.986C294.066 123.634 293.842 123.384 293.524 123.384C293.279 123.384 293.034 123.561 292.922 123.814L292.523 123.638C292.694 123.243 293.111 122.967 293.524 122.967C294.113 122.967 294.521 123.389 294.521 123.986C294.521 124.644 293.808 125.228 293.227 125.727H294.573V126.127H292.626L292.583 125.727Z" fill="white"/>
<rect x="300.895" y="118.167" width="12.8948" height="12.8948" rx="6.44738" fill="#3E3E49"/>
<rect x="300.895" y="118.167" width="12.8948" height="12.8948" rx="6.44738" stroke="white" stroke-width="0.716375"/>
<path d="M303.86 122.976L305.037 126.148H304.552L304.234 125.284H302.931L302.6 126.148H302.115L303.314 122.976H303.86ZM303.077 124.889H304.083L303.589 123.552L303.077 124.889ZM305.586 124.304H307.46V124.76H305.586V124.304ZM308.016 125.727C308.644 125.125 309.499 124.515 309.499 123.986C309.499 123.634 309.276 123.384 308.958 123.384C308.713 123.384 308.468 123.561 308.356 123.814L307.956 123.638C308.128 123.243 308.545 122.967 308.958 122.967C309.547 122.967 309.955 123.389 309.955 123.986C309.955 124.644 309.241 125.228 308.661 125.727H310.006V126.127H308.059L308.016 125.727ZM312.092 124.511C312.371 124.674 312.547 124.979 312.547 125.241C312.547 125.774 312.109 126.152 311.486 126.152C310.867 126.152 310.428 125.766 310.428 125.215H310.884C310.884 125.529 311.133 125.748 311.486 125.748C311.847 125.748 312.105 125.529 312.105 125.215C312.105 124.915 311.851 124.7 311.494 124.7H311.271V124.317H311.499C311.825 124.317 312.057 124.124 312.057 123.849C312.057 123.569 311.834 123.376 311.516 123.376C311.198 123.376 310.979 123.574 310.979 123.853H310.523C310.523 123.333 310.931 122.972 311.516 122.972C312.092 122.972 312.5 123.324 312.5 123.823C312.5 124.064 312.345 124.347 312.092 124.511Z" fill="white"/>
<rect x="318.805" y="118.167" width="12.8948" height="12.8948" rx="6.44738" fill="#3E3E49"/>
<rect x="318.805" y="118.167" width="12.8948" height="12.8948" rx="6.44738" stroke="white" stroke-width="0.716375"/>
<path d="M321.27 122.976L322.448 126.148H321.962L321.644 125.284H320.341L320.01 126.148H319.525L320.724 122.976H321.27ZM320.488 124.889H321.493L320.999 123.552L320.488 124.889ZM322.996 124.304H324.87V124.76H322.996V124.304ZM325.426 125.727C326.054 125.125 326.909 124.515 326.909 123.986C326.909 123.634 326.686 123.384 326.368 123.384C326.123 123.384 325.878 123.561 325.766 123.814L325.366 123.638C325.538 123.243 325.955 122.967 326.368 122.967C326.957 122.967 327.365 123.389 327.365 123.986C327.365 124.644 326.651 125.228 326.071 125.727H327.417V126.127H325.469L325.426 125.727ZM329.683 122.998V124.923H330.078V125.319H329.683V126.127H329.227V125.319H327.882L327.839 124.923L329.248 122.998H329.683ZM328.38 124.923H329.227V123.758L328.38 124.923Z" fill="white"/>
<rect x="336.715" y="118.167" width="12.8948" height="12.8948" rx="6.44738" fill="#3E3E49"/>
<rect x="336.715" y="118.167" width="12.8948" height="12.8948" rx="6.44738" stroke="white" stroke-width="0.716375"/>
<path d="M339.68 122.976L340.858 126.148H340.372L340.054 125.284H338.752L338.421 126.148H337.935L339.134 122.976H339.68ZM338.898 124.889H339.903L339.409 123.552L338.898 124.889ZM341.406 124.304H343.28V124.76H341.406V124.304ZM343.837 125.727C344.464 125.125 345.32 124.515 345.32 123.986C345.32 123.634 345.096 123.384 344.778 123.384C344.533 123.384 344.288 123.561 344.176 123.814L343.776 123.638C343.948 123.243 344.365 122.967 344.778 122.967C345.367 122.967 345.775 123.389 345.775 123.986C345.775 124.644 345.062 125.228 344.481 125.727H345.827V126.127H343.88L343.837 125.727ZM346.829 124.725L346.373 124.67L346.481 122.998H348.153V123.397H346.919L346.868 124.162C347.01 124.098 347.169 124.059 347.31 124.059C347.955 124.059 348.411 124.493 348.411 125.108C348.411 125.731 347.955 126.17 347.31 126.17C346.803 126.17 346.365 125.83 346.253 125.349L346.696 125.246C346.76 125.534 347.014 125.74 347.31 125.74C347.689 125.74 347.955 125.478 347.955 125.108C347.955 124.747 347.689 124.489 347.31 124.489C347.151 124.489 346.954 124.588 346.829 124.725Z" fill="white"/>
<rect x="265.074" y="143.238" width="12.8948" height="12.8948" rx="6.44738" fill="#3E3E49"/>
<rect x="265.074" y="143.238" width="12.8948" height="12.8948" rx="6.44738" stroke="white" stroke-width="0.716375"/>
<path d="M268.039 148.047L269.217 151.219H268.731L268.413 150.355H267.111L266.78 151.219H266.294L267.493 148.047H268.039ZM267.257 149.96H268.263L267.769 148.623L267.257 149.96ZM269.766 149.375H271.64V149.831H269.766V149.375ZM272.196 150.798C272.824 150.196 273.679 149.586 273.679 149.057C273.679 148.705 273.455 148.456 273.137 148.456C272.892 148.456 272.647 148.632 272.536 148.885L272.136 148.709C272.308 148.314 272.725 148.039 273.137 148.039C273.726 148.039 274.135 148.46 274.135 149.057C274.135 149.715 273.421 150.3 272.841 150.798H274.186V151.198H272.239L272.196 150.798ZM275.687 150.828C276.057 150.828 276.319 150.562 276.319 150.188C276.319 149.805 276.057 149.539 275.687 149.539C275.322 149.539 275.064 149.805 275.064 150.188C275.064 150.562 275.322 150.828 275.687 150.828ZM274.608 150.188C274.608 149.96 274.69 149.758 274.78 149.59L275.64 148.06H276.164L275.541 149.156C275.592 149.148 275.644 149.139 275.7 149.139C276.332 149.143 276.774 149.573 276.774 150.188C276.774 150.798 276.327 151.228 275.691 151.228C275.055 151.228 274.608 150.798 274.608 150.188Z" fill="white"/>
<rect x="282.984" y="143.238" width="12.8948" height="12.8948" rx="6.44738" fill="#3E3E49"/>
<rect x="282.984" y="143.238" width="12.8948" height="12.8948" rx="6.44738" stroke="white" stroke-width="0.716375"/>
<path d="M285.949 148.047L287.127 151.219H286.641L286.323 150.355H285.021L284.69 151.219H284.204L285.404 148.047H285.949ZM285.167 149.96H286.173L285.679 148.623L285.167 149.96ZM287.676 149.375H289.55V149.831H287.676V149.375ZM290.106 150.798C290.734 150.196 291.589 149.586 291.589 149.057C291.589 148.705 291.366 148.456 291.048 148.456C290.803 148.456 290.558 148.632 290.446 148.885L290.046 148.709C290.218 148.314 290.635 148.039 291.048 148.039C291.636 148.039 292.045 148.46 292.045 149.057C292.045 149.715 291.331 150.3 290.751 150.798H292.096V151.198H290.149L290.106 150.798ZM293.296 151.207H292.798L294.023 148.456L292.587 148.46V148.056H294.478L294.521 148.456L293.296 151.207Z" fill="white"/>
<rect x="300.895" y="143.238" width="12.8948" height="12.8948" rx="6.44738" fill="#3E3E49"/>
<rect x="300.895" y="143.238" width="12.8948" height="12.8948" rx="6.44738" stroke="white" stroke-width="0.716375"/>
<path d="M303.86 148.047L305.037 151.219H304.552L304.234 150.355H302.931L302.6 151.219H302.115L303.314 148.047H303.86ZM303.077 149.96H304.083L303.589 148.623L303.077 149.96ZM305.586 149.375H307.46V149.831H305.586V149.375ZM308.016 150.798C308.644 150.196 309.499 149.586 309.499 149.057C309.499 148.705 309.276 148.456 308.958 148.456C308.713 148.456 308.468 148.632 308.356 148.885L307.956 148.709C308.128 148.314 308.545 148.039 308.958 148.039C309.547 148.039 309.955 148.46 309.955 149.057C309.955 149.715 309.241 150.3 308.661 150.798H310.006V151.198H308.059L308.016 150.798ZM311.494 150.858C311.851 150.858 312.1 150.631 312.1 150.304C312.1 149.977 311.851 149.745 311.494 149.745C311.138 149.745 310.884 149.977 310.884 150.304C310.884 150.631 311.138 150.858 311.494 150.858ZM310.428 150.313C310.428 150.037 310.643 149.719 310.944 149.552C310.695 149.38 310.514 149.1 310.514 148.877C310.514 148.37 310.918 148.017 311.494 148.017C312.07 148.017 312.474 148.37 312.474 148.877C312.474 149.105 312.298 149.384 312.045 149.552C312.345 149.724 312.56 150.037 312.56 150.313C312.56 150.863 312.122 151.25 311.494 151.25C310.871 151.25 310.428 150.863 310.428 150.313ZM310.974 148.877C310.974 149.156 311.189 149.354 311.494 149.354C311.804 149.354 312.019 149.156 312.019 148.877C312.019 148.598 311.804 148.404 311.494 148.404C311.189 148.404 310.974 148.598 310.974 148.877Z" fill="white"/>
<rect x="318.805" y="143.238" width="12.8948" height="12.8948" rx="6.44738" fill="#3E3E49"/>
<rect x="318.805" y="143.238" width="12.8948" height="12.8948" rx="6.44738" stroke="white" stroke-width="0.716375"/>
<path d="M321.77 148.047L322.948 151.219H322.462L322.144 150.355H320.841L320.51 151.219H320.025L321.224 148.047H321.77ZM320.988 149.96H321.993L321.499 148.623L320.988 149.96ZM323.496 149.375H325.37V149.831H323.496V149.375ZM325.926 150.798C326.554 150.196 327.409 149.586 327.409 149.057C327.409 148.705 327.186 148.456 326.868 148.456C326.623 148.456 326.378 148.632 326.266 148.885L325.866 148.709C326.038 148.314 326.455 148.039 326.868 148.039C327.457 148.039 327.865 148.46 327.865 149.057C327.865 149.715 327.151 150.3 326.571 150.798H327.917V151.198H325.969L325.926 150.798ZM329.426 148.434C329.056 148.434 328.794 148.701 328.794 149.079C328.794 149.457 329.056 149.724 329.426 149.724C329.791 149.724 330.049 149.457 330.049 149.079C330.049 148.701 329.791 148.434 329.426 148.434ZM328.339 149.079C328.339 148.464 328.786 148.034 329.422 148.034C330.058 148.034 330.505 148.464 330.505 149.079C330.505 149.302 330.423 149.509 330.333 149.672L329.473 151.202H328.949L329.572 150.106C329.521 150.115 329.469 150.123 329.413 150.123C328.781 150.119 328.339 149.689 328.339 149.079Z" fill="white"/>
<rect x="336.719" y="143.238" width="12.8948" height="12.8948" rx="6.44738" fill="#3E3E49"/>
<rect x="336.719" y="143.238" width="12.8948" height="12.8948" rx="6.44738" stroke="white" stroke-width="0.716375"/>
<path d="M339.184 148.047L340.362 151.219H339.876L339.558 150.355H338.255L337.924 151.219H337.439L338.638 148.047H339.184ZM338.402 149.96H339.407L338.913 148.623L338.402 149.96ZM340.91 149.375H342.784V149.831H340.91V149.375ZM344.94 149.582C345.219 149.745 345.395 150.05 345.395 150.313C345.395 150.845 344.957 151.224 344.333 151.224C343.715 151.224 343.276 150.837 343.276 150.287H343.732C343.732 150.6 343.981 150.82 344.333 150.82C344.695 150.82 344.952 150.6 344.952 150.287C344.952 149.986 344.699 149.771 344.342 149.771H344.119V149.388H344.346C344.673 149.388 344.905 149.195 344.905 148.92C344.905 148.64 344.682 148.447 344.364 148.447C344.045 148.447 343.826 148.645 343.826 148.924H343.371C343.371 148.404 343.779 148.043 344.364 148.043C344.94 148.043 345.348 148.395 345.348 148.894C345.348 149.135 345.193 149.418 344.94 149.582ZM346.989 150.824C347.419 150.824 347.707 150.343 347.707 149.633C347.707 148.92 347.419 148.438 346.989 148.438C346.559 148.438 346.267 148.92 346.267 149.633C346.267 150.343 346.559 150.824 346.989 150.824ZM345.811 149.633C345.811 148.696 346.297 148.039 346.989 148.039C347.677 148.039 348.162 148.696 348.162 149.633C348.162 150.566 347.677 151.228 346.989 151.228C346.297 151.228 345.811 150.566 345.811 149.633Z" fill="white"/>
<path d="M154.745 97.8647C153.954 97.8647 153.312 97.2233 153.312 96.432L153.312 77.861C153.312 77.0697 153.954 76.4283 154.745 76.4283L155.223 76.4283L159.044 76.4283C159.835 76.4283 160.477 77.0697 160.477 77.861L160.477 96.432C160.477 97.2233 159.835 97.8647 159.044 97.8647L155.223 97.8647L154.745 97.8647Z" fill="#3E3E49"/>
<path d="M155.223 76.4283L154.745 76.4283C153.954 76.4283 153.312 77.0697 153.312 77.861L153.312 96.432C153.312 97.2233 153.954 97.8647 154.745 97.8647L155.223 97.8647M155.223 76.4283L159.044 76.4283C159.835 76.4283 160.477 77.0697 160.477 77.861L160.477 96.432C160.477 97.2233 159.835 97.8647 159.044 97.8647L155.223 97.8647M155.223 76.4283L155.223 97.8647" stroke="#797986" stroke-width="0.716375"/>
<path d="M270.089 97.8647C269.298 97.8647 268.656 97.2233 268.656 96.432L268.656 77.861C268.656 77.0697 269.298 76.4283 270.089 76.4283L270.567 76.4283L274.388 76.4283C275.179 76.4283 275.82 77.0697 275.82 77.861L275.82 96.432C275.82 97.2233 275.179 97.8647 274.388 97.8647L270.567 97.8647L270.089 97.8647Z" fill="#3E3E49"/>
<path d="M270.567 76.4283L270.089 76.4283C269.298 76.4283 268.656 77.0697 268.656 77.861L268.656 96.432C268.656 97.2233 269.298 97.8647 270.089 97.8647L270.567 97.8647M270.567 76.4283L274.388 76.4283C275.179 76.4283 275.82 77.0697 275.82 77.861L275.82 96.432C275.82 97.2233 275.179 97.8647 274.388 97.8647L270.567 97.8647M270.567 76.4283L270.567 97.8647" stroke="#797986" stroke-width="0.716375"/>
<path d="M182.687 97.8647C181.895 97.8647 181.254 97.2233 181.254 96.432L181.254 77.861C181.254 77.0697 181.895 76.4283 182.687 76.4283L183.164 76.4283L186.985 76.4283C187.777 76.4283 188.418 77.0697 188.418 77.861L188.418 96.432C188.418 97.2233 187.777 97.8647 186.985 97.8647L183.164 97.8647L182.687 97.8647Z" fill="#3E3E49"/>
<path d="M183.164 76.4283L182.687 76.4283C181.895 76.4283 181.254 77.0697 181.254 77.861L181.254 96.432C181.254 97.2233 181.895 97.8647 182.687 97.8647L183.164 97.8647M183.164 76.4283L186.985 76.4283C187.777 76.4283 188.418 77.0697 188.418 77.861L188.418 96.432C188.418 97.2233 187.777 97.8647 186.985 97.8647L183.164 97.8647M183.164 76.4283L183.164 97.8647" stroke="#797986" stroke-width="0.716375"/>
<path d="M298.03 97.8647C297.239 97.8647 296.598 97.2233 296.598 96.432L296.598 77.861C296.598 77.0697 297.239 76.4283 298.03 76.4283L298.508 76.4283L302.329 76.4283C303.12 76.4283 303.762 77.0697 303.762 77.861L303.762 96.432C303.762 97.2233 303.12 97.8647 302.329 97.8647L298.508 97.8647L298.03 97.8647Z" fill="#3E3E49"/>
<path d="M298.508 76.4283L298.03 76.4283C297.239 76.4283 296.598 77.0697 296.598 77.861L296.598 96.432C296.598 97.2233 297.239 97.8647 298.03 97.8647L298.508 97.8647M298.508 76.4283L302.329 76.4283C303.12 76.4283 303.762 77.0697 303.762 77.861L303.762 96.432C303.762 97.2233 303.12 97.8647 302.329 97.8647L298.508 97.8647M298.508 76.4283L298.508 97.8647" stroke="#797986" stroke-width="0.716375"/>
<path d="M210.628 97.8647C209.837 97.8647 209.195 97.2233 209.195 96.432L209.195 77.861C209.195 77.0697 209.837 76.4283 210.628 76.4283L211.106 76.4283L214.927 76.4283C215.718 76.4283 216.359 77.0697 216.359 77.861L216.359 96.432C216.359 97.2233 215.718 97.8647 214.927 97.8647L211.106 97.8647L210.628 97.8647Z" fill="#3E3E49"/>
<path d="M211.106 76.4283L210.628 76.4283C209.837 76.4283 209.195 77.0697 209.195 77.861L209.195 96.432C209.195 97.2233 209.837 97.8647 210.628 97.8647L211.106 97.8647M211.106 76.4283L214.927 76.4283C215.718 76.4283 216.359 77.0697 216.359 77.861L216.359 96.432C216.359 97.2233 215.718 97.8647 214.927 97.8647L211.106 97.8647M211.106 76.4283L211.106 97.8647" stroke="#797986" stroke-width="0.716375"/>
<path d="M325.972 97.8647C325.181 97.8647 324.539 97.2233 324.539 96.432L324.539 77.861C324.539 77.0697 325.181 76.4283 325.972 76.4283L326.45 76.4283L330.27 76.4283C331.062 76.4283 331.703 77.0697 331.703 77.861L331.703 96.432C331.703 97.2233 331.062 97.8647 330.27 97.8647L326.45 97.8647L325.972 97.8647Z" fill="#3E3E49"/>
<path d="M326.45 76.4283L325.972 76.4283C325.181 76.4283 324.539 77.0697 324.539 77.861L324.539 96.432C324.539 97.2233 325.181 97.8647 325.972 97.8647L326.45 97.8647M326.45 76.4283L330.27 76.4283C331.062 76.4283 331.703 77.0697 331.703 77.861L331.703 96.432C331.703 97.2233 331.062 97.8647 330.27 97.8647L326.45 97.8647M326.45 76.4283L326.45 97.8647" stroke="#797986" stroke-width="0.716375"/>
<path d="M176.954 97.8647C177.745 97.8647 178.387 97.2233 178.387 96.432L178.387 77.861C178.387 77.0697 177.745 76.4283 176.954 76.4283L176.476 76.4283L172.655 76.4283C171.864 76.4283 171.223 77.0697 171.223 77.861L171.223 96.432C171.223 97.2233 171.864 97.8647 172.655 97.8647L176.476 97.8647L176.954 97.8647Z" fill="#3E3E49"/>
<path d="M176.476 76.4283L176.954 76.4283C177.745 76.4283 178.387 77.0697 178.387 77.861L178.387 96.432C178.387 97.2233 177.745 97.8647 176.954 97.8647L176.476 97.8647M176.476 76.4283L172.655 76.4283C171.864 76.4283 171.223 77.0697 171.223 77.861L171.223 96.432C171.223 97.2233 171.864 97.8647 172.655 97.8647L176.476 97.8647M176.476 76.4283L176.476 97.8647" stroke="#797986" stroke-width="0.716375"/>
<path d="M292.298 97.8647C293.089 97.8647 293.73 97.2233 293.73 96.432L293.73 77.861C293.73 77.0697 293.089 76.4283 292.298 76.4283L291.82 76.4283L287.999 76.4283C287.208 76.4283 286.566 77.0697 286.566 77.861L286.566 96.432C286.566 97.2233 287.208 97.8647 287.999 97.8647L291.82 97.8647L292.298 97.8647Z" fill="#3E3E49"/>
<path d="M291.82 76.4283L292.298 76.4283C293.089 76.4283 293.73 77.0697 293.73 77.861L293.73 96.432C293.73 97.2233 293.089 97.8647 292.298 97.8647L291.82 97.8647M291.82 76.4283L287.999 76.4283C287.208 76.4283 286.566 77.0697 286.566 77.861L286.566 96.432C286.566 97.2233 287.208 97.8647 287.999 97.8647L291.82 97.8647M291.82 76.4283L291.82 97.8647" stroke="#797986" stroke-width="0.716375"/>
<path d="M204.895 97.8647C205.687 97.8647 206.328 97.2233 206.328 96.432L206.328 77.861C206.328 77.0697 205.687 76.4283 204.895 76.4283L204.418 76.4283L200.597 76.4283C199.805 76.4283 199.164 77.0697 199.164 77.861L199.164 96.432C199.164 97.2233 199.805 97.8647 200.597 97.8647L204.418 97.8647L204.895 97.8647Z" fill="#3E3E49"/>
<path d="M204.418 76.4283L204.895 76.4283C205.687 76.4283 206.328 77.0697 206.328 77.861L206.328 96.432C206.328 97.2233 205.687 97.8647 204.895 97.8647L204.418 97.8647M204.418 76.4283L200.597 76.4283C199.805 76.4283 199.164 77.0697 199.164 77.861L199.164 96.432C199.164 97.2233 199.805 97.8647 200.597 97.8647L204.418 97.8647M204.418 76.4283L204.418 97.8647" stroke="#797986" stroke-width="0.716375"/>
<path d="M320.239 97.8647C321.03 97.8647 321.672 97.2233 321.672 96.432L321.672 77.861C321.672 77.0697 321.03 76.4283 320.239 76.4283L319.761 76.4283L315.94 76.4283C315.149 76.4283 314.508 77.0697 314.508 77.861L314.508 96.432C314.508 97.2233 315.149 97.8647 315.94 97.8647L319.761 97.8647L320.239 97.8647Z" fill="#3E3E49"/>
<path d="M319.761 76.4283L320.239 76.4283C321.03 76.4283 321.672 77.0697 321.672 77.861L321.672 96.432C321.672 97.2233 321.03 97.8647 320.239 97.8647L319.761 97.8647M319.761 76.4283L315.94 76.4283C315.149 76.4283 314.508 77.0697 314.508 77.861L314.508 96.432C314.508 97.2233 315.149 97.8647 315.94 97.8647L319.761 97.8647M319.761 76.4283L319.761 97.8647" stroke="#797986" stroke-width="0.716375"/>
<path d="M232.837 97.8647C233.628 97.8647 234.27 97.2233 234.27 96.432L234.27 77.861C234.27 77.0697 233.628 76.4283 232.837 76.4283L232.359 76.4283L228.538 76.4283C227.747 76.4283 227.105 77.0697 227.105 77.861L227.105 96.432C227.105 97.2233 227.747 97.8647 228.538 97.8647L232.359 97.8647L232.837 97.8647Z" fill="#3E3E49"/>
<path d="M232.359 76.4283L232.837 76.4283C233.628 76.4283 234.27 77.0697 234.27 77.861L234.27 96.432C234.27 97.2233 233.628 97.8647 232.837 97.8647L232.359 97.8647M232.359 76.4283L228.538 76.4283C227.747 76.4283 227.105 77.0697 227.105 77.861L227.105 96.432C227.105 97.2233 227.747 97.8647 228.538 97.8647L232.359 97.8647M232.359 76.4283L232.359 97.8647" stroke="#797986" stroke-width="0.716375"/>
<path d="M349.61 97.8647C350.402 97.8647 351.043 97.2233 351.043 96.432L351.043 77.861C351.043 77.0697 350.402 76.4283 349.61 76.4283L349.133 76.4283L345.312 76.4283C344.52 76.4283 343.879 77.0697 343.879 77.861L343.879 96.432C343.879 97.2233 344.52 97.8647 345.312 97.8647L349.133 97.8647L349.61 97.8647Z" fill="#3E3E49"/>
<path d="M349.133 76.4283L349.61 76.4283C350.402 76.4283 351.043 77.0697 351.043 77.861L351.043 96.432C351.043 97.2233 350.402 97.8647 349.61 97.8647L349.133 97.8647M349.133 76.4283L345.312 76.4283C344.52 76.4283 343.879 77.0697 343.879 77.861L343.879 96.432C343.879 97.2233 344.52 97.8647 345.312 97.8647L349.133 97.8647M349.133 76.4283L349.133 97.8647" stroke="#797986" stroke-width="0.716375"/>
<rect x="161.91" y="78.0522" width="7.8806" height="18.6247" rx="1.43275" fill="#3E3E49" stroke="#797986" stroke-width="0.716375"/>
<rect x="277.254" y="78.0522" width="7.8806" height="18.6247" rx="1.43275" fill="#3E3E49" stroke="#797986" stroke-width="0.716375"/>
<rect x="189.852" y="78.0522" width="7.8806" height="18.6247" rx="1.43275" fill="#3E3E49" stroke="#797986" stroke-width="0.716375"/>
<rect x="305.195" y="78.0522" width="7.8806" height="18.6247" rx="1.43275" fill="#3E3E49" stroke="#797986" stroke-width="0.716375"/>
<rect x="217.789" y="78.0522" width="7.8806" height="18.6247" rx="1.43275" fill="#3E3E49" stroke="#797986" stroke-width="0.716375"/>
<rect x="334.566" y="78.0522" width="7.8806" height="18.6247" rx="1.43275" fill="#3E3E49" stroke="#797986" stroke-width="0.716375"/>
<rect x="330.27" y="35.0718" width="13.6119" height="13.6103" rx="6.80516" fill="#3E3E49" stroke="#797986" stroke-width="0.716375"/>
<path d="M263.076 35.8351C262.596 35.5586 262.432 34.9457 262.71 34.4662L265.216 30.1365C265.493 29.657 266.108 29.4924 266.588 29.7689L267.456 30.269L271.366 32.5201C271.846 32.7966 272.01 33.4095 271.732 33.889L269.226 38.2187C268.949 38.6982 268.334 38.8628 267.854 38.5863L263.945 36.3351L263.076 35.8351Z" fill="#3E3E49"/>
<path d="M267.456 30.269L266.588 29.7689C266.108 29.4924 265.493 29.657 265.216 30.1365L262.71 34.4662C262.432 34.9457 262.596 35.5586 263.076 35.8351L263.945 36.3351M267.456 30.269L271.366 32.5201C271.846 32.7966 272.01 33.4095 271.732 33.889L269.226 38.2187C268.949 38.6982 268.334 38.8628 267.854 38.5863L263.945 36.3351M267.456 30.269L263.945 36.3351" stroke="#797986" stroke-width="0.716375"/>
<path d="M306.798 46.3349C307.076 46.8144 306.912 47.4273 306.431 47.7038L302.088 50.2048C301.608 50.4813 300.994 50.3167 300.716 49.8372L300.215 48.9722L297.959 45.0742C297.681 44.5947 297.846 43.9818 298.326 43.7053L302.669 41.2043C303.149 40.9278 303.764 41.0924 304.041 41.5719L306.298 45.4699L306.798 46.3349Z" fill="#3E3E49"/>
<path d="M300.215 48.9722L300.716 49.8372C300.994 50.3167 301.608 50.4813 302.088 50.2048L306.431 47.7038C306.912 47.4273 307.076 46.8144 306.798 46.3349L306.298 45.4699M300.215 48.9722L297.959 45.0742C297.681 44.5947 297.846 43.9818 298.326 43.7053L302.669 41.2043C303.149 40.9278 303.764 41.0924 304.041 41.5719L306.298 45.4699M300.215 48.9722L306.298 45.4699" stroke="#797986" stroke-width="0.716375"/>
<path d="M270.894 50.3267C270.502 50.718 269.866 50.718 269.473 50.3267L265.928 46.7906C265.536 46.3993 265.536 45.765 265.928 45.3737L266.636 44.667L269.828 41.4838C270.22 41.0925 270.856 41.0925 271.249 41.4838L274.794 45.0199C275.186 45.4112 275.186 46.0455 274.794 46.4368L271.602 49.62L270.894 50.3267Z" fill="#3E3E49"/>
<path d="M266.636 44.667L265.928 45.3737C265.536 45.765 265.536 46.3993 265.928 46.7906L269.473 50.3267C269.866 50.718 270.502 50.718 270.894 50.3267L271.602 49.62M266.636 44.667L269.828 41.4838C270.22 41.0925 270.856 41.0925 271.249 41.4838L274.794 45.0199C275.186 45.4112 275.186 46.0455 274.794 46.4368L271.602 49.62M266.636 44.667L271.602 49.62" stroke="#797986" stroke-width="0.716375"/>
<path d="M285.049 29.7687C285.529 29.4922 286.143 29.6568 286.421 30.1363L288.927 34.466C289.204 34.9455 289.04 35.5584 288.56 35.8349L287.692 36.3349L283.782 38.5861C283.302 38.8626 282.688 38.698 282.41 38.2185L279.904 33.8888C279.627 33.4093 279.791 32.7964 280.271 32.5199L284.18 30.2687L285.049 29.7687Z" fill="#3E3E49"/>
<path d="M287.692 36.3349L288.56 35.8349C289.04 35.5584 289.204 34.9455 288.927 34.466L286.421 30.1363C286.143 29.6568 285.529 29.4922 285.049 29.7687L284.18 30.2687M287.692 36.3349L283.782 38.5861C283.302 38.8626 282.688 38.698 282.41 38.2185L279.904 33.8888C279.627 33.4093 279.791 32.7964 280.271 32.5199L284.18 30.2687M287.692 36.3349L284.18 30.2687" stroke="#797986" stroke-width="0.716375"/>
<path d="M308.773 30.9563C309.308 30.8132 309.859 31.131 310.002 31.6661L311.3 36.4943C311.443 37.0294 311.126 37.5792 310.591 37.7222L309.622 37.9812L305.261 39.1466C304.726 39.2897 304.175 38.9719 304.031 38.4368L302.734 33.6086C302.591 33.0735 302.908 32.5237 303.443 32.3807L307.804 31.2152L308.773 30.9563Z" fill="#3E3E49"/>
<path d="M309.622 37.9812L310.591 37.7222C311.126 37.5792 311.443 37.0294 311.3 36.4943L310.002 31.6661C309.859 31.131 309.308 30.8132 308.773 30.9563L307.804 31.2152M309.622 37.9812L305.261 39.1466C304.726 39.2897 304.175 38.9719 304.031 38.4368L302.734 33.6086C302.591 33.0735 302.908 32.5237 303.443 32.3807L307.804 31.2152M309.622 37.9812L307.804 31.2152" stroke="#797986" stroke-width="0.716375"/>
<path d="M345.883 27.8325C346.276 27.4412 346.912 27.4412 347.304 27.8325L350.849 31.3686C351.242 31.7598 351.242 32.3942 350.849 32.7855L350.141 33.4922L346.949 36.6754C346.557 37.0666 345.921 37.0666 345.529 36.6754L341.983 33.1393C341.591 32.748 341.591 32.1136 341.983 31.7224L345.175 28.5392L345.883 27.8325Z" fill="#3E3E49"/>
<path d="M350.141 33.4922L350.849 32.7855C351.242 32.3942 351.242 31.7598 350.849 31.3686L347.304 27.8325C346.912 27.4412 346.276 27.4412 345.883 27.8325L345.175 28.5392M350.141 33.4922L346.949 36.6754C346.557 37.0666 345.921 37.0666 345.529 36.6754L341.983 33.1393C341.591 32.748 341.591 32.1136 341.983 31.7224L345.175 28.5392M350.141 33.4922L345.175 28.5392" stroke="#797986" stroke-width="0.716375"/>
<path d="M345.883 55.5098C346.276 55.9011 346.912 55.9011 347.304 55.5098L350.849 51.9737C351.242 51.5824 351.242 50.9481 350.849 50.5568L350.141 49.8501L346.949 46.6669C346.557 46.2756 345.921 46.2756 345.529 46.6669L341.983 50.203C341.591 50.5943 341.591 51.2287 341.983 51.6199L345.175 54.8031L345.883 55.5098Z" fill="#3E3E49"/>
<path d="M350.141 49.8501L350.849 50.5568C351.242 50.9481 351.242 51.5824 350.849 51.9737L347.304 55.5098C346.912 55.9011 346.276 55.9011 345.883 55.5098L345.175 54.8031M350.141 49.8501L346.949 46.6669C346.557 46.2756 345.921 46.2756 345.529 46.6669L341.983 50.203C341.591 50.5943 341.591 51.2287 341.983 51.6199L345.175 54.8031M350.141 49.8501L345.175 54.8031" stroke="#797986" stroke-width="0.716375"/>
<path d="M328.066 27.8325C327.673 27.4412 327.037 27.4412 326.645 27.8325L323.1 31.3686C322.708 31.7598 322.708 32.3942 323.1 32.7855L323.808 33.4922L327 36.6754C327.392 37.0666 328.028 37.0666 328.42 36.6754L331.966 33.1393C332.358 32.748 332.358 32.1136 331.966 31.7224L328.774 28.5392L328.066 27.8325Z" fill="#3E3E49"/>
<path d="M323.808 33.4922L323.1 32.7855C322.708 32.3942 322.708 31.7598 323.1 31.3686L326.645 27.8325C327.037 27.4412 327.673 27.4412 328.066 27.8325L328.774 28.5392M323.808 33.4922L327 36.6754C327.392 37.0666 328.028 37.0666 328.42 36.6754L331.966 33.1393C332.358 32.748 332.358 32.1136 331.966 31.7224L328.774 28.5392M323.808 33.4922L328.774 28.5392" stroke="#797986" stroke-width="0.716375"/>
<path d="M328.066 55.5098C327.673 55.9011 327.037 55.9011 326.645 55.5098L323.1 51.9737C322.708 51.5824 322.708 50.9481 323.1 50.5568L323.808 49.8501L327 46.6669C327.392 46.2756 328.028 46.2756 328.42 46.6669L331.966 50.203C332.358 50.5943 332.358 51.2287 331.966 51.6199L328.774 54.8031L328.066 55.5098Z" fill="#3E3E49"/>
<path d="M323.808 49.8501L323.1 50.5568C322.708 50.9481 322.708 51.5824 323.1 51.9737L326.645 55.5098C327.037 55.9011 327.673 55.9011 328.066 55.5098L328.774 54.8031M323.808 49.8501L327 46.6669C327.392 46.2756 328.028 46.2756 328.42 46.6669L331.966 50.203C332.358 50.5943 332.358 51.2287 331.966 51.6199L328.774 54.8031M323.808 49.8501L328.774 54.8031" stroke="#797986" stroke-width="0.716375"/>
<rect x="273.672" y="35.7886" width="5.73134" height="5.73066" rx="2.86533" fill="#3E3E49" stroke="#797986" stroke-width="0.716375"/>
<rect x="294.449" y="32.7803" width="5.51802" height="5.73066" rx="2.75901" fill="#3E3E49" stroke="#797986" stroke-width="0.716375"/>
</g>
<defs>
<clipPath id="clip0_3397_243954">
<rect width="360" height="293" fill="white"/>
</clipPath>
</defs>
</svg>
