<svg width="360" height="293" viewBox="0 0 360 293" fill="none" xmlns="http://www.w3.org/2000/svg">
<g clip-path="url(#clip0_3968_64425)">
<rect width="360" height="293" fill="#3E3E49"/>
<rect x="298.648" y="158.824" width="16.4431" height="8.22154" rx="1.37026" transform="rotate(90 298.648 158.824)" fill="white"/>
<rect x="298.68" y="175.951" width="16.4431" height="8.22154" rx="1.37026" transform="rotate(90 298.68 175.951)" fill="white"/>
<rect x="298.66" y="193.08" width="16.4431" height="8.22154" rx="1.37026" transform="rotate(90 298.66 193.08)" fill="white"/>
<rect x="307.566" y="158.824" width="16.4431" height="8.22154" rx="1.37026" transform="rotate(90 307.566 158.824)" fill="white"/>
<rect x="307.582" y="175.951" width="16.4431" height="8.22154" rx="1.37026" transform="rotate(90 307.582 175.951)" fill="white"/>
<rect x="307.57" y="193.08" width="16.4431" height="8.22154" rx="1.37026" transform="rotate(90 307.57 193.08)" fill="white"/>
<rect x="305.84" y="160.879" width="12.3323" height="12.3323" rx="6.16615" fill="#3E3E49"/>
<rect x="305.84" y="160.879" width="12.3323" height="12.3323" rx="6.16615" stroke="white" stroke-width="0.685128"/>
<path d="M307.841 165.544H308.277V168.578H307.841V165.544ZM308.875 166.814H310.667V167.25H308.875V166.814ZM311.199 168.175C311.799 167.599 312.617 167.016 312.617 166.51C312.617 166.173 312.404 165.935 312.099 165.935C311.865 165.935 311.631 166.103 311.524 166.346L311.142 166.177C311.306 165.799 311.705 165.536 312.099 165.536C312.663 165.536 313.053 165.939 313.053 166.51C313.053 167.139 312.371 167.698 311.816 168.175H313.103V168.557H311.24L311.199 168.175ZM314.526 168.233C314.867 168.233 315.105 168.015 315.105 167.702C315.105 167.39 314.867 167.168 314.526 167.168C314.184 167.168 313.942 167.39 313.942 167.702C313.942 168.015 314.184 168.233 314.526 168.233ZM313.506 167.71C313.506 167.447 313.712 167.143 313.999 166.983C313.761 166.818 313.588 166.551 313.588 166.337C313.588 165.852 313.975 165.515 314.526 165.515C315.076 165.515 315.463 165.852 315.463 166.337C315.463 166.555 315.294 166.823 315.052 166.983C315.339 167.147 315.545 167.447 315.545 167.71C315.545 168.237 315.126 168.607 314.526 168.607C313.929 168.607 313.506 168.237 313.506 167.71ZM314.028 166.337C314.028 166.605 314.234 166.794 314.526 166.794C314.822 166.794 315.027 166.605 315.027 166.337C315.027 166.07 314.822 165.885 314.526 165.885C314.234 165.885 314.028 166.07 314.028 166.337Z" fill="white"/>
<rect x="305.84" y="178.007" width="12.3323" height="12.3323" rx="6.16615" fill="#3E3E49"/>
<rect x="305.84" y="178.007" width="12.3323" height="12.3323" rx="6.16615" stroke="white" stroke-width="0.685128"/>
<path d="M307.841 182.672H308.277V185.706H307.841V182.672ZM308.875 183.942H310.667V184.378H308.875V183.942ZM311.199 185.303C311.799 184.727 312.617 184.144 312.617 183.638C312.617 183.301 312.404 183.063 312.099 183.063C311.865 183.063 311.631 183.231 311.524 183.474L311.142 183.305C311.306 182.927 311.705 182.664 312.099 182.664C312.663 182.664 313.053 183.067 313.053 183.638C313.053 184.267 312.371 184.826 311.816 185.303H313.103V185.685H311.24L311.199 185.303ZM314.546 183.042C314.193 183.042 313.942 183.297 313.942 183.659C313.942 184.02 314.193 184.275 314.546 184.275C314.896 184.275 315.142 184.02 315.142 183.659C315.142 183.297 314.896 183.042 314.546 183.042ZM313.506 183.659C313.506 183.071 313.934 182.66 314.542 182.66C315.15 182.66 315.578 183.071 315.578 183.659C315.578 183.872 315.5 184.07 315.413 184.226L314.591 185.689H314.09L314.686 184.641C314.637 184.649 314.587 184.657 314.534 184.657C313.929 184.653 313.506 184.242 313.506 183.659Z" fill="white"/>
<rect x="305.891" y="195.135" width="12.3323" height="12.3323" rx="6.16615" fill="#3E3E49"/>
<rect x="305.891" y="195.135" width="12.3323" height="12.3323" rx="6.16615" stroke="white" stroke-width="0.685128"/>
<path d="M307.892 199.8H308.327V202.834H307.892V199.8ZM308.926 201.07H310.718V201.506H308.926V201.07ZM312.779 201.267C313.046 201.424 313.215 201.716 313.215 201.966C313.215 202.476 312.796 202.838 312.2 202.838C311.608 202.838 311.188 202.468 311.188 201.942H311.624C311.624 202.242 311.863 202.451 312.2 202.451C312.545 202.451 312.792 202.242 312.792 201.942C312.792 201.654 312.549 201.448 312.208 201.448H311.994V201.082H312.212C312.524 201.082 312.746 200.897 312.746 200.634C312.746 200.367 312.533 200.182 312.228 200.182C311.924 200.182 311.715 200.371 311.715 200.639H311.279C311.279 200.141 311.669 199.796 312.228 199.796C312.779 199.796 313.17 200.133 313.17 200.61C313.17 200.84 313.022 201.111 312.779 201.267ZM314.739 202.455C315.15 202.455 315.426 201.995 315.426 201.317C315.426 200.634 315.15 200.174 314.739 200.174C314.328 200.174 314.049 200.634 314.049 201.317C314.049 201.995 314.328 202.455 314.739 202.455ZM313.613 201.317C313.613 200.421 314.077 199.792 314.739 199.792C315.397 199.792 315.862 200.421 315.862 201.317C315.862 202.209 315.397 202.842 314.739 202.842C314.077 202.842 313.613 202.209 313.613 201.317Z" fill="white"/>
<rect x="281.855" y="160.879" width="12.3323" height="12.3323" rx="6.16615" fill="#3E3E49"/>
<rect x="281.855" y="160.879" width="12.3323" height="12.3323" rx="6.16615" stroke="white" stroke-width="0.685128"/>
<path d="M283.856 165.544H284.292V168.578H283.856V165.544ZM284.891 166.814H286.683V167.25H284.891V166.814ZM287.215 168.175C287.815 167.599 288.633 167.016 288.633 166.51C288.633 166.173 288.419 165.935 288.115 165.935C287.881 165.935 287.646 166.103 287.54 166.346L287.157 166.177C287.322 165.799 287.72 165.536 288.115 165.536C288.678 165.536 289.069 165.939 289.069 166.51C289.069 167.139 288.386 167.698 287.831 168.175H289.118V168.557H287.256L287.215 168.175ZM290.077 167.217L289.641 167.164L289.744 165.565H291.343V165.947H290.163L290.114 166.679C290.249 166.617 290.401 166.58 290.537 166.58C291.154 166.58 291.589 166.995 291.589 167.583C291.589 168.179 291.154 168.598 290.537 168.598C290.052 168.598 289.633 168.274 289.526 167.813L289.949 167.715C290.011 167.99 290.253 168.187 290.537 168.187C290.899 168.187 291.154 167.937 291.154 167.583C291.154 167.238 290.899 166.991 290.537 166.991C290.385 166.991 290.196 167.086 290.077 167.217Z" fill="white"/>
<rect x="281.855" y="178.01" width="12.3323" height="12.3323" rx="6.16615" fill="#3E3E49"/>
<rect x="281.855" y="178.01" width="12.3323" height="12.3323" rx="6.16615" stroke="white" stroke-width="0.685128"/>
<path d="M283.856 182.675H284.292V185.709H283.856V182.675ZM284.891 183.946H286.683V184.381H284.891V183.946ZM287.215 185.306C287.815 184.731 288.633 184.147 288.633 183.641C288.633 183.304 288.419 183.066 288.115 183.066C287.881 183.066 287.646 183.234 287.54 183.477L287.157 183.308C287.322 182.93 287.72 182.667 288.115 182.667C288.678 182.667 289.069 183.07 289.069 183.641C289.069 184.27 288.386 184.829 287.831 185.306H289.118V185.689H287.256L287.215 185.306ZM290.553 185.335C290.907 185.335 291.158 185.08 291.158 184.723C291.158 184.357 290.907 184.102 290.553 184.102C290.204 184.102 289.957 184.357 289.957 184.723C289.957 185.08 290.204 185.335 290.553 185.335ZM289.522 184.723C289.522 184.505 289.6 184.311 289.686 184.151L290.508 182.688H291.01L290.414 183.736C290.463 183.728 290.512 183.72 290.566 183.72C291.17 183.724 291.594 184.135 291.594 184.723C291.594 185.306 291.166 185.717 290.558 185.717C289.949 185.717 289.522 185.306 289.522 184.723Z" fill="white"/>
<rect x="281.855" y="195.135" width="12.3323" height="12.3323" rx="6.16615" fill="#3E3E49"/>
<rect x="281.855" y="195.135" width="12.3323" height="12.3323" rx="6.16615" stroke="white" stroke-width="0.685128"/>
<path d="M283.856 199.8H284.292V202.834H283.856V199.8ZM284.891 201.07H286.683V201.506H284.891V201.07ZM287.215 202.431C287.815 201.855 288.633 201.272 288.633 200.766C288.633 200.429 288.419 200.19 288.115 200.19C287.881 200.19 287.646 200.359 287.54 200.602L287.157 200.433C287.322 200.055 287.72 199.792 288.115 199.792C288.678 199.792 289.069 200.195 289.069 200.766C289.069 201.395 288.386 201.954 287.831 202.431H289.118V202.813H287.256L287.215 202.431ZM290.266 202.821H289.789L290.96 200.19L289.587 200.195V199.808H291.396L291.437 200.19L290.266 202.821Z" fill="white"/>
<rect x="245.938" y="141.697" width="16.4431" height="8.22154" rx="1.37026" transform="rotate(90 245.938 141.697)" fill="white"/>
<rect x="245.93" y="158.824" width="16.4431" height="8.22154" rx="1.37026" transform="rotate(90 245.93 158.824)" fill="white"/>
<rect x="245.922" y="175.953" width="16.4431" height="8.22154" rx="1.37026" transform="rotate(90 245.922 175.953)" fill="white"/>
<rect x="245.984" y="192.953" width="16.4431" height="8.22154" rx="1.37026" transform="rotate(90 245.984 192.953)" fill="white"/>
<rect x="255.086" y="141.697" width="16.4431" height="8.22154" rx="1.37026" transform="rotate(90 255.086 141.697)" fill="white"/>
<rect x="254.824" y="158.824" width="16.4431" height="8.22154" rx="1.37026" transform="rotate(90 254.824 158.824)" fill="white"/>
<rect x="254.859" y="175.953" width="16.4431" height="8.22154" rx="1.37026" transform="rotate(90 254.859 175.953)" fill="white"/>
<rect x="254.828" y="193.08" width="16.4431" height="8.22154" rx="1.37026" transform="rotate(90 254.828 193.08)" fill="white"/>
<rect x="253.164" y="143.752" width="12.3323" height="12.3323" rx="6.16615" fill="#3E3E49"/>
<rect x="253.164" y="143.752" width="12.3323" height="12.3323" rx="6.16615" stroke="white" stroke-width="0.685128"/>
<path d="M255.665 148.417H256.101V151.451H255.665V148.417ZM256.699 149.687H258.491V150.123H256.699V149.687ZM259.023 151.048C259.624 150.472 260.442 149.889 260.442 149.383C260.442 149.046 260.228 148.808 259.924 148.808C259.689 148.808 259.455 148.976 259.348 149.219L258.966 149.05C259.13 148.672 259.529 148.409 259.924 148.409C260.487 148.409 260.877 148.812 260.877 149.383C260.877 150.012 260.195 150.571 259.64 151.048H260.927V151.43H259.065L259.023 151.048ZM262.444 148.442V151.43L262.009 151.426V148.906L261.482 149.198L261.302 148.832L262.013 148.442H262.444Z" fill="white"/>
<rect x="253.113" y="160.88" width="12.3323" height="12.3323" rx="6.16615" fill="#3E3E49"/>
<rect x="253.113" y="160.88" width="12.3323" height="12.3323" rx="6.16615" stroke="white" stroke-width="0.685128"/>
<path d="M255.114 165.545H255.55V168.579H255.114V165.545ZM256.148 166.815H257.941V167.251H256.148V166.815ZM258.473 168.176C259.073 167.6 259.891 167.017 259.891 166.511C259.891 166.174 259.677 165.936 259.373 165.936C259.139 165.936 258.904 166.104 258.797 166.347L258.415 166.178C258.58 165.8 258.978 165.537 259.373 165.537C259.936 165.537 260.327 165.94 260.327 166.511C260.327 167.14 259.644 167.699 259.089 168.176H260.376V168.558H258.514L258.473 168.176ZM260.841 168.176C261.441 167.6 262.259 167.017 262.259 166.511C262.259 166.174 262.046 165.936 261.741 165.936C261.507 165.936 261.273 166.104 261.166 166.347L260.784 166.178C260.948 165.8 261.347 165.537 261.741 165.537C262.305 165.537 262.695 165.94 262.695 166.511C262.695 167.14 262.013 167.699 261.458 168.176H262.744V168.558H260.882L260.841 168.176Z" fill="white"/>
<rect x="253.113" y="178.008" width="12.3323" height="12.3323" rx="6.16615" fill="#3E3E49"/>
<rect x="253.113" y="178.008" width="12.3323" height="12.3323" rx="6.16615" stroke="white" stroke-width="0.685128"/>
<path d="M255.114 182.673H255.55V185.707H255.114V182.673ZM256.148 183.943H257.941V184.379H256.148V183.943ZM258.473 185.304C259.073 184.728 259.891 184.145 259.891 183.639C259.891 183.302 259.677 183.063 259.373 183.063C259.139 183.063 258.904 183.232 258.797 183.475L258.415 183.306C258.58 182.928 258.978 182.665 259.373 182.665C259.936 182.665 260.327 183.068 260.327 183.639C260.327 184.268 259.644 184.827 259.089 185.304H260.376V185.686H258.514L258.473 185.304ZM262.37 184.141C262.638 184.297 262.806 184.589 262.806 184.839C262.806 185.349 262.387 185.711 261.791 185.711C261.199 185.711 260.78 185.341 260.78 184.815H261.215C261.215 185.115 261.454 185.324 261.791 185.324C262.136 185.324 262.383 185.115 262.383 184.815C262.383 184.527 262.14 184.321 261.799 184.321H261.585V183.956H261.803C262.116 183.956 262.337 183.771 262.337 183.507C262.337 183.24 262.124 183.055 261.82 183.055C261.515 183.055 261.306 183.244 261.306 183.512H260.87C260.87 183.014 261.26 182.669 261.82 182.669C262.37 182.669 262.761 183.006 262.761 183.483C262.761 183.713 262.613 183.984 262.37 184.141Z" fill="white"/>
<rect x="253.113" y="195.136" width="12.3323" height="12.3323" rx="6.16615" fill="#3E3E49"/>
<rect x="253.113" y="195.136" width="12.3323" height="12.3323" rx="6.16615" stroke="white" stroke-width="0.685128"/>
<path d="M255.114 199.801H255.55V202.835H255.114V199.801ZM256.148 201.071H257.941V201.507H256.148V201.071ZM258.473 202.432C259.073 201.856 259.891 201.273 259.891 200.767C259.891 200.43 259.677 200.191 259.373 200.191C259.139 200.191 258.904 200.36 258.797 200.602L258.415 200.434C258.58 200.056 258.978 199.793 259.373 199.793C259.936 199.793 260.327 200.196 260.327 200.767C260.327 201.396 259.644 201.955 259.089 202.432H260.376V202.814H258.514L258.473 202.432ZM262.543 199.821V201.663H262.921V202.041H262.543V202.814H262.107V202.041H260.821L260.78 201.663L262.128 199.821H262.543ZM261.297 201.663H262.107V200.549L261.297 201.663Z" fill="white"/>
<rect x="229.129" y="143.752" width="12.3323" height="12.3323" rx="6.16615" fill="#3E3E49"/>
<rect x="229.129" y="143.752" width="12.3323" height="12.3323" rx="6.16615" stroke="white" stroke-width="0.685128"/>
<path d="M231.63 148.417H232.066V151.451H231.63V148.417ZM232.664 149.687H234.456V150.123H232.664V149.687ZM236.041 148.442V151.43L235.605 151.426V148.906L235.079 149.198L234.898 148.832L235.609 148.442H236.041ZM237.389 151.439H236.912L238.084 148.808L236.711 148.812V148.425H238.519L238.56 148.808L237.389 151.439Z" fill="white"/>
<rect x="229.129" y="160.883" width="12.3323" height="12.3323" rx="6.16615" fill="#3E3E49"/>
<rect x="229.129" y="160.883" width="12.3323" height="12.3323" rx="6.16615" stroke="white" stroke-width="0.685128"/>
<path d="M231.63 165.548H232.066V168.582H231.63V165.548ZM232.664 166.819H234.456V167.254H232.664V166.819ZM236.041 165.573V168.562L235.605 168.558V166.038L235.079 166.33L234.898 165.964L235.609 165.573H236.041ZM237.664 168.237C238.005 168.237 238.244 168.019 238.244 167.707C238.244 167.394 238.005 167.172 237.664 167.172C237.323 167.172 237.081 167.394 237.081 167.707C237.081 168.019 237.323 168.237 237.664 168.237ZM236.645 167.715C236.645 167.452 236.85 167.148 237.138 166.987C236.9 166.823 236.727 166.556 236.727 166.342C236.727 165.857 237.113 165.52 237.664 165.52C238.215 165.52 238.602 165.857 238.602 166.342C238.602 166.56 238.433 166.827 238.19 166.987C238.478 167.152 238.684 167.452 238.684 167.715C238.684 168.241 238.264 168.611 237.664 168.611C237.068 168.611 236.645 168.241 236.645 167.715ZM237.167 166.342C237.167 166.609 237.372 166.798 237.664 166.798C237.96 166.798 238.166 166.609 238.166 166.342C238.166 166.075 237.96 165.89 237.664 165.89C237.372 165.89 237.167 166.075 237.167 166.342Z" fill="white"/>
<rect x="229.129" y="178.008" width="12.3323" height="12.3323" rx="6.16615" fill="#3E3E49"/>
<rect x="229.129" y="178.008" width="12.3323" height="12.3323" rx="6.16615" stroke="white" stroke-width="0.685128"/>
<path d="M231.63 182.673H232.066V185.707H231.63V182.673ZM232.664 183.943H234.456V184.379H232.664V183.943ZM236.041 182.698V185.686L235.605 185.682V183.162L235.079 183.454L234.898 183.088L235.609 182.698H236.041ZM237.685 183.043C237.331 183.043 237.081 183.298 237.081 183.66C237.081 184.021 237.331 184.276 237.685 184.276C238.034 184.276 238.281 184.021 238.281 183.66C238.281 183.298 238.034 183.043 237.685 183.043ZM236.645 183.66C236.645 183.072 237.072 182.661 237.681 182.661C238.289 182.661 238.717 183.072 238.717 183.66C238.717 183.873 238.639 184.071 238.552 184.227L237.73 185.69H237.229L237.825 184.642C237.775 184.65 237.726 184.658 237.672 184.658C237.068 184.654 236.645 184.243 236.645 183.66Z" fill="white"/>
<rect x="229.129" y="195.136" width="12.3323" height="12.3323" rx="6.16615" fill="#3E3E49"/>
<rect x="229.129" y="195.136" width="12.3323" height="12.3323" rx="6.16615" stroke="white" stroke-width="0.685128"/>
<path d="M231.13 199.801H231.566V202.835H231.13V199.801ZM232.164 201.071H233.956V201.507H232.164V201.071ZM234.488 202.432C235.088 201.856 235.906 201.273 235.906 200.767C235.906 200.43 235.693 200.191 235.389 200.191C235.154 200.191 234.92 200.36 234.813 200.602L234.431 200.434C234.595 200.056 234.994 199.793 235.389 199.793C235.952 199.793 236.342 200.196 236.342 200.767C236.342 201.396 235.66 201.955 235.105 202.432H236.392V202.814H234.529L234.488 202.432ZM237.917 202.456C238.328 202.456 238.604 201.996 238.604 201.318C238.604 200.635 238.328 200.175 237.917 200.175C237.506 200.175 237.227 200.635 237.227 201.318C237.227 201.996 237.506 202.456 237.917 202.456ZM236.791 201.318C236.791 200.422 237.256 199.793 237.917 199.793C238.575 199.793 239.04 200.422 239.04 201.318C239.04 202.21 238.575 202.843 237.917 202.843C237.256 202.843 236.791 202.21 236.791 201.318Z" fill="white"/>
<rect x="193.156" y="141.697" width="16.4431" height="8.22154" rx="1.37026" transform="rotate(90 193.156 141.697)" fill="white"/>
<rect x="193.164" y="158.824" width="16.4431" height="8.22154" rx="1.37026" transform="rotate(90 193.164 158.824)" fill="white"/>
<rect x="193.191" y="175.953" width="16.4431" height="8.22154" rx="1.37026" transform="rotate(90 193.191 175.953)" fill="white"/>
<rect x="193.176" y="193.08" width="16.4431" height="8.22154" rx="1.37026" transform="rotate(90 193.176 193.08)" fill="white"/>
<rect x="202.055" y="141.697" width="16.4431" height="8.22154" rx="1.37026" transform="rotate(90 202.055 141.697)" fill="white"/>
<rect x="202.07" y="158.824" width="16.4431" height="8.22154" rx="1.37026" transform="rotate(90 202.07 158.824)" fill="white"/>
<rect x="202.066" y="175.953" width="16.4431" height="8.22154" rx="1.37026" transform="rotate(90 202.066 175.953)" fill="white"/>
<rect x="202.062" y="193.08" width="16.4431" height="8.22154" rx="1.37026" transform="rotate(90 202.062 193.08)" fill="white"/>
<rect x="198.484" y="143.752" width="12.3323" height="12.3323" rx="6.16615" fill="#3E3E49"/>
<rect x="198.484" y="143.752" width="12.3323" height="12.3323" rx="6.16615" stroke="white" stroke-width="0.685128"/>
<path d="M200.985 148.417H201.421V151.451H200.985V148.417ZM202.019 149.687H203.812V150.123H202.019V149.687ZM205.396 148.442V151.43L204.96 151.426V148.906L204.434 149.198L204.253 148.832L204.964 148.442H205.396ZM207.591 149.885C207.858 150.041 208.027 150.333 208.027 150.583C208.027 151.093 207.608 151.455 207.012 151.455C206.42 151.455 206 151.085 206 150.559H206.436C206.436 150.859 206.674 151.069 207.012 151.069C207.357 151.069 207.603 150.859 207.603 150.559C207.603 150.271 207.361 150.066 207.02 150.066H206.806V149.7H207.024C207.336 149.7 207.558 149.515 207.558 149.252C207.558 148.984 207.344 148.799 207.04 148.799C206.736 148.799 206.526 148.989 206.526 149.256H206.091C206.091 148.758 206.481 148.413 207.04 148.413C207.591 148.413 207.982 148.75 207.982 149.227C207.982 149.457 207.834 149.728 207.591 149.885Z" fill="white"/>
<rect x="198.434" y="160.88" width="12.3323" height="12.3323" rx="6.16615" fill="#3E3E49"/>
<rect x="198.434" y="160.88" width="12.3323" height="12.3323" rx="6.16615" stroke="white" stroke-width="0.685128"/>
<path d="M200.935 165.545H201.37V168.579H200.935V165.545ZM201.969 166.815H203.761V167.251H201.969V166.815ZM205.345 165.57V168.558L204.91 168.554V166.034L204.383 166.326L204.203 165.96L204.914 165.57H205.345ZM207.713 165.566V167.407H208.091V167.785H207.713V168.558H207.277V167.785H205.991L205.949 167.407L207.298 165.566H207.713ZM206.467 167.407H207.277V166.293L206.467 167.407Z" fill="white"/>
<rect x="198.434" y="178.008" width="12.3323" height="12.3323" rx="6.16615" fill="#3E3E49"/>
<rect x="198.434" y="178.008" width="12.3323" height="12.3323" rx="6.16615" stroke="white" stroke-width="0.685128"/>
<path d="M200.935 182.673H201.37V185.707H200.935V182.673ZM201.969 183.943H203.761V184.379H201.969V183.943ZM205.345 182.698V185.686L204.91 185.682V183.162L204.383 183.454L204.203 183.088L204.914 182.698H205.345ZM206.504 184.346L206.069 184.293L206.171 182.694H207.771V183.076H206.591L206.541 183.808C206.677 183.746 206.829 183.709 206.965 183.709C207.581 183.709 208.017 184.124 208.017 184.712C208.017 185.308 207.581 185.727 206.965 185.727C206.48 185.727 206.06 185.403 205.954 184.942L206.377 184.843C206.439 185.119 206.681 185.316 206.965 185.316C207.327 185.316 207.581 185.065 207.581 184.712C207.581 184.367 207.327 184.12 206.965 184.12C206.813 184.12 206.624 184.215 206.504 184.346Z" fill="white"/>
<rect x="198.434" y="195.136" width="12.3323" height="12.3323" rx="6.16615" fill="#3E3E49"/>
<rect x="198.434" y="195.136" width="12.3323" height="12.3323" rx="6.16615" stroke="white" stroke-width="0.685128"/>
<path d="M200.935 199.801H201.37V202.835H200.935V199.801ZM201.969 201.071H203.761V201.507H201.969V201.071ZM205.345 199.826V202.814L204.91 202.81V200.29L204.383 200.582L204.203 200.216L204.914 199.826H205.345ZM206.981 202.461C207.335 202.461 207.586 202.206 207.586 201.848C207.586 201.482 207.335 201.227 206.981 201.227C206.632 201.227 206.385 201.482 206.385 201.848C206.385 202.206 206.632 202.461 206.981 202.461ZM205.949 201.848C205.949 201.63 206.028 201.437 206.114 201.277L206.936 199.813H207.438L206.842 200.861C206.891 200.853 206.94 200.845 206.994 200.845C207.598 200.849 208.021 201.26 208.021 201.848C208.021 202.432 207.594 202.843 206.985 202.843C206.377 202.843 205.949 202.432 205.949 201.848Z" fill="white"/>
<rect x="174.449" y="143.752" width="12.3323" height="12.3323" rx="6.16615" fill="#3E3E49"/>
<rect x="174.449" y="143.752" width="12.3323" height="12.3323" rx="6.16615" stroke="white" stroke-width="0.685128"/>
<path d="M176.45 148.417H176.886V151.451H176.45V148.417ZM177.484 149.687H179.277V150.123H177.484V149.687ZM180.869 151.073C181.28 151.073 181.556 150.612 181.556 149.934C181.556 149.252 181.28 148.791 180.869 148.791C180.458 148.791 180.179 149.252 180.179 149.934C180.179 150.612 180.458 151.073 180.869 151.073ZM179.743 149.934C179.743 149.038 180.207 148.409 180.869 148.409C181.527 148.409 181.991 149.038 181.991 149.934C181.991 150.826 181.527 151.459 180.869 151.459C180.207 151.459 179.743 150.826 179.743 149.934ZM183.432 148.787C183.079 148.787 182.828 149.042 182.828 149.404C182.828 149.765 183.079 150.02 183.432 150.02C183.782 150.02 184.029 149.765 184.029 149.404C184.029 149.042 183.782 148.787 183.432 148.787ZM182.392 149.404C182.392 148.816 182.82 148.405 183.428 148.405C184.037 148.405 184.464 148.816 184.464 149.404C184.464 149.617 184.386 149.815 184.3 149.971L183.478 151.434H182.976L183.572 150.386C183.523 150.394 183.474 150.403 183.42 150.403C182.816 150.398 182.392 149.987 182.392 149.404Z" fill="white"/>
<rect x="174.449" y="160.883" width="12.3323" height="12.3323" rx="6.16615" fill="#3E3E49"/>
<rect x="174.449" y="160.883" width="12.3323" height="12.3323" rx="6.16615" stroke="white" stroke-width="0.685128"/>
<path d="M176.95 165.548H177.386V168.582H176.95V165.548ZM177.984 166.819H179.777V167.254H177.984V166.819ZM181.361 165.573V168.562L180.925 168.558V166.038L180.399 166.33L180.218 165.964L180.929 165.573H181.361ZM183.087 168.204C183.498 168.204 183.774 167.744 183.774 167.065C183.774 166.383 183.498 165.923 183.087 165.923C182.676 165.923 182.397 166.383 182.397 167.065C182.397 167.744 182.676 168.204 183.087 168.204ZM181.961 167.065C181.961 166.169 182.426 165.54 183.087 165.54C183.745 165.54 184.21 166.169 184.21 167.065C184.21 167.957 183.745 168.59 183.087 168.59C182.426 168.59 181.961 167.957 181.961 167.065Z" fill="white"/>
<rect x="174.449" y="178.008" width="12.3323" height="12.3323" rx="6.16615" fill="#3E3E49"/>
<rect x="174.449" y="178.008" width="12.3323" height="12.3323" rx="6.16615" stroke="white" stroke-width="0.685128"/>
<path d="M176.95 182.673H177.386V185.707H176.95V182.673ZM177.984 183.943H179.777V184.379H177.984V183.943ZM181.361 182.698V185.686L180.925 185.682V183.162L180.399 183.454L180.218 183.088L180.929 182.698H181.361ZM183.244 182.698V185.686L182.808 185.682V183.162L182.282 183.454L182.101 183.088L182.812 182.698H183.244Z" fill="white"/>
<rect x="174.449" y="195.136" width="12.3323" height="12.3323" rx="6.16615" fill="#3E3E49"/>
<rect x="174.449" y="195.136" width="12.3323" height="12.3323" rx="6.16615" stroke="white" stroke-width="0.685128"/>
<path d="M176.95 199.801H177.386V202.835H176.95V199.801ZM177.984 201.071H179.777V201.507H177.984V201.071ZM181.361 199.826V202.814L180.925 202.81V200.29L180.399 200.582L180.218 200.216L180.929 199.826H181.361ZM182.027 202.432C182.627 201.856 183.445 201.273 183.445 200.767C183.445 200.43 183.231 200.191 182.927 200.191C182.693 200.191 182.458 200.36 182.352 200.602L181.969 200.434C182.134 200.056 182.532 199.793 182.927 199.793C183.49 199.793 183.881 200.196 183.881 200.767C183.881 201.396 183.198 201.955 182.643 202.432H183.93V202.814H182.068L182.027 202.432Z" fill="white"/>
<rect x="140.406" y="141.697" width="16.4431" height="8.22154" rx="1.37026" transform="rotate(90 140.406 141.697)" fill="white"/>
<rect x="140.414" y="158.824" width="16.4431" height="8.22154" rx="1.37026" transform="rotate(90 140.414 158.824)" fill="white"/>
<rect x="140.418" y="175.953" width="16.4431" height="8.22154" rx="1.37026" transform="rotate(90 140.418 175.953)" fill="white"/>
<rect x="140.406" y="193.08" width="16.4431" height="8.22154" rx="1.37026" transform="rotate(90 140.406 193.08)" fill="white"/>
<rect x="149.328" y="141.697" width="16.4431" height="8.22154" rx="1.37026" transform="rotate(90 149.328 141.697)" fill="white"/>
<rect x="149.336" y="158.824" width="16.4431" height="8.22154" rx="1.37026" transform="rotate(90 149.336 158.824)" fill="white"/>
<rect x="149.336" y="175.953" width="16.4431" height="8.22154" rx="1.37026" transform="rotate(90 149.336 175.953)" fill="white"/>
<rect x="149.32" y="193.08" width="16.4431" height="8.22154" rx="1.37026" transform="rotate(90 149.32 193.08)" fill="white"/>
<rect x="147.605" y="143.752" width="12.3323" height="12.3323" rx="6.16615" fill="#3E3E49"/>
<rect x="147.605" y="143.752" width="12.3323" height="12.3323" rx="6.16615" stroke="white" stroke-width="0.685128"/>
<path d="M149.606 148.417H150.042V151.451H149.606V148.417ZM150.641 149.687H152.433V150.123H150.641V149.687ZM154.025 151.073C154.436 151.073 154.712 150.612 154.712 149.934C154.712 149.252 154.436 148.791 154.025 148.791C153.614 148.791 153.335 149.252 153.335 149.934C153.335 150.612 153.614 151.073 154.025 151.073ZM152.899 149.934C152.899 149.038 153.364 148.409 154.025 148.409C154.683 148.409 155.148 149.038 155.148 149.934C155.148 150.826 154.683 151.459 154.025 151.459C153.364 151.459 152.899 150.826 152.899 149.934ZM156.104 150.09L155.668 150.037L155.771 148.438H157.37V148.82H156.19L156.141 149.552C156.276 149.49 156.428 149.453 156.564 149.453C157.181 149.453 157.616 149.868 157.616 150.456C157.616 151.052 157.181 151.471 156.564 151.471C156.079 151.471 155.66 151.147 155.553 150.686L155.976 150.588C156.038 150.863 156.28 151.06 156.564 151.06C156.926 151.06 157.181 150.81 157.181 150.456C157.181 150.111 156.926 149.864 156.564 149.864C156.412 149.864 156.223 149.959 156.104 150.09Z" fill="white"/>
<rect x="147.605" y="160.88" width="12.3323" height="12.3323" rx="6.16615" fill="#3E3E49"/>
<rect x="147.605" y="160.88" width="12.3323" height="12.3323" rx="6.16615" stroke="white" stroke-width="0.685128"/>
<path d="M149.606 165.545H150.042V168.579H149.606V165.545ZM150.641 166.815H152.433V167.251H150.641V166.815ZM154.025 168.201C154.436 168.201 154.712 167.74 154.712 167.062C154.712 166.38 154.436 165.919 154.025 165.919C153.614 165.919 153.335 166.38 153.335 167.062C153.335 167.74 153.614 168.201 154.025 168.201ZM152.899 167.062C152.899 166.166 153.364 165.537 154.025 165.537C154.683 165.537 155.148 166.166 155.148 167.062C155.148 167.954 154.683 168.587 154.025 168.587C153.364 168.587 152.899 167.954 152.899 167.062ZM156.58 168.205C156.934 168.205 157.185 167.95 157.185 167.592C157.185 167.226 156.934 166.971 156.58 166.971C156.231 166.971 155.984 167.226 155.984 167.592C155.984 167.95 156.231 168.205 156.58 168.205ZM155.549 167.592C155.549 167.374 155.627 167.181 155.713 167.021L156.535 165.557H157.037L156.441 166.606C156.49 166.597 156.539 166.589 156.593 166.589C157.197 166.593 157.621 167.004 157.621 167.592C157.621 168.176 157.193 168.587 156.585 168.587C155.976 168.587 155.549 168.176 155.549 167.592Z" fill="white"/>
<rect x="147.656" y="178.008" width="12.3323" height="12.3323" rx="6.16615" fill="#3E3E49"/>
<rect x="147.656" y="178.008" width="12.3323" height="12.3323" rx="6.16615" stroke="white" stroke-width="0.685128"/>
<path d="M149.657 182.673H150.093V185.707H149.657V182.673ZM150.691 183.943H152.484V184.379H150.691V183.943ZM154.076 185.329C154.487 185.329 154.763 184.868 154.763 184.19C154.763 183.507 154.487 183.047 154.076 183.047C153.665 183.047 153.386 183.507 153.386 184.19C153.386 184.868 153.665 185.329 154.076 185.329ZM152.95 184.19C152.95 183.294 153.414 182.665 154.076 182.665C154.734 182.665 155.198 183.294 155.198 184.19C155.198 185.082 154.734 185.715 154.076 185.715C153.414 185.715 152.95 185.082 152.95 184.19ZM156.344 185.694H155.867L157.038 183.063L155.665 183.068V182.681H157.474L157.515 183.063L156.344 185.694Z" fill="white"/>
<rect x="147.605" y="195.136" width="12.3323" height="12.3323" rx="6.16615" fill="#3E3E49"/>
<rect x="147.605" y="195.136" width="12.3323" height="12.3323" rx="6.16615" stroke="white" stroke-width="0.685128"/>
<path d="M149.606 199.801H150.042V202.835H149.606V199.801ZM150.641 201.071H152.433V201.507H150.641V201.071ZM154.025 202.456C154.436 202.456 154.712 201.996 154.712 201.318C154.712 200.635 154.436 200.175 154.025 200.175C153.614 200.175 153.335 200.635 153.335 201.318C153.335 201.996 153.614 202.456 154.025 202.456ZM152.899 201.318C152.899 200.422 153.364 199.793 154.025 199.793C154.683 199.793 155.148 200.422 155.148 201.318C155.148 202.21 154.683 202.843 154.025 202.843C153.364 202.843 152.899 202.21 152.899 201.318ZM156.568 202.489C156.909 202.489 157.148 202.271 157.148 201.959C157.148 201.647 156.909 201.425 156.568 201.425C156.227 201.425 155.984 201.647 155.984 201.959C155.984 202.271 156.227 202.489 156.568 202.489ZM155.549 201.967C155.549 201.704 155.754 201.4 156.042 201.24C155.804 201.075 155.631 200.808 155.631 200.594C155.631 200.109 156.017 199.772 156.568 199.772C157.119 199.772 157.505 200.109 157.505 200.594C157.505 200.812 157.337 201.079 157.094 201.24C157.382 201.404 157.588 201.704 157.588 201.967C157.588 202.493 157.168 202.863 156.568 202.863C155.972 202.863 155.549 202.493 155.549 201.967ZM156.071 200.594C156.071 200.861 156.276 201.051 156.568 201.051C156.864 201.051 157.07 200.861 157.07 200.594C157.07 200.327 156.864 200.142 156.568 200.142C156.276 200.142 156.071 200.327 156.071 200.594Z" fill="white"/>
<rect x="123.621" y="143.752" width="12.3323" height="12.3323" rx="6.16615" fill="#3E3E49"/>
<rect x="123.621" y="143.752" width="12.3323" height="12.3323" rx="6.16615" stroke="white" stroke-width="0.685128"/>
<path d="M126.122 148.417H126.558V151.451H126.122V148.417ZM127.156 149.687H128.949V150.123H127.156V149.687ZM130.541 151.073C130.952 151.073 131.228 150.612 131.228 149.934C131.228 149.252 130.952 148.791 130.541 148.791C130.13 148.791 129.85 149.252 129.85 149.934C129.85 150.612 130.13 151.073 130.541 151.073ZM129.415 149.934C129.415 149.038 129.879 148.409 130.541 148.409C131.199 148.409 131.663 149.038 131.663 149.934C131.663 150.826 131.199 151.459 130.541 151.459C129.879 151.459 129.415 150.826 129.415 149.934ZM133.178 148.442V151.43L132.743 151.426V148.906L132.216 149.198L132.036 148.832L132.747 148.442H133.178Z" fill="white"/>
<rect x="123.621" y="160.883" width="12.3323" height="12.3323" rx="6.16615" fill="#3E3E49"/>
<rect x="123.621" y="160.883" width="12.3323" height="12.3323" rx="6.16615" stroke="white" stroke-width="0.685128"/>
<path d="M125.622 165.548H126.058V168.582H125.622V165.548ZM126.656 166.819H128.449V167.254H126.656V166.819ZM130.041 168.204C130.452 168.204 130.728 167.744 130.728 167.065C130.728 166.383 130.452 165.923 130.041 165.923C129.63 165.923 129.35 166.383 129.35 167.065C129.35 167.744 129.63 168.204 130.041 168.204ZM128.915 167.065C128.915 166.169 129.379 165.54 130.041 165.54C130.699 165.54 131.163 166.169 131.163 167.065C131.163 167.957 130.699 168.59 130.041 168.59C129.379 168.59 128.915 167.957 128.915 167.065ZM131.626 168.179C132.226 167.604 133.044 167.02 133.044 166.514C133.044 166.177 132.83 165.939 132.526 165.939C132.292 165.939 132.058 166.108 131.951 166.35L131.568 166.182C131.733 165.803 132.132 165.54 132.526 165.54C133.089 165.54 133.48 165.943 133.48 166.514C133.48 167.143 132.798 167.702 132.243 168.179H133.529V168.562H131.667L131.626 168.179Z" fill="white"/>
<rect x="123.621" y="178.008" width="12.3323" height="12.3323" rx="6.16615" fill="#3E3E49"/>
<rect x="123.621" y="178.008" width="12.3323" height="12.3323" rx="6.16615" stroke="white" stroke-width="0.685128"/>
<path d="M125.622 182.673H126.058V185.707H125.622V182.673ZM126.656 183.943H128.449V184.379H126.656V183.943ZM130.041 185.329C130.452 185.329 130.728 184.868 130.728 184.19C130.728 183.507 130.452 183.047 130.041 183.047C129.63 183.047 129.35 183.507 129.35 184.19C129.35 184.868 129.63 185.329 130.041 185.329ZM128.915 184.19C128.915 183.294 129.379 182.665 130.041 182.665C130.699 182.665 131.163 183.294 131.163 184.19C131.163 185.082 130.699 185.715 130.041 185.715C129.379 185.715 128.915 185.082 128.915 184.19ZM133.155 184.141C133.422 184.297 133.591 184.589 133.591 184.839C133.591 185.349 133.172 185.711 132.576 185.711C131.984 185.711 131.564 185.341 131.564 184.815H132C132 185.115 132.238 185.324 132.576 185.324C132.921 185.324 133.168 185.115 133.168 184.815C133.168 184.527 132.925 184.321 132.584 184.321H132.37V183.956H132.588C132.9 183.956 133.122 183.771 133.122 183.507C133.122 183.24 132.909 183.055 132.604 183.055C132.3 183.055 132.09 183.244 132.09 183.512H131.655C131.655 183.014 132.045 182.669 132.604 182.669C133.155 182.669 133.546 183.006 133.546 183.483C133.546 183.713 133.398 183.984 133.155 184.141Z" fill="white"/>
<rect x="123.621" y="195.136" width="12.3323" height="12.3323" rx="6.16615" fill="#3E3E49"/>
<rect x="123.621" y="195.136" width="12.3323" height="12.3323" rx="6.16615" stroke="white" stroke-width="0.685128"/>
<path d="M125.622 199.801H126.058V202.835H125.622V199.801ZM126.656 201.071H128.449V201.507H126.656V201.071ZM130.041 202.456C130.452 202.456 130.728 201.996 130.728 201.318C130.728 200.635 130.452 200.175 130.041 200.175C129.63 200.175 129.35 200.635 129.35 201.318C129.35 201.996 129.63 202.456 130.041 202.456ZM128.915 201.318C128.915 200.422 129.379 199.793 130.041 199.793C130.699 199.793 131.163 200.422 131.163 201.318C131.163 202.21 130.699 202.843 130.041 202.843C129.379 202.843 128.915 202.21 128.915 201.318ZM133.328 199.821V201.663H133.706V202.041H133.328V202.814H132.892V202.041H131.605L131.564 201.663L132.913 199.821H133.328ZM132.082 201.663H132.892V200.549L132.082 201.663Z" fill="white"/>
<rect x="219.875" y="-130.984" width="145.932" height="1.37025" transform="rotate(90 219.875 -130.984)" fill="#D0D0D8"/>
<rect x="188.359" y="-130.984" width="145.932" height="1.37025" transform="rotate(90 188.359 -130.984)" fill="#D0D0D8"/>
<rect x="152.734" y="-92.6191" width="106.195" height="1.37025" transform="rotate(90 152.734 -92.6191)" fill="#D0D0D8"/>
<rect x="47.8984" y="-28.2168" width="43.1631" height="1.37025" transform="rotate(90 47.8984 -28.2168)" fill="#D0D0D8"/>
<rect x="279.477" y="39.6113" width="48.6441" height="1.37026" transform="rotate(-90 279.477 39.6113)" fill="#D0D0D8"/>
<rect x="279.477" y="102.645" width="48.6441" height="1.37026" transform="rotate(-90 279.477 102.645)" fill="#D0D0D8"/>
<rect x="46.5234" y="92.3672" width="44.5333" height="1.37026" transform="rotate(-90 46.5234 92.3672)" fill="#D0D0D8"/>
<rect x="46.5234" y="214.32" width="89.0667" height="1.37026" transform="rotate(-90 46.5234 214.32)" fill="#D0D0D8"/>
<rect x="106.148" y="214.32" width="89.0667" height="1.37026" transform="rotate(-90 106.148 214.32)" fill="#D0D0D8"/>
<rect x="92.4297" y="92.3672" width="44.5333" height="1.37026" transform="rotate(-90 92.4297 92.3672)" fill="#D0D0D8"/>
<rect x="138.336" y="92.3672" width="44.5333" height="1.37026" transform="rotate(-90 138.336 92.3672)" fill="#D0D0D8"/>
<rect x="184.234" y="92.3672" width="44.5333" height="1.37026" transform="rotate(-90 184.234 92.3672)" fill="#D0D0D8"/>
<rect x="230.141" y="92.3672" width="44.5333" height="1.37026" transform="rotate(-90 230.141 92.3672)" fill="#D0D0D8"/>
<rect x="11.5859" y="76.6094" width="20.5538" height="1.37026" transform="rotate(-90 11.5859 76.6094)" fill="#D0D0D8"/>
<rect x="46.5234" y="46.4629" width="184.985" height="1.37026" fill="#D0D0D8"/>
<rect x="331.539" y="53.998" width="52.0697" height="1.37025" transform="rotate(-180 331.539 53.998)" fill="#D0D0D8"/>
<rect x="332.227" y="117.033" width="52.7549" height="1.37025" transform="rotate(-180 332.227 117.033)" fill="#D0D0D8"/>
<rect x="92.4297" y="92.3672" width="31.5159" height="1.37025" transform="rotate(-180 92.4297 92.3672)" fill="#D0D0D8"/>
<rect x="93.8047" y="126.627" width="45.9036" height="1.37025" transform="rotate(-180 93.8047 126.627)" fill="#D0D0D8"/>
<rect x="138.336" y="92.3672" width="31.5159" height="1.37025" transform="rotate(-180 138.336 92.3672)" fill="#D0D0D8"/>
<rect x="184.234" y="92.3672" width="31.5159" height="1.37025" transform="rotate(-180 184.234 92.3672)" fill="#D0D0D8"/>
<rect x="230.141" y="92.3672" width="31.5159" height="1.37025" transform="rotate(-180 230.141 92.3672)" fill="#D0D0D8"/>
<rect x="11.5859" y="76.6094" width="17.1282" height="1.37025" transform="rotate(-180 11.5859 76.6094)" fill="#D0D0D8"/>
<rect x="0.625" y="57.4277" width="6.16615" height="1.37026" transform="rotate(-180 0.625 57.4277)" fill="#D0D0D8"/>
<rect x="171.234" y="14.9453" width="123.323" height="1.37025" transform="rotate(-180 171.234 14.9453)" fill="#D0D0D8"/>
<rect x="218.5" y="14.9453" width="30.1456" height="1.37025" transform="rotate(-180 218.5 14.9453)" fill="#D0D0D8"/>
<rect x="335.664" y="-180.996" width="399.43" height="4.11075" transform="rotate(90 335.664 -180.996)" fill="#D0D0D8"/>
<rect x="331.539" y="218.43" width="647.446" height="4.11071" transform="rotate(-180 331.539 218.43)" fill="#D0D0D8"/>
<path d="M76.6715 166.363V173.043M81.2961 173.043L77.0616 168.103C76.8566 167.864 76.4864 167.864 76.2813 168.103L72.0469 173.043M81.2961 160.968V166.106C81.2961 166.248 81.1811 166.363 81.0392 166.363H72.3038C72.1619 166.363 72.0469 166.248 72.0469 166.106V160.968C72.0469 160.826 72.1619 160.711 72.3038 160.711H75.3869L75.5951 159.878C75.6237 159.763 75.7265 159.683 75.8444 159.683H77.7555C77.8734 159.683 77.9762 159.763 78.0048 159.878L78.213 160.711H81.0392C81.1811 160.711 81.2961 160.826 81.2961 160.968ZM78.7269 163.537C78.7269 164.672 77.8066 165.592 76.6715 165.592C75.5363 165.592 74.6161 164.672 74.6161 163.537C74.6161 162.402 75.5363 161.482 76.6715 161.482C77.8066 161.482 78.7269 162.402 78.7269 163.537ZM78.213 163.537C78.213 164.388 77.5229 165.078 76.6715 165.078C75.8201 165.078 75.13 164.388 75.13 163.537C75.13 162.686 75.8201 161.995 76.6715 161.995C77.5229 161.995 78.213 162.686 78.213 163.537ZM79.2407 161.738V161.482C79.2407 161.34 79.3557 161.225 79.4976 161.225H80.5253C80.6672 161.225 80.7823 161.34 80.7823 161.482V161.738C80.7823 161.88 80.6672 161.995 80.5253 161.995H79.4976C79.3557 161.995 79.2407 161.88 79.2407 161.738ZM74.3592 160.711V160.454C74.3592 160.312 74.2442 160.197 74.1023 160.197H73.0746C72.9327 160.197 72.8176 160.312 72.8176 160.454V160.711H74.3592Z" stroke="#D0D0D8" stroke-width="0.411077"/>
<path d="M0.457813 63.0664C0.876656 62.1363 1.61643 61.4074 2.51395 60.9559C3.09054 60.6622 3.79224 61.0321 3.92823 61.663L4.11317 62.517C4.23284 63.0664 3.88471 63.6049 3.33532 63.7246L2.68258 63.866C2.32357 63.9422 2.06247 64.2522 2.04071 64.6167C1.96456 65.8623 2.26917 67.2712 2.85664 68.3754C3.0307 68.7018 3.39515 68.8704 3.75416 68.7942L4.4069 68.6528C4.95629 68.5331 5.49481 68.8813 5.61448 69.4307L5.80486 70.3119C5.94085 70.9374 5.47305 71.5575 4.83119 71.5412C1.57291 71.4596 -0.548497 67.603 0.0335311 64.4372C0.115124 63.9476 0.256551 63.4907 0.452374 63.061L0.457813 63.0664Z" fill="#3E3E49" stroke="#D0D0D8" stroke-width="0.411077" stroke-miterlimit="10"/>
<rect x="-75.4219" y="176.639" width="84.9559" height="17.1282" rx="1.37026" fill="#D0D0D8"/>
<rect x="-4.84766" y="167.045" width="12.3323" height="12.3323" rx="6.16615" fill="#3E3E49"/>
<rect x="-4.84766" y="167.045" width="12.3323" height="12.3323" rx="6.16615" stroke="#D0D0D8" stroke-width="0.685128"/>
<path d="M-2.25174 171.71L-1.12539 174.744H-1.5899L-1.8941 173.918H-3.13966L-3.45619 174.744H-3.92071L-2.7738 171.71H-2.25174ZM-2.9999 173.539H-2.03798L-2.51072 172.261L-2.9999 173.539ZM-0.600588 172.98H1.19171V173.416H-0.600588V172.98ZM1.72367 174.341C2.32384 173.765 3.14188 173.182 3.14188 172.676C3.14188 172.339 2.92812 172.101 2.62392 172.101C2.38961 172.101 2.1553 172.269 2.04842 172.512L1.66612 172.343C1.83055 171.965 2.22929 171.702 2.62392 171.702C3.1871 171.702 3.57762 172.105 3.57762 172.676C3.57762 173.305 2.89524 173.864 2.34028 174.341H3.62695V174.723H1.76477L1.72367 174.341ZM4.58547 173.383L4.14973 173.33L4.2525 171.731H5.85158V172.113H4.67179L4.62246 172.845C4.75812 172.783 4.91022 172.746 5.04587 172.746C5.66249 172.746 6.09823 173.161 6.09823 173.749C6.09823 174.345 5.66249 174.764 5.04587 174.764C4.5608 174.764 4.1415 174.44 4.03462 173.979L4.45803 173.881C4.5197 174.156 4.76223 174.353 5.04587 174.353C5.40762 174.353 5.66249 174.103 5.66249 173.749C5.66249 173.404 5.40762 173.157 5.04587 173.157C4.89378 173.157 4.70468 173.252 4.58547 173.383Z" fill="#D0D0D8"/>
<rect x="-4.84766" y="191.024" width="12.3323" height="12.3323" rx="6.16615" fill="#3E3E49"/>
<rect x="-4.84766" y="191.024" width="12.3323" height="12.3323" rx="6.16615" stroke="#D0D0D8" stroke-width="0.685128"/>
<path d="M-2.25174 195.689L-1.12539 198.723H-1.5899L-1.8941 197.897H-3.13966L-3.45619 198.723H-3.92071L-2.7738 195.689H-2.25174ZM-2.9999 197.518H-2.03798L-2.51072 196.24L-2.9999 197.518ZM-0.600588 196.959H1.19171V197.395H-0.600588V196.959ZM3.25287 197.157C3.52007 197.313 3.68861 197.605 3.68861 197.855C3.68861 198.365 3.26932 198.727 2.67325 198.727C2.0813 198.727 1.662 198.357 1.662 197.831H2.09775C2.09775 198.131 2.33617 198.341 2.67325 198.341C3.01856 198.341 3.2652 198.131 3.2652 197.831C3.2652 197.543 3.02267 197.337 2.68148 197.337H2.46772V196.972H2.68559C2.998 196.972 3.21999 196.787 3.21999 196.524C3.21999 196.256 3.00623 196.071 2.70203 196.071C2.39783 196.071 2.18818 196.26 2.18818 196.528H1.75244C1.75244 196.03 2.14296 195.685 2.70203 195.685C3.25287 195.685 3.6434 196.022 3.6434 196.499C3.6434 196.729 3.49541 197 3.25287 197.157ZM5.21297 198.345C5.62405 198.345 5.89947 197.884 5.89947 197.206C5.89947 196.524 5.62405 196.063 5.21297 196.063C4.80189 196.063 4.52236 196.524 4.52236 197.206C4.52236 197.884 4.80189 198.345 5.21297 198.345ZM4.08662 197.206C4.08662 196.31 4.55114 195.681 5.21297 195.681C5.87069 195.681 6.33521 196.31 6.33521 197.206C6.33521 198.098 5.87069 198.731 5.21297 198.731C4.55114 198.731 4.08662 198.098 4.08662 197.206Z" fill="#D0D0D8"/>
<path d="M66.25 59.2271C66.25 59.0852 66.365 58.9702 66.5069 58.9702H73.1869C73.3288 58.9702 73.4438 59.0852 73.4438 59.2271V62.8241C73.4438 62.966 73.3288 63.081 73.1869 63.081H66.5069C66.365 63.081 66.25 62.966 66.25 62.8241V59.2271Z" stroke="#D0D0D8" stroke-width="0.411077"/>
<path d="M67.3992 64.1781C67.4766 63.9816 67.6662 63.8525 67.8773 63.8525H71.8023C72.0134 63.8525 72.203 63.9816 72.2803 64.178L75.2156 71.6288C75.3484 71.966 75.0998 72.331 74.7375 72.331H64.9422C64.5798 72.331 64.3313 71.966 64.4641 71.6288L67.3992 64.1781Z" stroke="#D0D0D8" stroke-width="0.411077"/>
<path d="M66.2484 64.6221H65.4157C65.2738 64.6221 65.1587 64.5071 65.1587 64.3652V62.3093C65.1587 62.2531 65.0816 62.2377 65.0599 62.2895L64.2724 64.1751C64.22 64.3006 64.193 64.4352 64.193 64.5712V66.6775C64.193 66.8194 64.308 66.9344 64.4499 66.9344H65.2826M73.4422 64.6221H74.2749C74.4168 64.6221 74.5319 64.5071 74.5319 64.3652V62.3093C74.5319 62.2531 74.609 62.2377 74.6307 62.2895L75.4182 64.1751C75.4706 64.3006 75.4976 64.4352 75.4976 64.5712V66.6775C75.4976 66.8194 75.3826 66.9344 75.2407 66.9344H74.408M64.7068 68.7329H63.7893C63.619 68.7329 63.481 68.5949 63.481 68.4246V65.9764C63.481 65.9083 63.3868 65.8905 63.3619 65.9539L62.4794 68.2078C62.4233 68.3511 62.3945 68.5036 62.3945 68.6574V71.1994C62.3945 71.3696 62.5326 71.5077 62.7028 71.5077H63.6204M74.9838 68.7329H75.9013C76.0716 68.7329 76.2096 68.5949 76.2096 68.4246V65.9764C76.2096 65.9083 76.3038 65.8905 76.3287 65.9539L77.2112 68.2078C77.2673 68.3511 77.2961 68.5036 77.2961 68.6574V71.1994C77.2961 71.3696 77.158 71.5077 76.9878 71.5077H76.0702" stroke="#D0D0D8" stroke-width="0.411077"/>
<path d="M68.9102 61.7743V61.5137L70.0597 59.6948H70.2488V60.0985H70.1211L69.2525 61.4728V61.4933H70.8006V61.7743H68.9102ZM70.1415 62.3108V59.6948H70.4429V62.3108H70.1415Z" fill="#D0D0D8"/>
<g clip-path="url(#clip1_3968_64425)">
<path d="M112.152 59.2271C112.152 59.0852 112.267 58.9702 112.409 58.9702H119.089C119.231 58.9702 119.346 59.0852 119.346 59.2271V62.8241C119.346 62.966 119.231 63.081 119.089 63.081H112.409C112.267 63.081 112.152 62.966 112.152 62.8241V59.2271Z" stroke="#D0D0D8" stroke-width="0.411077"/>
<path d="M113.302 64.1781C113.379 63.9816 113.569 63.8525 113.78 63.8525H117.705C117.916 63.8525 118.105 63.9816 118.183 64.178L121.118 71.6288C121.251 71.966 121.002 72.331 120.64 72.331H110.845C110.482 72.331 110.234 71.966 110.366 71.6288L113.302 64.1781Z" stroke="#D0D0D8" stroke-width="0.411077"/>
<path d="M112.151 64.6221H111.318C111.176 64.6221 111.061 64.5071 111.061 64.3652V62.3093C111.061 62.2531 110.984 62.2377 110.962 62.2895L110.175 64.1751C110.122 64.3006 110.095 64.4352 110.095 64.5712V66.6775C110.095 66.8194 110.21 66.9344 110.352 66.9344H111.185M119.345 64.6221H120.177C120.319 64.6221 120.434 64.5071 120.434 64.3652V62.3093C120.434 62.2531 120.511 62.2377 120.533 62.2895L121.321 64.1751C121.373 64.3006 121.4 64.4352 121.4 64.5712V66.6775C121.4 66.8194 121.285 66.9344 121.143 66.9344H120.31M110.609 68.7329H109.692C109.521 68.7329 109.383 68.5949 109.383 68.4246V65.9764C109.383 65.9083 109.289 65.8905 109.264 65.9539L108.382 68.2078C108.326 68.3511 108.297 68.5036 108.297 68.6574V71.1994C108.297 71.3696 108.435 71.5077 108.605 71.5077H109.523M120.886 68.7329H121.804C121.974 68.7329 122.112 68.5949 122.112 68.4246V65.9764C122.112 65.9083 122.206 65.8905 122.231 65.9539L123.114 68.2078C123.17 68.3511 123.198 68.5036 123.198 68.6574V71.1994C123.198 71.3696 123.06 71.5077 122.89 71.5077H121.973" stroke="#D0D0D8" stroke-width="0.411077"/>
<path d="M114.812 61.7743V61.5137L115.962 59.6948H116.151V60.0985H116.023L115.155 61.4728V61.4933H116.703V61.7743H114.812ZM116.044 62.3108V59.6948H116.345V62.3108H116.044Z" fill="#D0D0D8"/>
</g>
<g clip-path="url(#clip2_3968_64425)">
<path d="M158.055 59.2271C158.055 59.0852 158.17 58.9702 158.312 58.9702H164.992C165.134 58.9702 165.249 59.0852 165.249 59.2271V62.8241C165.249 62.966 165.134 63.081 164.992 63.081H158.312C158.17 63.081 158.055 62.966 158.055 62.8241V59.2271Z" stroke="#D0D0D8" stroke-width="0.411077"/>
<path d="M159.208 64.1781C159.285 63.9816 159.475 63.8525 159.686 63.8525H163.611C163.822 63.8525 164.012 63.9816 164.089 64.178L167.024 71.6288C167.157 71.966 166.908 72.331 166.546 72.331H156.751C156.388 72.331 156.14 71.966 156.273 71.6288L159.208 64.1781Z" stroke="#D0D0D8" stroke-width="0.411077"/>
<path d="M158.057 64.6221H157.224C157.082 64.6221 156.967 64.5071 156.967 64.3652V62.3093C156.967 62.2531 156.89 62.2377 156.869 62.2895L156.081 64.1751C156.029 64.3006 156.002 64.4352 156.002 64.5712V66.6775C156.002 66.8194 156.117 66.9344 156.259 66.9344H157.091M165.251 64.6221H166.084C166.225 64.6221 166.34 64.5071 166.34 64.3652V62.3093C166.34 62.2531 166.418 62.2377 166.439 62.2895L167.227 64.1751C167.279 64.3006 167.306 64.4352 167.306 64.5712V66.6775C167.306 66.8194 167.191 66.9344 167.049 66.9344H166.217M156.515 68.7329H155.598C155.428 68.7329 155.29 68.5949 155.29 68.4246V65.9764C155.29 65.9083 155.195 65.8905 155.171 65.9539L154.288 68.2078C154.232 68.3511 154.203 68.5036 154.203 68.6574V71.1994C154.203 71.3696 154.341 71.5077 154.511 71.5077H155.429M166.792 68.7329H167.71C167.88 68.7329 168.018 68.5949 168.018 68.4246V65.9764C168.018 65.9083 168.112 65.8905 168.137 65.9539L169.02 68.2078C169.076 68.3511 169.105 68.5036 169.105 68.6574V71.1994C169.105 71.3696 168.967 71.5077 168.796 71.5077H167.879" stroke="#D0D0D8" stroke-width="0.411077"/>
<path d="M160.715 61.7743V61.5137L161.864 59.6948H162.053V60.0985H161.926L161.057 61.4728V61.4933H162.605V61.7743H160.715ZM161.946 62.3108V59.6948H162.248V62.3108H161.946Z" fill="#D0D0D8"/>
</g>
<g clip-path="url(#clip3_3968_64425)">
<path d="M203.961 59.2271C203.961 59.0852 204.076 58.9702 204.218 58.9702H210.898C211.04 58.9702 211.155 59.0852 211.155 59.2271V62.8241C211.155 62.966 211.04 63.081 210.898 63.081H204.218C204.076 63.081 203.961 62.966 203.961 62.8241V59.2271Z" stroke="#D0D0D8" stroke-width="0.411077"/>
<path d="M205.11 64.1781C205.188 63.9816 205.377 63.8525 205.588 63.8525H209.513C209.724 63.8525 209.914 63.9816 209.991 64.178L212.926 71.6288C213.059 71.966 212.811 72.331 212.448 72.331H202.653C202.291 72.331 202.042 71.966 202.175 71.6288L205.11 64.1781Z" stroke="#D0D0D8" stroke-width="0.411077"/>
<path d="M203.959 64.6221H203.127C202.985 64.6221 202.87 64.5071 202.87 64.3652V62.3093C202.87 62.2531 202.793 62.2377 202.771 62.2895L201.983 64.1751C201.931 64.3006 201.904 64.4352 201.904 64.5712V66.6775C201.904 66.8194 202.019 66.9344 202.161 66.9344H202.994M211.153 64.6221H211.986C212.128 64.6221 212.243 64.5071 212.243 64.3652V62.3093C212.243 62.2531 212.32 62.2377 212.342 62.2895L213.129 64.1751C213.182 64.3006 213.209 64.4352 213.209 64.5712V66.6775C213.209 66.8194 213.094 66.9344 212.952 66.9344H212.119M202.418 68.7329H201.5C201.33 68.7329 201.192 68.5949 201.192 68.4246V65.9764C201.192 65.9083 201.098 65.8905 201.073 65.9539L200.19 68.2078C200.134 68.3511 200.105 68.5036 200.105 68.6574V71.1994C200.105 71.3696 200.244 71.5077 200.414 71.5077H201.331M212.695 68.7329H213.612C213.783 68.7329 213.921 68.5949 213.921 68.4246V65.9764C213.921 65.9083 214.015 65.8905 214.04 65.9539L214.922 68.2078C214.978 68.3511 215.007 68.5036 215.007 68.6574V71.1994C215.007 71.3696 214.869 71.5077 214.699 71.5077H213.781" stroke="#D0D0D8" stroke-width="0.411077"/>
<path d="M206.621 61.7743V61.5137L207.771 59.6948H207.96V60.0985H207.832L206.963 61.4728V61.4933H208.512V61.7743H206.621ZM207.852 62.3108V59.6948H208.154V62.3108H207.852Z" fill="#D0D0D8"/>
</g>
<path d="M302.609 9.8497C302.609 9.7078 302.724 9.59277 302.866 9.59277H309.546C309.688 9.59277 309.803 9.7078 309.803 9.8497V13.4466C309.803 13.5885 309.688 13.7035 309.546 13.7035H302.866C302.724 13.7035 302.609 13.5885 302.609 13.4466V9.8497Z" stroke="#D0D0D8" stroke-width="0.411077"/>
<path d="M303.762 14.8489C303.84 14.6525 304.029 14.5234 304.241 14.5234H308.166C308.377 14.5234 308.566 14.6525 308.644 14.8489L311.579 22.2997C311.712 22.6369 311.463 23.0019 311.101 23.0019H301.305C300.943 23.0019 300.695 22.6369 300.827 22.2997L303.762 14.8489Z" stroke="#D0D0D8" stroke-width="0.411077"/>
<path d="M302.612 15.293H301.779C301.637 15.293 301.522 15.178 301.522 15.0361V12.9802C301.522 12.924 301.445 12.9086 301.423 12.9604L300.636 14.846C300.583 14.9715 300.556 15.1061 300.556 15.2421V17.3484C300.556 17.4903 300.671 17.6053 300.813 17.6053H301.646M309.806 15.293H310.638C310.78 15.293 310.895 15.178 310.895 15.0361V12.9802C310.895 12.924 310.972 12.9086 310.994 12.9604L311.782 14.846C311.834 14.9715 311.861 15.1061 311.861 15.2421V17.3484C311.861 17.4903 311.746 17.6053 311.604 17.6053H310.771M301.07 19.4038H300.153C299.982 19.4038 299.844 19.2658 299.844 19.0955V16.6473C299.844 16.5792 299.75 16.5614 299.725 16.6248L298.843 18.8787C298.787 19.022 298.758 19.1745 298.758 19.3283V21.8703C298.758 22.0405 298.896 22.1786 299.066 22.1786H299.984M311.347 19.4038H312.265C312.435 19.4038 312.573 19.2658 312.573 19.0955V16.6473C312.573 16.5792 312.667 16.5614 312.692 16.6248L313.574 18.8787C313.631 19.022 313.659 19.1745 313.659 19.3283V21.8703C313.659 22.0405 313.521 22.1786 313.351 22.1786H312.434" stroke="#D0D0D8" stroke-width="0.411077"/>
<path d="M306.19 13.0161C306.014 13.0161 305.859 12.985 305.725 12.9228C305.591 12.8598 305.487 12.7734 305.412 12.6635C305.337 12.5528 305.3 12.4268 305.301 12.2855C305.3 12.1748 305.322 12.0726 305.366 11.9789C305.41 11.8844 305.471 11.8056 305.547 11.7426C305.625 11.6787 305.711 11.6383 305.807 11.6213V11.6059C305.681 11.5736 305.582 11.5033 305.508 11.3952C305.434 11.2862 305.397 11.1623 305.398 11.0235C305.397 10.8906 305.431 10.7718 305.499 10.6671C305.567 10.5624 305.661 10.4798 305.78 10.4193C305.9 10.3588 306.037 10.3286 306.19 10.3286C306.341 10.3286 306.477 10.3588 306.596 10.4193C306.715 10.4798 306.809 10.5624 306.877 10.6671C306.946 10.7718 306.981 10.8906 306.982 11.0235C306.981 11.1623 306.943 11.2862 306.868 11.3952C306.794 11.5033 306.696 11.5736 306.573 11.6059V11.6213C306.668 11.6383 306.753 11.6787 306.828 11.7426C306.904 11.8056 306.965 11.8844 307.01 11.9789C307.055 12.0726 307.078 12.1748 307.079 12.2855C307.078 12.4268 307.04 12.5528 306.964 12.6635C306.889 12.7734 306.785 12.8598 306.651 12.9228C306.518 12.985 306.364 13.0161 306.19 13.0161ZM306.19 12.7351C306.308 12.7351 306.41 12.7159 306.496 12.6776C306.582 12.6393 306.649 12.5852 306.696 12.5154C306.742 12.4456 306.766 12.3638 306.767 12.2701C306.766 12.1714 306.741 12.0841 306.691 12.0083C306.64 11.9325 306.572 11.8729 306.485 11.8295C306.399 11.786 306.301 11.7643 306.19 11.7643C306.078 11.7643 305.979 11.786 305.891 11.8295C305.804 11.8729 305.736 11.9325 305.685 12.0083C305.636 12.0841 305.612 12.1714 305.612 12.2701C305.612 12.3638 305.634 12.4456 305.68 12.5154C305.727 12.5852 305.794 12.6393 305.881 12.6776C305.968 12.7159 306.071 12.7351 306.19 12.7351ZM306.19 11.4935C306.283 11.4935 306.367 11.4748 306.439 11.4373C306.512 11.3999 306.57 11.3475 306.611 11.2802C306.653 11.2129 306.674 11.1342 306.675 11.0439C306.674 10.9553 306.653 10.8783 306.613 10.8127C306.572 10.7463 306.515 10.6952 306.443 10.6594C306.37 10.6228 306.286 10.6045 306.19 10.6045C306.092 10.6045 306.006 10.6228 305.933 10.6594C305.86 10.6952 305.803 10.7463 305.763 10.8127C305.723 10.8783 305.704 10.9553 305.704 11.0439C305.704 11.1342 305.724 11.2129 305.764 11.2802C305.806 11.3475 305.864 11.3999 305.937 11.4373C306.01 11.4748 306.094 11.4935 306.19 11.4935Z" fill="#D0D0D8"/>
<path d="M302.609 72.8809C302.609 72.7391 302.724 72.624 302.866 72.624H309.546C309.688 72.624 309.803 72.7391 309.803 72.8809V76.4779C309.803 76.6198 309.688 76.7348 309.546 76.7348H302.866C302.724 76.7348 302.609 76.6198 302.609 76.4779V72.8809Z" stroke="#D0D0D8" stroke-width="0.411077"/>
<path d="M303.762 77.8768C303.84 77.6804 304.029 77.5513 304.241 77.5513H308.166C308.377 77.5513 308.566 77.6804 308.644 77.8768L311.579 85.3275C311.712 85.6647 311.463 86.0297 311.101 86.0297H301.305C300.943 86.0297 300.695 85.6647 300.827 85.3276L303.762 77.8768Z" stroke="#D0D0D8" stroke-width="0.411077"/>
<path d="M302.612 78.3243H301.779C301.637 78.3243 301.522 78.2092 301.522 78.0674V76.0114C301.522 75.9553 301.445 75.9398 301.423 75.9916L300.636 77.8773C300.583 78.0027 300.556 78.1374 300.556 78.2733V80.3797C300.556 80.5216 300.671 80.6366 300.813 80.6366H301.646M309.806 78.3243H310.638C310.78 78.3243 310.895 78.2092 310.895 78.0674V76.0114C310.895 75.9553 310.972 75.9398 310.994 75.9916L311.782 77.8773C311.834 78.0027 311.861 78.1374 311.861 78.2733V80.3797C311.861 80.5216 311.746 80.6366 311.604 80.6366H310.771M301.07 82.435H300.153C299.982 82.435 299.844 82.297 299.844 82.1267V79.6786C299.844 79.6104 299.75 79.5926 299.725 79.6561L298.843 81.9099C298.787 82.0532 298.758 82.2057 298.758 82.3596V84.9015C298.758 85.0718 298.896 85.2098 299.066 85.2098H299.984M311.347 82.435H312.265C312.435 82.435 312.573 82.297 312.573 82.1267V79.6786C312.573 79.6104 312.667 79.5926 312.692 79.6561L313.574 81.9099C313.631 82.0532 313.659 82.2057 313.659 82.3596V84.9015C313.659 85.0718 313.521 85.2098 313.351 85.2098H312.434" stroke="#D0D0D8" stroke-width="0.411077"/>
<path d="M306.19 76.0473C306.014 76.0473 305.859 76.0163 305.725 75.9541C305.591 75.8911 305.487 75.8046 305.412 75.6948C305.337 75.5841 305.3 75.4581 305.301 75.3167C305.3 75.206 305.322 75.1038 305.366 75.0102C305.41 74.9156 305.471 74.8369 305.547 74.7739C305.625 74.71 305.711 74.6695 305.807 74.6525V74.6372C305.681 74.6048 305.582 74.5346 305.508 74.4264C305.434 74.3174 305.397 74.1935 305.398 74.0547C305.397 73.9219 305.431 73.8031 305.499 73.6984C305.567 73.5936 305.661 73.511 305.78 73.4506C305.9 73.3901 306.037 73.3599 306.19 73.3599C306.341 73.3599 306.477 73.3901 306.596 73.4506C306.715 73.511 306.809 73.5936 306.877 73.6984C306.946 73.8031 306.981 73.9219 306.982 74.0547C306.981 74.1935 306.943 74.3174 306.868 74.4264C306.794 74.5346 306.696 74.6048 306.573 74.6372V74.6525C306.668 74.6695 306.753 74.71 306.828 74.7739C306.904 74.8369 306.965 74.9156 307.01 75.0102C307.055 75.1038 307.078 75.206 307.079 75.3167C307.078 75.4581 307.04 75.5841 306.964 75.6948C306.889 75.8046 306.785 75.8911 306.651 75.9541C306.518 76.0163 306.364 76.0473 306.19 76.0473ZM306.19 75.7663C306.308 75.7663 306.41 75.7472 306.496 75.7088C306.582 75.6705 306.649 75.6165 306.696 75.5466C306.742 75.4768 306.766 75.3951 306.767 75.3014C306.766 75.2026 306.741 75.1153 306.691 75.0395C306.64 74.9637 306.572 74.9041 306.485 74.8607C306.399 74.8173 306.301 74.7956 306.19 74.7956C306.078 74.7956 305.979 74.8173 305.891 74.8607C305.804 74.9041 305.736 74.9637 305.685 75.0395C305.636 75.1153 305.612 75.2026 305.612 75.3014C305.612 75.3951 305.634 75.4768 305.68 75.5466C305.727 75.6165 305.794 75.6705 305.881 75.7088C305.968 75.7472 306.071 75.7663 306.19 75.7663ZM306.19 74.5248C306.283 74.5248 306.367 74.506 306.439 74.4686C306.512 74.4311 306.57 74.3787 306.611 74.3115C306.653 74.2442 306.674 74.1654 306.675 74.0752C306.674 73.9866 306.653 73.9095 306.613 73.844C306.572 73.7775 306.515 73.7265 306.443 73.6907C306.37 73.6541 306.286 73.6358 306.19 73.6358C306.092 73.6358 306.006 73.6541 305.933 73.6907C305.86 73.7265 305.803 73.7775 305.763 73.844C305.723 73.9095 305.704 73.9866 305.704 74.0752C305.704 74.1654 305.724 74.2442 305.764 74.3115C305.806 74.3787 305.864 74.4311 305.937 74.4686C306.01 74.506 306.094 74.5248 306.19 74.5248Z" fill="#D0D0D8"/>
<path d="M7.48131 147.004C8.23808 147.004 8.85156 146.39 8.85156 145.634L8.85156 127.871C8.85156 127.115 8.23808 126.501 7.48131 126.501L7.02455 126.501L3.37054 126.501C2.61376 126.501 2.00028 127.115 2.00028 127.871L2.00028 145.634C2.00028 146.39 2.61376 147.004 3.37054 147.004L7.02455 147.004L7.48131 147.004Z" fill="#3E3E49"/>
<path d="M7.02455 126.501L7.48131 126.501C8.23808 126.501 8.85156 127.115 8.85156 127.871L8.85156 145.634C8.85156 146.39 8.23808 147.004 7.48131 147.004L7.02455 147.004M7.02455 126.501L3.37054 126.501C2.61376 126.501 2.00028 127.115 2.00028 127.871L2.00028 145.634C2.00028 146.39 2.61376 147.004 3.37054 147.004L7.02455 147.004M7.02455 126.501L7.02455 147.004" stroke="#D0D0D8" stroke-width="0.685128"/>
<rect x="-6.90625" y="128.682" width="7.53641" height="17.8133" rx="1.37026" fill="#3E3E49" stroke="#D0D0D8" stroke-width="0.685128"/>
<rect x="-11.0156" y="87.5703" width="13.0174" height="13.0174" rx="6.50872" fill="#3E3E49" stroke="#D0D0D8" stroke-width="0.685128"/>
<path d="M6.95687 23.9098C7.22232 24.3685 7.06526 24.9546 6.60607 25.2191L2.45253 27.6111C1.99334 27.8756 1.40591 27.7182 1.14047 27.2596L0.661636 26.4323L-1.49625 22.704C-1.76169 22.2454 -1.60463 21.6592 -1.14544 21.3948L3.0081 19.0027C3.46729 18.7383 4.05472 18.8957 4.32016 19.3543L6.47804 23.0825L6.95687 23.9098Z" fill="#3E3E49"/>
<path d="M0.661636 26.4323L1.14047 27.2596C1.40591 27.7182 1.99334 27.8756 2.45253 27.6111L6.60607 25.2191C7.06526 24.9546 7.22232 24.3685 6.95687 23.9098L6.47804 23.0825M0.661636 26.4323L-1.49625 22.704C-1.76169 22.2454 -1.60463 21.6592 -1.14544 21.3948L3.0081 19.0027C3.46729 18.7383 4.05472 18.8957 4.32016 19.3543L6.47804 23.0825M0.661636 26.4323L6.47804 23.0825" stroke="#D0D0D8" stroke-width="0.685128"/>
<path d="M8.8387 9.20087C9.35063 9.06405 9.87706 9.36798 10.0145 9.87974L11.255 14.4977C11.3925 15.0095 11.0889 15.5353 10.577 15.6721L9.65038 15.9197L5.48009 17.0344C4.96816 17.1712 4.44173 16.8673 4.30426 16.3555L3.06379 11.7375C2.92632 11.2258 3.22988 10.7 3.7418 10.5632L7.91209 9.44854L8.8387 9.20087Z" fill="#3E3E49"/>
<path d="M9.65038 15.9197L10.577 15.6721C11.0889 15.5353 11.3925 15.0095 11.255 14.4977L10.0145 9.87974C9.87706 9.36798 9.35063 9.06405 8.8387 9.20087L7.91209 9.44854M9.65038 15.9197L5.48009 17.0344C4.96816 17.1712 4.44173 16.8673 4.30426 16.3555L3.06379 11.7375C2.92632 11.2258 3.22988 10.7 3.7418 10.5632L7.91209 9.44854M9.65038 15.9197L7.91209 9.44854" stroke="#D0D0D8" stroke-width="0.685128"/>
<path d="M3.91446 80.0213C4.28962 79.6471 4.89788 79.6471 5.27303 80.0213L8.66354 83.4034C9.0387 83.7776 9.0387 84.3844 8.66354 84.7586L7.98595 85.4345L4.93382 88.479C4.55866 88.8533 3.9504 88.8533 3.57525 88.479L0.184739 85.097C-0.190419 84.7227 -0.190419 84.116 0.18474 83.7418L3.23687 80.6973L3.91446 80.0213Z" fill="#3E3E49"/>
<path d="M7.98595 85.4345L8.66354 84.7586C9.0387 84.3844 9.0387 83.7776 8.66354 83.4034L5.27303 80.0213C4.89788 79.6471 4.28962 79.6471 3.91446 80.0213L3.23687 80.6973M7.98595 85.4345L4.93382 88.479C4.55866 88.8533 3.9504 88.8533 3.57525 88.479L0.184739 85.097C-0.190419 84.7227 -0.190419 84.116 0.18474 83.7418L3.23687 80.6973M7.98595 85.4345L3.23687 80.6973" stroke="#D0D0D8" stroke-width="0.685128"/>
<path d="M3.91446 106.494C4.28962 106.869 4.89788 106.869 5.27303 106.494L8.66354 103.112C9.0387 102.738 9.0387 102.131 8.66354 101.757L7.98595 101.081L4.93382 98.0366C4.55866 97.6624 3.9504 97.6624 3.57525 98.0366L0.184739 101.419C-0.190419 101.793 -0.190419 102.4 0.18474 102.774L3.23687 105.818L3.91446 106.494Z" fill="#3E3E49"/>
<path d="M7.98595 101.081L8.66354 101.757C9.0387 102.131 9.0387 102.738 8.66354 103.112L5.27303 106.494C4.89788 106.869 4.28962 106.869 3.91446 106.494L3.23687 105.818M7.98595 101.081L4.93382 98.0366C4.55866 97.6624 3.9504 97.6624 3.57525 98.0366L0.184739 101.419C-0.190419 101.793 -0.190419 102.4 0.18474 102.774L3.23687 105.818M7.98595 101.081L3.23687 105.818" stroke="#D0D0D8" stroke-width="0.685128"/>
<rect x="-4.84375" y="11.3848" width="5.27702" height="5.48103" rx="2.63851" fill="#3E3E49" stroke="#D0D0D8" stroke-width="0.685128"/>
<path d="M67.2679 77.9796V78.3619H65.7428V79.2622H67.0542V79.6404H65.7428V80.6311H67.2679V81.0134H65.3071V77.9796H67.2679ZM67.7836 79.2498H69.5759V79.6856H67.7836V79.2498ZM71.1684 80.6352C71.5795 80.6352 71.8549 80.1748 71.8549 79.4965C71.8549 78.8141 71.5795 78.3537 71.1684 78.3537C70.7574 78.3537 70.4778 78.8141 70.4778 79.4965C70.4778 80.1748 70.7574 80.6352 71.1684 80.6352ZM70.0421 79.4965C70.0421 78.6003 70.5066 77.9714 71.1684 77.9714C71.8262 77.9714 72.2907 78.6003 72.2907 79.4965C72.2907 80.3885 71.8262 81.0216 71.1684 81.0216C70.5066 81.0216 70.0421 80.3885 70.0421 79.4965ZM73.8057 78.0043V80.9928L73.37 80.9887V78.4688L72.8438 78.7607L72.6629 78.3948L73.3741 78.0043H73.8057Z" fill="#D0D0D8"/>
<path d="M73.8344 178.009V181.043H73.3946V179.674H71.964V181.043H71.5283V178.009H71.964V179.296H73.3946V178.009H73.8344ZM74.4332 179.279H76.2255V179.715H74.4332V179.279ZM77.818 180.664C78.2291 180.664 78.5045 180.204 78.5045 179.526C78.5045 178.843 78.2291 178.383 77.818 178.383C77.4069 178.383 77.1274 178.843 77.1274 179.526C77.1274 180.204 77.4069 180.664 77.818 180.664ZM76.6917 179.526C76.6917 178.63 77.1562 178.001 77.818 178.001C78.4757 178.001 78.9403 178.63 78.9403 179.526C78.9403 180.418 78.4757 181.051 77.818 181.051C77.1562 181.051 76.6917 180.418 76.6917 179.526ZM80.4553 178.034V181.022L80.0196 181.018V178.498L79.4934 178.79L79.3125 178.424L80.0237 178.034H80.4553Z" fill="#D0D0D8"/>
<path d="M303.643 27.964V28.3463H302.159V29.2876H303.417V29.6658H302.159V30.9977H301.723V27.964H303.643ZM304.074 29.2342H305.867V29.67H304.074V29.2342ZM307.459 30.6195C307.87 30.6195 308.146 30.1591 308.146 29.4809C308.146 28.7985 307.87 28.3381 307.459 28.3381C307.048 28.3381 306.769 28.7985 306.769 29.4809C306.769 30.1591 307.048 30.6195 307.459 30.6195ZM306.333 29.4809C306.333 28.5847 306.797 27.9558 307.459 27.9558C308.117 27.9558 308.581 28.5847 308.581 29.4809C308.581 30.3729 308.117 31.006 307.459 31.006C306.797 31.006 306.333 30.3729 306.333 29.4809ZM310.096 27.9886V30.9772L309.661 30.9731V28.4532L309.134 28.745L308.954 28.3792L309.665 27.9886H310.096Z" fill="#D0D0D8"/>
<path d="M302.955 90.9952V91.3775H301.471V92.3189H302.729V92.6971H301.471V94.029H301.036V90.9952H302.955ZM303.387 92.2655H305.179V92.7012H303.387V92.2655ZM306.772 93.6508C307.183 93.6508 307.458 93.1904 307.458 92.5121C307.458 91.8297 307.183 91.3693 306.772 91.3693C306.361 91.3693 306.081 91.8297 306.081 92.5121C306.081 93.1904 306.361 93.6508 306.772 93.6508ZM305.645 92.5121C305.645 91.616 306.11 90.987 306.772 90.987C307.429 90.987 307.894 91.616 307.894 92.5121C307.894 93.4041 307.429 94.0372 306.772 94.0372C306.11 94.0372 305.645 93.4041 305.645 92.5121ZM308.357 93.6261C308.957 93.0506 309.775 92.4669 309.775 91.9613C309.775 91.6242 309.561 91.3858 309.257 91.3858C309.022 91.3858 308.788 91.5543 308.681 91.7968L308.299 91.6283C308.463 91.2501 308.862 90.987 309.257 90.987C309.82 90.987 310.211 91.3899 310.211 91.9613C310.211 92.5902 309.528 93.1493 308.973 93.6261H310.26V94.0084H308.398L308.357 93.6261Z" fill="#D0D0D8"/>
<path d="M112.487 77.9796V78.3619H110.962V79.2622H112.273V79.6404H110.962V80.6311H112.487V81.0134H110.526V77.9796H112.487ZM113.002 79.2498H114.795V79.6856H113.002V79.2498ZM116.387 80.6352C116.798 80.6352 117.074 80.1748 117.074 79.4965C117.074 78.8141 116.798 78.3537 116.387 78.3537C115.976 78.3537 115.697 78.8141 115.697 79.4965C115.697 80.1748 115.976 80.6352 116.387 80.6352ZM115.261 79.4965C115.261 78.6003 115.725 77.9714 116.387 77.9714C117.045 77.9714 117.509 78.6003 117.509 79.4965C117.509 80.3885 117.045 81.0216 116.387 81.0216C115.725 81.0216 115.261 80.3885 115.261 79.4965ZM117.972 80.6105C118.572 80.035 119.39 79.4513 119.39 78.9456C119.39 78.6086 119.177 78.3701 118.872 78.3701C118.638 78.3701 118.404 78.5387 118.297 78.7812L117.915 78.6127C118.079 78.2345 118.478 77.9714 118.872 77.9714C119.436 77.9714 119.826 78.3742 119.826 78.9456C119.826 79.5746 119.144 80.1337 118.589 80.6105H119.875V80.9928H118.013L117.972 80.6105Z" fill="#D0D0D8"/>
<path d="M158.385 77.9796V78.3619H156.86V79.2622H158.171V79.6404H156.86V80.6311H158.385V81.0134H156.424V77.9796H158.385ZM158.901 79.2498H160.693V79.6856H158.901V79.2498ZM162.286 80.6352C162.697 80.6352 162.972 80.1748 162.972 79.4965C162.972 78.8141 162.697 78.3537 162.286 78.3537C161.875 78.3537 161.595 78.8141 161.595 79.4965C161.595 80.1748 161.875 80.6352 162.286 80.6352ZM161.159 79.4965C161.159 78.6003 161.624 77.9714 162.286 77.9714C162.943 77.9714 163.408 78.6003 163.408 79.4965C163.408 80.3885 162.943 81.0216 162.286 81.0216C161.624 81.0216 161.159 80.3885 161.159 79.4965ZM165.4 79.4472C165.667 79.6034 165.835 79.8952 165.835 80.146C165.835 80.6557 165.416 81.0175 164.82 81.0175C164.228 81.0175 163.809 80.6475 163.809 80.1213H164.245C164.245 80.4214 164.483 80.6311 164.82 80.6311C165.165 80.6311 165.412 80.4214 165.412 80.1213C165.412 79.8336 165.17 79.628 164.828 79.628H164.615V79.2622H164.832C165.145 79.2622 165.367 79.0772 165.367 78.8141C165.367 78.5469 165.153 78.3619 164.849 78.3619C164.545 78.3619 164.335 78.551 164.335 78.8182H163.899C163.899 78.3208 164.29 77.9755 164.849 77.9755C165.4 77.9755 165.79 78.3126 165.79 78.7894C165.79 79.0196 165.642 79.2909 165.4 79.4472Z" fill="#D0D0D8"/>
<path d="M204.291 77.9796V78.3619H202.766V79.2622H204.078V79.6404H202.766V80.6311H204.291V81.0134H202.331V77.9796H204.291ZM204.807 79.2498H206.599V79.6856H204.807V79.2498ZM208.192 80.6352C208.603 80.6352 208.878 80.1748 208.878 79.4965C208.878 78.8141 208.603 78.3537 208.192 78.3537C207.781 78.3537 207.501 78.8141 207.501 79.4965C207.501 80.1748 207.781 80.6352 208.192 80.6352ZM207.066 79.4965C207.066 78.6003 207.53 77.9714 208.192 77.9714C208.85 77.9714 209.314 78.6003 209.314 79.4965C209.314 80.3885 208.85 81.0216 208.192 81.0216C207.53 81.0216 207.066 80.3885 207.066 79.4965ZM211.479 78.0002V79.8418H211.857V80.22H211.479V80.9928H211.043V80.22H209.756L209.715 79.8418L211.063 78.0002H211.479ZM210.233 79.8418H211.043V78.7278L210.233 79.8418Z" fill="#D0D0D8"/>
</g>
<defs>
<clipPath id="clip0_3968_64425">
<rect width="360" height="293" fill="white"/>
</clipPath>
<clipPath id="clip1_3968_64425">
<rect width="16.4431" height="16.4431" fill="white" transform="translate(107.523 57.4277)"/>
</clipPath>
<clipPath id="clip2_3968_64425">
<rect width="16.4431" height="16.4431" fill="white" transform="translate(153.422 57.4277)"/>
</clipPath>
<clipPath id="clip3_3968_64425">
<rect width="16.4431" height="16.4431" fill="white" transform="translate(199.328 57.4277)"/>
</clipPath>
</defs>
</svg>
