<svg width="360" height="293" viewBox="0 0 360 293" fill="none" xmlns="http://www.w3.org/2000/svg">
<g clip-path="url(#clip0_3397_252593)">
<rect width="360" height="293" fill="#3E3E49"/>
<rect x="203.461" y="32.2388" width="152.597" height="1.43283" transform="rotate(90 203.461 32.2388)" fill="#797986"/>
<rect x="170.508" y="32.2388" width="152.597" height="1.43283" transform="rotate(90 170.508 32.2388)" fill="#797986"/>
<rect x="133.254" y="72.3584" width="111.045" height="1.43283" transform="rotate(90 133.254 72.3584)" fill="#797986"/>
<rect x="23.6406" y="32.2388" width="83.1045" height="1.43283" transform="rotate(90 23.6406 32.2388)" fill="#797986"/>
<rect x="23.6406" y="139.702" width="45.1343" height="1.43283" transform="rotate(90 23.6406 139.702)" fill="#797986"/>
<rect x="320.238" y="159.761" width="54.4478" height="1.43283" transform="rotate(-180 320.238 159.761)" fill="#797986"/>
<rect x="265.793" y="210.627" width="50.8657" height="1.43284" transform="rotate(-90 265.793 210.627)" fill="#797986"/>
<rect x="265.793" y="276.537" width="50.8657" height="1.43284" transform="rotate(-90 265.793 276.537)" fill="#797986"/>
<rect x="22.207" y="265.791" width="46.5672" height="1.43284" transform="rotate(-90 22.207 265.791)" fill="#797986"/>
<rect x="70.207" y="265.791" width="46.5672" height="1.43284" transform="rotate(-90 70.207 265.791)" fill="#797986"/>
<rect x="118.207" y="265.791" width="46.5672" height="1.43284" transform="rotate(-90 118.207 265.791)" fill="#797986"/>
<rect x="166.207" y="265.791" width="46.5672" height="1.43284" transform="rotate(-90 166.207 265.791)" fill="#797986"/>
<rect width="27.2239" height="1.43284" transform="matrix(-4.6012e-08 1 1 4.15258e-08 180.539 -15.7612)" fill="#797986"/>
<rect width="38.6866" height="1.43284" transform="matrix(-4.6012e-08 1 1 4.15258e-08 131.82 32.2388)" fill="#797986"/>
<rect width="38.6866" height="1.43284" transform="matrix(-4.6012e-08 1 1 4.15258e-08 96.7148 32.2388)" fill="#797986"/>
<rect width="38.6866" height="1.43284" transform="matrix(-4.6012e-08 1 1 4.15258e-08 61.6133 32.2388)" fill="#797986"/>
<rect x="214.207" y="265.791" width="46.5672" height="1.43284" transform="rotate(-90 214.207 265.791)" fill="#797986"/>
<rect width="27.2239" height="1.43284" transform="matrix(-4.6012e-08 1 1 4.15258e-08 208.477 -15.7612)" fill="#797986"/>
<rect width="27.2239" height="1.43284" transform="matrix(-4.6012e-08 1 1 4.15258e-08 236.418 -15.7612)" fill="#797986"/>
<rect width="27.2239" height="1.43284" transform="matrix(-4.6012e-08 1 1 4.15258e-08 264.359 -15.7612)" fill="#797986"/>
<rect width="27.2239" height="1.43284" transform="matrix(-4.6012e-08 1 1 4.15258e-08 292.297 -15.7612)" fill="#797986"/>
<rect x="22.207" y="217.791" width="193.433" height="1.43284" fill="#797986"/>
<rect x="320.238" y="225.672" width="54.4478" height="1.43283" transform="rotate(-180 320.238 225.672)" fill="#797986"/>
<rect x="320.957" y="291.582" width="55.1642" height="1.43283" transform="rotate(-180 320.957 291.582)" fill="#797986"/>
<rect x="70.207" y="265.791" width="32.9552" height="1.43283" transform="rotate(-180 70.207 265.791)" fill="#797986"/>
<rect x="118.207" y="265.791" width="32.9552" height="1.43283" transform="rotate(-180 118.207 265.791)" fill="#797986"/>
<rect x="166.207" y="265.791" width="32.9552" height="1.43283" transform="rotate(-180 166.207 265.791)" fill="#797986"/>
<rect x="214.207" y="265.791" width="32.9552" height="1.43283" transform="rotate(-180 214.207 265.791)" fill="#797986"/>
<rect width="15.0448" height="1.43283" transform="matrix(-1 8.74228e-08 8.74228e-08 1 197.016 10.0298)" fill="#797986"/>
<rect width="15.0448" height="1.43283" transform="matrix(-1 8.74228e-08 8.74228e-08 1 224.957 10.0298)" fill="#797986"/>
<rect width="15.0448" height="1.43283" transform="matrix(-1 8.74228e-08 8.74228e-08 1 252.895 10.0298)" fill="#797986"/>
<rect width="15.0448" height="1.43283" transform="matrix(-1 8.74228e-08 8.74228e-08 1 280.836 10.0298)" fill="#797986"/>
<rect width="15.0448" height="1.43283" transform="matrix(-1 8.74228e-08 8.74228e-08 1 308.777 10.0298)" fill="#797986"/>
<rect x="242.867" y="159.761" width="39.403" height="1.43283" transform="rotate(-180 242.867 159.761)" fill="#797986"/>
<rect x="320.238" y="32.2388" width="118.209" height="1.43283" transform="rotate(-180 320.238 32.2388)" fill="#797986"/>
<rect x="169.074" y="72.3584" width="145.433" height="1.43282" transform="rotate(-180 169.074 72.3584)" fill="#797986"/>
<rect x="152.598" y="184.836" width="128.955" height="1.43282" transform="rotate(-180 152.598 184.836)" fill="#797986"/>
<rect x="202.031" y="32.2388" width="45.8507" height="1.43283" transform="rotate(-180 202.031 32.2388)" fill="#797986"/>
<rect x="143.285" y="32.2388" width="22.209" height="1.43283" transform="rotate(-180 143.285 32.2388)" fill="#797986"/>
<rect x="152.598" y="149.015" width="19.3433" height="1.43283" transform="rotate(-180 152.598 149.015)" fill="#797986"/>
<rect x="202.031" y="184.836" width="31.5224" height="1.43283" transform="rotate(-180 202.031 184.836)" fill="#797986"/>
<rect x="108.18" y="32.2388" width="22.209" height="1.43283" transform="rotate(-180 108.18 32.2388)" fill="#797986"/>
<rect x="73.0742" y="32.2388" width="22.209" height="1.43283" transform="rotate(-180 73.0742 32.2388)" fill="#797986"/>
<rect x="37.9688" y="32.2388" width="15.7612" height="1.43283" transform="rotate(-180 37.9688 32.2388)" fill="#797986"/>
<rect x="324.539" y="-20.0601" width="417.672" height="4.29849" transform="rotate(90 324.539 -20.0601)" fill="#797986"/>
<path d="M196.188 1.73037V1.73395C196.188 2.35119 196.688 2.85156 197.305 2.85156H199.397C200.014 2.85156 200.515 2.35119 200.515 1.73395V1.73037C200.515 1.11313 200.014 0.612757 199.397 0.612757H197.305C196.688 0.612757 196.188 1.11313 196.188 1.73037Z" fill="#3E3E49" stroke="#797986" stroke-width="0.429851" stroke-miterlimit="10"/>
<path d="M190.652 1.72646V1.73004C190.652 2.34728 191.153 2.84766 191.77 2.84766L197.111 2.84766C197.728 2.84766 198.228 2.34728 198.228 1.73004V1.72646C198.228 1.10922 197.728 0.60885 197.111 0.60885L191.77 0.60885C191.153 0.60885 190.652 1.10922 190.652 1.72646Z" fill="#3E3E49" stroke="#797986" stroke-width="0.429851" stroke-miterlimit="10"/>
<path d="M201.097 -0.458674L198.998 -2.38942L198.295 -4.30584C198.098 -4.77867 197.855 -5.1333 197.178 -5.1333H196.82H194.309H193.95C193.592 -5.12972 193.087 -4.87897 192.872 -4.30226L192.174 -2.38584L190.075 -0.455091C189.799 -0.200763 189.781 0.232669 190.035 0.50849C190.289 0.784311 190.723 0.802222 190.999 0.547893L193.18 -1.45808C193.209 -1.48673 193.238 -1.51539 193.259 -1.54763C193.324 -1.61211 193.374 -1.69091 193.406 -1.78405L193.592 -2.29629V0.612371H197.536V-2.42166L197.769 -1.78405C197.801 -1.69449 197.851 -1.61569 197.916 -1.54763C197.941 -1.51539 197.966 -1.48673 197.995 -1.45808L200.176 0.547893C200.452 0.802222 200.885 0.784311 201.14 0.50849C201.394 0.232669 201.376 -0.200763 201.1 -0.455091L201.097 -0.458674Z" fill="#3E3E49" stroke="#797986" stroke-width="0.429851" stroke-linecap="round" stroke-linejoin="round"/>
<path d="M224.129 1.73037V1.73395C224.129 2.35119 224.629 2.85156 225.247 2.85156H227.338C227.956 2.85156 228.456 2.35119 228.456 1.73395V1.73037C228.456 1.11313 227.956 0.612757 227.338 0.612757H225.247C224.629 0.612757 224.129 1.11313 224.129 1.73037Z" fill="#3E3E49" stroke="#797986" stroke-width="0.429851" stroke-miterlimit="10"/>
<path d="M218.594 1.72646V1.73004C218.594 2.34728 219.094 2.84766 219.711 2.84766L225.052 2.84766C225.669 2.84766 226.17 2.34728 226.17 1.73004V1.72646C226.17 1.10922 225.669 0.60885 225.052 0.60885L219.711 0.60885C219.094 0.60885 218.594 1.10922 218.594 1.72646Z" fill="#3E3E49" stroke="#797986" stroke-width="0.429851" stroke-miterlimit="10"/>
<path d="M229.038 -0.458674L226.939 -2.38942L226.237 -4.30584C226.04 -4.77867 225.796 -5.1333 225.119 -5.1333H224.761H222.25H221.892C221.534 -5.12972 221.029 -4.87897 220.814 -4.30226L220.115 -2.38584L218.016 -0.455091C217.74 -0.200763 217.722 0.232669 217.977 0.50849C218.231 0.784311 218.664 0.802222 218.94 0.547893L221.122 -1.45808C221.15 -1.48673 221.179 -1.51539 221.2 -1.54763C221.265 -1.61211 221.315 -1.69091 221.347 -1.78405L221.534 -2.29629V0.612371H225.477V-2.42166L225.71 -1.78405C225.743 -1.69449 225.793 -1.61569 225.857 -1.54763C225.882 -1.51539 225.907 -1.48673 225.936 -1.45808L228.117 0.547893C228.393 0.802222 228.827 0.784311 229.081 0.50849C229.335 0.232669 229.317 -0.200763 229.042 -0.455091L229.038 -0.458674Z" fill="#3E3E49" stroke="#797986" stroke-width="0.429851" stroke-linecap="round" stroke-linejoin="round"/>
<path d="M252.07 1.73037V1.73395C252.07 2.35119 252.571 2.85156 253.188 2.85156H255.28C255.897 2.85156 256.397 2.35119 256.397 1.73395V1.73037C256.397 1.11313 255.897 0.612757 255.28 0.612757H253.188C252.571 0.612757 252.07 1.11313 252.07 1.73037Z" fill="#3E3E49" stroke="#797986" stroke-width="0.429851" stroke-miterlimit="10"/>
<path d="M246.535 1.72646V1.73004C246.535 2.34728 247.036 2.84766 247.653 2.84766L252.994 2.84766C253.611 2.84766 254.111 2.34728 254.111 1.73004V1.72646C254.111 1.10922 253.611 0.60885 252.994 0.60885L247.653 0.60885C247.036 0.60885 246.535 1.10922 246.535 1.72646Z" fill="#3E3E49" stroke="#797986" stroke-width="0.429851" stroke-miterlimit="10"/>
<path d="M256.976 -0.458674L254.876 -2.38942L254.174 -4.30584C253.977 -4.77867 253.734 -5.1333 253.057 -5.1333H252.699H250.187H249.829C249.471 -5.12972 248.966 -4.87897 248.751 -4.30226L248.053 -2.38584L245.953 -0.455091C245.678 -0.200763 245.66 0.232669 245.914 0.50849C246.168 0.784311 246.602 0.802222 246.878 0.547893L249.059 -1.45808C249.088 -1.48673 249.116 -1.51539 249.138 -1.54763C249.202 -1.61211 249.253 -1.69091 249.285 -1.78405L249.471 -2.29629V0.612371H253.415V-2.42166L253.648 -1.78405C253.68 -1.69449 253.73 -1.61569 253.795 -1.54763C253.82 -1.51539 253.845 -1.48673 253.873 -1.45808L256.055 0.547893C256.331 0.802222 256.764 0.784311 257.019 0.50849C257.273 0.232669 257.255 -0.200763 256.979 -0.455091L256.976 -0.458674Z" fill="#3E3E49" stroke="#797986" stroke-width="0.429851" stroke-linecap="round" stroke-linejoin="round"/>
<path d="M280.008 1.73037V1.73395C280.008 2.35119 280.508 2.85156 281.125 2.85156H283.217C283.835 2.85156 284.335 2.35119 284.335 1.73395V1.73037C284.335 1.11313 283.835 0.612757 283.217 0.612757H281.125C280.508 0.612757 280.008 1.11313 280.008 1.73037Z" fill="#3E3E49" stroke="#797986" stroke-width="0.429851" stroke-miterlimit="10"/>
<path d="M274.473 1.72646V1.73004C274.473 2.34728 274.973 2.84766 275.59 2.84766L280.931 2.84766C281.548 2.84766 282.049 2.34728 282.049 1.73004V1.72646C282.049 1.10922 281.548 0.60885 280.931 0.60885L275.59 0.60885C274.973 0.60885 274.473 1.10922 274.473 1.72646Z" fill="#3E3E49" stroke="#797986" stroke-width="0.429851" stroke-miterlimit="10"/>
<path d="M284.913 -0.458674L282.814 -2.38942L282.112 -4.30584C281.915 -4.77867 281.671 -5.1333 280.994 -5.1333H280.636H278.125H277.767C277.409 -5.12972 276.904 -4.87897 276.689 -4.30226L275.99 -2.38584L273.891 -0.455091C273.615 -0.200763 273.597 0.232669 273.852 0.50849C274.106 0.784311 274.539 0.802222 274.815 0.547893L276.997 -1.45808C277.025 -1.48673 277.054 -1.51539 277.075 -1.54763C277.14 -1.61211 277.19 -1.69091 277.222 -1.78405L277.409 -2.29629V0.612371H281.352V-2.42166L281.585 -1.78405C281.618 -1.69449 281.668 -1.61569 281.732 -1.54763C281.757 -1.51539 281.782 -1.48673 281.811 -1.45808L283.992 0.547893C284.268 0.802222 284.702 0.784311 284.956 0.50849C285.21 0.232669 285.192 -0.200763 284.917 -0.455091L284.913 -0.458674Z" fill="#3E3E49" stroke="#797986" stroke-width="0.429851" stroke-linecap="round" stroke-linejoin="round"/>
<path d="M307.949 1.73037V1.73395C307.949 2.35119 308.45 2.85156 309.067 2.85156H311.159C311.776 2.85156 312.276 2.35119 312.276 1.73395V1.73037C312.276 1.11313 311.776 0.612757 311.159 0.612757H309.067C308.45 0.612757 307.949 1.11313 307.949 1.73037Z" fill="#3E3E49" stroke="#797986" stroke-width="0.429851" stroke-miterlimit="10"/>
<path d="M302.414 1.72646V1.73004C302.414 2.34728 302.914 2.84766 303.532 2.84766L308.873 2.84766C309.49 2.84766 309.99 2.34728 309.99 1.73004V1.72646C309.99 1.10922 309.49 0.60885 308.873 0.60885L303.532 0.60885C302.914 0.60885 302.414 1.10922 302.414 1.72646Z" fill="#3E3E49" stroke="#797986" stroke-width="0.429851" stroke-miterlimit="10"/>
<path d="M312.858 -0.458674L310.759 -2.38942L310.057 -4.30584C309.86 -4.77867 309.617 -5.1333 308.94 -5.1333H308.581H306.07H305.712C305.354 -5.12972 304.849 -4.87897 304.634 -4.30226L303.935 -2.38584L301.836 -0.455091C301.56 -0.200763 301.543 0.232669 301.797 0.50849C302.051 0.784311 302.485 0.802222 302.76 0.547893L304.942 -1.45808C304.971 -1.48673 304.999 -1.51539 305.021 -1.54763C305.085 -1.61211 305.135 -1.69091 305.168 -1.78405L305.354 -2.29629V0.612371H309.298V-2.42166L309.531 -1.78405C309.563 -1.69449 309.613 -1.61569 309.677 -1.54763C309.703 -1.51539 309.728 -1.48673 309.756 -1.45808L311.938 0.547893C312.214 0.802222 312.647 0.784311 312.901 0.50849C313.156 0.232669 313.138 -0.200763 312.862 -0.455091L312.858 -0.458674Z" fill="#3E3E49" stroke="#797986" stroke-width="0.429851" stroke-linecap="round" stroke-linejoin="round"/>
<path d="M154.604 105.313H156.896V116.776H145.434V114.484H147.726V112.191H150.019V109.899H152.311V107.606H154.604V105.313Z" fill="#3E3E49" stroke="#797986" stroke-width="0.429851"/>
<path d="M151.164 103.881L144 111.045M151.164 103.881H149.511M151.164 103.881V105.534M144 111.045H145.653M144 111.045V109.392" stroke="#797986" stroke-width="0.429851"/>
<path fill-rule="evenodd" clip-rule="evenodd" d="M37.543 47.0184C37.543 46.1418 38.2536 45.4312 39.1302 45.4312H46.273C47.1496 45.4312 47.8603 46.1418 47.8603 47.0184V56.1453C47.8603 57.0219 47.1496 57.7325 46.273 57.7325H39.1302C38.2536 57.7325 37.543 57.0219 37.543 56.1453V47.0184ZM39.1302 46.2248H42.7016H46.273C46.7113 46.2248 47.0666 46.5801 47.0666 47.0184V56.1453C47.0666 56.5836 46.7113 56.9389 46.273 56.9389H42.7016H39.1302C38.6919 56.9389 38.3366 56.5836 38.3366 56.1453V47.0184C38.3366 46.5801 38.6919 46.2248 39.1302 46.2248Z" fill="#3E3E49"/>
<path d="M42.7016 46.2248H39.1302C38.6919 46.2248 38.3366 46.5801 38.3366 47.0184V56.1453C38.3366 56.5836 38.6919 56.9389 39.1302 56.9389H42.7016V46.2248Z" fill="#3E3E49"/>
<path d="M42.7016 46.2248V56.9389H46.273C46.7113 56.9389 47.0666 56.5836 47.0666 56.1453V47.0184C47.0666 46.5801 46.7113 46.2248 46.273 46.2248H42.7016Z" fill="#3E3E49"/>
<path d="M42.7016 46.2248H39.1302C38.6919 46.2248 38.3366 46.5801 38.3366 47.0184V56.1453C38.3366 56.5836 38.6919 56.9389 39.1302 56.9389H42.7016M42.7016 46.2248V56.9389M42.7016 46.2248H46.273C46.7113 46.2248 47.0666 46.5801 47.0666 47.0184V56.1453C47.0666 56.5836 46.7113 56.9389 46.273 56.9389H42.7016M39.1302 57.7325H46.273C47.1496 57.7325 47.8603 57.0219 47.8603 56.1453V47.0184C47.8603 46.1418 47.1496 45.4312 46.273 45.4312H39.1302C38.2536 45.4312 37.543 46.1418 37.543 47.0184V56.1453C37.543 57.0219 38.2536 57.7325 39.1302 57.7325Z" stroke="#797986" stroke-width="0.47313"/>
<path d="M50.6873 49.2012C50.8401 48.9366 51.2219 48.9366 51.3746 49.2012L52.4056 50.9869C52.5583 51.2514 52.3674 51.5821 52.0619 51.5821H50C49.6945 51.5821 49.5036 51.2514 49.6563 50.9869L50.6873 49.2012Z" fill="#3E3E49" stroke="#797986" stroke-width="0.47313"/>
<path d="M50.6873 54.7563C50.8401 55.0209 51.2219 55.0209 51.3746 54.7563L52.4056 52.9706C52.5583 52.7061 52.3674 52.3754 52.0619 52.3754H50C49.6945 52.3754 49.5036 52.7061 49.6563 52.9706L50.6873 54.7563Z" fill="#3E3E49" stroke="#797986" stroke-width="0.47313"/>
<path fill-rule="evenodd" clip-rule="evenodd" d="M73.3594 47.4362C73.3594 46.6398 74.005 45.9941 74.8015 45.9941H81.2908C82.0872 45.9941 82.7329 46.6398 82.7329 47.4362V55.7282C82.7329 56.5246 82.0873 57.1703 81.2908 57.1703H74.8015C74.005 57.1703 73.3594 56.5246 73.3594 55.7282V47.4362ZM74.8015 46.7152H78.0461H81.2908C81.689 46.7152 82.0119 47.038 82.0119 47.4362V55.7282C82.0119 56.1264 81.689 56.4492 81.2908 56.4492H78.0461H74.8015C74.4032 56.4492 74.0804 56.1264 74.0804 55.7282V47.4362C74.0804 47.038 74.4032 46.7152 74.8015 46.7152Z" fill="#3E3E49"/>
<path d="M78.0461 46.7152H74.8015C74.4032 46.7152 74.0804 47.038 74.0804 47.4362V55.7282C74.0804 56.1264 74.4032 56.4492 74.8015 56.4492H78.0461V46.7152Z" fill="#3E3E49"/>
<path d="M78.0461 46.7152V56.4492H81.2908C81.689 56.4492 82.0119 56.1264 82.0119 55.7282V47.4362C82.0119 47.038 81.689 46.7152 81.2908 46.7152H78.0461Z" fill="#3E3E49"/>
<path d="M78.0461 46.7152H74.8015C74.4032 46.7152 74.0804 47.038 74.0804 47.4362V55.7282C74.0804 56.1264 74.4032 56.4492 74.8015 56.4492H78.0461M78.0461 46.7152V56.4492M78.0461 46.7152H81.2908C81.689 46.7152 82.0119 47.038 82.0119 47.4362V55.7282C82.0119 56.1264 81.689 56.4492 81.2908 56.4492H78.0461M74.8015 57.1703H81.2908C82.0873 57.1703 82.7329 56.5246 82.7329 55.7282V47.4362C82.7329 46.6398 82.0872 45.9941 81.2908 45.9941H74.8015C74.005 45.9941 73.3594 46.6398 73.3594 47.4362V55.7282C73.3594 56.5246 74.005 57.1703 74.8015 57.1703Z" stroke="#797986" stroke-width="0.429851"/>
<path d="M85.3029 49.4187C85.4416 49.1784 85.7886 49.1784 85.9273 49.4187L86.864 51.041C87.0027 51.2814 86.8293 51.5818 86.5518 51.5818H84.6784C84.4009 51.5818 84.2275 51.2814 84.3662 51.041L85.3029 49.4187Z" fill="#3E3E49" stroke="#797986" stroke-width="0.429851"/>
<path d="M85.3029 54.4661C85.4416 54.7064 85.7886 54.7064 85.9273 54.4661L86.864 52.8437C87.0027 52.6034 86.8293 52.3029 86.5518 52.3029H84.6784C84.4009 52.3029 84.2275 52.6034 84.3662 52.8437L85.3029 54.4661Z" fill="#3E3E49" stroke="#797986" stroke-width="0.429851"/>
<path fill-rule="evenodd" clip-rule="evenodd" d="M108.465 47.4362C108.465 46.6398 109.11 45.9941 109.907 45.9941H116.396C117.193 45.9941 117.838 46.6398 117.838 47.4362V55.7282C117.838 56.5246 117.193 57.1703 116.396 57.1703H109.907C109.11 57.1703 108.465 56.5246 108.465 55.7282V47.4362ZM109.907 46.7152H113.152H116.396C116.795 46.7152 117.117 47.038 117.117 47.4362V55.7282C117.117 56.1264 116.795 56.4492 116.396 56.4492H113.152H109.907C109.509 56.4492 109.186 56.1264 109.186 55.7282V47.4362C109.186 47.038 109.509 46.7152 109.907 46.7152Z" fill="#3E3E49"/>
<path d="M113.152 46.7152H109.907C109.509 46.7152 109.186 47.038 109.186 47.4362V55.7282C109.186 56.1264 109.509 56.4492 109.907 56.4492H113.152V46.7152Z" fill="#3E3E49"/>
<path d="M113.152 46.7152V56.4492H116.396C116.795 56.4492 117.117 56.1264 117.117 55.7282V47.4362C117.117 47.038 116.795 46.7152 116.396 46.7152H113.152Z" fill="#3E3E49"/>
<path d="M113.152 46.7152H109.907C109.509 46.7152 109.186 47.038 109.186 47.4362V55.7282C109.186 56.1264 109.509 56.4492 109.907 56.4492H113.152M113.152 46.7152V56.4492M113.152 46.7152H116.396C116.795 46.7152 117.117 47.038 117.117 47.4362V55.7282C117.117 56.1264 116.795 56.4492 116.396 56.4492H113.152M109.907 57.1703H116.396C117.193 57.1703 117.838 56.5246 117.838 55.7282V47.4362C117.838 46.6398 117.193 45.9941 116.396 45.9941H109.907C109.11 45.9941 108.465 46.6398 108.465 47.4362V55.7282C108.465 56.5246 109.11 57.1703 109.907 57.1703Z" stroke="#797986" stroke-width="0.429851"/>
<path d="M120.408 49.4187C120.547 49.1784 120.894 49.1784 121.033 49.4187L121.969 51.041C122.108 51.2814 121.935 51.5818 121.657 51.5818H119.784C119.506 51.5818 119.333 51.2814 119.472 51.041L120.408 49.4187Z" fill="#3E3E49" stroke="#797986" stroke-width="0.429851"/>
<path d="M120.408 54.4661C120.547 54.7064 120.894 54.7064 121.033 54.4661L121.969 52.8437C122.108 52.6034 121.935 52.3029 121.657 52.3029H119.784C119.506 52.3029 119.333 52.6034 119.472 52.8437L120.408 54.4661Z" fill="#3E3E49" stroke="#797986" stroke-width="0.429851"/>
<path fill-rule="evenodd" clip-rule="evenodd" d="M143.57 47.4362C143.57 46.6398 144.216 45.9941 145.012 45.9941H151.502C152.298 45.9941 152.944 46.6398 152.944 47.4362V55.7282C152.944 56.5246 152.298 57.1703 151.502 57.1703H145.012C144.216 57.1703 143.57 56.5246 143.57 55.7282V47.4362ZM145.012 46.7152H148.257H151.502C151.9 46.7152 152.223 47.038 152.223 47.4362V55.7282C152.223 56.1264 151.9 56.4492 151.502 56.4492H148.257H145.012C144.614 56.4492 144.291 56.1264 144.291 55.7282V47.4362C144.291 47.038 144.614 46.7152 145.012 46.7152Z" fill="#3E3E49"/>
<path d="M148.257 46.7152H145.012C144.614 46.7152 144.291 47.038 144.291 47.4362V55.7282C144.291 56.1264 144.614 56.4492 145.012 56.4492H148.257V46.7152Z" fill="#3E3E49"/>
<path d="M148.257 46.7152V56.4492H151.502C151.9 56.4492 152.223 56.1264 152.223 55.7282V47.4362C152.223 47.038 151.9 46.7152 151.502 46.7152H148.257Z" fill="#3E3E49"/>
<path d="M148.257 46.7152H145.012C144.614 46.7152 144.291 47.038 144.291 47.4362V55.7282C144.291 56.1264 144.614 56.4492 145.012 56.4492H148.257M148.257 46.7152V56.4492M148.257 46.7152H151.502C151.9 46.7152 152.223 47.038 152.223 47.4362V55.7282C152.223 56.1264 151.9 56.4492 151.502 56.4492H148.257M145.012 57.1703H151.502C152.298 57.1703 152.944 56.5246 152.944 55.7282V47.4362C152.944 46.6398 152.298 45.9941 151.502 45.9941H145.012C144.216 45.9941 143.57 46.6398 143.57 47.4362V55.7282C143.57 56.5246 144.216 57.1703 145.012 57.1703Z" stroke="#797986" stroke-width="0.429851"/>
<path d="M155.514 49.4187C155.653 49.1784 155.999 49.1784 156.138 49.4187L157.075 51.041C157.214 51.2814 157.04 51.5818 156.763 51.5818H154.889C154.612 51.5818 154.438 51.2814 154.577 51.041L155.514 49.4187Z" fill="#3E3E49" stroke="#797986" stroke-width="0.429851"/>
<path d="M155.514 54.4661C155.653 54.7064 155.999 54.7064 156.138 54.4661L157.075 52.8437C157.214 52.6034 157.04 52.3029 156.763 52.3029H154.889C154.612 52.3029 154.438 52.6034 154.577 52.8437L155.514 54.4661Z" fill="#3E3E49" stroke="#797986" stroke-width="0.429851"/>
<path d="M73.5043 123.439C74.0978 123.439 74.5789 122.958 74.5789 122.364C74.5789 121.771 74.0978 121.29 73.5043 121.29C72.9108 121.29 72.4297 121.771 72.4297 122.364C72.4297 122.958 72.9108 123.439 73.5043 123.439Z" fill="#3E3E49" stroke="#797986" stroke-width="0.429851" stroke-miterlimit="10"/>
<path d="M81.4574 123.439C82.0509 123.439 82.5321 122.958 82.5321 122.364C82.5321 121.771 82.0509 121.29 81.4574 121.29C80.8639 121.29 80.3828 121.771 80.3828 122.364C80.3828 122.958 80.8639 123.439 81.4574 123.439Z" fill="#3E3E49" stroke="#797986" stroke-width="0.429851" stroke-miterlimit="10"/>
<path d="M74.9104 128.759V125.205C74.9104 125.203 74.9119 125.202 74.9137 125.202C74.9155 125.202 74.917 125.203 74.917 125.205V128.452C74.917 128.777 75.1835 129.04 75.509 129.035C75.8279 129.031 76.084 128.771 76.084 128.452V124.793C76.084 124.305 75.6832 123.911 75.195 123.921H71.7796C71.3108 123.912 70.9258 124.289 70.9258 124.758V128.468C70.9258 128.778 71.1748 129.031 71.4849 129.035C71.8016 129.04 72.0609 128.785 72.0609 128.468V125.203C72.0609 125.202 72.0616 125.202 72.0626 125.202C72.0635 125.202 72.0642 125.202 72.0642 125.203V128.759V133.457C72.0642 133.849 72.3819 134.167 72.7737 134.167C73.1656 134.167 73.4832 133.849 73.4832 133.457V128.783C73.4832 128.77 73.4939 128.759 73.5071 128.759C73.5203 128.759 73.5309 128.77 73.5309 128.783V133.477C73.5309 133.858 73.8397 134.167 74.2207 134.167C74.6016 134.167 74.9104 133.858 74.9104 133.477V128.759Z" fill="#3E3E49" stroke="#797986" stroke-width="0.429851"/>
<path d="M83.8074 130.406L82.5793 125.358C82.5776 125.35 82.583 125.343 82.5905 125.343C82.5958 125.343 82.6004 125.347 82.6017 125.352L83.3806 128.641C83.4364 128.877 83.6469 129.043 83.8892 129.043C84.2239 129.043 84.4724 128.733 84.3992 128.407L83.5899 124.793C83.4757 124.283 83.0231 123.92 82.5006 123.92H80.4085C79.8916 123.92 79.4429 124.277 79.3256 124.78L78.4807 128.405C78.4047 128.732 78.6523 129.043 78.9872 129.043C79.2282 129.043 79.4376 128.878 79.4932 128.643L80.2731 125.352C80.2744 125.347 80.279 125.343 80.2843 125.343C80.2918 125.343 80.2973 125.35 80.2955 125.358L79.0675 130.406C79.0424 130.509 79.1205 130.609 79.2266 130.609H80.1953V133.561C80.1953 133.896 80.4663 134.167 80.8006 134.167C81.1348 134.167 81.4058 133.896 81.4058 133.561V130.636C81.4058 130.624 81.4188 130.617 81.4291 130.623C81.4338 130.625 81.4367 130.63 81.4367 130.636V133.581C81.4367 133.913 81.7085 134.181 82.0405 134.176C82.3653 134.171 82.626 133.906 82.626 133.581V130.609H83.6482C83.7543 130.609 83.8324 130.509 83.8074 130.406Z" fill="#3E3E49" stroke="#797986" stroke-width="0.429851"/>
<path d="M77.375 121.075V134.167" stroke="#797986" stroke-width="0.429851" stroke-linecap="round"/>
<path d="M42.8047 231.134C42.8047 230.986 42.925 230.866 43.0733 230.866H50.0584C50.2068 230.866 50.3271 230.986 50.3271 231.134V234.896C50.3271 235.044 50.2068 235.164 50.0584 235.164H43.0733C42.925 235.164 42.8047 235.044 42.8047 234.896V231.134Z" stroke="#797986" stroke-width="0.429851"/>
<path d="M44.0146 236.311C44.0955 236.105 44.2938 235.97 44.5146 235.97H48.6188C48.8395 235.97 49.0378 236.105 49.1187 236.311L52.1879 244.102C52.3268 244.454 52.067 244.836 51.688 244.836H41.4454C41.0665 244.836 40.8066 244.454 40.9455 244.102L44.0146 236.311Z" stroke="#797986" stroke-width="0.429851"/>
<path d="M42.8033 236.776H41.9325C41.7842 236.776 41.6639 236.656 41.6639 236.508V234.358C41.6639 234.299 41.5832 234.283 41.5606 234.337L40.737 236.309C40.6822 236.44 40.654 236.581 40.654 236.723V238.926C40.654 239.074 40.7743 239.194 40.9227 239.194H41.7934M50.3257 236.776H51.1964C51.3448 236.776 51.4651 236.656 51.4651 236.508V234.358C51.4651 234.299 51.5458 234.283 51.5684 234.337L52.3919 236.309C52.4467 236.44 52.4749 236.581 52.4749 236.723V238.926C52.4749 239.074 52.3546 239.194 52.2063 239.194H51.3355M41.1913 241.075H40.2319C40.0539 241.075 39.9095 240.931 39.9095 240.753V238.193C39.9095 238.121 39.811 238.103 39.785 238.169L38.8622 240.526C38.8035 240.676 38.7734 240.835 38.7734 240.996V243.654C38.7734 243.832 38.9178 243.976 39.0958 243.976H40.0553M51.9376 241.075H52.8971C53.0751 241.075 53.2194 240.931 53.2194 240.753V238.193C53.2194 238.121 53.318 238.103 53.344 238.169L54.2668 240.526C54.3254 240.676 54.3555 240.835 54.3555 240.996V243.654C54.3555 243.832 54.2112 243.976 54.0331 243.976H53.0737" stroke="#797986" stroke-width="0.429851"/>
<path d="M45.5898 233.797V233.525L46.7919 231.623H46.9896V232.045H46.856L45.9478 233.482V233.504H47.5666V233.797H45.5898ZM46.8774 234.358V231.623H47.1926V234.358H46.8774Z" fill="#797986"/>
<path d="M90.8047 231.134C90.8047 230.986 90.925 230.866 91.0733 230.866H98.0584C98.2068 230.866 98.3271 230.986 98.3271 231.134V234.896C98.3271 235.044 98.2068 235.164 98.0584 235.164H91.0733C90.925 235.164 90.8047 235.044 90.8047 234.896V231.134Z" stroke="#797986" stroke-width="0.429851"/>
<path d="M92.0146 236.311C92.0955 236.105 92.2938 235.97 92.5146 235.97H96.6188C96.8395 235.97 97.0378 236.105 97.1187 236.311L100.188 244.102C100.327 244.454 100.067 244.836 99.688 244.836H89.4454C89.0665 244.836 88.8066 244.454 88.9455 244.102L92.0146 236.311Z" stroke="#797986" stroke-width="0.429851"/>
<path d="M90.8033 236.776H89.9325C89.7842 236.776 89.6639 236.656 89.6639 236.508V234.358C89.6639 234.299 89.5832 234.283 89.5606 234.337L88.737 236.309C88.6822 236.44 88.654 236.581 88.654 236.723V238.926C88.654 239.074 88.7743 239.194 88.9227 239.194H89.7934M98.3257 236.776H99.1964C99.3448 236.776 99.4651 236.656 99.4651 236.508V234.358C99.4651 234.299 99.5458 234.283 99.5684 234.337L100.392 236.309C100.447 236.44 100.475 236.581 100.475 236.723V238.926C100.475 239.074 100.355 239.194 100.206 239.194H99.3355M89.1913 241.075H88.2319C88.0539 241.075 87.9095 240.931 87.9095 240.753V238.193C87.9095 238.121 87.811 238.103 87.785 238.169L86.8622 240.526C86.8035 240.676 86.7734 240.835 86.7734 240.996V243.654C86.7734 243.832 86.9178 243.976 87.0958 243.976H88.0553M99.9376 241.075H100.897C101.075 241.075 101.219 240.931 101.219 240.753V238.193C101.219 238.121 101.318 238.103 101.344 238.169L102.267 240.526C102.325 240.676 102.356 240.835 102.356 240.996V243.654C102.356 243.832 102.211 243.976 102.033 243.976H101.074" stroke="#797986" stroke-width="0.429851"/>
<path d="M93.5898 233.797V233.525L94.7919 231.623H94.9896V232.045H94.856L93.9478 233.482V233.504H95.5666V233.797H93.5898ZM94.8774 234.358V231.623H95.1926V234.358H94.8774Z" fill="#797986"/>
<path d="M138.805 231.134C138.805 230.986 138.925 230.866 139.073 230.866H146.058C146.207 230.866 146.327 230.986 146.327 231.134V234.896C146.327 235.044 146.207 235.164 146.058 235.164H139.073C138.925 235.164 138.805 235.044 138.805 234.896V231.134Z" stroke="#797986" stroke-width="0.429851"/>
<path d="M140.015 236.311C140.096 236.105 140.294 235.97 140.515 235.97H144.619C144.84 235.97 145.038 236.105 145.119 236.311L148.188 244.102C148.327 244.454 148.067 244.836 147.688 244.836H137.445C137.066 244.836 136.807 244.454 136.945 244.102L140.015 236.311Z" stroke="#797986" stroke-width="0.429851"/>
<path d="M138.803 236.776H137.933C137.784 236.776 137.664 236.656 137.664 236.508V234.358C137.664 234.299 137.583 234.283 137.561 234.337L136.737 236.309C136.682 236.44 136.654 236.581 136.654 236.723V238.926C136.654 239.074 136.774 239.194 136.923 239.194H137.793M146.326 236.776H147.196C147.345 236.776 147.465 236.656 147.465 236.508V234.358C147.465 234.299 147.546 234.283 147.568 234.337L148.392 236.309C148.447 236.44 148.475 236.581 148.475 236.723V238.926C148.475 239.074 148.355 239.194 148.206 239.194H147.336M137.191 241.075H136.232C136.054 241.075 135.91 240.931 135.91 240.753V238.193C135.91 238.121 135.811 238.103 135.785 238.169L134.862 240.526C134.804 240.676 134.773 240.835 134.773 240.996V243.654C134.773 243.832 134.918 243.976 135.096 243.976H136.055M147.938 241.075H148.897C149.075 241.075 149.219 240.931 149.219 240.753V238.193C149.219 238.121 149.318 238.103 149.344 238.169L150.267 240.526C150.325 240.676 150.356 240.835 150.356 240.996V243.654C150.356 243.832 150.211 243.976 150.033 243.976H149.074" stroke="#797986" stroke-width="0.429851"/>
<path d="M141.59 233.797V233.525L142.792 231.623H142.99V232.045H142.856L141.948 233.482V233.504H143.567V233.797H141.59ZM142.877 234.358V231.623H143.193V234.358H142.877Z" fill="#797986"/>
<path d="M186.805 231.134C186.805 230.986 186.925 230.866 187.073 230.866H194.058C194.207 230.866 194.327 230.986 194.327 231.134V234.896C194.327 235.044 194.207 235.164 194.058 235.164H187.073C186.925 235.164 186.805 235.044 186.805 234.896V231.134Z" stroke="#797986" stroke-width="0.429851"/>
<path d="M188.015 236.311C188.096 236.105 188.294 235.97 188.515 235.97H192.619C192.84 235.97 193.038 236.105 193.119 236.311L196.188 244.102C196.327 244.454 196.067 244.836 195.688 244.836H185.445C185.066 244.836 184.807 244.454 184.945 244.102L188.015 236.311Z" stroke="#797986" stroke-width="0.429851"/>
<path d="M186.803 236.776H185.933C185.784 236.776 185.664 236.656 185.664 236.508V234.358C185.664 234.299 185.583 234.283 185.561 234.337L184.737 236.309C184.682 236.44 184.654 236.581 184.654 236.723V238.926C184.654 239.074 184.774 239.194 184.923 239.194H185.793M194.326 236.776H195.196C195.345 236.776 195.465 236.656 195.465 236.508V234.358C195.465 234.299 195.546 234.283 195.568 234.337L196.392 236.309C196.447 236.44 196.475 236.581 196.475 236.723V238.926C196.475 239.074 196.355 239.194 196.206 239.194H195.336M185.191 241.075H184.232C184.054 241.075 183.91 240.931 183.91 240.753V238.193C183.91 238.121 183.811 238.103 183.785 238.169L182.862 240.526C182.804 240.676 182.773 240.835 182.773 240.996V243.654C182.773 243.832 182.918 243.976 183.096 243.976H184.055M195.938 241.075H196.897C197.075 241.075 197.219 240.931 197.219 240.753V238.193C197.219 238.121 197.318 238.103 197.344 238.169L198.267 240.526C198.325 240.676 198.356 240.835 198.356 240.996V243.654C198.356 243.832 198.211 243.976 198.033 243.976H197.074" stroke="#797986" stroke-width="0.429851"/>
<path d="M189.59 233.797V233.525L190.792 231.623H190.99V232.045H190.856L189.948 233.482V233.504H191.567V233.797H189.59ZM190.877 234.358V231.623H191.193V234.358H190.877Z" fill="#797986"/>
<g clip-path="url(#clip1_3397_252593)">
<path d="M289.969 179.504C289.969 179.355 290.089 179.235 290.237 179.235H297.222C297.371 179.235 297.491 179.355 297.491 179.504V183.265C297.491 183.413 297.371 183.533 297.222 183.533H290.237C290.089 183.533 289.969 183.413 289.969 183.265V179.504Z" stroke="#797986" stroke-width="0.429851"/>
<path d="M291.179 184.729C291.26 184.523 291.458 184.388 291.679 184.388H295.783C296.004 184.388 296.202 184.523 296.283 184.729L299.352 192.52C299.491 192.872 299.231 193.254 298.852 193.254H288.609C288.231 193.254 287.971 192.872 288.11 192.52L291.179 184.729Z" stroke="#797986" stroke-width="0.429851"/>
<path d="M289.967 185.194H289.097C288.948 185.194 288.828 185.074 288.828 184.926V182.776C288.828 182.717 288.747 182.701 288.725 182.755L287.901 184.727C287.846 184.858 287.818 184.999 287.818 185.141V187.344C287.818 187.492 287.938 187.612 288.087 187.612H288.958M297.49 185.194H298.36C298.509 185.194 298.629 185.074 298.629 184.926V182.776C298.629 182.717 298.71 182.701 298.732 182.755L299.556 184.727C299.611 184.858 299.639 184.999 299.639 185.141V187.344C299.639 187.492 299.519 187.612 299.37 187.612H298.5M288.355 189.493H287.396C287.218 189.493 287.074 189.349 287.074 189.171V186.611C287.074 186.539 286.975 186.521 286.949 186.587L286.026 188.944C285.968 189.094 285.938 189.253 285.938 189.414V192.072C285.938 192.25 286.082 192.394 286.26 192.394H287.219M299.102 189.493H300.061C300.239 189.493 300.384 189.349 300.384 189.171V186.611C300.384 186.539 300.482 186.521 300.508 186.587L301.431 188.944C301.489 189.094 301.52 189.253 301.52 189.414V192.072C301.52 192.25 301.375 192.394 301.197 192.394H300.238" stroke="#797986" stroke-width="0.429851"/>
<path d="M293.723 182.814C293.539 182.814 293.377 182.781 293.236 182.716C293.097 182.65 292.988 182.56 292.909 182.445C292.831 182.329 292.792 182.197 292.793 182.05C292.792 181.934 292.815 181.827 292.861 181.729C292.907 181.63 292.971 181.548 293.051 181.482C293.132 181.415 293.222 181.373 293.322 181.355V181.339C293.191 181.305 293.087 181.232 293.009 181.119C292.932 181.005 292.894 180.875 292.895 180.73C292.894 180.591 292.929 180.467 293 180.357C293.071 180.248 293.169 180.161 293.294 180.098C293.419 180.035 293.562 180.003 293.723 180.003C293.881 180.003 294.023 180.035 294.147 180.098C294.272 180.161 294.37 180.248 294.441 180.357C294.513 180.467 294.55 180.591 294.551 180.73C294.55 180.875 294.51 181.005 294.432 181.119C294.354 181.232 294.252 181.305 294.123 181.339V181.355C294.222 181.373 294.311 181.415 294.39 181.482C294.47 181.548 294.533 181.63 294.58 181.729C294.627 181.827 294.651 181.934 294.652 182.05C294.651 182.197 294.611 182.329 294.532 182.445C294.454 182.56 294.345 182.65 294.205 182.716C294.066 182.781 293.905 182.814 293.723 182.814ZM293.723 182.52C293.846 182.52 293.953 182.5 294.043 182.46C294.133 182.42 294.203 182.363 294.252 182.29C294.3 182.217 294.325 182.132 294.326 182.034C294.325 181.93 294.299 181.839 294.246 181.76C294.194 181.681 294.122 181.618 294.031 181.573C293.941 181.527 293.838 181.505 293.723 181.505C293.606 181.505 293.502 181.527 293.41 181.573C293.319 181.618 293.248 181.681 293.195 181.76C293.143 181.839 293.118 181.93 293.119 182.034C293.118 182.132 293.142 182.217 293.19 182.29C293.239 182.363 293.309 182.42 293.399 182.46C293.49 182.5 293.598 182.52 293.723 182.52ZM293.723 181.222C293.821 181.222 293.907 181.202 293.983 181.163C294.06 181.124 294.12 181.069 294.163 180.998C294.207 180.928 294.229 180.846 294.23 180.751C294.229 180.659 294.207 180.578 294.165 180.51C294.122 180.44 294.063 180.387 293.987 180.349C293.911 180.311 293.823 180.292 293.723 180.292C293.62 180.292 293.531 180.311 293.454 180.349C293.378 180.387 293.318 180.44 293.276 180.51C293.235 180.578 293.214 180.659 293.215 180.751C293.214 180.846 293.235 180.928 293.278 180.998C293.321 181.069 293.382 181.124 293.458 181.163C293.535 181.202 293.623 181.222 293.723 181.222Z" fill="#797986"/>
</g>
<g clip-path="url(#clip2_3397_252593)">
<path d="M289.969 245.414C289.969 245.265 290.089 245.145 290.237 245.145H297.222C297.371 245.145 297.491 245.265 297.491 245.414V249.175C297.491 249.323 297.371 249.444 297.222 249.444H290.237C290.089 249.444 289.969 249.323 289.969 249.175V245.414Z" stroke="#797986" stroke-width="0.429851"/>
<path d="M291.179 250.639C291.26 250.433 291.458 250.298 291.679 250.298H295.783C296.004 250.298 296.202 250.433 296.283 250.639L299.352 258.43C299.491 258.782 299.231 259.164 298.852 259.164H288.609C288.231 259.164 287.971 258.782 288.11 258.43L291.179 250.639Z" stroke="#797986" stroke-width="0.429851"/>
<path d="M289.967 251.105H289.097C288.948 251.105 288.828 250.984 288.828 250.836V248.686C288.828 248.627 288.747 248.611 288.725 248.665L287.901 250.637C287.846 250.768 287.818 250.909 287.818 251.051V253.254C287.818 253.402 287.938 253.523 288.087 253.523H288.958M297.49 251.105H298.36C298.509 251.105 298.629 250.984 298.629 250.836V248.686C298.629 248.627 298.71 248.611 298.732 248.665L299.556 250.637C299.611 250.768 299.639 250.909 299.639 251.051V253.254C299.639 253.402 299.519 253.523 299.37 253.523H298.5M288.355 255.403H287.396C287.218 255.403 287.074 255.259 287.074 255.081V252.521C287.074 252.45 286.975 252.431 286.949 252.497L286.026 254.854C285.968 255.004 285.938 255.163 285.938 255.324V257.982C285.938 258.16 286.082 258.305 286.26 258.305H287.219M299.102 255.403H300.061C300.239 255.403 300.384 255.259 300.384 255.081V252.521C300.384 252.45 300.482 252.431 300.508 252.497L301.431 254.854C301.489 255.004 301.52 255.163 301.52 255.324V257.982C301.52 258.16 301.375 258.305 301.197 258.305H300.238" stroke="#797986" stroke-width="0.429851"/>
<path d="M293.723 248.724C293.539 248.724 293.377 248.691 293.236 248.626C293.097 248.56 292.988 248.47 292.909 248.355C292.831 248.239 292.792 248.108 292.793 247.96C292.792 247.844 292.815 247.737 292.861 247.639C292.907 247.54 292.971 247.458 293.051 247.392C293.132 247.325 293.222 247.283 293.322 247.265V247.249C293.191 247.215 293.087 247.142 293.009 247.029C292.932 246.915 292.894 246.785 292.895 246.64C292.894 246.501 292.929 246.377 293 246.268C293.071 246.158 293.169 246.072 293.294 246.008C293.419 245.945 293.562 245.914 293.723 245.914C293.881 245.914 294.023 245.945 294.147 246.008C294.272 246.072 294.37 246.158 294.441 246.268C294.513 246.377 294.55 246.501 294.551 246.64C294.55 246.785 294.51 246.915 294.432 247.029C294.354 247.142 294.252 247.215 294.123 247.249V247.265C294.222 247.283 294.311 247.325 294.39 247.392C294.47 247.458 294.533 247.54 294.58 247.639C294.627 247.737 294.651 247.844 294.652 247.96C294.651 248.108 294.611 248.239 294.532 248.355C294.454 248.47 294.345 248.56 294.205 248.626C294.066 248.691 293.905 248.724 293.723 248.724ZM293.723 248.43C293.846 248.43 293.953 248.41 294.043 248.37C294.133 248.33 294.203 248.273 294.252 248.2C294.3 248.127 294.325 248.042 294.326 247.944C294.325 247.84 294.299 247.749 294.246 247.67C294.194 247.591 294.122 247.528 294.031 247.483C293.941 247.438 293.838 247.415 293.723 247.415C293.606 247.415 293.502 247.438 293.41 247.483C293.319 247.528 293.248 247.591 293.195 247.67C293.143 247.749 293.118 247.84 293.119 247.944C293.118 248.042 293.142 248.127 293.19 248.2C293.239 248.273 293.309 248.33 293.399 248.37C293.49 248.41 293.598 248.43 293.723 248.43ZM293.723 247.132C293.821 247.132 293.907 247.112 293.983 247.073C294.06 247.034 294.12 246.979 294.163 246.909C294.207 246.838 294.229 246.756 294.23 246.662C294.229 246.569 294.207 246.488 294.165 246.42C294.122 246.35 294.063 246.297 293.987 246.26C293.911 246.221 293.823 246.202 293.723 246.202C293.62 246.202 293.531 246.221 293.454 246.26C293.378 246.297 293.318 246.35 293.276 246.42C293.235 246.488 293.214 246.569 293.215 246.662C293.214 246.756 293.235 246.838 293.278 246.909C293.321 246.979 293.382 247.034 293.458 247.073C293.535 247.112 293.623 247.132 293.723 247.132Z" fill="#797986"/>
</g>
<path d="M258.449 83.5523C258.449 83.404 258.57 83.2837 258.718 83.2837H265.703C265.851 83.2837 265.972 83.404 265.972 83.5523V87.3135C265.972 87.4619 265.851 87.5822 265.703 87.5822H258.718C258.57 87.5822 258.449 87.4619 258.449 87.3135V83.5523Z" stroke="white" stroke-width="0.429851"/>
<path d="M257.107 91.075H256.512C256.322 91.075 256.167 91.2297 256.167 91.4205V93.4929M257.107 91.075H258.239C258.43 91.075 258.585 91.2297 258.585 91.4205V91.6123M257.107 91.075V89.2328C257.107 89.0632 257.245 88.9258 257.414 88.9258H258.949C259.119 88.9258 259.256 89.0632 259.256 89.2328V91.3053C259.256 91.4749 259.119 91.6123 258.949 91.6123H258.585M258.585 91.6123V93.9535C258.585 94.1443 258.43 94.2989 258.239 94.2989H257.913M259.794 91.075H259.736C259.545 91.075 259.391 91.2297 259.391 91.4205V93.4929M259.794 91.075H261.463C261.654 91.075 261.809 91.2297 261.809 91.4205V91.5592M259.794 91.075V89.2328C259.794 89.0632 259.931 88.9258 260.101 88.9258H261.636C261.806 88.9258 261.943 89.0632 261.943 89.2328V91.3053C261.943 91.4108 261.89 91.5039 261.809 91.5592M261.809 91.5592V93.9535C261.809 94.0648 261.756 94.1638 261.674 94.2269M262.615 91.5592V93.9535C262.615 94.0648 262.667 94.1638 262.749 94.2269M262.615 91.5592V91.4205C262.615 91.2297 262.769 91.075 262.96 91.075H264.63M262.615 91.5592C262.534 91.5039 262.48 91.4108 262.48 91.3053V89.2328C262.48 89.0632 262.618 88.9258 262.787 88.9258H264.323C264.492 88.9258 264.63 89.0632 264.63 89.2328V91.075M264.63 91.075H264.687C264.878 91.075 265.033 91.2297 265.033 91.4205V93.4929M265.839 91.6123V93.9535C265.839 94.1443 265.993 94.2989 266.184 94.2989H266.51M265.839 91.6123V91.4205C265.839 91.2297 265.993 91.075 266.184 91.075H267.316M265.839 91.6123H265.474C265.304 91.6123 265.167 91.4749 265.167 91.3053V89.2328C265.167 89.0632 265.304 88.9258 265.474 88.9258H267.009C267.179 88.9258 267.316 89.0632 267.316 89.2328V91.075M267.316 91.075H267.911C268.102 91.075 268.256 91.2297 268.256 91.4205V93.4929M268.256 93.4929H266.894C266.682 93.4929 266.51 93.6648 266.51 93.8767V94.2989M268.256 93.4929H268.813C269.025 93.4929 269.197 93.6648 269.197 93.8767V96.8703C269.197 97.0823 269.025 97.2541 268.813 97.2541H266.894C266.682 97.2541 266.51 97.0823 266.51 96.8703V94.2989M262.749 94.2269V96.8703C262.749 97.0823 262.921 97.2541 263.133 97.2541H265.052C265.264 97.2541 265.436 97.0823 265.436 96.8703V93.8767C265.436 93.6648 265.264 93.4929 265.052 93.4929H265.033M262.749 94.2269V93.8767C262.749 93.6648 262.921 93.4929 263.133 93.4929H265.033M261.674 94.2269V93.8767C261.674 93.6648 261.502 93.4929 261.291 93.4929H259.391M261.674 94.2269V96.8703C261.674 97.0823 261.502 97.2541 261.291 97.2541H259.372C259.16 97.2541 258.988 97.0823 258.988 96.8703V93.8767C258.988 93.6648 259.16 93.4929 259.372 93.4929H259.391M256.167 93.4929H255.61C255.398 93.4929 255.227 93.6648 255.227 93.8767V96.8703C255.227 97.0823 255.398 97.2541 255.61 97.2541H257.529C257.741 97.2541 257.913 97.0823 257.913 96.8703V94.2989M256.167 93.4929H257.529C257.741 93.4929 257.913 93.6648 257.913 93.8767V94.2989" stroke="white" stroke-width="0.429851"/>
<path d="M43.8978 250.608V251.008H42.303V251.949H43.6742V252.345H42.303V253.381H43.8978V253.78H41.8474V250.608H43.8978ZM44.437 251.936H46.3111V252.392H44.437V251.936ZM47.9764 253.385C48.4063 253.385 48.6943 252.904 48.6943 252.194C48.6943 251.481 48.4063 250.999 47.9764 250.999C47.5466 250.999 47.2543 251.481 47.2543 252.194C47.2543 252.904 47.5466 253.385 47.9764 253.385ZM46.7986 252.194C46.7986 251.257 47.2844 250.6 47.9764 250.6C48.6642 250.6 49.1499 251.257 49.1499 252.194C49.1499 253.127 48.6642 253.789 47.9764 253.789C47.2844 253.789 46.7986 253.127 46.7986 252.194ZM50.7341 250.634V253.759L50.2785 253.755V251.12L49.7283 251.425L49.5392 251.042L50.2828 250.634H50.7341Z" fill="#797986"/>
<path d="M291.062 198.31V198.71H289.51V199.694H290.825V200.089H289.51V201.482H289.054V198.31H291.062ZM291.513 199.638H293.387V200.094H291.513V199.638ZM295.052 201.087C295.482 201.087 295.77 200.605 295.77 199.896C295.77 199.182 295.482 198.701 295.052 198.701C294.622 198.701 294.33 199.182 294.33 199.896C294.33 200.605 294.622 201.087 295.052 201.087ZM293.875 199.896C293.875 198.959 294.36 198.301 295.052 198.301C295.74 198.301 296.226 198.959 296.226 199.896C296.226 200.829 295.74 201.491 295.052 201.491C294.36 201.491 293.875 200.829 293.875 199.896ZM297.81 198.336V201.461L297.354 201.456V198.821L296.804 199.127L296.615 198.744L297.359 198.336H297.81Z" fill="#797986"/>
<path d="M259.864 103.819C259.864 103.926 259.859 104.051 259.859 104.094C259.859 104.984 259.253 105.504 258.372 105.517C257.448 105.517 256.795 104.846 256.795 103.896C256.795 102.946 257.448 102.28 258.372 102.28C259.365 102.28 259.713 103.045 259.713 103.045L259.322 103.247C259.322 103.247 259.073 102.68 258.372 102.68C257.702 102.68 257.25 103.17 257.25 103.896C257.25 104.627 257.702 105.117 258.372 105.117C258.948 105.1 259.408 104.82 259.412 104.197H258.424V103.819H259.864ZM260.5 103.638H262.375V104.094H260.5V103.638ZM264.04 105.087C264.47 105.087 264.758 104.605 264.758 103.896C264.758 103.182 264.47 102.701 264.04 102.701C263.61 102.701 263.318 103.182 263.318 103.896C263.318 104.605 263.61 105.087 264.04 105.087ZM262.862 103.896C262.862 102.959 263.348 102.301 264.04 102.301C264.728 102.301 265.213 102.959 265.213 103.896C265.213 104.829 264.728 105.491 264.04 105.491C263.348 105.491 262.862 104.829 262.862 103.896ZM266.798 102.336V105.461L266.342 105.456V102.821L265.792 103.127L265.603 102.744L266.346 102.336H266.798Z" fill="white"/>
<path d="M290.347 264.22V264.62H288.795V265.605H290.111V266H288.795V267.393H288.34V264.22H290.347ZM290.798 265.549H292.672V266.004H290.798V265.549ZM294.337 266.997C294.767 266.997 295.055 266.516 295.055 265.807C295.055 265.093 294.767 264.612 294.337 264.612C293.908 264.612 293.615 265.093 293.615 265.807C293.615 266.516 293.908 266.997 294.337 266.997ZM293.16 265.807C293.16 264.87 293.645 264.212 294.337 264.212C295.025 264.212 295.511 264.87 295.511 265.807C295.511 266.739 295.025 267.401 294.337 267.401C293.645 267.401 293.16 266.739 293.16 265.807ZM295.995 266.972C296.622 266.37 297.478 265.759 297.478 265.231C297.478 264.878 297.254 264.629 296.936 264.629C296.691 264.629 296.446 264.805 296.334 265.059L295.935 264.882C296.107 264.487 296.524 264.212 296.936 264.212C297.525 264.212 297.933 264.633 297.933 265.231C297.933 265.888 297.22 266.473 296.64 266.972H297.985V267.371H296.038L295.995 266.972Z" fill="#797986"/>
<path d="M91.1829 250.608V251.008H89.5882V251.949H90.9594V252.345H89.5882V253.381H91.1829V253.78H89.1325V250.608H91.1829ZM91.7222 251.936H93.5963V252.392H91.7222V251.936ZM95.2616 253.385C95.6914 253.385 95.9794 252.904 95.9794 252.194C95.9794 251.481 95.6914 250.999 95.2616 250.999C94.8317 250.999 94.5394 251.481 94.5394 252.194C94.5394 252.904 94.8317 253.385 95.2616 253.385ZM94.0838 252.194C94.0838 251.257 94.5695 250.6 95.2616 250.6C95.9493 250.6 96.4351 251.257 96.4351 252.194C96.4351 253.127 95.9493 253.789 95.2616 253.789C94.5695 253.789 94.0838 253.127 94.0838 252.194ZM96.9189 253.359C97.5465 252.757 98.4019 252.147 98.4019 251.618C98.4019 251.266 98.1783 251.017 97.8603 251.017C97.6152 251.017 97.3702 251.193 97.2585 251.446L96.8587 251.27C97.0306 250.875 97.4476 250.6 97.8603 250.6C98.4491 250.6 98.8575 251.021 98.8575 251.618C98.8575 252.276 98.144 252.861 97.5637 253.359H98.9091V253.759H96.9619L96.9189 253.359Z" fill="#797986"/>
<path d="M139.183 250.608V251.008H137.588V251.949H138.959V252.345H137.588V253.381H139.183V253.78H137.133V250.608H139.183ZM139.722 251.936H141.596V252.392H139.722V251.936ZM143.262 253.385C143.691 253.385 143.979 252.904 143.979 252.194C143.979 251.481 143.691 250.999 143.262 250.999C142.832 250.999 142.539 251.481 142.539 252.194C142.539 252.904 142.832 253.385 143.262 253.385ZM142.084 252.194C142.084 251.257 142.57 250.6 143.262 250.6C143.949 250.6 144.435 251.257 144.435 252.194C144.435 253.127 143.949 253.789 143.262 253.789C142.57 253.789 142.084 253.127 142.084 252.194ZM146.518 252.143C146.797 252.306 146.974 252.611 146.974 252.873C146.974 253.407 146.535 253.785 145.912 253.785C145.293 253.785 144.854 253.398 144.854 252.848H145.31C145.31 253.161 145.559 253.381 145.912 253.381C146.273 253.381 146.531 253.161 146.531 252.848C146.531 252.547 146.277 252.332 145.92 252.332H145.697V251.949H145.925C146.251 251.949 146.484 251.756 146.484 251.481C146.484 251.201 146.26 251.008 145.942 251.008C145.624 251.008 145.405 251.206 145.405 251.485H144.949C144.949 250.965 145.357 250.604 145.942 250.604C146.518 250.604 146.926 250.956 146.926 251.455C146.926 251.696 146.772 251.979 146.518 252.143Z" fill="#797986"/>
<path d="M187.183 250.608V251.008H185.588V251.949H186.959V252.345H185.588V253.381H187.183V253.78H185.133V250.608H187.183ZM187.722 251.936H189.596V252.392H187.722V251.936ZM191.262 253.385C191.691 253.385 191.979 252.904 191.979 252.194C191.979 251.481 191.691 250.999 191.262 250.999C190.832 250.999 190.539 251.481 190.539 252.194C190.539 252.904 190.832 253.385 191.262 253.385ZM190.084 252.194C190.084 251.257 190.57 250.6 191.262 250.6C191.949 250.6 192.435 251.257 192.435 252.194C192.435 253.127 191.949 253.789 191.262 253.789C190.57 253.789 190.084 253.127 190.084 252.194ZM194.698 250.63V252.555H195.094V252.951H194.698V253.759H194.243V252.951H192.897L192.854 252.555L194.264 250.63H194.698ZM193.396 252.555H194.243V251.391L193.396 252.555Z" fill="#797986"/>
</g>
<defs>
<clipPath id="clip0_3397_252593">
<rect width="360" height="293" fill="white"/>
</clipPath>
<clipPath id="clip1_3397_252593">
<rect width="17.194" height="17.194" fill="white" transform="translate(285.133 177.672)"/>
</clipPath>
<clipPath id="clip2_3397_252593">
<rect width="17.194" height="17.194" fill="white" transform="translate(285.133 243.582)"/>
</clipPath>
</defs>
</svg>
