<svg width="1005" height="820" viewBox="0 0 1005 820" fill="none" xmlns="http://www.w3.org/2000/svg">
<g clip-path="url(#clip0_3397_255484)">
<rect width="1005" height="820" fill="#3E3E49"/>
<rect x="1002" y="235" width="48" height="24" rx="4" transform="rotate(90 1002 235)" fill="#797986"/>
<rect x="1002" y="285" width="48" height="24" rx="4" transform="rotate(90 1002 285)" fill="#797986"/>
<rect x="1002" y="335" width="48" height="24" rx="4" transform="rotate(90 1002 335)" fill="#797986"/>
<rect x="1002" y="385" width="48" height="24" rx="4" transform="rotate(90 1002 385)" fill="#797986"/>
<rect x="1028" y="235" width="48" height="24" rx="4" transform="rotate(90 1028 235)" fill="#797986"/>
<rect x="1028" y="285" width="48" height="24" rx="4" transform="rotate(90 1028 285)" fill="#797986"/>
<rect x="1028" y="335" width="48" height="24" rx="4" transform="rotate(90 1028 335)" fill="#797986"/>
<rect x="1028" y="385" width="48" height="24" rx="4" transform="rotate(90 1028 385)" fill="#797986"/>
<rect x="1002" y="291" width="36" height="36" rx="18" fill="#3E3E49"/>
<rect x="1002" y="291" width="36" height="36" rx="18" stroke="#797986" stroke-width="2"/>
<rect x="1002" y="341" width="36" height="36" rx="18" fill="#3E3E49"/>
<rect x="1002" y="341" width="36" height="36" rx="18" stroke="#797986" stroke-width="2"/>
<rect x="1002" y="391" width="36" height="36" rx="18" fill="#3E3E49"/>
<rect x="1002" y="391" width="36" height="36" rx="18" stroke="#797986" stroke-width="2"/>
<rect x="952" y="241" width="36" height="36" rx="18" fill="#3E3E49"/>
<rect x="952" y="241" width="36" height="36" rx="18" stroke="#797986" stroke-width="2"/>
<path d="M959.972 254.74H961.244V263.596H959.972V254.74ZM962.991 258.448H968.223V259.72H962.991V258.448ZM972.848 254.812V263.536L971.576 263.524V256.168L970.04 257.02L969.512 255.952L971.588 254.812H972.848ZM976.783 263.56H975.391L978.811 255.88L974.803 255.892V254.764H980.083L980.203 255.88L976.783 263.56Z" fill="#797986"/>
<rect x="952" y="291" width="36" height="36" rx="18" fill="#3E3E49"/>
<rect x="952" y="291" width="36" height="36" rx="18" stroke="#797986" stroke-width="2"/>
<path d="M959.472 304.74H960.744V313.596H959.472V304.74ZM962.491 308.448H967.723V309.72H962.491V308.448ZM972.348 304.812V313.536L971.076 313.524V306.168L969.54 307.02L969.012 305.952L971.088 304.812H972.348ZM977.087 312.588C978.083 312.588 978.779 311.952 978.779 311.04C978.779 310.128 978.083 309.48 977.087 309.48C976.091 309.48 975.383 310.128 975.383 311.04C975.383 311.952 976.091 312.588 977.087 312.588ZM974.111 311.064C974.111 310.296 974.711 309.408 975.551 308.94C974.855 308.46 974.351 307.68 974.351 307.056C974.351 305.64 975.479 304.656 977.087 304.656C978.695 304.656 979.823 305.64 979.823 307.056C979.823 307.692 979.331 308.472 978.623 308.94C979.463 309.42 980.063 310.296 980.063 311.064C980.063 312.6 978.839 313.68 977.087 313.68C975.347 313.68 974.111 312.6 974.111 311.064ZM975.635 307.056C975.635 307.836 976.235 308.388 977.087 308.388C977.951 308.388 978.551 307.836 978.551 307.056C978.551 306.276 977.951 305.736 977.087 305.736C976.235 305.736 975.635 306.276 975.635 307.056Z" fill="#797986"/>
<rect x="952" y="341" width="36" height="36" rx="18" fill="#3E3E49"/>
<rect x="952" y="341" width="36" height="36" rx="18" stroke="#797986" stroke-width="2"/>
<path d="M959.472 354.74H960.744V363.596H959.472V354.74ZM962.491 358.448H967.723V359.72H962.491V358.448ZM972.348 354.812V363.536L971.076 363.524V356.168L969.54 357.02L969.012 355.952L971.088 354.812H972.348ZM977.147 355.82C976.115 355.82 975.383 356.564 975.383 357.62C975.383 358.676 976.115 359.42 977.147 359.42C978.167 359.42 978.887 358.676 978.887 357.62C978.887 356.564 978.167 355.82 977.147 355.82ZM974.111 357.62C974.111 355.904 975.359 354.704 977.135 354.704C978.911 354.704 980.159 355.904 980.159 357.62C980.159 358.244 979.931 358.82 979.679 359.276L977.279 363.548H975.815L977.555 360.488C977.411 360.512 977.267 360.536 977.111 360.536C975.347 360.524 974.111 359.324 974.111 357.62Z" fill="#797986"/>
<rect x="952" y="391" width="36" height="36" rx="18" fill="#3E3E49"/>
<rect x="952" y="391" width="36" height="36" rx="18" stroke="#797986" stroke-width="2"/>
<path d="M958.472 404.74H959.744V413.596H958.472V404.74ZM961.491 408.448H966.723V409.72H961.491V408.448ZM968.276 412.42C970.028 410.74 972.416 409.036 972.416 407.56C972.416 406.576 971.792 405.88 970.904 405.88C970.22 405.88 969.536 406.372 969.224 407.08L968.108 406.588C968.588 405.484 969.752 404.716 970.904 404.716C972.548 404.716 973.688 405.892 973.688 407.56C973.688 409.396 971.696 411.028 970.076 412.42H973.832V413.536H968.396L968.276 412.42ZM978.286 412.492C979.486 412.492 980.29 411.148 980.29 409.168C980.29 407.176 979.486 405.832 978.286 405.832C977.086 405.832 976.27 407.176 976.27 409.168C976.27 411.148 977.086 412.492 978.286 412.492ZM974.998 409.168C974.998 406.552 976.354 404.716 978.286 404.716C980.206 404.716 981.562 406.552 981.562 409.168C981.562 411.772 980.206 413.62 978.286 413.62C976.354 413.62 974.998 411.772 974.998 409.168Z" fill="#797986"/>
<rect x="848" y="235" width="48" height="24" rx="4" transform="rotate(90 848 235)" fill="#797986"/>
<rect x="848" y="285" width="48" height="24" rx="4" transform="rotate(90 848 285)" fill="#797986"/>
<rect x="848" y="335" width="48" height="24" rx="4" transform="rotate(90 848 335)" fill="#797986"/>
<rect x="848" y="385" width="48" height="24" rx="4" transform="rotate(90 848 385)" fill="#797986"/>
<rect x="874" y="235" width="48" height="24" rx="4" transform="rotate(90 874 235)" fill="#797986"/>
<rect x="874" y="285" width="48" height="24" rx="4" transform="rotate(90 874 285)" fill="#797986"/>
<rect x="874" y="335" width="48" height="24" rx="4" transform="rotate(90 874 335)" fill="#797986"/>
<rect x="874" y="385" width="48" height="24" rx="4" transform="rotate(90 874 385)" fill="#797986"/>
<rect x="866" y="241" width="36" height="36" rx="18" fill="#3E3E49"/>
<rect x="866" y="241" width="36" height="36" rx="18" stroke="#797986" stroke-width="2"/>
<path d="M873.472 254.74H874.744V263.596H873.472V254.74ZM876.491 258.448H881.723V259.72H876.491V258.448ZM886.348 254.812V263.536L885.076 263.524V256.168L883.54 257.02L883.012 255.952L885.088 254.812H886.348ZM892.755 259.024C893.535 259.48 894.027 260.332 894.027 261.064C894.027 262.552 892.803 263.608 891.063 263.608C889.335 263.608 888.111 262.528 888.111 260.992H889.383C889.383 261.868 890.079 262.48 891.063 262.48C892.071 262.48 892.791 261.868 892.791 260.992C892.791 260.152 892.083 259.552 891.087 259.552H890.463V258.484H891.099C892.011 258.484 892.659 257.944 892.659 257.176C892.659 256.396 892.035 255.856 891.147 255.856C890.259 255.856 889.647 256.408 889.647 257.188H888.375C888.375 255.736 889.515 254.728 891.147 254.728C892.755 254.728 893.895 255.712 893.895 257.104C893.895 257.776 893.463 258.568 892.755 259.024Z" fill="#797986"/>
<rect x="868" y="291" width="36" height="36" rx="18" fill="#3E3E49"/>
<rect x="868" y="291" width="36" height="36" rx="18" stroke="#797986" stroke-width="2"/>
<path d="M875.472 304.74H876.744V313.596H875.472V304.74ZM878.491 308.448H883.723V309.72H878.491V308.448ZM888.348 304.812V313.536L887.076 313.524V306.168L885.54 307.02L885.012 305.952L887.088 304.812H888.348ZM895.259 304.8V310.176H896.363V311.28H895.259V313.536H893.987V311.28H890.231L890.111 310.176L894.047 304.8H895.259ZM891.623 310.176H893.987V306.924L891.623 310.176Z" fill="#797986"/>
<rect x="868" y="341" width="36" height="36" rx="18" fill="#3E3E49"/>
<rect x="868" y="341" width="36" height="36" rx="18" stroke="#797986" stroke-width="2"/>
<path d="M875.472 354.74H876.744V363.596H875.472V354.74ZM878.491 358.448H883.723V359.72H878.491V358.448ZM888.348 354.812V363.536L887.076 363.524V356.168L885.54 357.02L885.012 355.952L887.088 354.812H888.348ZM891.731 359.624L890.459 359.468L890.759 354.8H895.427V355.916H891.983L891.839 358.052C892.235 357.872 892.679 357.764 893.075 357.764C894.875 357.764 896.147 358.976 896.147 360.692C896.147 362.432 894.875 363.656 893.075 363.656C891.659 363.656 890.435 362.708 890.123 361.364L891.359 361.076C891.539 361.88 892.247 362.456 893.075 362.456C894.131 362.456 894.875 361.724 894.875 360.692C894.875 359.684 894.131 358.964 893.075 358.964C892.631 358.964 892.079 359.24 891.731 359.624Z" fill="#797986"/>
<rect x="868" y="391" width="36" height="36" rx="18" fill="#3E3E49"/>
<rect x="868" y="391" width="36" height="36" rx="18" stroke="#797986" stroke-width="2"/>
<path d="M875.472 404.74H876.744V413.596H875.472V404.74ZM878.491 408.448H883.723V409.72H878.491V408.448ZM888.348 404.812V413.536L887.076 413.524V406.168L885.54 407.02L885.012 405.952L887.088 404.812H888.348ZM893.123 412.504C894.155 412.504 894.887 411.76 894.887 410.716C894.887 409.648 894.155 408.904 893.123 408.904C892.103 408.904 891.383 409.648 891.383 410.716C891.383 411.76 892.103 412.504 893.123 412.504ZM890.111 410.716C890.111 410.08 890.339 409.516 890.591 409.048L892.991 404.776H894.455L892.715 407.836C892.859 407.812 893.003 407.788 893.159 407.788C894.923 407.8 896.159 409 896.159 410.716C896.159 412.42 894.911 413.62 893.135 413.62C891.359 413.62 890.111 412.42 890.111 410.716Z" fill="#797986"/>
<rect x="798" y="241" width="36" height="36" rx="18" fill="#3E3E49"/>
<rect x="798" y="241" width="36" height="36" rx="18" stroke="#797986" stroke-width="2"/>
<path d="M804.472 254.74H805.744V263.596H804.472V254.74ZM807.491 258.448H812.723V259.72H807.491V258.448ZM817.372 262.492C818.572 262.492 819.376 261.148 819.376 259.168C819.376 257.176 818.572 255.832 817.372 255.832C816.172 255.832 815.356 257.176 815.356 259.168C815.356 261.148 816.172 262.492 817.372 262.492ZM814.084 259.168C814.084 256.552 815.44 254.716 817.372 254.716C819.292 254.716 820.648 256.552 820.648 259.168C820.648 261.772 819.292 263.62 817.372 263.62C815.44 263.62 814.084 261.772 814.084 259.168ZM824.854 255.82C823.822 255.82 823.09 256.564 823.09 257.62C823.09 258.676 823.822 259.42 824.854 259.42C825.874 259.42 826.594 258.676 826.594 257.62C826.594 256.564 825.874 255.82 824.854 255.82ZM821.818 257.62C821.818 255.904 823.066 254.704 824.842 254.704C826.618 254.704 827.866 255.904 827.866 257.62C827.866 258.244 827.638 258.82 827.386 259.276L824.986 263.548H823.522L825.262 260.488C825.118 260.512 824.974 260.536 824.818 260.536C823.054 260.524 821.818 259.324 821.818 257.62Z" fill="#797986"/>
<rect x="798" y="291" width="36" height="36" rx="18" fill="#3E3E49"/>
<rect x="798" y="291" width="36" height="36" rx="18" stroke="#797986" stroke-width="2"/>
<path d="M805.472 304.74H806.744V313.596H805.472V304.74ZM808.491 308.448H813.723V309.72H808.491V308.448ZM818.348 304.812V313.536L817.076 313.524V306.168L815.54 307.02L815.012 305.952L817.088 304.812H818.348ZM823.387 312.492C824.587 312.492 825.391 311.148 825.391 309.168C825.391 307.176 824.587 305.832 823.387 305.832C822.187 305.832 821.371 307.176 821.371 309.168C821.371 311.148 822.187 312.492 823.387 312.492ZM820.099 309.168C820.099 306.552 821.455 304.716 823.387 304.716C825.307 304.716 826.663 306.552 826.663 309.168C826.663 311.772 825.307 313.62 823.387 313.62C821.455 313.62 820.099 311.772 820.099 309.168Z" fill="#797986"/>
<rect x="798" y="341" width="36" height="36" rx="18" fill="#3E3E49"/>
<rect x="798" y="341" width="36" height="36" rx="18" stroke="#797986" stroke-width="2"/>
<path d="M806.472 354.74H807.744V363.596H806.472V354.74ZM809.491 358.448H814.723V359.72H809.491V358.448ZM819.348 354.812V363.536L818.076 363.524V356.168L816.54 357.02L816.012 355.952L818.088 354.812H819.348ZM824.844 354.812V363.536L823.572 363.524V356.168L822.036 357.02L821.508 355.952L823.584 354.812H824.844Z" fill="#797986"/>
<rect x="798" y="391" width="36" height="36" rx="18" fill="#3E3E49"/>
<rect x="798" y="391" width="36" height="36" rx="18" stroke="#797986" stroke-width="2"/>
<path d="M805.972 404.74H807.244V413.596H805.972V404.74ZM808.991 408.448H814.223V409.72H808.991V408.448ZM818.848 404.812V413.536L817.576 413.524V406.168L816.04 407.02L815.512 405.952L817.588 404.812H818.848ZM820.791 412.42C822.543 410.74 824.931 409.036 824.931 407.56C824.931 406.576 824.307 405.88 823.419 405.88C822.735 405.88 822.051 406.372 821.739 407.08L820.623 406.588C821.103 405.484 822.267 404.716 823.419 404.716C825.063 404.716 826.203 405.892 826.203 407.56C826.203 409.396 824.211 411.028 822.591 412.42H826.347V413.536H820.911L820.791 412.42Z" fill="#797986"/>
<rect x="694" y="235" width="48" height="24" rx="4" transform="rotate(90 694 235)" fill="#797986"/>
<rect x="694" y="285" width="48" height="24" rx="4" transform="rotate(90 694 285)" fill="#797986"/>
<rect x="694" y="335" width="48" height="24" rx="4" transform="rotate(90 694 335)" fill="#797986"/>
<rect x="694" y="385" width="48" height="24" rx="4" transform="rotate(90 694 385)" fill="#797986"/>
<rect x="720" y="235" width="48" height="24" rx="4" transform="rotate(90 720 235)" fill="#797986"/>
<rect x="720" y="285" width="48" height="24" rx="4" transform="rotate(90 720 285)" fill="#797986"/>
<rect x="720" y="335" width="48" height="24" rx="4" transform="rotate(90 720 335)" fill="#797986"/>
<rect x="720" y="385" width="48" height="24" rx="4" transform="rotate(90 720 385)" fill="#797986"/>
<rect x="712" y="241" width="36" height="36" rx="18" fill="#3E3E49"/>
<rect x="712" y="241" width="36" height="36" rx="18" stroke="#797986" stroke-width="2"/>
<path d="M718.472 254.74H719.744V263.596H718.472V254.74ZM721.491 258.448H726.723V259.72H721.491V258.448ZM731.372 262.492C732.572 262.492 733.376 261.148 733.376 259.168C733.376 257.176 732.572 255.832 731.372 255.832C730.172 255.832 729.356 257.176 729.356 259.168C729.356 261.148 730.172 262.492 731.372 262.492ZM728.084 259.168C728.084 256.552 729.44 254.716 731.372 254.716C733.292 254.716 734.648 256.552 734.648 259.168C734.648 261.772 733.292 263.62 731.372 263.62C729.44 263.62 728.084 261.772 728.084 259.168ZM737.438 259.624L736.166 259.468L736.466 254.8H741.134V255.916H737.69L737.546 258.052C737.942 257.872 738.386 257.764 738.782 257.764C740.582 257.764 741.854 258.976 741.854 260.692C741.854 262.432 740.582 263.656 738.782 263.656C737.366 263.656 736.142 262.708 735.83 261.364L737.066 261.076C737.246 261.88 737.954 262.456 738.782 262.456C739.838 262.456 740.582 261.724 740.582 260.692C740.582 259.684 739.838 258.964 738.782 258.964C738.338 258.964 737.786 259.24 737.438 259.624Z" fill="#797986"/>
<rect x="712" y="291" width="36" height="36" rx="18" fill="#3E3E49"/>
<rect x="712" y="291" width="36" height="36" rx="18" stroke="#797986" stroke-width="2"/>
<path d="M718.472 304.74H719.744V313.596H718.472V304.74ZM721.491 308.448H726.723V309.72H721.491V308.448ZM731.372 312.492C732.572 312.492 733.376 311.148 733.376 309.168C733.376 307.176 732.572 305.832 731.372 305.832C730.172 305.832 729.356 307.176 729.356 309.168C729.356 311.148 730.172 312.492 731.372 312.492ZM728.084 309.168C728.084 306.552 729.44 304.716 731.372 304.716C733.292 304.716 734.648 306.552 734.648 309.168C734.648 311.772 733.292 313.62 731.372 313.62C729.44 313.62 728.084 311.772 728.084 309.168ZM738.83 312.504C739.862 312.504 740.594 311.76 740.594 310.716C740.594 309.648 739.862 308.904 738.83 308.904C737.81 308.904 737.09 309.648 737.09 310.716C737.09 311.76 737.81 312.504 738.83 312.504ZM735.818 310.716C735.818 310.08 736.046 309.516 736.298 309.048L738.698 304.776H740.162L738.422 307.836C738.566 307.812 738.71 307.788 738.866 307.788C740.63 307.8 741.866 309 741.866 310.716C741.866 312.42 740.618 313.62 738.842 313.62C737.066 313.62 735.818 312.42 735.818 310.716Z" fill="#797986"/>
<rect x="712" y="341" width="36" height="36" rx="18" fill="#3E3E49"/>
<rect x="712" y="341" width="36" height="36" rx="18" stroke="#797986" stroke-width="2"/>
<path d="M718.472 354.74H719.744V363.596H718.472V354.74ZM721.491 358.448H726.723V359.72H721.491V358.448ZM731.372 362.492C732.572 362.492 733.376 361.148 733.376 359.168C733.376 357.176 732.572 355.832 731.372 355.832C730.172 355.832 729.356 357.176 729.356 359.168C729.356 361.148 730.172 362.492 731.372 362.492ZM728.084 359.168C728.084 356.552 729.44 354.716 731.372 354.716C733.292 354.716 734.648 356.552 734.648 359.168C734.648 361.772 733.292 363.62 731.372 363.62C729.44 363.62 728.084 361.772 728.084 359.168ZM737.99 363.56H736.598L740.018 355.88L736.01 355.892V354.764H741.29L741.41 355.88L737.99 363.56Z" fill="#797986"/>
<rect x="712" y="391" width="36" height="36" rx="18" fill="#3E3E49"/>
<rect x="712" y="391" width="36" height="36" rx="18" stroke="#797986" stroke-width="2"/>
<path d="M718.472 404.74H719.744V413.596H718.472V404.74ZM721.491 408.448H726.723V409.72H721.491V408.448ZM731.372 412.492C732.572 412.492 733.376 411.148 733.376 409.168C733.376 407.176 732.572 405.832 731.372 405.832C730.172 405.832 729.356 407.176 729.356 409.168C729.356 411.148 730.172 412.492 731.372 412.492ZM728.084 409.168C728.084 406.552 729.44 404.716 731.372 404.716C733.292 404.716 734.648 406.552 734.648 409.168C734.648 411.772 733.292 413.62 731.372 413.62C729.44 413.62 728.084 411.772 728.084 409.168ZM738.794 412.588C739.79 412.588 740.486 411.952 740.486 411.04C740.486 410.128 739.79 409.48 738.794 409.48C737.798 409.48 737.09 410.128 737.09 411.04C737.09 411.952 737.798 412.588 738.794 412.588ZM735.818 411.064C735.818 410.296 736.418 409.408 737.258 408.94C736.562 408.46 736.058 407.68 736.058 407.056C736.058 405.64 737.186 404.656 738.794 404.656C740.402 404.656 741.53 405.64 741.53 407.056C741.53 407.692 741.038 408.472 740.33 408.94C741.17 409.42 741.77 410.296 741.77 411.064C741.77 412.6 740.546 413.68 738.794 413.68C737.054 413.68 735.818 412.6 735.818 411.064ZM737.342 407.056C737.342 407.836 737.942 408.388 738.794 408.388C739.658 408.388 740.258 407.836 740.258 407.056C740.258 406.276 739.658 405.736 738.794 405.736C737.942 405.736 737.342 406.276 737.342 407.056Z" fill="#797986"/>
<rect x="642" y="241" width="36" height="36" rx="18" fill="#3E3E49"/>
<rect x="642" y="241" width="36" height="36" rx="18" stroke="#797986" stroke-width="2"/>
<path d="M649.472 254.74H650.744V263.596H649.472V254.74ZM652.491 258.448H657.723V259.72H652.491V258.448ZM662.372 262.492C663.572 262.492 664.376 261.148 664.376 259.168C664.376 257.176 663.572 255.832 662.372 255.832C661.172 255.832 660.356 257.176 660.356 259.168C660.356 261.148 661.172 262.492 662.372 262.492ZM659.084 259.168C659.084 256.552 660.44 254.716 662.372 254.716C664.292 254.716 665.648 256.552 665.648 259.168C665.648 261.772 664.292 263.62 662.372 263.62C660.44 263.62 659.084 261.772 659.084 259.168ZM670.07 254.812V263.536L668.798 263.524V256.168L667.262 257.02L666.734 255.952L668.81 254.812H670.07Z" fill="#797986"/>
<rect x="642" y="291" width="36" height="36" rx="18" fill="#3E3E49"/>
<rect x="642" y="291" width="36" height="36" rx="18" stroke="#797986" stroke-width="2"/>
<path d="M648.472 304.74H649.744V313.596H648.472V304.74ZM651.491 308.448H656.723V309.72H651.491V308.448ZM661.372 312.492C662.572 312.492 663.376 311.148 663.376 309.168C663.376 307.176 662.572 305.832 661.372 305.832C660.172 305.832 659.356 307.176 659.356 309.168C659.356 311.148 660.172 312.492 661.372 312.492ZM658.084 309.168C658.084 306.552 659.44 304.716 661.372 304.716C663.292 304.716 664.648 306.552 664.648 309.168C664.648 311.772 663.292 313.62 661.372 313.62C659.44 313.62 658.084 311.772 658.084 309.168ZM665.998 312.42C667.75 310.74 670.138 309.036 670.138 307.56C670.138 306.576 669.514 305.88 668.626 305.88C667.942 305.88 667.258 306.372 666.946 307.08L665.83 306.588C666.31 305.484 667.474 304.716 668.626 304.716C670.27 304.716 671.41 305.892 671.41 307.56C671.41 309.396 669.418 311.028 667.798 312.42H671.554V313.536H666.118L665.998 312.42Z" fill="#797986"/>
<rect x="642" y="341" width="36" height="36" rx="18" fill="#3E3E49"/>
<rect x="642" y="341" width="36" height="36" rx="18" stroke="#797986" stroke-width="2"/>
<path d="M648.472 354.74H649.744V363.596H648.472V354.74ZM651.491 358.448H656.723V359.72H651.491V358.448ZM661.372 362.492C662.572 362.492 663.376 361.148 663.376 359.168C663.376 357.176 662.572 355.832 661.372 355.832C660.172 355.832 659.356 357.176 659.356 359.168C659.356 361.148 660.172 362.492 661.372 362.492ZM658.084 359.168C658.084 356.552 659.44 354.716 661.372 354.716C663.292 354.716 664.648 356.552 664.648 359.168C664.648 361.772 663.292 363.62 661.372 363.62C659.44 363.62 658.084 361.772 658.084 359.168ZM670.462 359.024C671.242 359.48 671.734 360.332 671.734 361.064C671.734 362.552 670.51 363.608 668.77 363.608C667.042 363.608 665.818 362.528 665.818 360.992H667.09C667.09 361.868 667.786 362.48 668.77 362.48C669.778 362.48 670.498 361.868 670.498 360.992C670.498 360.152 669.79 359.552 668.794 359.552H668.17V358.484H668.806C669.718 358.484 670.366 357.944 670.366 357.176C670.366 356.396 669.742 355.856 668.854 355.856C667.966 355.856 667.354 356.408 667.354 357.188H666.082C666.082 355.736 667.222 354.728 668.854 354.728C670.462 354.728 671.602 355.712 671.602 357.104C671.602 357.776 671.17 358.568 670.462 359.024Z" fill="#797986"/>
<rect x="642" y="391" width="36" height="36" rx="18" fill="#3E3E49"/>
<rect x="642" y="391" width="36" height="36" rx="18" stroke="#797986" stroke-width="2"/>
<path d="M647.972 404.74H649.244V413.596H647.972V404.74ZM650.991 408.448H656.223V409.72H650.991V408.448ZM660.872 412.492C662.072 412.492 662.876 411.148 662.876 409.168C662.876 407.176 662.072 405.832 660.872 405.832C659.672 405.832 658.856 407.176 658.856 409.168C658.856 411.148 659.672 412.492 660.872 412.492ZM657.584 409.168C657.584 406.552 658.94 404.716 660.872 404.716C662.792 404.716 664.148 406.552 664.148 409.168C664.148 411.772 662.792 413.62 660.872 413.62C658.94 413.62 657.584 411.772 657.584 409.168ZM670.466 404.8V410.176H671.57V411.28H670.466V413.536H669.194V411.28H665.438L665.318 410.176L669.254 404.8H670.466ZM666.83 410.176H669.194V406.924L666.83 410.176Z" fill="#797986"/>
<rect x="420" y="91" width="130" height="4.00001" transform="rotate(-90 420 91)" fill="#797986"/>
<rect x="420" y="447" width="260" height="4.00001" transform="rotate(-90 420 447)" fill="#797986"/>
<rect x="594" y="447" width="260" height="4.00001" transform="rotate(-90 594 447)" fill="#797986"/>
<rect x="554" y="91" width="130" height="4.00001" transform="rotate(-90 554 91)" fill="#797986"/>
<rect x="688" y="91" width="130" height="4.00001" transform="rotate(-90 688 91)" fill="#797986"/>
<rect x="822" y="91" width="130" height="4.00001" transform="rotate(-90 822 91)" fill="#797986"/>
<rect x="48" y="45" width="60" height="4" transform="rotate(-90 48 45)" fill="#797986"/>
<rect x="956" y="91" width="130" height="4.00001" transform="rotate(-90 956 91)" fill="#797986"/>
<rect x="102" y="45" width="60" height="4" transform="rotate(-90 102 45)" fill="#797986"/>
<rect x="156" y="45" width="60" height="4" transform="rotate(-90 156 45)" fill="#797986"/>
<rect x="210" y="45" width="60" height="4" transform="rotate(-90 210 45)" fill="#797986"/>
<rect x="210" y="137" width="92" height="4" transform="rotate(-90 210 137)" fill="#797986"/>
<rect x="264" y="45" width="60" height="4" transform="rotate(-90 264 45)" fill="#797986"/>
<rect x="318" y="45" width="60" height="4" transform="rotate(-90 318 45)" fill="#797986"/>
<rect x="554" y="91" width="92" height="3.99999" transform="rotate(-180 554 91)" fill="#797986"/>
<rect x="558" y="191" width="134" height="3.99999" transform="rotate(-180 558 191)" fill="#797986"/>
<rect x="688" y="91" width="92" height="3.99999" transform="rotate(-180 688 91)" fill="#797986"/>
<rect x="822" y="91" width="92" height="3.99999" transform="rotate(-180 822 91)" fill="#797986"/>
<rect x="956" y="91" width="92" height="3.99999" transform="rotate(-180 956 91)" fill="#797986"/>
<rect x="102" y="45" width="50" height="4" transform="rotate(-180 102 45)" fill="#797986"/>
<rect x="156" y="45" width="50" height="4" transform="rotate(-180 156 45)" fill="#797986"/>
<rect x="210" y="45" width="50" height="4" transform="rotate(-180 210 45)" fill="#797986"/>
<rect x="264" y="45" width="50" height="4" transform="rotate(-180 264 45)" fill="#797986"/>
<rect x="318" y="45" width="50" height="4" transform="rotate(-180 318 45)" fill="#797986"/>
<rect x="1252" y="459" width="1890" height="11.9998" transform="rotate(-180 1252 459)" fill="#797986"/>
<path d="M508 307V326.5M521.5 326.5L509.139 312.079C508.54 311.38 507.46 311.38 506.861 312.079L494.5 326.5M521.5 291.25V306.25C521.5 306.664 521.164 307 520.75 307H495.25C494.836 307 494.5 306.664 494.5 306.25V291.25C494.5 290.836 494.836 290.5 495.25 290.5H504.25L504.858 288.068C504.941 287.734 505.241 287.5 505.586 287.5H511.164C511.509 287.5 511.809 287.734 511.892 288.068L512.5 290.5H520.75C521.164 290.5 521.5 290.836 521.5 291.25ZM514 298.75C514 302.064 511.314 304.75 508 304.75C504.686 304.75 502 302.064 502 298.75C502 295.436 504.686 292.75 508 292.75C511.314 292.75 514 295.436 514 298.75ZM512.5 298.75C512.5 301.235 510.485 303.25 508 303.25C505.515 303.25 503.5 301.235 503.5 298.75C503.5 296.265 505.515 294.25 508 294.25C510.485 294.25 512.5 296.265 512.5 298.75ZM515.5 293.5V292.75C515.5 292.336 515.836 292 516.25 292H519.25C519.664 292 520 292.336 520 292.75V293.5C520 293.914 519.664 294.25 519.25 294.25H516.25C515.836 294.25 515.5 293.914 515.5 293.5ZM501.25 290.5V289.75C501.25 289.336 500.914 289 500.5 289H497.5C497.086 289 496.75 289.336 496.75 289.75V290.5H501.25Z" stroke="white" stroke-width="1.2"/>
<path d="M69.5189 5.45986C70.7415 2.74458 72.9011 0.616815 75.5211 -0.701128C77.2042 -1.55859 79.2526 -0.478826 79.6496 1.36312L80.1895 3.85609C80.5388 5.45986 79.5225 7.03186 77.9188 7.3812L76.0133 7.79404C74.9653 8.01635 74.2031 8.92144 74.1396 9.98532C73.9173 13.6216 74.8065 17.7342 76.5214 20.9576C77.0296 21.9103 78.0934 22.4026 79.1414 22.1803L81.0469 21.7674C82.6507 21.4181 84.2227 22.4343 84.572 24.0381L85.1278 26.6105C85.5247 28.4365 84.1592 30.2467 82.2855 30.1991C72.774 29.9609 66.5813 18.7028 68.2803 9.46132C68.5185 8.03223 68.9314 6.69841 69.503 5.44398L69.5189 5.45986Z" fill="#3E3E49" stroke="#797986" stroke-width="1.2" stroke-miterlimit="10"/>
<path d="M123.519 5.45986C124.742 2.74458 126.901 0.616815 129.521 -0.701128C131.204 -1.55859 133.253 -0.478826 133.65 1.36312L134.189 3.85609C134.539 5.45986 133.523 7.03186 131.919 7.3812L130.013 7.79404C128.965 8.01635 128.203 8.92144 128.14 9.98532C127.917 13.6216 128.807 17.7342 130.521 20.9576C131.03 21.9103 132.093 22.4026 133.141 22.1803L135.047 21.7674C136.651 21.4181 138.223 22.4343 138.572 24.0381L139.128 26.6105C139.525 28.4365 138.159 30.2467 136.285 30.1991C126.774 29.9609 120.581 18.7028 122.28 9.46132C122.519 8.03223 122.931 6.69841 123.503 5.44398L123.519 5.45986Z" fill="#3E3E49" stroke="#797986" stroke-width="1.2" stroke-miterlimit="10"/>
<path d="M177.519 5.45986C178.742 2.74458 180.901 0.616815 183.521 -0.701128C185.204 -1.55859 187.253 -0.478826 187.65 1.36312L188.189 3.85609C188.539 5.45986 187.523 7.03186 185.919 7.3812L184.013 7.79404C182.965 8.01635 182.203 8.92144 182.14 9.98532C181.917 13.6216 182.807 17.7342 184.521 20.9576C185.03 21.9103 186.093 22.4026 187.141 22.1803L189.047 21.7674C190.651 21.4181 192.223 22.4343 192.572 24.0381L193.128 26.6105C193.525 28.4365 192.159 30.2467 190.285 30.1991C180.774 29.9609 174.581 18.7028 176.28 9.46132C176.519 8.03223 176.931 6.69841 177.503 5.44398L177.519 5.45986Z" fill="#3E3E49" stroke="#797986" stroke-width="1.2" stroke-miterlimit="10"/>
<path d="M231.519 5.45986C232.742 2.74458 234.901 0.616815 237.521 -0.701128C239.204 -1.55859 241.253 -0.478826 241.65 1.36312L242.189 3.85609C242.539 5.45986 241.523 7.03186 239.919 7.3812L238.013 7.79404C236.965 8.01635 236.203 8.92144 236.14 9.98532C235.917 13.6216 236.807 17.7342 238.521 20.9576C239.03 21.9103 240.093 22.4026 241.141 22.1803L243.047 21.7674C244.651 21.4181 246.223 22.4343 246.572 24.0381L247.128 26.6105C247.525 28.4365 246.159 30.2467 244.285 30.1991C234.774 29.9609 228.581 18.7028 230.28 9.46132C230.519 8.03223 230.931 6.69841 231.503 5.44398L231.519 5.45986Z" fill="#3E3E49" stroke="#797986" stroke-width="1.2" stroke-miterlimit="10"/>
<path d="M285.519 5.45986C286.742 2.74458 288.901 0.616815 291.521 -0.701128C293.204 -1.55859 295.253 -0.478826 295.65 1.36312L296.189 3.85609C296.539 5.45986 295.523 7.03186 293.919 7.3812L292.013 7.79404C290.965 8.01635 290.203 8.92144 290.14 9.98532C289.917 13.6216 290.807 17.7342 292.521 20.9576C293.03 21.9103 294.093 22.4026 295.141 22.1803L297.047 21.7674C298.651 21.4181 300.223 22.4343 300.572 24.0381L301.128 26.6105C301.525 28.4365 300.159 30.2467 298.285 30.1991C288.774 29.9609 282.581 18.7028 284.28 9.46132C284.519 8.03223 284.931 6.69841 285.503 5.44398L285.519 5.45986Z" fill="#3E3E49" stroke="#797986" stroke-width="1.2" stroke-miterlimit="10"/>
<rect x="64" y="337" width="248" height="50" rx="4" fill="#797986"/>
<rect x="70" y="309" width="36" height="36" rx="18" fill="#3E3E49"/>
<rect x="70" y="309" width="36" height="36" rx="18" stroke="#797986" stroke-width="2"/>
<path d="M79.128 322.74L82.416 331.596H81.06L80.172 329.184H76.536L75.612 331.596H74.256L77.604 322.74H79.128ZM76.944 328.08H79.752L78.372 324.348L76.944 328.08ZM83.948 326.448H89.18V327.72H83.948V326.448ZM90.7328 330.42C92.4848 328.74 94.8728 327.036 94.8728 325.56C94.8728 324.576 94.2488 323.88 93.3608 323.88C92.6768 323.88 91.9928 324.372 91.6808 325.08L90.5648 324.588C91.0448 323.484 92.2088 322.716 93.3608 322.716C95.0048 322.716 96.1448 323.892 96.1448 325.56C96.1448 327.396 94.1528 329.028 92.5328 330.42H96.2888V331.536H90.8528L90.7328 330.42ZM100.719 322.812V331.536L99.4469 331.524V324.168L97.9109 325.02L97.3829 323.952L99.4589 322.812H100.719Z" fill="#797986"/>
<rect x="120" y="309" width="36" height="36" rx="18" fill="#3E3E49"/>
<rect x="120" y="309" width="36" height="36" rx="18" stroke="#797986" stroke-width="2"/>
<path d="M128.128 322.74L131.416 331.596H130.06L129.172 329.184H125.536L124.612 331.596H123.256L126.604 322.74H128.128ZM125.944 328.08H128.752L127.372 324.348L125.944 328.08ZM132.948 326.448H138.18V327.72H132.948V326.448ZM139.733 330.42C141.485 328.74 143.873 327.036 143.873 325.56C143.873 324.576 143.249 323.88 142.361 323.88C141.677 323.88 140.993 324.372 140.681 325.08L139.565 324.588C140.045 323.484 141.209 322.716 142.361 322.716C144.005 322.716 145.145 323.892 145.145 325.56C145.145 327.396 143.153 329.028 141.533 330.42H145.289V331.536H139.853L139.733 330.42ZM146.647 330.42C148.399 328.74 150.787 327.036 150.787 325.56C150.787 324.576 150.163 323.88 149.275 323.88C148.591 323.88 147.907 324.372 147.595 325.08L146.479 324.588C146.959 323.484 148.123 322.716 149.275 322.716C150.919 322.716 152.059 323.892 152.059 325.56C152.059 327.396 150.067 329.028 148.447 330.42H152.203V331.536H146.767L146.647 330.42Z" fill="#797986"/>
<rect x="170" y="309" width="36" height="36" rx="18" fill="#3E3E49"/>
<rect x="170" y="309" width="36" height="36" rx="18" stroke="#797986" stroke-width="2"/>
<path d="M178.128 322.74L181.416 331.596H180.06L179.172 329.184H175.536L174.612 331.596H173.256L176.604 322.74H178.128ZM175.944 328.08H178.752L177.372 324.348L175.944 328.08ZM182.948 326.448H188.18V327.72H182.948V326.448ZM189.733 330.42C191.485 328.74 193.873 327.036 193.873 325.56C193.873 324.576 193.249 323.88 192.361 323.88C191.677 323.88 190.993 324.372 190.681 325.08L189.565 324.588C190.045 323.484 191.209 322.716 192.361 322.716C194.005 322.716 195.145 323.892 195.145 325.56C195.145 327.396 193.153 329.028 191.533 330.42H195.289V331.536H189.853L189.733 330.42ZM201.111 327.024C201.891 327.48 202.383 328.332 202.383 329.064C202.383 330.552 201.159 331.608 199.419 331.608C197.691 331.608 196.467 330.528 196.467 328.992H197.739C197.739 329.868 198.435 330.48 199.419 330.48C200.427 330.48 201.147 329.868 201.147 328.992C201.147 328.152 200.439 327.552 199.443 327.552H198.819V326.484H199.455C200.367 326.484 201.015 325.944 201.015 325.176C201.015 324.396 200.391 323.856 199.503 323.856C198.615 323.856 198.003 324.408 198.003 325.188H196.731C196.731 323.736 197.871 322.728 199.503 322.728C201.111 322.728 202.251 323.712 202.251 325.104C202.251 325.776 201.819 326.568 201.111 327.024Z" fill="#797986"/>
<rect x="220" y="309" width="36" height="36" rx="18" fill="#3E3E49"/>
<rect x="220" y="309" width="36" height="36" rx="18" stroke="#797986" stroke-width="2"/>
<path d="M228.128 322.74L231.416 331.596H230.06L229.172 329.184H225.536L224.612 331.596H223.256L226.604 322.74H228.128ZM225.944 328.08H228.752L227.372 324.348L225.944 328.08ZM232.948 326.448H238.18V327.72H232.948V326.448ZM239.733 330.42C241.485 328.74 243.873 327.036 243.873 325.56C243.873 324.576 243.249 323.88 242.361 323.88C241.677 323.88 240.993 324.372 240.681 325.08L239.565 324.588C240.045 323.484 241.209 322.716 242.361 322.716C244.005 322.716 245.145 323.892 245.145 325.56C245.145 327.396 243.153 329.028 241.533 330.42H245.289V331.536H239.853L239.733 330.42ZM251.615 322.8V328.176H252.719V329.28H251.615V331.536H250.343V329.28H246.587L246.467 328.176L250.403 322.8H251.615ZM247.979 328.176H250.343V324.924L247.979 328.176Z" fill="#797986"/>
<rect x="270" y="309" width="36" height="36" rx="18" fill="#3E3E49"/>
<rect x="270" y="309" width="36" height="36" rx="18" stroke="#797986" stroke-width="2"/>
<path d="M278.128 322.74L281.416 331.596H280.06L279.172 329.184H275.536L274.612 331.596H273.256L276.604 322.74H278.128ZM275.944 328.08H278.752L277.372 324.348L275.944 328.08ZM282.948 326.448H288.18V327.72H282.948V326.448ZM289.733 330.42C291.485 328.74 293.873 327.036 293.873 325.56C293.873 324.576 293.249 323.88 292.361 323.88C291.677 323.88 290.993 324.372 290.681 325.08L289.565 324.588C290.045 323.484 291.209 322.716 292.361 322.716C294.005 322.716 295.145 323.892 295.145 325.56C295.145 327.396 293.153 329.028 291.533 330.42H295.289V331.536H289.853L289.733 330.42ZM298.087 327.624L296.815 327.468L297.115 322.8H301.783V323.916H298.339L298.195 326.052C298.591 325.872 299.035 325.764 299.431 325.764C301.231 325.764 302.503 326.976 302.503 328.692C302.503 330.432 301.231 331.656 299.431 331.656C298.015 331.656 296.791 330.708 296.479 329.364L297.715 329.076C297.895 329.88 298.603 330.456 299.431 330.456C300.487 330.456 301.231 329.724 301.231 328.692C301.231 327.684 300.487 326.964 299.431 326.964C298.987 326.964 298.435 327.24 298.087 327.624Z" fill="#797986"/>
<rect x="70" y="379" width="36" height="36" rx="18" fill="#3E3E49"/>
<rect x="70" y="379" width="36" height="36" rx="18" stroke="#797986" stroke-width="2"/>
<path d="M78.128 392.74L81.416 401.596H80.06L79.172 399.184H75.536L74.612 401.596H73.256L76.604 392.74H78.128ZM75.944 398.08H78.752L77.372 394.348L75.944 398.08ZM82.948 396.448H88.18V397.72H82.948V396.448ZM89.7328 400.42C91.4848 398.74 93.8728 397.036 93.8728 395.56C93.8728 394.576 93.2488 393.88 92.3608 393.88C91.6768 393.88 90.9928 394.372 90.6808 395.08L89.5648 394.588C90.0448 393.484 91.2088 392.716 92.3608 392.716C94.0048 392.716 95.1448 393.892 95.1448 395.56C95.1448 397.396 93.1528 399.028 91.5328 400.42H95.2888V401.536H89.8528L89.7328 400.42ZM99.4789 400.504C100.511 400.504 101.243 399.76 101.243 398.716C101.243 397.648 100.511 396.904 99.4789 396.904C98.4589 396.904 97.7389 397.648 97.7389 398.716C97.7389 399.76 98.4589 400.504 99.4789 400.504ZM96.4669 398.716C96.4669 398.08 96.6949 397.516 96.9469 397.048L99.3469 392.776H100.811L99.0709 395.836C99.2149 395.812 99.3589 395.788 99.5149 395.788C101.279 395.8 102.515 397 102.515 398.716C102.515 400.42 101.267 401.62 99.4909 401.62C97.7149 401.62 96.4669 400.42 96.4669 398.716Z" fill="#797986"/>
<rect x="120" y="379" width="36" height="36" rx="18" fill="#3E3E49"/>
<rect x="120" y="379" width="36" height="36" rx="18" stroke="#797986" stroke-width="2"/>
<path d="M128.128 392.74L131.416 401.596H130.06L129.172 399.184H125.536L124.612 401.596H123.256L126.604 392.74H128.128ZM125.944 398.08H128.752L127.372 394.348L125.944 398.08ZM132.948 396.448H138.18V397.72H132.948V396.448ZM139.733 400.42C141.485 398.74 143.873 397.036 143.873 395.56C143.873 394.576 143.249 393.88 142.361 393.88C141.677 393.88 140.993 394.372 140.681 395.08L139.565 394.588C140.045 393.484 141.209 392.716 142.361 392.716C144.005 392.716 145.145 393.892 145.145 395.56C145.145 397.396 143.153 399.028 141.533 400.42H145.289V401.536H139.853L139.733 400.42ZM148.639 401.56H147.247L150.667 393.88L146.659 393.892V392.764H151.939L152.059 393.88L148.639 401.56Z" fill="#797986"/>
<rect x="170" y="379" width="36" height="36" rx="18" fill="#3E3E49"/>
<rect x="170" y="379" width="36" height="36" rx="18" stroke="#797986" stroke-width="2"/>
<path d="M178.128 392.74L181.416 401.596H180.06L179.172 399.184H175.536L174.612 401.596H173.256L176.604 392.74H178.128ZM175.944 398.08H178.752L177.372 394.348L175.944 398.08ZM182.948 396.448H188.18V397.72H182.948V396.448ZM189.733 400.42C191.485 398.74 193.873 397.036 193.873 395.56C193.873 394.576 193.249 393.88 192.361 393.88C191.677 393.88 190.993 394.372 190.681 395.08L189.565 394.588C190.045 393.484 191.209 392.716 192.361 392.716C194.005 392.716 195.145 393.892 195.145 395.56C195.145 397.396 193.153 399.028 191.533 400.42H195.289V401.536H189.853L189.733 400.42ZM199.443 400.588C200.439 400.588 201.135 399.952 201.135 399.04C201.135 398.128 200.439 397.48 199.443 397.48C198.447 397.48 197.739 398.128 197.739 399.04C197.739 399.952 198.447 400.588 199.443 400.588ZM196.467 399.064C196.467 398.296 197.067 397.408 197.907 396.94C197.211 396.46 196.707 395.68 196.707 395.056C196.707 393.64 197.835 392.656 199.443 392.656C201.051 392.656 202.179 393.64 202.179 395.056C202.179 395.692 201.687 396.472 200.979 396.94C201.819 397.42 202.419 398.296 202.419 399.064C202.419 400.6 201.195 401.68 199.443 401.68C197.703 401.68 196.467 400.6 196.467 399.064ZM197.991 395.056C197.991 395.836 198.591 396.388 199.443 396.388C200.307 396.388 200.907 395.836 200.907 395.056C200.907 394.276 200.307 393.736 199.443 393.736C198.591 393.736 197.991 394.276 197.991 395.056Z" fill="#797986"/>
<rect x="220" y="379" width="36" height="36" rx="18" fill="#3E3E49"/>
<rect x="220" y="379" width="36" height="36" rx="18" stroke="#797986" stroke-width="2"/>
<path d="M228.128 392.74L231.416 401.596H230.06L229.172 399.184H225.536L224.612 401.596H223.256L226.604 392.74H228.128ZM225.944 398.08H228.752L227.372 394.348L225.944 398.08ZM232.948 396.448H238.18V397.72H232.948V396.448ZM239.733 400.42C241.485 398.74 243.873 397.036 243.873 395.56C243.873 394.576 243.249 393.88 242.361 393.88C241.677 393.88 240.993 394.372 240.681 395.08L239.565 394.588C240.045 393.484 241.209 392.716 242.361 392.716C244.005 392.716 245.145 393.892 245.145 395.56C245.145 397.396 243.153 399.028 241.533 400.42H245.289V401.536H239.853L239.733 400.42ZM249.503 393.82C248.471 393.82 247.739 394.564 247.739 395.62C247.739 396.676 248.471 397.42 249.503 397.42C250.523 397.42 251.243 396.676 251.243 395.62C251.243 394.564 250.523 393.82 249.503 393.82ZM246.467 395.62C246.467 393.904 247.715 392.704 249.491 392.704C251.267 392.704 252.515 393.904 252.515 395.62C252.515 396.244 252.287 396.82 252.035 397.276L249.635 401.548H248.171L249.911 398.488C249.767 398.512 249.623 398.536 249.467 398.536C247.703 398.524 246.467 397.324 246.467 395.62Z" fill="#797986"/>
<rect x="270" y="379" width="36" height="36" rx="18" fill="#3E3E49"/>
<rect x="270" y="379" width="36" height="36" rx="18" stroke="#797986" stroke-width="2"/>
<path d="M277.628 392.74L280.916 401.596H279.56L278.672 399.184H275.036L274.112 401.596H272.756L276.104 392.74H277.628ZM275.444 398.08H278.252L276.872 394.348L275.444 398.08ZM282.448 396.448H287.68V397.72H282.448V396.448ZM293.697 397.024C294.477 397.48 294.969 398.332 294.969 399.064C294.969 400.552 293.745 401.608 292.005 401.608C290.277 401.608 289.053 400.528 289.053 398.992H290.325C290.325 399.868 291.021 400.48 292.005 400.48C293.013 400.48 293.733 399.868 293.733 398.992C293.733 398.152 293.025 397.552 292.029 397.552H291.405V396.484H292.041C292.953 396.484 293.601 395.944 293.601 395.176C293.601 394.396 292.977 393.856 292.089 393.856C291.201 393.856 290.589 394.408 290.589 395.188H289.317C289.317 393.736 290.457 392.728 292.089 392.728C293.697 392.728 294.837 393.712 294.837 395.104C294.837 395.776 294.405 396.568 293.697 397.024ZM299.419 400.492C300.619 400.492 301.423 399.148 301.423 397.168C301.423 395.176 300.619 393.832 299.419 393.832C298.219 393.832 297.403 395.176 297.403 397.168C297.403 399.148 298.219 400.492 299.419 400.492ZM296.131 397.168C296.131 394.552 297.487 392.716 299.419 392.716C301.339 392.716 302.695 394.552 302.695 397.168C302.695 399.772 301.339 401.62 299.419 401.62C297.487 401.62 296.131 399.772 296.131 397.168Z" fill="#797986"/>
<path d="M477.5 -5.75C477.5 -6.16421 477.836 -6.5 478.25 -6.5H497.75C498.164 -6.5 498.5 -6.16421 498.5 -5.75V4.75C498.5 5.16421 498.164 5.5 497.75 5.5H478.25C477.836 5.5 477.5 5.16421 477.5 4.75V-5.75Z" stroke="#797986" stroke-width="1.2"/>
<path d="M480.876 8.70022C481.101 8.12688 481.655 7.75 482.271 7.75H493.729C494.345 7.75 494.898 8.12687 495.124 8.7002L503.693 30.4502C504.08 31.4344 503.355 32.5 502.297 32.5H473.703C472.645 32.5 471.92 31.4344 472.307 30.4502L480.876 8.70022Z" stroke="#797986" stroke-width="1.2"/>
<path d="M477.5 9.99997H475.069C474.655 9.99997 474.319 9.66418 474.319 9.24997V3.24833C474.319 3.08444 474.094 3.03929 474.031 3.19052L471.732 8.69511C471.579 9.06137 471.5 9.45435 471.5 9.85128V16C471.5 16.4142 471.836 16.75 472.25 16.75H474.681M498.5 9.99997H500.931C501.345 9.99997 501.681 9.66418 501.681 9.24997V3.24833C501.681 3.08444 501.906 3.03929 501.969 3.19052L504.268 8.69511C504.421 9.06137 504.5 9.45435 504.5 9.85128V16C504.5 16.4142 504.164 16.75 503.75 16.75H501.319M473 22H470.322C469.825 22 469.422 21.597 469.422 21.1V13.9534C469.422 13.7544 469.146 13.7025 469.074 13.8877L466.498 20.4671C466.334 20.8853 466.25 21.3305 466.25 21.7796V29.2C466.25 29.697 466.653 30.1 467.15 30.1H469.828M503 22H505.678C506.175 22 506.578 21.597 506.578 21.1V13.9534C506.578 13.7544 506.854 13.7025 506.926 13.8877L509.502 20.4671C509.666 20.8853 509.75 21.3305 509.75 21.7796V29.2C509.75 29.697 509.347 30.1 508.85 30.1H506.172" stroke="#797986" stroke-width="1.2"/>
<path d="M485.273 1.68359V0.922941L488.629 -4.38672H489.181V-3.20845H488.808L486.273 0.803623V0.863282H490.792V1.68359H485.273ZM488.868 3.24965V-4.38672H489.748V3.24965H488.868Z" fill="#797986"/>
<path d="M611.5 -5.75C611.5 -6.16421 611.836 -6.5 612.25 -6.5H631.75C632.164 -6.5 632.5 -6.16421 632.5 -5.75V4.75C632.5 5.16421 632.164 5.5 631.75 5.5H612.25C611.836 5.5 611.5 5.16421 611.5 4.75V-5.75Z" stroke="#797986" stroke-width="1.2"/>
<path d="M614.876 8.70022C615.101 8.12688 615.655 7.75 616.271 7.75H627.729C628.345 7.75 628.898 8.12687 629.124 8.7002L637.693 30.4502C638.08 31.4344 637.355 32.5 636.297 32.5H607.703C606.645 32.5 605.92 31.4344 606.307 30.4502L614.876 8.70022Z" stroke="#797986" stroke-width="1.2"/>
<path d="M611.5 9.99997H609.069C608.655 9.99997 608.319 9.66418 608.319 9.24997V3.24833C608.319 3.08444 608.094 3.03929 608.031 3.19052L605.732 8.69511C605.579 9.06137 605.5 9.45435 605.5 9.85128V16C605.5 16.4142 605.836 16.75 606.25 16.75H608.681M632.5 9.99997H634.931C635.345 9.99997 635.681 9.66418 635.681 9.24997V3.24833C635.681 3.08444 635.906 3.03929 635.969 3.19052L638.268 8.69511C638.421 9.06137 638.5 9.45435 638.5 9.85128V16C638.5 16.4142 638.164 16.75 637.75 16.75H635.319M607 22H604.322C603.825 22 603.422 21.597 603.422 21.1V13.9534C603.422 13.7544 603.146 13.7025 603.074 13.8877L600.498 20.4671C600.334 20.8853 600.25 21.3305 600.25 21.7796V29.2C600.25 29.697 600.653 30.1 601.15 30.1H603.828M637 22H639.678C640.175 22 640.578 21.597 640.578 21.1V13.9534C640.578 13.7544 640.854 13.7025 640.926 13.8877L643.502 20.4671C643.666 20.8853 643.75 21.3305 643.75 21.7796V29.2C643.75 29.697 643.347 30.1 642.85 30.1H640.172" stroke="#797986" stroke-width="1.2"/>
<path d="M619.273 1.68359V0.922941L622.629 -4.38672H623.181V-3.20845H622.808L620.273 0.803623V0.863282H624.792V1.68359H619.273ZM622.868 3.24965V-4.38672H623.748V3.24965H622.868Z" fill="#797986"/>
<path d="M745.5 -5.75C745.5 -6.16421 745.836 -6.5 746.25 -6.5H765.75C766.164 -6.5 766.5 -6.16421 766.5 -5.75V4.75C766.5 5.16421 766.164 5.5 765.75 5.5H746.25C745.836 5.5 745.5 5.16421 745.5 4.75V-5.75Z" stroke="#797986" stroke-width="1.2"/>
<path d="M748.876 8.70022C749.101 8.12688 749.655 7.75 750.271 7.75H761.729C762.345 7.75 762.898 8.12687 763.124 8.7002L771.693 30.4502C772.08 31.4344 771.355 32.5 770.297 32.5H741.703C740.645 32.5 739.92 31.4344 740.307 30.4502L748.876 8.70022Z" stroke="#797986" stroke-width="1.2"/>
<path d="M745.5 9.99997H743.069C742.655 9.99997 742.319 9.66418 742.319 9.24997V3.24833C742.319 3.08444 742.094 3.03929 742.031 3.19052L739.732 8.69511C739.579 9.06137 739.5 9.45435 739.5 9.85128V16C739.5 16.4142 739.836 16.75 740.25 16.75H742.681M766.5 9.99997H768.931C769.345 9.99997 769.681 9.66418 769.681 9.24997V3.24833C769.681 3.08444 769.906 3.03929 769.969 3.19052L772.268 8.69511C772.421 9.06137 772.5 9.45435 772.5 9.85128V16C772.5 16.4142 772.164 16.75 771.75 16.75H769.319M741 22H738.322C737.825 22 737.422 21.597 737.422 21.1V13.9534C737.422 13.7544 737.146 13.7025 737.074 13.8877L734.498 20.4671C734.334 20.8853 734.25 21.3305 734.25 21.7796V29.2C734.25 29.697 734.653 30.1 735.15 30.1H737.828M771 22H773.678C774.175 22 774.578 21.597 774.578 21.1V13.9534C774.578 13.7544 774.854 13.7025 774.926 13.8877L777.502 20.4671C777.666 20.8853 777.75 21.3305 777.75 21.7796V29.2C777.75 29.697 777.347 30.1 776.85 30.1H774.172" stroke="#797986" stroke-width="1.2"/>
<path d="M753.273 1.68359V0.922941L756.629 -4.38672H757.181V-3.20845H756.808L754.273 0.803623V0.863282H758.792V1.68359H753.273ZM756.868 3.24965V-4.38672H757.748V3.24965H756.868Z" fill="#797986"/>
<path d="M879.5 -5.75C879.5 -6.16421 879.836 -6.5 880.25 -6.5H899.75C900.164 -6.5 900.5 -6.16421 900.5 -5.75V4.75C900.5 5.16421 900.164 5.5 899.75 5.5H880.25C879.836 5.5 879.5 5.16421 879.5 4.75V-5.75Z" stroke="#797986" stroke-width="1.2"/>
<path d="M882.876 8.70022C883.101 8.12688 883.655 7.75 884.271 7.75H895.729C896.345 7.75 896.898 8.12687 897.124 8.7002L905.693 30.4502C906.08 31.4344 905.355 32.5 904.297 32.5H875.703C874.645 32.5 873.92 31.4344 874.307 30.4502L882.876 8.70022Z" stroke="#797986" stroke-width="1.2"/>
<path d="M879.5 9.99997H877.069C876.655 9.99997 876.319 9.66418 876.319 9.24997V3.24833C876.319 3.08444 876.094 3.03929 876.031 3.19052L873.732 8.69511C873.579 9.06137 873.5 9.45435 873.5 9.85128V16C873.5 16.4142 873.836 16.75 874.25 16.75H876.681M900.5 9.99997H902.931C903.345 9.99997 903.681 9.66418 903.681 9.24997V3.24833C903.681 3.08444 903.906 3.03929 903.969 3.19052L906.268 8.69511C906.421 9.06137 906.5 9.45435 906.5 9.85128V16C906.5 16.4142 906.164 16.75 905.75 16.75H903.319M875 22H872.322C871.825 22 871.422 21.597 871.422 21.1V13.9534C871.422 13.7544 871.146 13.7025 871.074 13.8877L868.498 20.4671C868.334 20.8853 868.25 21.3305 868.25 21.7796V29.2C868.25 29.697 868.653 30.1 869.15 30.1H871.828M905 22H907.678C908.175 22 908.578 21.597 908.578 21.1V13.9534C908.578 13.7544 908.854 13.7025 908.926 13.8877L911.502 20.4671C911.666 20.8853 911.75 21.3305 911.75 21.7796V29.2C911.75 29.697 911.347 30.1 910.85 30.1H908.172" stroke="#797986" stroke-width="1.2"/>
<path d="M887.273 1.68359V0.922941L890.629 -4.38672H891.181V-3.20845H890.808L888.273 0.803623V0.863282H892.792V1.68359H887.273ZM890.868 3.24965V-4.38672H891.748V3.24965H890.868Z" fill="#797986"/>
<path d="M84 253C81.7909 253 80 251.209 80 249L80 197C80 194.791 81.7909 193 84 193L85.3333 193L96 193C98.2091 193 100 194.791 100 197L100 249C100 251.209 98.2091 253 96 253L85.3333 253L84 253Z" fill="#3E3E49"/>
<path d="M85.3333 193L84 193C81.7909 193 80 194.791 80 197L80 249C80 251.209 81.7909 253 84 253L85.3333 253M85.3333 193L96 193C98.2091 193 100 194.791 100 197L100 249C100 251.209 98.2091 253 96 253L85.3333 253M85.3333 193L85.3333 253" stroke="#797986" stroke-width="2"/>
<path d="M162 253C159.791 253 158 251.209 158 249L158 197C158 194.791 159.791 193 162 193L163.333 193L174 193C176.209 193 178 194.791 178 197L178 249C178 251.209 176.209 253 174 253L163.333 253L162 253Z" fill="#3E3E49"/>
<path d="M163.333 193L162 193C159.791 193 158 194.791 158 197L158 249C158 251.209 159.791 253 162 253L163.333 253M163.333 193L174 193C176.209 193 178 194.791 178 197L178 249C178 251.209 176.209 253 174 253L163.333 253M163.333 193L163.333 253" stroke="#797986" stroke-width="2"/>
<path d="M240 253C237.791 253 236 251.209 236 249L236 197C236 194.791 237.791 193 240 193L241.333 193L252 193C254.209 193 256 194.791 256 197L256 249C256 251.209 254.209 253 252 253L241.333 253L240 253Z" fill="#3E3E49"/>
<path d="M241.333 193L240 193C237.791 193 236 194.791 236 197L236 249C236 251.209 237.791 253 240 253L241.333 253M241.333 193L252 193C254.209 193 256 194.791 256 197L256 249C256 251.209 254.209 253 252 253L241.333 253M241.333 193L241.333 253" stroke="#797986" stroke-width="2"/>
<path d="M146 253C148.209 253 150 251.209 150 249L150 197C150 194.791 148.209 193 146 193L144.667 193L134 193C131.791 193 130 194.791 130 197L130 249C130 251.209 131.791 253 134 253L144.667 253L146 253Z" fill="#3E3E49"/>
<path d="M144.667 193L146 193C148.209 193 150 194.791 150 197L150 249C150 251.209 148.209 253 146 253L144.667 253M144.667 193L134 193C131.791 193 130 194.791 130 197L130 249C130 251.209 131.791 253 134 253L144.667 253M144.667 193L144.667 253" stroke="#797986" stroke-width="2"/>
<path d="M224 253C226.209 253 228 251.209 228 249L228 197C228 194.791 226.209 193 224 193L222.667 193L212 193C209.791 193 208 194.791 208 197L208 249C208 251.209 209.791 253 212 253L222.667 253L224 253Z" fill="#3E3E49"/>
<path d="M222.667 193L224 193C226.209 193 228 194.791 228 197L228 249C228 251.209 226.209 253 224 253L222.667 253M222.667 193L212 193C209.791 193 208 194.791 208 197L208 249C208 251.209 209.791 253 212 253L222.667 253M222.667 193L222.667 253" stroke="#797986" stroke-width="2"/>
<path d="M306 253C308.209 253 310 251.209 310 249L310 197C310 194.791 308.209 193 306 193L304.667 193L294 193C291.791 193 290 194.791 290 197L290 249C290 251.209 291.791 253 294 253L304.667 253L306 253Z" fill="#3E3E49"/>
<path d="M304.667 193L306 193C308.209 193 310 194.791 310 197L310 249C310 251.209 308.209 253 306 253L304.667 253M304.667 193L294 193C291.791 193 290 194.791 290 197L290 249C290 251.209 291.791 253 294 253L304.667 253M304.667 193L304.667 253" stroke="#797986" stroke-width="2"/>
<rect x="104" y="197" width="22" height="52" rx="4" fill="#3E3E49" stroke="#797986" stroke-width="2"/>
<rect x="182" y="197" width="22" height="52" rx="4" fill="#3E3E49" stroke="#797986" stroke-width="2"/>
<rect x="264" y="197" width="22" height="52" rx="4" fill="#3E3E49" stroke="#797986" stroke-width="2"/>
<rect x="252" y="77" width="38" height="38" rx="19" fill="#3E3E49" stroke="#797986" stroke-width="2"/>
<path d="M64.4256 79.3789C63.086 78.6055 62.627 76.8925 63.4004 75.5529L70.4024 63.4251C71.1759 62.0855 72.8888 61.6265 74.2284 62.3999L76.654 63.8003L87.5691 70.1021C88.9087 70.8756 89.3677 72.5885 88.5943 73.9281L81.5922 86.056C80.8188 87.3956 79.1059 87.8546 77.7662 87.0812L66.8512 80.7793L64.4256 79.3789Z" fill="#3E3E49"/>
<path d="M76.654 63.8003L74.2284 62.3999C72.8888 61.6265 71.1759 62.0855 70.4024 63.4251L63.4004 75.5529C62.627 76.8925 63.086 78.6055 64.4256 79.3789L66.8512 80.7793M76.654 63.8003L87.5691 70.1021C88.9087 70.8756 89.3677 72.5885 88.5943 73.9281L81.5922 86.056C80.8188 87.3956 79.1059 87.8546 77.7662 87.0812L66.8512 80.7793M76.654 63.8003L66.8512 80.7793" stroke="#797986" stroke-width="2"/>
<path d="M186.482 108.774C187.256 110.113 186.797 111.826 185.457 112.6L173.329 119.602C171.99 120.375 170.277 119.916 169.503 118.576L168.103 116.151L161.801 105.236C161.028 103.896 161.487 102.183 162.826 101.41L174.954 94.4078C176.294 93.6344 178.007 94.0934 178.78 95.433L185.082 106.348L186.482 108.774Z" fill="#3E3E49"/>
<path d="M168.103 116.151L169.503 118.576C170.277 119.916 171.99 120.375 173.329 119.602L185.457 112.6C186.797 111.826 187.256 110.113 186.482 108.774L185.082 106.348M168.103 116.151L161.801 105.236C161.028 103.896 161.487 102.183 162.826 101.41L174.954 94.4078C176.294 93.6344 178.007 94.0934 178.78 95.433L185.082 106.348M168.103 116.151L185.082 106.348" stroke="#797986" stroke-width="2"/>
<path d="M86.2461 119.945C85.1523 121.039 83.3789 121.039 82.2852 119.945L72.3828 110.043C71.289 108.949 71.289 107.176 72.3828 106.082L74.3633 104.102L83.2754 95.1894C84.3692 94.0956 86.1425 94.0956 87.2363 95.1894L97.1387 105.092C98.2325 106.186 98.2325 107.959 97.1387 109.053L88.2266 117.965L86.2461 119.945Z" fill="#3E3E49"/>
<path d="M74.3633 104.102L72.3828 106.082C71.289 107.176 71.289 108.949 72.3828 110.043L82.2852 119.945C83.3789 121.039 85.1523 121.039 86.2461 119.945L88.2266 117.965M74.3633 104.102L83.2754 95.1894C84.3692 94.0956 86.1425 94.0956 87.2363 95.1894L97.1387 105.092C98.2325 106.186 98.2325 107.959 97.1387 109.053L88.2266 117.965M74.3633 104.102L88.2266 117.965" stroke="#797986" stroke-width="2"/>
<path d="M125.766 62.4004C127.105 61.627 128.818 62.086 129.592 63.4256L136.594 75.5535C137.367 76.8931 136.908 78.606 135.569 79.3794L133.143 80.7798L122.228 87.0817C120.888 87.8551 119.175 87.3961 118.402 86.0565L111.4 73.9286C110.627 72.589 111.086 70.8761 112.425 70.1026L123.34 63.8008L125.766 62.4004Z" fill="#3E3E49"/>
<path d="M133.143 80.7798L135.569 79.3794C136.908 78.606 137.367 76.8931 136.594 75.5535L129.592 63.4256C128.818 62.086 127.105 61.627 125.766 62.4004L123.34 63.8008M133.143 80.7798L122.228 87.0817C120.888 87.8551 119.175 87.3961 118.402 86.0565L111.4 73.9286C110.627 72.589 111.086 70.8761 112.425 70.1026L123.34 63.8008M133.143 80.7798L123.34 63.8008" stroke="#797986" stroke-width="2"/>
<path d="M191.99 65.7249C193.484 65.3246 195.02 66.2112 195.42 67.7054L199.045 81.2323C199.445 82.7264 198.558 84.2622 197.064 84.6625L194.359 85.3875L182.185 88.6495C180.691 89.0499 179.155 88.1632 178.754 86.669L175.13 73.1422C174.73 71.648 175.616 70.1122 177.11 69.7119L189.285 66.4498L191.99 65.7249Z" fill="#3E3E49"/>
<path d="M194.359 85.3875L197.064 84.6625C198.558 84.2622 199.445 82.7264 199.045 81.2323L195.42 67.7054C195.02 66.2112 193.484 65.3246 191.99 65.7249L189.285 66.4498M194.359 85.3875L182.185 88.6495C180.691 89.0499 179.155 88.1632 178.754 86.669L175.13 73.1422C174.73 71.648 175.616 70.1122 177.11 69.7119L189.285 66.4498M194.359 85.3875L189.285 66.4498" stroke="#797986" stroke-width="2"/>
<path d="M295.594 56.9805C296.688 55.8867 298.461 55.8867 299.555 56.9805L309.457 66.8828C310.551 67.9766 310.551 69.75 309.457 70.8438L307.477 72.8243L298.564 81.7364C297.471 82.8302 295.697 82.8302 294.604 81.7364L284.701 71.834C283.607 70.7402 283.607 68.9669 284.701 67.8731L293.613 58.9609L295.594 56.9805Z" fill="#3E3E49"/>
<path d="M307.477 72.8243L309.457 70.8438C310.551 69.75 310.551 67.9766 309.457 66.8828L299.555 56.9805C298.461 55.8867 296.688 55.8867 295.594 56.9805L293.613 58.9609M307.477 72.8243L298.564 81.7364C297.471 82.8302 295.697 82.8302 294.604 81.7364L284.701 71.834C283.607 70.7402 283.607 68.9669 284.701 67.8731L293.613 58.9609M307.477 72.8243L293.613 58.9609" stroke="#797986" stroke-width="2"/>
<path d="M295.594 134.453C296.688 135.547 298.461 135.547 299.555 134.453L309.457 124.551C310.551 123.457 310.551 121.684 309.457 120.59L307.477 118.609L298.564 109.697C297.471 108.603 295.697 108.603 294.604 109.697L284.701 119.6C283.607 120.693 283.607 122.467 284.701 123.561L293.613 132.473L295.594 134.453Z" fill="#3E3E49"/>
<path d="M307.477 118.609L309.457 120.59C310.551 121.684 310.551 123.457 309.457 124.551L299.555 134.453C298.461 135.547 296.688 135.547 295.594 134.453L293.613 132.473M307.477 118.609L298.564 109.697C297.471 108.603 295.697 108.603 294.604 109.697L284.701 119.6C283.607 120.693 283.607 122.467 284.701 123.561L293.613 132.473M307.477 118.609L293.613 132.473" stroke="#797986" stroke-width="2"/>
<path d="M245.844 56.9805C244.75 55.8867 242.977 55.8867 241.883 56.9805L231.98 66.8828C230.887 67.9766 230.887 69.75 231.98 70.8438L233.961 72.8243L242.873 81.7364C243.967 82.8302 245.74 82.8302 246.834 81.7364L256.736 71.834C257.83 70.7402 257.83 68.9669 256.736 67.8731L247.824 58.9609L245.844 56.9805Z" fill="#3E3E49"/>
<path d="M233.961 72.8243L231.98 70.8438C230.887 69.75 230.887 67.9766 231.98 66.8828L241.883 56.9805C242.977 55.8867 244.75 55.8867 245.844 56.9805L247.824 58.9609M233.961 72.8243L242.873 81.7364C243.967 82.8302 245.74 82.8302 246.834 81.7364L256.736 71.834C257.83 70.7402 257.83 68.9669 256.736 67.8731L247.824 58.9609M233.961 72.8243L247.824 58.9609" stroke="#797986" stroke-width="2"/>
<path d="M245.844 134.453C244.75 135.547 242.977 135.547 241.883 134.453L231.98 124.551C230.887 123.457 230.887 121.684 231.98 120.59L233.961 118.609L242.873 109.697C243.967 108.603 245.74 108.603 246.834 109.697L256.736 119.6C257.83 120.693 257.83 122.467 256.736 123.561L247.824 132.473L245.844 134.453Z" fill="#3E3E49"/>
<path d="M233.961 118.609L231.98 120.59C230.887 121.684 230.887 123.457 231.98 124.551L241.883 134.453C242.977 135.547 244.75 135.547 245.844 134.453L247.824 132.473M233.961 118.609L242.873 109.697C243.967 108.603 245.74 108.603 246.834 109.697L256.736 119.6C257.83 120.693 257.83 122.467 256.736 123.561L247.824 132.473M233.961 118.609L247.824 132.473" stroke="#797986" stroke-width="2"/>
<rect x="94" y="79" width="16" height="16" rx="8" fill="#3E3E49" stroke="#797986" stroke-width="2"/>
<rect x="152" y="70.6016" width="15.4045" height="16" rx="7.70224" fill="#3E3E49" stroke="#797986" stroke-width="2"/>
<path d="M480.552 49.24V50.356H476.1V52.984H479.928V54.088H476.1V56.98H480.552V58.096H474.828V49.24H480.552ZM482.057 52.948H487.289V54.22H482.057V52.948ZM491.938 56.992C493.138 56.992 493.942 55.648 493.942 53.668C493.942 51.676 493.138 50.332 491.938 50.332C490.738 50.332 489.922 51.676 489.922 53.668C489.922 55.648 490.738 56.992 491.938 56.992ZM488.65 53.668C488.65 51.052 490.006 49.216 491.938 49.216C493.858 49.216 495.214 51.052 495.214 53.668C495.214 56.272 493.858 58.12 491.938 58.12C490.006 58.12 488.65 56.272 488.65 53.668ZM499.637 49.312V58.036L498.365 58.024V50.668L496.829 51.52L496.301 50.452L498.377 49.312H499.637Z" fill="#797986"/>
<path d="M499.704 341.24V350.096H498.42V346.1H494.244V350.096H492.972V341.24H494.244V344.996H498.42V341.24H499.704ZM501.452 344.948H506.684V346.22H501.452V344.948ZM511.333 348.992C512.533 348.992 513.337 347.648 513.337 345.668C513.337 343.676 512.533 342.332 511.333 342.332C510.133 342.332 509.317 343.676 509.317 345.668C509.317 347.648 510.133 348.992 511.333 348.992ZM508.045 345.668C508.045 343.052 509.401 341.216 511.333 341.216C513.253 341.216 514.609 343.052 514.609 345.668C514.609 348.272 513.253 350.12 511.333 350.12C509.401 350.12 508.045 348.272 508.045 345.668ZM519.031 341.312V350.036L517.759 350.024V342.668L516.223 343.52L515.695 342.452L517.771 341.312H519.031Z" fill="white"/>
<path d="M612.552 49.24V50.356H608.1V52.984H611.928V54.088H608.1V56.98H612.552V58.096H606.828V49.24H612.552ZM614.057 52.948H619.289V54.22H614.057V52.948ZM623.938 56.992C625.138 56.992 625.942 55.648 625.942 53.668C625.942 51.676 625.138 50.332 623.938 50.332C622.738 50.332 621.922 51.676 621.922 53.668C621.922 55.648 622.738 56.992 623.938 56.992ZM620.65 53.668C620.65 51.052 622.006 49.216 623.938 49.216C625.858 49.216 627.214 51.052 627.214 53.668C627.214 56.272 625.858 58.12 623.938 58.12C622.006 58.12 620.65 56.272 620.65 53.668ZM628.565 56.92C630.317 55.24 632.705 53.536 632.705 52.06C632.705 51.076 632.081 50.38 631.193 50.38C630.509 50.38 629.825 50.872 629.513 51.58L628.397 51.088C628.877 49.984 630.041 49.216 631.193 49.216C632.837 49.216 633.977 50.392 633.977 52.06C633.977 53.896 631.985 55.528 630.365 56.92H634.121V58.036H628.685L628.565 56.92Z" fill="#797986"/>
<path d="M746.552 49.24V50.356H742.1V52.984H745.928V54.088H742.1V56.98H746.552V58.096H740.828V49.24H746.552ZM748.057 52.948H753.289V54.22H748.057V52.948ZM757.938 56.992C759.138 56.992 759.942 55.648 759.942 53.668C759.942 51.676 759.138 50.332 757.938 50.332C756.738 50.332 755.922 51.676 755.922 53.668C755.922 55.648 756.738 56.992 757.938 56.992ZM754.65 53.668C754.65 51.052 756.006 49.216 757.938 49.216C759.858 49.216 761.214 51.052 761.214 53.668C761.214 56.272 759.858 58.12 757.938 58.12C756.006 58.12 754.65 56.272 754.65 53.668ZM767.029 53.524C767.809 53.98 768.301 54.832 768.301 55.564C768.301 57.052 767.077 58.108 765.337 58.108C763.609 58.108 762.385 57.028 762.385 55.492H763.657C763.657 56.368 764.353 56.98 765.337 56.98C766.345 56.98 767.065 56.368 767.065 55.492C767.065 54.652 766.357 54.052 765.361 54.052H764.737V52.984H765.373C766.285 52.984 766.933 52.444 766.933 51.676C766.933 50.896 766.309 50.356 765.421 50.356C764.533 50.356 763.921 50.908 763.921 51.688H762.649C762.649 50.236 763.789 49.228 765.421 49.228C767.029 49.228 768.169 50.212 768.169 51.604C768.169 52.276 767.737 53.068 767.029 53.524Z" fill="#797986"/>
<path d="M880.552 49.24V50.356H876.1V52.984H879.928V54.088H876.1V56.98H880.552V58.096H874.828V49.24H880.552ZM882.057 52.948H887.289V54.22H882.057V52.948ZM891.938 56.992C893.138 56.992 893.942 55.648 893.942 53.668C893.942 51.676 893.138 50.332 891.938 50.332C890.738 50.332 889.922 51.676 889.922 53.668C889.922 55.648 890.738 56.992 891.938 56.992ZM888.65 53.668C888.65 51.052 890.006 49.216 891.938 49.216C893.858 49.216 895.214 51.052 895.214 53.668C895.214 56.272 893.858 58.12 891.938 58.12C890.006 58.12 888.65 56.272 888.65 53.668ZM901.533 49.3V54.676H902.637V55.78H901.533V58.036H900.261V55.78H896.505L896.385 54.676L900.321 49.3H901.533ZM897.897 54.676H900.261V51.424L897.897 54.676Z" fill="#797986"/>
</g>
<defs>
<clipPath id="clip0_3397_255484">
<rect width="1005" height="820" fill="white"/>
</clipPath>
</defs>
</svg>
