<svg width="18" height="18" viewBox="0 0 18 18" fill="none" xmlns="http://www.w3.org/2000/svg">
<path id="Union" fill-rule="evenodd" clip-rule="evenodd" d="M1.125 9.0014C1.125 4.65139 4.65139 1.125 9.0014 1.125C10.4654 1.125 11.8352 1.52398 13.0091 2.2193L12.3959 3.53234L16.2784 3.1949L14.0449 0.0012952L13.4871 1.19571C12.1664 0.435177 10.6342 0 9.0014 0C4.03007 0 0 4.03007 0 9.0014C0 13.9727 4.03007 18.0028 9.0014 18.0028C13.9727 18.0028 18.0028 13.9727 18.0028 9.0014H16.8778C16.8778 13.3514 13.3514 16.8778 9.0014 16.8778C4.65139 16.8778 1.125 13.3514 1.125 9.0014Z" fill="#171717"/>
</svg>
