<svg width="24" height="24" viewBox="0 0 24 24" fill="none" xmlns="http://www.w3.org/2000/svg">
<path d="M20 5C21.6569 5 23 6.34315 23 8V9C23 10.6569 21.6569 12 20 12V5Z" fill="#FAEC23" stroke="#171717" stroke-width="1.5"/>
<path d="M20 3L20 11.5C20 16.1944 16.1944 20 11.5 20C6.80558 20 3 16.1944 3 11.5L3 3L20 3Z" fill="#FAEC23" stroke="#171717" stroke-width="1.5"/>
<path d="M5.25 22L17.75 22C18.9926 22 20 20.9926 20 19.75L20 19L3 19L3 19.75C3 20.9926 4.00736 22 5.25 22Z" fill="#97BAFE" stroke="#171717" stroke-width="1.5"/>
<rect x="8" y="9" width="2" height="2" transform="rotate(90 8 9)" fill="#171717"/>
<rect x="12.5" y="9" width="2" height="2" transform="rotate(90 12.5 9)" fill="#171717"/>
<rect x="17" y="9" width="2" height="2" transform="rotate(90 17 9)" fill="#171717"/>
</svg>
