<svg width="24" height="24" viewBox="0 0 24 24" fill="none" xmlns="http://www.w3.org/2000/svg">
<g id="Group 1321315481">
<g id="Subtract">
<path fill-rule="evenodd" clip-rule="evenodd" d="M1.12134 15.2635L8.19241 8.19242L10.3137 10.3137L11.0208 9.60663C11.8019 8.82559 13.0682 8.82559 13.8493 9.60663C14.6303 10.3877 14.6303 11.654 13.8493 12.4351L13.1422 13.1422L15.2635 15.2635L13.1422 17.3848L12.435 16.6777C11.654 15.8967 10.3877 15.8967 9.60662 16.6777C8.82557 17.4588 8.82557 18.7251 9.60662 19.5061L10.3137 20.2132L8.19241 22.3346L1.12134 15.2635Z" fill="#BFD4FF"/>
<path d="M8.19241 8.19242L8.72274 7.66209L8.19241 7.13176L7.66208 7.66209L8.19241 8.19242ZM1.12134 15.2635L0.591008 14.7332L0.0606777 15.2635L0.591008 15.7938L1.12134 15.2635ZM10.3137 10.3137L9.7834 10.8441L10.3137 11.3744L10.8441 10.8441L10.3137 10.3137ZM13.1422 13.1422L12.6118 12.6118L12.0815 13.1422L12.6118 13.6725L13.1422 13.1422ZM15.2635 15.2635L15.7938 15.7938L16.3241 15.2635L15.7938 14.7332L15.2635 15.2635ZM13.1422 17.3848L12.6118 17.9151L13.1422 18.4455L13.6725 17.9151L13.1422 17.3848ZM9.60662 19.5061L10.1369 18.9758L9.60662 19.5061ZM10.3137 20.2132L10.8441 20.7436L11.3744 20.2132L10.8441 19.6829L10.3137 20.2132ZM8.19241 22.3346L7.66208 22.8649L8.19241 23.3952L8.72274 22.8649L8.19241 22.3346ZM7.66208 7.66209L0.591008 14.7332L1.65167 15.7938L8.72274 8.72275L7.66208 7.66209ZM10.8441 9.78341L8.72274 7.66209L7.66208 8.72275L9.7834 10.8441L10.8441 9.78341ZM10.4905 9.0763L9.7834 9.78341L10.8441 10.8441L11.5512 10.137L10.4905 9.0763ZM14.3796 9.0763C13.3056 8.00236 11.5644 8.00236 10.4905 9.0763L11.5512 10.137C12.0393 9.64881 12.8308 9.64881 13.3189 10.137L14.3796 9.0763ZM14.3796 12.9654C15.4535 11.8915 15.4535 10.1502 14.3796 9.0763L13.3189 10.137C13.8071 10.6251 13.8071 11.4166 13.3189 11.9047L14.3796 12.9654ZM13.6725 13.6725L14.3796 12.9654L13.3189 11.9047L12.6118 12.6118L13.6725 13.6725ZM15.7938 14.7332L13.6725 12.6118L12.6118 13.6725L14.7331 15.7938L15.7938 14.7332ZM13.6725 17.9151L15.7938 15.7938L14.7331 14.7332L12.6118 16.8545L13.6725 17.9151ZM11.9047 17.208L12.6118 17.9151L13.6725 16.8545L12.9654 16.1474L11.9047 17.208ZM10.1369 17.208C10.6251 16.7199 11.4166 16.7199 11.9047 17.208L12.9654 16.1474C11.8914 15.0734 10.1502 15.0734 9.07629 16.1474L10.1369 17.208ZM10.1369 18.9758C9.64879 18.4876 9.64879 17.6962 10.1369 17.208L9.07629 16.1474C8.00235 17.2213 8.00235 18.9625 9.07629 20.0365L10.1369 18.9758ZM10.8441 19.6829L10.1369 18.9758L9.07629 20.0365L9.7834 20.7436L10.8441 19.6829ZM8.72274 22.8649L10.8441 20.7436L9.7834 19.6829L7.66208 21.8042L8.72274 22.8649ZM0.591008 15.7938L7.66208 22.8649L8.72274 21.8042L1.65167 14.7332L0.591008 15.7938Z" fill="#8D8D9B"/>
</g>
<g id="Subtract_2">
<path fill-rule="evenodd" clip-rule="evenodd" d="M22.3345 8.19238L15.2634 1.12132L13.1421 3.24264L12.435 2.53553C11.6539 1.75448 10.3876 1.75448 9.60655 2.53553C8.8255 3.31658 8.8255 4.58291 9.60655 5.36396L10.3137 6.07106L8.19234 8.19238L10.3137 10.3137L11.0208 9.6066C11.8018 8.82555 13.0681 8.82555 13.8492 9.6066C14.6302 10.3876 14.6302 11.654 13.8492 12.435L13.1421 13.1421L15.2634 15.2635L22.3345 8.19238Z" fill="#BFD4FF"/>
<path d="M15.2634 1.12132L14.7331 0.590986L15.2634 0.0606556L15.7937 0.590986L15.2634 1.12132ZM22.3345 8.19238L22.8648 7.66205L23.3951 8.19238L22.8648 8.72271L22.3345 8.19238ZM13.1421 3.24264L13.6724 3.77297L13.1421 4.3033L12.6118 3.77297L13.1421 3.24264ZM10.3137 6.07106L10.844 5.54073L11.3743 6.07106L10.844 6.60139L10.3137 6.07106ZM8.19234 8.19238L7.66201 8.72271L7.13168 8.19238L7.66201 7.66205L8.19234 8.19238ZM10.3137 10.3137L10.844 10.844L10.3137 11.3744L9.78333 10.844L10.3137 10.3137ZM13.8492 12.435L13.3189 11.9047L13.8492 12.435ZM13.1421 13.1421L12.6118 13.6725L12.0814 13.1421L12.6118 12.6118L13.1421 13.1421ZM15.2634 15.2635L15.7937 15.7938L15.2634 16.3241L14.7331 15.7938L15.2634 15.2635ZM15.7937 0.590986L22.8648 7.66205L21.8041 8.72271L14.7331 1.65165L15.7937 0.590986ZM12.6118 2.71231L14.7331 0.590986L15.7937 1.65165L13.6724 3.77297L12.6118 2.71231ZM12.9653 2.0052L13.6724 2.71231L12.6118 3.77297L11.9046 3.06586L12.9653 2.0052ZM9.07622 2.0052C10.1502 0.931258 11.8914 0.931258 12.9653 2.0052L11.9046 3.06586C11.4165 2.5777 10.625 2.5777 10.1369 3.06586L9.07622 2.0052ZM9.07622 5.89429C8.00228 4.82035 8.00228 3.07914 9.07622 2.0052L10.1369 3.06586C9.64873 3.55402 9.64872 4.34547 10.1369 4.83363L9.07622 5.89429ZM9.78333 6.60139L9.07622 5.89429L10.1369 4.83363L10.844 5.54073L9.78333 6.60139ZM7.66201 7.66205L9.78333 5.54073L10.844 6.60139L8.72267 8.72271L7.66201 7.66205ZM9.78333 10.844L7.66201 8.72271L8.72267 7.66205L10.844 9.78337L9.78333 10.844ZM11.5511 10.1369L10.844 10.844L9.78333 9.78337L10.4904 9.07627L11.5511 10.1369ZM13.3189 10.1369C12.8307 9.64877 12.0393 9.64877 11.5511 10.1369L10.4904 9.07627C11.5644 8.00233 13.3056 8.00233 14.3795 9.07627L13.3189 10.1369ZM13.3189 11.9047C13.807 11.4165 13.807 10.6251 13.3189 10.1369L14.3795 9.07627C15.4535 10.1502 15.4535 11.8914 14.3795 12.9654L13.3189 11.9047ZM12.6118 12.6118L13.3189 11.9047L14.3795 12.9654L13.6724 13.6725L12.6118 12.6118ZM14.7331 15.7938L12.6118 13.6725L13.6724 12.6118L15.7937 14.7331L14.7331 15.7938ZM22.8648 8.72271L15.7937 15.7938L14.7331 14.7331L21.8041 7.66205L22.8648 8.72271Z" fill="#8D8D9B"/>
</g>
</g>
</svg>
