<svg width="24" height="24" viewBox="0 0 24 24" fill="none" xmlns="http://www.w3.org/2000/svg">
<g id="Icon/Tab" clip-path="url(#clip0_1575_1096)">
<g id="Union">
<path d="M12 8.62292L19.4934 2C21.3229 4.06991 21.128 7.22832 19.0579 9.0579C16.9878 10.8875 13.8294 10.6928 12 8.62292Z" fill="#BFD4FF"/>
<path d="M12 8.62292L11.5033 8.06095L10.9413 8.55763L11.438 9.1196L12 8.62292ZM19.4934 2L20.0554 1.50332L19.5587 0.941351L18.9967 1.43803L19.4934 2ZM12.4967 9.18488L19.9901 2.56197L18.9967 1.43803L11.5033 8.06095L12.4967 9.18488ZM18.9314 2.49668C20.4865 4.25619 20.321 6.94063 18.5612 8.49594L19.5546 9.61987C21.935 7.51601 22.1592 3.88363 20.0554 1.50332L18.9314 2.49668ZM18.5612 8.49594C16.8015 10.0512 14.117 9.88574 12.5619 8.12623L11.438 9.1196C13.5418 11.4999 17.1742 11.7237 19.5546 9.61987L18.5612 8.49594Z" fill="#8D8D9B"/>
</g>
<g id="Union_2">
<path d="M12.058 8.62292L4.56458 2C2.73513 4.06991 2.93002 7.22832 5.00008 9.0579C7.07014 10.8875 10.2286 10.6928 12.058 8.62292Z" fill="#BFD4FF"/>
<path d="M12.058 8.62292L12.5547 8.06095L13.1167 8.55763L12.62 9.1196L12.058 8.62292ZM4.56458 2L4.00261 1.50332L4.49929 0.941351L5.06126 1.43803L4.56458 2ZM11.5613 9.18488L4.06789 2.56197L5.06126 1.43803L12.5547 8.06095L11.5613 9.18488ZM5.12654 2.49668C3.57144 4.25619 3.73703 6.94063 5.49676 8.49594L4.5034 9.61987C2.12301 7.51601 1.89882 3.88363 4.00261 1.50332L5.12654 2.49668ZM5.49676 8.49594C7.2565 10.0512 9.94094 9.88574 11.496 8.12623L12.62 9.1196C10.5162 11.4999 6.88379 11.7237 4.5034 9.61987L5.49676 8.49594Z" fill="#8D8D9B"/>
</g>
<rect id="Rectangle 110" x="20" y="6" width="15" height="16" rx="1" transform="rotate(90 20 6)" fill="#BFD4FF" stroke="#8D8D9B" stroke-width="1.5"/>
<rect id="Rectangle 114" x="4" y="17" width="16" height="6" rx="3" fill="#BFD4FF" stroke="#8D8D9B" stroke-width="1.5"/>
<circle id="Ellipse 3515" cx="10" cy="20" r="1" fill="#8D8D9B"/>
<circle id="Ellipse 3516" cx="14" cy="20" r="1" fill="#8D8D9B"/>
<path id="Rectangle 109" d="M20 7C21.6569 7 23 8.34315 23 10C23 11.6569 21.6569 13 20 13V7Z" fill="#BFD4FF" stroke="#8D8D9B" stroke-width="1.5"/>
<path id="Rectangle 115" d="M4 7C2.34315 7 1 8.34315 1 10C1 11.6569 2.34315 13 4 13V7Z" fill="#BFD4FF" stroke="#8D8D9B" stroke-width="1.5"/>
<circle id="Ellipse 3517" cx="7" cy="12" r="1" fill="#8D8D9B"/>
<circle id="Ellipse 3518" cx="17" cy="12" r="1" fill="#8D8D9B"/>
</g>
<defs>
<clipPath id="clip0_1575_1096">
<rect width="24" height="24" fill="white"/>
</clipPath>
</defs>
</svg>
