<svg width="24" height="24" viewBox="0 0 24 24" fill="none" xmlns="http://www.w3.org/2000/svg">
<g clip-path="url(#clip0_584_15205)">
<path d="M12 8.62292L19.4934 2C21.3229 4.06991 21.128 7.22832 19.0579 9.0579C16.9878 10.8875 13.8294 10.6928 12 8.62292Z" fill="#FAEC23"/>
<path d="M12 8.62292L11.5033 8.06095L10.9413 8.55763L11.438 9.1196L12 8.62292ZM19.4934 2L20.0554 1.50332L19.5587 0.941351L18.9967 1.43803L19.4934 2ZM12.4967 9.18488L19.9901 2.56197L18.9967 1.43803L11.5033 8.06095L12.4967 9.18488ZM18.9314 2.49668C20.4865 4.25619 20.321 6.94063 18.5612 8.49594L19.5546 9.61987C21.935 7.51601 22.1592 3.88363 20.0554 1.50332L18.9314 2.49668ZM18.5612 8.49594C16.8015 10.0512 14.117 9.88574 12.5619 8.12623L11.438 9.1196C13.5418 11.4999 17.1742 11.7237 19.5546 9.61987L18.5612 8.49594Z" fill="#171717"/>
<path d="M12.0579 8.62292L4.56445 2C2.73501 4.06991 2.92989 7.22832 4.99996 9.0579C7.07002 10.8875 10.2284 10.6928 12.0579 8.62292Z" fill="#FAEC23"/>
<path d="M12.0579 8.62292L12.5546 8.06095L13.1165 8.55763L12.6199 9.1196L12.0579 8.62292ZM4.56445 2L4.00249 1.50332L4.49917 0.941351L5.06114 1.43803L4.56445 2ZM11.5612 9.18488L4.06777 2.56197L5.06114 1.43803L12.5546 8.06095L11.5612 9.18488ZM5.12642 2.49668C3.57132 4.25619 3.7369 6.94063 5.49664 8.49594L4.50327 9.61987C2.12289 7.51601 1.8987 3.88363 4.00249 1.50332L5.12642 2.49668ZM5.49664 8.49594C7.25637 10.0512 9.94082 9.88574 11.4959 8.12623L12.6199 9.1196C10.5161 11.4999 6.88366 11.7237 4.50327 9.61987L5.49664 8.49594Z" fill="#171717"/>
<rect x="20" y="6" width="15" height="16" rx="1" transform="rotate(90 20 6)" fill="#97BAFE" stroke="#171717" stroke-width="1.5"/>
<rect x="4" y="17" width="16" height="6" rx="3" fill="#FAEC23" stroke="#171717" stroke-width="1.5"/>
<circle cx="10" cy="20" r="1" fill="#171717"/>
<circle cx="14" cy="20" r="1" fill="#171717"/>
<path d="M20 7C21.6569 7 23 8.34315 23 10C23 11.6569 21.6569 13 20 13V7Z" fill="#97BAFE" stroke="#171717" stroke-width="1.5"/>
<path d="M4 7C2.34315 7 1 8.34315 1 10C1 11.6569 2.34315 13 4 13V7Z" fill="#97BAFE" stroke="#171717" stroke-width="1.5"/>
<circle cx="7" cy="12" r="1" fill="#171717"/>
<circle cx="17" cy="12" r="1" fill="#171717"/>
</g>
<defs>
<clipPath id="clip0_584_15205">
<rect width="24" height="24" fill="white"/>
</clipPath>
</defs>
</svg>
