<svg width="24" height="24" viewBox="0 0 24 24" fill="none" xmlns="http://www.w3.org/2000/svg">
<rect x="2" y="8" width="20" height="14" fill="white" stroke="#171717" stroke-width="1.5"/>
<rect x="2" y="3" width="20" height="5" fill="#97BAFE" stroke="#171717" stroke-width="1.5"/>
<line x1="6" y1="1" x2="6" y2="5" stroke="#171717" stroke-width="2"/>
<line x1="18" y1="1" x2="18" y2="5" stroke="#171717" stroke-width="2"/>
<path d="M11.0866 11.0491C11.439 10.2586 12.561 10.2586 12.9134 11.0491L13.4227 12.1918C13.5681 12.5178 13.8762 12.7416 14.2311 12.7791L15.4753 12.9104C16.336 13.0013 16.6827 14.0684 16.0398 14.6478L15.1104 15.4853C14.8453 15.7243 14.7276 16.0865 14.8017 16.4356L15.0612 17.6595C15.2408 18.5061 14.3331 19.1656 13.5834 18.7332L12.4996 18.1082C12.1904 17.9298 11.8096 17.9298 11.5004 18.1082L10.4166 18.7332C9.66692 19.1656 8.75919 18.5061 8.93876 17.6595L9.19835 16.4356C9.27241 16.0865 9.15473 15.7243 8.88956 15.4853L7.96019 14.6478C7.31727 14.0684 7.66399 13.0013 8.52468 12.9104L9.76886 12.7791C10.1238 12.7416 10.4319 12.5178 10.5773 12.1918L11.0866 11.0491Z" fill="#FAEC23" stroke="#171717" stroke-width="1.5"/>
</svg>
